<svg width="39" height="68" viewBox="0 0 39 68" fill="none" xmlns="http://www.w3.org/2000/svg">
<path d="M18.2355 0.824707C17.81 1.0962 17.3419 1.33696 16.8823 1.6187C16.4227 1.90044 15.9632 2.13096 15.4951 2.37684C15.027 2.62273 14.5504 2.8891 14.0695 3.10425C13.5887 3.31939 13.0993 3.5704 12.6099 3.80091L11.3759 4.34903C10.9503 4.52832 10.5461 4.70249 10.129 4.86128C9.712 5.02008 9.27795 5.19937 8.85241 5.37354C8.42687 5.54771 8.00133 5.69114 7.5758 5.83969L6.3928 6.2495L5.36299 6.58247L4.51191 6.83859L3.8268 7.02813L3.30338 7.16644L2.83529 7.27913L2.43954 7.3611L2.12891 7.41232L5.16725 8.7698L5.47789 8.71858L5.87364 8.63661L6.33748 8.52904L6.86089 8.39073C7.05664 8.3395 7.28644 8.27803 7.54176 8.2012C7.79708 8.12436 8.08645 8.0424 8.39284 7.94507C8.69922 7.84774 9.05241 7.74016 9.41837 7.61722C9.78434 7.49428 10.1843 7.36109 10.6014 7.21254C11.0184 7.06399 11.4525 6.91031 11.8567 6.75151C12.261 6.59271 12.7078 6.42879 13.1078 6.23925C13.5078 6.04972 13.9589 5.90117 14.3546 5.727C14.7504 5.55283 15.1759 5.36842 15.5802 5.18401C16.0738 4.95861 16.5589 4.7281 17.0355 4.49246C17.5164 4.25682 17.9887 4.01606 18.4568 3.77018C18.9249 3.5243 19.3845 3.25792 19.8398 3.01716C20.2951 2.7764 20.7462 2.50491 21.1888 2.23341L18.2355 0.824707Z" fill="#A683FF"/>
<path d="M15.2683 66.1119C15.1322 65.9633 14.9917 65.8097 14.8428 65.6406L14.4173 65.1284H14.396C14.264 64.9644 14.1279 64.7954 13.996 64.6161L13.8853 64.4778C13.7662 64.3241 13.647 64.1704 13.5279 64.0065L13.4683 63.9246C13.3194 63.7299 13.1704 63.525 13.0215 63.315L12.9236 63.1767L12.5747 62.6644L12.4981 62.5466C12.1959 62.1061 11.8938 61.6501 11.5959 61.1891C11.1732 60.53 10.7633 59.8555 10.3661 59.1657V59.1401C9.98313 58.4844 9.61717 57.8133 9.26397 57.1372C9.24269 57.0911 9.21716 57.0501 9.19588 57.0091C8.84269 56.3278 8.50227 55.6414 8.17035 54.9601L8.13204 54.8781C7.80012 54.161 7.47672 53.4387 7.17033 52.7061C6.97884 52.2502 6.79585 51.7892 6.61712 51.3333C6.45116 50.903 6.28945 50.4727 6.13626 50.0373L6.0001 49.6531C5.89371 49.3509 5.78732 49.0435 5.68945 48.7413C5.63413 48.5876 5.58733 48.4288 5.53626 48.2751C5.44264 47.9883 5.35328 47.7065 5.26817 47.4197L5.12774 46.9535C5.04688 46.6871 4.97455 46.4413 4.89795 46.1493C4.82136 45.8573 4.79156 45.7702 4.74475 45.5807C4.67241 45.3092 4.60433 45.0326 4.53624 44.7611C4.48943 44.5818 4.44262 44.4025 4.40007 44.2488L4.1958 43.3421C4.16602 43.1936 4.12773 43.045 4.09794 42.8913C4.00432 42.4405 3.91496 41.9897 3.83411 41.539C3.75325 41.0882 3.65112 40.5145 3.57452 39.9663C3.54899 39.7973 3.52771 39.6231 3.50643 39.4541C3.45537 39.1126 3.40857 38.7591 3.36601 38.3937L3.30218 37.7841C3.26814 37.4614 3.23835 37.1387 3.20856 36.8211C3.20856 36.6059 3.17452 36.3959 3.16175 36.1808C3.14047 35.8683 3.1192 35.5507 3.10218 35.2331C3.10218 35.0231 3.0809 34.813 3.07239 34.5979L3.04686 33.64C3.04686 33.4351 3.04686 33.2353 3.04686 33.0304C3.04686 32.6872 3.04686 32.344 3.04686 32.0059C3.04686 31.8317 3.04686 31.6524 3.04686 31.4936C3.04686 31.0326 3.07664 30.5716 3.10643 30.1105C3.10643 30.0542 3.10643 29.9978 3.10643 29.9415C3.14047 29.3985 3.18303 28.8555 3.2341 28.3176L5.15753 8.03741L2.15322 6.6748L0.187238 26.9909C0.187238 27.1292 0.161698 27.2624 0.153188 27.3956C0.144677 27.5288 0.127661 27.6671 0.11915 27.8003C0.11064 27.9334 0.0978702 28.0717 0.0893595 28.2049C0.0808487 28.3381 0.0893564 28.4764 0.0595687 28.6147C0.0595687 28.6711 0.0595687 28.7223 0.0595687 28.7787C0.0340363 29.2448 0.0127662 29.711 0 30.172C0 30.2079 0 30.2437 0 30.2796C0 30.423 0 30.5664 0 30.7099C0 30.9711 0 31.2221 0 31.5039C0 31.5858 0 31.6678 0 31.7446C0 31.9495 0 32.1544 0 32.3593C0 32.6769 -1.03834e-06 32.9997 0.0255313 33.3224C0.0255313 33.4197 0.0255313 33.5119 0.0255313 33.6092C0.0255313 33.7066 0.0255313 33.8449 0.0255313 33.9627C0.0255313 34.0805 0.0255261 34.2752 0.046803 34.4288C0.0680799 34.5825 0.0723426 34.7516 0.0808534 34.9411L0.131916 35.5814C0.157448 35.9041 0.191488 36.232 0.221275 36.5547C0.221275 36.6981 0.24681 36.8365 0.263832 36.9799C0.263832 37.0414 0.263827 37.1028 0.285104 37.1643L0.310648 37.3897C0.344691 37.6714 0.38724 37.948 0.425539 38.2298C0.425539 38.404 0.468094 38.5781 0.493626 38.742C0.570223 39.2543 0.655325 39.7973 0.753199 40.3249C0.829796 40.7603 0.914902 41.1906 1.00426 41.626V41.6875C1.03405 41.8361 1.0681 41.9897 1.10214 42.1383L1.27662 42.9323C1.27662 42.9682 1.2979 43.0091 1.30641 43.0501L1.33194 43.1577C1.36598 43.3011 1.40428 43.4446 1.43832 43.588C1.47237 43.7314 1.54471 44.0183 1.60003 44.2334C1.60003 44.2949 1.63407 44.3564 1.64683 44.4127C1.6979 44.6074 1.75321 44.7969 1.80428 44.9864L1.95322 45.5346L2.03407 45.7958L2.08514 45.9905L2.1745 46.2671L2.30217 46.6974C2.34472 46.8408 2.39579 46.9791 2.43834 47.1226L2.59153 47.5938C2.62132 47.6809 2.64685 47.7731 2.67664 47.8602C2.74898 48.0754 2.82983 48.2905 2.90218 48.5056L3.0043 48.8079C3.01741 48.8376 3.02878 48.8684 3.03834 48.9001C3.05428 48.9367 3.06849 48.9743 3.0809 49.0128C3.22132 49.4021 3.36175 49.7863 3.50643 50.1705V50.2012L3.62558 50.5137L3.76602 50.8723C3.81708 50.9901 3.86389 51.1079 3.9107 51.2257L4.05964 51.5843C4.14901 51.7943 4.23411 52.0044 4.32347 52.2093L4.59581 52.8342L4.87667 53.454L5.02561 53.7665C5.02401 53.7818 5.02401 53.7973 5.02561 53.8126V53.8485L5.12774 54.0688C5.26391 54.3556 5.40434 54.6425 5.55327 54.9293L5.97881 55.7797C6.00434 55.8309 6.02988 55.8821 6.05967 55.9334L6.0852 55.9846L6.12349 56.0563C6.22137 56.2458 6.31925 56.4354 6.42138 56.6198C6.57031 56.9015 6.72351 57.1781 6.87671 57.4548L7.2299 58.0746L7.25118 58.1053C7.37884 58.3307 7.51076 58.5561 7.64693 58.7764C7.7831 58.9967 7.91502 59.222 8.04694 59.4423L8.47248 60.1031L8.52354 60.18L8.5746 60.2619L8.62566 60.3388L8.67673 60.4207L9.10226 61.0457C9.19588 61.1891 9.29376 61.3274 9.38738 61.4657L9.42994 61.5272L9.46823 61.5835L9.51504 61.6553L9.81292 62.0804L9.91504 62.2239L10.3406 62.7874L10.3619 62.8181L10.4087 62.8744C10.4909 62.9871 10.5718 63.0947 10.6512 63.1972C10.6895 63.2535 10.7321 63.3047 10.7704 63.356L10.8768 63.4943L10.9661 63.607C11.0683 63.7401 11.1746 63.8682 11.2768 63.9963L11.5534 64.3292L11.6981 64.4983L11.8385 64.6622L11.9789 64.821L12.1151 64.9696L15.2683 66.1119Z" fill="#A683FF"/>
<path d="M33.7775 6.53162L33.4584 6.49576L33.0328 6.42916C32.8839 6.42916 32.7222 6.37794 32.552 6.34208L32.0201 6.23451L31.3264 6.07571L30.4754 5.86056C30.1605 5.7786 29.82 5.68639 29.4541 5.57882C29.0881 5.47124 28.7009 5.35855 28.2881 5.23048C27.8753 5.10242 27.4668 4.96923 27.0583 4.83092L25.8412 4.40063L24.6497 3.94472L23.4795 3.4632L23.054 3.27367L22.6284 3.07901L22.2029 2.88435L21.7773 2.68457L22.1007 2.84337L22.2242 2.89972L22.4369 3.00217L22.6625 3.10974L22.8157 3.18146L22.9603 3.25317L23.122 3.33001L23.7093 3.61175L23.9944 3.75006L24.288 3.88837L24.437 3.96009H24.4753L24.7306 4.07791L25.1561 4.27769L25.5817 4.47235L26.0072 4.66188L26.4327 4.85141C26.8157 5.01534 27.203 5.17414 27.5944 5.33294L28.786 5.78884L29.9988 6.21401C30.403 6.35232 30.8158 6.49063 31.2243 6.6187C31.6328 6.74676 32.0243 6.86458 32.386 6.96703L33.4073 7.24877L34.2584 7.46392L34.9478 7.62272L35.4797 7.73029L35.9563 7.81738L36.3818 7.88397L36.701 7.91983L33.7775 6.53162Z" fill="#A683FF"/>
<path opacity="0.3" d="M19.6846 0.353507L19.6208 0.640371C20.008 0.876009 20.4038 1.10652 20.8123 1.33192C21.2208 1.55731 21.6378 1.7827 22.0676 2.00297C22.4974 2.22324 22.9187 2.43327 23.3783 2.64329C23.8379 2.85332 24.2804 3.05822 24.7442 3.258L25.9145 3.73952L27.106 4.19543L28.323 4.62572C28.7486 4.76403 29.1401 4.89722 29.5528 5.02528C29.9656 5.15335 30.3528 5.27117 30.7188 5.37362C31.0848 5.47607 31.4252 5.5734 31.7401 5.65536L32.5912 5.87051L33.2848 6.02931L33.8167 6.13688C33.9869 6.17274 34.1487 6.20347 34.2976 6.22396L34.7231 6.29056L35.0423 6.32641L33.1572 27.3289C33.055 28.461 32.9146 29.5982 32.7316 30.7405C32.5486 31.8829 32.3061 33.0303 32.055 34.1778C31.8039 35.3252 31.4763 36.4778 31.1273 37.6304C30.7784 38.783 30.3869 39.9253 29.9571 41.0728C29.5954 42.0409 29.1996 43.004 28.7826 43.9721C28.3656 44.9403 27.9315 45.8931 27.4422 46.851C26.9528 47.8089 26.4634 48.7566 25.9358 49.6992C25.4081 50.6417 24.8591 51.574 24.2804 52.5012C23.8123 53.2491 23.3315 53.9919 22.8421 54.7193C22.3527 55.4467 21.8463 56.1587 21.3272 56.8656C20.808 57.5725 20.2889 58.259 19.7527 58.9146C19.2165 59.5703 18.6676 60.2516 18.1144 60.8971C17.7101 61.3683 17.3016 61.8242 16.8931 62.2699C16.4845 62.7156 16.0888 63.1356 15.6973 63.5352C15.3058 63.9347 14.9186 64.3138 14.5526 64.6621C14.1866 65.0105 13.8334 65.323 13.5058 65.6047C13.2292 65.3025 12.9398 64.9644 12.6547 64.5802C12.3696 64.196 12.0462 63.8118 11.7313 63.3918C11.4164 62.9717 11.1015 62.526 10.7866 62.065C10.4717 61.604 10.1525 61.1276 9.84188 60.6409C9.41918 59.975 9.00783 59.292 8.60782 58.5919C8.20782 57.9004 7.82484 57.1935 7.45462 56.4814C7.0844 55.7694 6.72694 55.042 6.38225 54.3095C6.03757 53.5769 5.71416 52.8342 5.39926 52.0811C5.01202 51.154 4.65456 50.2216 4.31839 49.2893C3.98221 48.357 3.68009 47.4145 3.39924 46.4719C3.11838 45.5294 2.87156 44.5868 2.64602 43.6392C2.42049 42.6915 2.22049 41.7489 2.05453 40.8064C1.85027 39.6897 1.68715 38.5729 1.56516 37.4562C1.44176 36.3395 1.35239 35.2228 1.30558 34.1112C1.25877 32.9996 1.246 31.888 1.27579 30.7815C1.30558 29.6751 1.37366 28.5737 1.47579 27.4775L3.42051 7.18701L3.73116 7.13578L4.1269 7.05382L4.595 6.94112L5.1184 6.80281L5.80353 6.61328L6.6546 6.35715L7.6844 6.02418L8.8674 5.61438C9.29294 5.46582 9.71847 5.30702 10.144 5.14823C10.5696 4.98943 10.9951 4.82038 11.4206 4.63597C11.8462 4.45156 12.2717 4.29276 12.6675 4.12371L13.9015 3.5756C14.3909 3.34508 14.8803 3.11457 15.3611 2.87893C15.842 2.64329 16.3143 2.40253 16.7782 2.15665C17.242 1.91077 17.7058 1.64439 18.1569 1.40363C18.608 1.16287 19.0505 0.891375 19.4846 0.625002V0.343262L19.5569 0.522553L19.6846 0.353507Z" fill="#A683FF"/>
<path d="M35.4971 5.73218L33.5651 27.3084C33.5141 27.877 33.4502 28.4456 33.3779 29.0193V29.0398C33.3098 29.5931 33.229 30.1514 33.1396 30.7047C33.1396 30.7508 33.1396 30.7969 33.1183 30.843C33.029 31.3962 32.9268 31.9443 32.8204 32.4976C32.7098 33.061 32.5864 33.6194 32.4545 34.1829C32.4564 34.2153 32.4564 34.2478 32.4545 34.2802C32.3268 34.8335 32.1864 35.3867 32.0289 35.9399C32.0289 35.9707 32.0289 36.0014 32.0077 36.0321C31.8545 36.5854 31.697 37.1386 31.5311 37.697L31.5055 37.784C31.3353 38.3373 31.1523 38.8956 30.9651 39.454C30.9651 39.454 30.9651 39.5001 30.9438 39.5206C30.7481 40.0943 30.5438 40.668 30.3268 41.2367C30.1481 41.7182 29.9608 42.1946 29.7693 42.671L29.731 42.7581C29.548 43.214 29.3566 43.6647 29.1608 44.1155L29.1225 44.2077C28.9183 44.6739 28.697 45.14 28.4927 45.6011L28.4544 45.683C28.2502 46.1287 28.0289 46.5744 27.8161 47.0149C27.7906 47.061 27.7693 47.1071 27.748 47.1532C27.5267 47.5989 27.2969 48.0445 27.0629 48.4851L27.0289 48.5568C26.7821 49.023 26.5267 49.4891 26.2671 49.9553L26.2459 49.9962C25.9863 50.4521 25.7267 50.9132 25.4544 51.3691L25.4246 51.4203C25.1522 51.8813 24.8714 52.3424 24.5735 52.8034C24.1139 53.541 23.6373 54.2685 23.1565 54.9856L23.0756 55.1034C22.6075 55.7864 22.1266 56.4694 21.633 57.1525L21.5394 57.2856C21.0401 57.9687 20.5323 58.6329 20.016 59.2783L19.9692 59.3398C19.4387 60.0057 18.8968 60.6597 18.3436 61.3017C17.9181 61.7832 17.5138 62.2494 17.101 62.7002C17.0761 62.7319 17.0491 62.761 17.0202 62.7873C16.901 62.9205 16.7819 63.0434 16.6627 63.1715L16.3563 63.4993L16.0415 63.822C15.9436 63.9245 15.8415 64.0321 15.7393 64.1294L15.4372 64.4367L15.1436 64.7236L14.8499 65.0053C14.7521 65.0976 14.6585 65.1898 14.5648 65.2717C14.4712 65.3537 14.2584 65.5586 14.1095 65.6918L14.0669 65.7276L13.5563 66.1682L13.4414 66.2604L16.4798 67.2849L16.5946 67.1927L16.8159 67.0031L17.0457 66.8085L17.101 66.7573L17.1479 66.7163L17.2798 66.5985L17.5181 66.3782L17.5989 66.3065L17.6755 66.2399L17.8798 66.0401L18.0883 65.8454L18.1734 65.7584L18.467 65.4715L18.684 65.2615L18.7692 65.1693L18.8543 65.0873L19.0713 64.8619L19.2926 64.6416L19.3819 64.5443L19.6926 64.2165L19.9096 63.986L20.0458 63.8374L20.1011 63.7811L20.1266 63.7503L20.2756 63.5915L20.6373 63.1868L20.999 62.777L21.3649 62.3621L21.6458 62.0291L21.9266 61.6962L22.2075 61.3632L22.4884 61.02C22.6543 60.8202 22.816 60.6153 22.9777 60.4104L23.0118 60.3745L23.0671 60.3079L23.6501 59.5652C23.8416 59.3142 24.0331 59.0529 24.2203 58.807L24.5309 58.3921L24.582 58.3204C24.5973 58.3029 24.6116 58.2841 24.6246 58.2641L24.7863 58.0438C24.9607 57.8081 25.131 57.5674 25.2969 57.3317L25.8033 56.6095L26.0586 56.2304L26.1012 56.1689L26.1395 56.1177C26.1906 56.0409 26.2459 55.964 26.2969 55.8821C26.4586 55.6413 26.6246 55.3954 26.782 55.1495L26.9778 54.8473L27.1693 54.5502L27.3608 54.248L27.5523 53.9457L27.7906 53.5615L28.0246 53.1722C28.1055 53.0442 28.1821 52.9161 28.2587 52.7829L28.3863 52.5729L28.4161 52.5217L28.4927 52.3936L28.8672 51.7482C28.9821 51.5484 29.0927 51.3537 29.1991 51.1591V51.1283L29.5608 50.4726L29.9098 49.8169C29.92 49.7973 29.9314 49.7784 29.9438 49.7606C29.9535 49.7356 29.9649 49.7116 29.9778 49.6889L30.2332 49.2022L30.5523 48.5824C30.5864 48.5056 30.6204 48.4339 30.6587 48.3621C30.6686 48.3405 30.6799 48.3199 30.6927 48.3007C30.6927 48.2751 30.714 48.2546 30.7225 48.229C30.731 48.2033 30.8162 48.0497 30.8587 47.9575L31.1608 47.3376L31.3651 46.9022L31.3991 46.8254L31.4374 46.7434L31.7098 46.1492L31.9779 45.555C31.9779 45.5191 32.0077 45.4781 32.0247 45.4423V45.4064L32.0502 45.345L32.2162 44.9556C32.3013 44.7661 32.3821 44.5766 32.4587 44.3819L32.6162 44.0028L32.6502 43.9158L32.697 43.8082C32.7736 43.6135 32.8502 43.424 32.9226 43.2293C32.9949 43.0347 33.0715 42.8451 33.1481 42.6556V42.6146V42.5736V42.5327V42.4917C33.2162 42.3124 33.28 42.1382 33.3439 41.9794L33.5353 41.4672C33.5992 41.2879 33.6588 41.1137 33.7183 40.9549C33.7307 40.9164 33.7449 40.8788 33.7609 40.8422L33.7822 40.7705L33.9013 40.4273C33.9609 40.2326 34.0247 40.0431 34.0843 39.8536C34.1439 39.664 34.2077 39.4745 34.2673 39.2798L34.3183 39.1108V39.0749V39.0237L34.412 38.7112C34.4715 38.5217 34.5269 38.327 34.5779 38.1375C34.629 37.948 34.6886 37.7431 34.7439 37.5484C34.7439 37.4921 34.7737 37.4306 34.7907 37.3742L34.8162 37.282C34.846 37.1693 34.8758 37.0618 34.9013 36.9542L35.0545 36.3651L35.3354 35.6992C35.3354 35.6479 35.3566 35.6018 35.3694 35.5557C35.3713 35.5422 35.3713 35.5283 35.3694 35.5148V35.4584L35.4588 35.0691C35.5056 34.8591 35.5524 34.649 35.5949 34.439C35.6375 34.229 35.6843 34.019 35.7269 33.8089V33.7577C35.7652 33.5682 35.8035 33.3735 35.8375 33.1789C35.8716 32.9842 35.9226 32.7127 35.9609 32.4771C35.9822 32.3593 36.0035 32.2363 36.0205 32.1134V32.0417C36.0225 32.0212 36.0225 32.0006 36.0205 31.9802C36.0205 31.9136 36.046 31.847 36.0545 31.7753C36.0928 31.5448 36.1269 31.3091 36.1609 31.0735C36.195 30.8379 36.2248 30.6073 36.2545 30.3768V30.2949C36.2545 30.1719 36.2843 30.049 36.3013 29.926C36.3184 29.8031 36.3354 29.6289 36.3482 29.4804C36.3609 29.3318 36.3822 29.1833 36.395 29.0347C36.4077 28.8862 36.4248 28.7376 36.4375 28.5891L38.3482 7.15113L35.4971 5.73218Z" fill="#A683FF"/>
<path style="mix-blend-mode:screen" opacity="0.8" d="M33.7549 20.6647L35.0315 6.32154L34.7123 6.28568L34.2868 6.21909C34.1378 6.21909 33.9761 6.16786 33.8059 6.132L33.274 6.02443L32.5804 5.86563L31.7293 5.65048C31.4144 5.56852 31.074 5.47632 30.708 5.36874C30.342 5.26117 29.9548 5.14847 29.542 5.02041C29.1293 4.89234 28.7207 4.75916 28.3122 4.62085L27.0952 4.19055L25.9037 3.73464L24.7334 3.25312C24.2682 3.05164 23.8129 2.84673 23.3675 2.63842C22.9419 2.42839 22.4866 2.21324 22.0568 1.9981C21.627 1.78295 21.2057 1.55756 20.8015 1.32704C20.3972 1.09653 19.9972 0.871133 19.61 0.635495L19.6738 0.348633L19.5036 0.538167L19.4312 0.358876V0.640619C19.0057 0.906992 18.5546 1.15288 18.1035 1.41925C17.6525 1.68562 17.1929 1.9315 16.7248 2.17226C16.2567 2.41302 15.7844 2.65891 15.3078 2.89454C14.8312 3.13018 14.3375 3.3607 13.8482 3.59121L12.6141 4.13933C12.1886 4.31862 11.7843 4.49278 11.3673 4.65158C10.9503 4.81038 10.5162 4.98967 10.0907 5.16384C9.66513 5.33801 9.23959 5.48144 8.81405 5.62999L7.63105 6.0398L6.60124 6.37276L5.75016 6.62889L5.06504 6.81843L4.54164 6.95674L4.07354 7.06943L3.67779 7.15139L3.36715 7.20262L1.45648 27.5033C1.35435 28.5996 1.28627 29.706 1.25648 30.8074C1.22669 31.9087 1.25648 33.0254 1.28627 34.137C1.31606 35.2486 1.42244 36.3654 1.54584 37.4821C1.66925 38.5988 1.83095 39.7155 2.03521 40.8322C2.20117 41.7748 2.40118 42.7225 2.62671 43.665C2.67778 43.8904 2.74161 44.1209 2.79693 44.3463C10.6098 32.3493 21.2398 23.3643 33.7549 20.6647Z" fill="url(#paint0_linear_17_1127)"/>
<path d="M35.2971 5.73727C35.2206 5.74399 35.1438 5.74399 35.0673 5.73727C34.9652 5.73727 34.8332 5.71166 34.68 5.68604C34.5268 5.66043 34.3396 5.63482 34.1311 5.59384C33.9226 5.55286 33.6843 5.50675 33.4162 5.45041L32.7311 5.29673L31.88 5.08158L30.863 4.80496C30.5012 4.70251 30.1098 4.58982 29.7012 4.46175C29.2927 4.33369 28.8842 4.2005 28.48 4.06219C28.0757 3.92388 27.6714 3.78045 27.2714 3.6319C26.8714 3.48334 26.4757 3.33479 26.0842 3.18111C25.6927 3.02743 25.3054 2.86351 24.9224 2.70471C24.4629 2.50493 24.0075 2.30003 23.565 2.09513C23.1224 1.89023 22.6884 1.67508 22.2628 1.45993C21.8373 1.24478 21.4117 1.02451 21.0202 0.799118C20.6287 0.573726 20.2202 0.348334 19.8372 0.117819L19.5649 0L19.3479 0.128064C18.9167 0.387607 18.4784 0.643735 18.033 0.896448C17.5862 1.14745 17.1308 1.4087 16.667 1.64434C16.2032 1.87998 15.7351 2.12586 15.2585 2.3615C14.7819 2.59714 14.2967 2.82765 13.8074 3.05305C13.4031 3.24258 12.9946 3.42187 12.5818 3.60116C12.169 3.78045 11.7563 3.95462 11.3435 4.11342L10.0924 4.62567C9.66688 4.78959 9.24134 4.94327 8.84133 5.09183C8.44133 5.24038 8.02856 5.37357 7.66259 5.49651C7.29663 5.61945 6.9562 5.73215 6.6413 5.82947L5.79023 6.0856L5.11362 6.27514L4.41147 6.45443L3.84551 6.55176L3.47104 6.62347C3.39735 6.62908 3.32345 6.62908 3.24976 6.62347H3.05826L1.07101 27.503C0.964621 28.6146 0.89653 29.7365 0.866742 30.8583C0.836954 31.9802 0.845468 33.1122 0.896533 34.2392C0.947597 35.3662 1.02844 36.5034 1.15611 37.6355C1.28377 38.7676 1.44973 39.9048 1.65399 41.0368C1.82421 41.9948 2.02421 42.9476 2.24974 43.9055C2.47528 44.8634 2.73485 45.8162 3.01571 46.769C3.29656 47.7218 3.60722 48.6695 3.94339 49.6171C4.27957 50.5648 4.64127 51.5022 5.03277 52.4397C5.34767 53.1978 5.67958 53.9764 6.02427 54.6885C6.36895 55.4005 6.73067 56.1587 7.10514 56.8809C7.47961 57.6032 7.86685 58.3101 8.27111 59.0068C8.67537 59.7035 9.08815 60.395 9.51369 61.0558C9.8371 61.5681 10.1648 62.0803 10.4967 62.5362C10.8286 62.9921 11.1563 63.4788 11.4797 63.9142C11.8031 64.3496 12.1265 64.7594 12.4371 65.1385C12.7478 65.5176 13.0499 65.8608 13.335 66.163L13.4329 66.2655L13.5478 66.1733C13.8882 65.8864 14.2499 65.5637 14.6329 65.2102C15.0159 64.8568 15.4117 64.4674 15.8202 64.0525C16.2287 63.6376 16.6457 63.197 17.067 62.736C17.4883 62.275 17.9181 61.7986 18.3436 61.3068C18.911 60.658 19.4628 59.9903 19.999 59.3039C20.5351 58.6175 21.0656 57.9225 21.5905 57.219C22.1139 56.507 22.6203 55.7847 23.1182 55.0522C23.616 54.3196 24.1011 53.5718 24.5735 52.8136C25.1579 51.8745 25.7168 50.9285 26.2501 49.9757C26.7835 49.0229 27.2899 48.0633 27.7693 47.0968C28.2459 46.1287 28.7012 45.1605 29.1268 44.1821C29.5523 43.2037 29.9481 42.2304 30.314 41.2469C30.7509 40.0823 31.1481 38.9178 31.5055 37.7533C31.863 36.5888 32.1765 35.4208 32.446 34.2495C32.7297 33.0815 32.9594 31.9153 33.1353 30.7507C33.3226 29.593 33.4673 28.4302 33.5609 27.2828L35.4928 5.70653L35.2971 5.73727ZM31.2076 33.8601C30.9438 34.982 30.6374 36.1243 30.297 37.2513C29.9566 38.3782 29.5651 39.5154 29.1438 40.6424C28.7863 41.5901 28.3991 42.5531 27.9863 43.4957C27.5736 44.4382 27.1352 45.391 26.6629 46.3336C26.1905 47.2761 25.6969 48.2187 25.182 49.1459C24.6671 50.073 24.1139 51.0002 23.5437 51.9172C23.0841 52.6548 22.6075 53.3925 22.1224 54.1045C21.6373 54.8165 21.1394 55.5286 20.6288 56.2252C20.1181 56.9219 19.5947 57.6083 19.067 58.2743C18.5394 58.9402 17.9947 59.601 17.45 60.2311C17.0358 60.7126 16.623 61.1788 16.2117 61.6295C15.7861 62.0752 15.3946 62.5055 14.9946 62.9051C14.5946 63.3046 14.2116 63.6888 13.8499 64.0269L13.535 64.3138L13.3435 64.0884C13.0499 63.7298 12.7393 63.3354 12.4286 62.9153C12.118 62.4953 11.7988 62.0496 11.4797 61.5886C11.1605 61.1275 10.8371 60.6358 10.5307 60.1491C10.1052 59.4986 9.70517 58.8224 9.31793 58.1513C8.93069 57.4803 8.55198 56.7785 8.18601 56.1023C7.82005 55.4261 7.4711 54.6885 7.13918 53.9713C6.80726 53.2542 6.4796 52.5216 6.17321 51.7891C5.79874 50.8875 5.44128 49.9655 5.11787 49.0485C4.79446 48.1316 4.49233 47.2044 4.21999 46.2875C3.94764 45.3705 3.69658 44.4382 3.47956 43.5162C3.26253 42.5941 3.05401 41.6669 2.90082 40.75C2.70507 39.664 2.54336 38.5575 2.41996 37.4664C2.29655 36.3753 2.2157 35.2842 2.16889 34.1982C2.12208 33.1122 2.11357 32.016 2.14336 30.9454C2.17315 29.8748 2.23697 28.7786 2.3391 27.7131L4.22849 8.0373L4.65403 7.93997C4.8668 7.88875 5.10936 7.82727 5.3817 7.75043L6.07959 7.55578C6.34342 7.48406 6.63705 7.39698 6.96046 7.29453C7.27961 7.1972 7.62855 7.0845 8.00302 6.95644L9.20304 6.54663L10.4797 6.07024C10.9052 5.90631 11.3307 5.74239 11.7563 5.55798C12.1818 5.37357 12.6074 5.20964 13.0329 5.04572C13.4584 4.8818 13.884 4.68202 14.2797 4.49249C14.7819 4.26026 15.2755 4.02463 15.7606 3.78557C16.2457 3.54481 16.7266 3.27332 17.1989 3.05305C17.6713 2.83278 18.1351 2.54079 18.5947 2.28978L19.5904 1.6802C19.8798 1.84924 20.1734 2.01829 20.4713 2.19246C20.8968 2.42297 21.3224 2.65349 21.7479 2.87376C22.1735 3.09403 22.633 3.3143 23.0884 3.52432C23.5437 3.73435 24.0033 3.94949 24.4756 4.14927C24.8714 4.31832 25.2671 4.48224 25.6671 4.66153C26.0671 4.84082 26.4757 4.97401 26.8799 5.12256C27.2842 5.27112 27.7012 5.41967 28.114 5.55798C28.5268 5.69629 28.9651 5.83972 29.3651 5.96778C29.7651 6.09585 30.1821 6.21367 30.5523 6.32124C30.9225 6.42882 31.2715 6.52102 31.5906 6.6081L32.4758 6.82325L33.1864 6.98717L33.9268 7.13573H34.08L32.2843 27.1445C32.1864 28.2458 32.046 29.3728 31.8587 30.4895C31.6715 31.6062 31.4672 32.7383 31.2076 33.8601Z" fill="#A683FF"/>
<path d="M33.9352 7.10494L33.2075 6.95639L32.4968 6.79247L31.6117 6.57732C31.2926 6.49024 30.9436 6.39803 30.5734 6.29046C30.2032 6.18288 29.8074 6.07019 29.3862 5.937C28.9649 5.80381 28.5351 5.67063 28.1351 5.52719C27.7351 5.38376 27.3095 5.24545 26.901 5.09178C26.4925 4.9381 26.0882 4.78954 25.6882 4.63074C25.2882 4.47195 24.8925 4.30802 24.4967 4.11849C24.0244 3.91871 23.5605 3.70869 23.1095 3.49354C22.6584 3.27839 22.2073 3.06324 21.769 2.84297C21.3307 2.6227 20.9179 2.39219 20.4924 2.16167C20.1945 1.99775 19.9009 1.8287 19.6115 1.64941L18.586 2.24875C18.1264 2.50488 17.6626 2.76101 17.1902 3.01202C16.7179 3.26302 16.237 3.52427 15.7519 3.74454C15.2668 3.96481 14.7732 4.22094 14.271 4.45146C13.8455 4.64099 13.4412 4.8254 13.0242 5.00469C12.6072 5.18398 12.1731 5.36327 11.7476 5.51695C11.322 5.67063 10.8965 5.85504 10.471 6.02921L9.19435 6.5056L7.99433 6.91541C7.61986 7.04347 7.27091 7.15617 6.95176 7.2535C6.6326 7.35083 6.33473 7.44303 6.0709 7.51475L5.37301 7.70941C5.10067 7.78624 4.85811 7.84771 4.64534 7.89894L4.2198 7.99627L2.33041 27.6464C2.22828 28.7119 2.1602 29.7979 2.13467 30.8788C2.10913 31.9596 2.11339 33.0456 2.1602 34.1316C2.20701 35.2176 2.29211 36.3189 2.41126 37.3998C2.53042 38.4806 2.69638 39.5974 2.89213 40.6833C3.05809 41.6003 3.24957 42.5326 3.47085 43.4495C3.69213 44.3665 3.93894 45.3039 4.21128 46.2208C4.48363 47.1378 4.78577 48.0649 5.10918 48.9819C5.43259 49.8988 5.79004 50.8209 6.16452 51.7225C6.47091 52.455 6.79431 53.1926 7.13049 53.9047C7.46666 54.6167 7.8156 55.339 8.17731 56.0357C8.53902 56.7323 8.922 57.429 9.30924 58.0847C9.69648 58.7404 10.105 59.4319 10.522 60.0825C10.8284 60.5691 11.1476 61.0506 11.471 61.5219C11.7944 61.9932 12.1093 62.4337 12.4199 62.8487C12.7306 63.2636 13.0412 63.6631 13.3348 64.0217L13.5263 64.2471L13.8412 63.9603C14.2029 63.6222 14.5859 63.2482 14.9859 62.8384C15.3859 62.4286 15.7945 62.0086 16.203 61.5629C16.6115 61.1172 17.0285 60.646 17.4413 60.1644C17.986 59.5344 18.5307 58.8736 19.0583 58.2076C19.586 57.5417 20.1094 56.8553 20.6201 56.1586C21.1307 55.4619 21.6328 54.7499 22.1137 54.0379C22.5946 53.3258 23.0754 52.5882 23.535 51.8505C24.1052 50.9336 24.6542 50.0013 25.1733 49.0792C25.6925 48.1572 26.1904 47.2044 26.6542 46.2669C27.118 45.3295 27.5691 44.3716 27.9776 43.429C28.3861 42.4865 28.7776 41.5234 29.1351 40.5758C29.5606 39.4488 29.9436 38.3116 30.2883 37.1846C30.633 36.0577 30.9351 34.9153 31.199 33.7935C31.4628 32.6716 31.6841 31.5344 31.8628 30.4177C32.0415 29.301 32.1862 28.174 32.2883 27.0727L34.0841 7.06396L33.9352 7.10494ZM31.8713 27.0829C31.7734 28.1689 31.633 29.2805 31.4458 30.3819C31.2585 31.4832 31.0458 32.6102 30.7904 33.7167C30.5351 34.8231 30.2245 35.9552 29.8883 37.0668C29.5521 38.1784 29.1649 39.3105 28.7478 40.4272C28.3946 41.3646 28.0074 42.3174 27.6031 43.2497C27.1989 44.182 26.7521 45.1297 26.2882 46.0672C25.8244 47.0046 25.335 47.9318 24.8201 48.8538C24.3052 49.7759 23.7605 50.6979 23.1946 51.6046C22.7392 52.332 22.2669 53.0646 21.7818 53.7766C21.2967 54.4886 20.8116 55.1853 20.3009 55.882C19.7903 56.5786 19.2711 57.2599 18.7519 57.931C18.2328 58.6021 17.6838 59.2475 17.1434 59.8725C16.7392 60.3489 16.3264 60.815 15.9179 61.2555C15.5093 61.6961 15.1051 62.1264 14.7136 62.5259C14.3221 62.9255 13.9306 63.3046 13.5774 63.6324C13.3093 63.3046 13.0327 62.946 12.7518 62.572C12.471 62.1981 12.1263 61.7166 11.8114 61.2555C11.4965 60.7945 11.1774 60.313 10.871 59.8366C10.4454 59.186 10.0582 58.5201 9.67095 57.8542C9.28371 57.1882 8.90924 56.4967 8.55178 55.8051C8.19433 55.1136 7.84539 54.4016 7.51347 53.6946C7.18155 52.9877 6.86239 52.2603 6.55601 51.5329C6.18579 50.6416 5.83685 49.7298 5.51345 48.818C5.19004 47.9062 4.89215 46.9995 4.62406 46.0876C4.35597 45.1758 4.10916 44.264 3.89213 43.3522C3.67511 42.4404 3.46659 41.5234 3.32191 40.6116C3.12616 39.541 2.96872 38.455 2.84531 37.3742C2.7219 36.2933 2.64531 35.2176 2.5985 34.1469C2.55169 33.0763 2.54318 31.9955 2.57297 30.9351C2.60276 29.8747 2.66658 28.799 2.76446 27.7489L4.61981 8.46755L4.7347 8.44193L5.47089 8.2524L6.17728 8.05774L7.0624 7.79137L8.11348 7.45328L9.31775 7.03835C9.74329 6.87955 10.1688 6.72587 10.5944 6.56195C11.0199 6.39803 11.4454 6.22898 11.871 6.0497L13.1476 5.53744L14.4029 4.97396C14.9051 4.74344 15.403 4.5078 15.8923 4.26192C16.3817 4.01604 16.8626 3.74966 17.3392 3.52427C17.8158 3.29888 18.2839 3.01202 18.7434 2.75589L19.5945 2.26925L20.3009 2.66368C20.7265 2.89932 21.152 3.12471 21.5775 3.3501C22.0031 3.5755 22.4669 3.79577 22.9265 4.01092C23.3861 4.22606 23.8542 4.43097 24.3265 4.63587C24.7265 4.80491 25.1265 4.97396 25.5308 5.14812L26.7521 5.61428L27.9946 6.05482L29.2713 6.46462C29.6968 6.59781 30.0926 6.71563 30.467 6.81808C30.8415 6.92053 31.1904 7.02298 31.5138 7.10494L32.4032 7.33034L33.1266 7.48914L33.6288 7.59159L31.8713 27.0829Z" fill="#A683FF"/>
<defs>
<linearGradient id="paint0_linear_17_1127" x1="3.62673" y1="6.926" x2="28.2051" y2="27.3394" gradientUnits="userSpaceOnUse">
<stop stop-color="white"/>
<stop offset="1"/>
</linearGradient>
</defs>
</svg>
