<svg width="40" height="68" viewBox="0 0 40 68" fill="none" xmlns="http://www.w3.org/2000/svg">
<g opacity="0.5">
<g opacity="0.11">
<path d="M21.0373 41.2557C20.1116 40.6123 18.9711 40.6117 18.0449 41.2539L0.210638 53.6202C-0.0702126 53.8153 -0.0702126 54.3031 0.210638 54.4982L18.1935 66.9966C19.0106 67.5643 20.0172 67.5643 20.8341 66.9966L38.8446 54.5101C39.1255 54.3151 39.1255 53.8273 38.8446 53.6322L21.0373 41.2557Z" fill="url(#paint0_linear_17_1390)"/>
</g>
<g opacity="0.11">
<path d="M21.0373 37.6393C20.1116 36.9959 18.9711 36.9952 18.0449 37.6374L0.210638 50.0038C-0.0702126 50.1989 -0.0702126 50.6867 0.210638 50.8818L18.1935 63.3801C19.0106 63.9479 20.0172 63.9479 20.8341 63.3801L38.8446 50.8937C39.1255 50.6986 39.1255 50.2108 38.8446 50.0157L21.0373 37.6393Z" fill="url(#paint1_linear_17_1390)"/>
</g>
<g opacity="0.11">
<path d="M21.0373 34.023C20.1116 33.3797 18.9711 33.379 18.0449 34.0212L0.210638 46.3876C-0.0702126 46.5826 -0.0702126 47.0705 0.210638 47.2655L18.1935 59.7639C19.0106 60.3316 20.0172 60.3316 20.8341 59.7639L38.8446 47.2775C39.1255 47.0824 39.1255 46.5946 38.8446 46.3995L21.0373 34.023Z" fill="url(#paint2_linear_17_1390)"/>
</g>
<g opacity="0.11">
<path d="M21.0373 30.4064C20.1116 29.763 18.9711 29.7623 18.0449 30.4045L0.210638 42.7709C-0.0702126 42.9659 -0.0702126 43.4538 0.210638 43.6488L18.1935 56.1472C19.0106 56.715 20.0172 56.715 20.8341 56.1472L38.8446 43.6608C39.1255 43.4657 39.1255 42.9779 38.8446 42.7828L21.0373 30.4064Z" fill="url(#paint3_linear_17_1390)"/>
</g>
<path opacity="0.11" d="M38.8468 42.7823L21.0393 30.4059C20.1135 29.7625 18.9731 29.7618 18.0468 30.404L0.212592 42.7707C0.0721665 42.8684 0.00195312 43.039 0.00195312 43.2098V54.0597C0.00195312 54.2306 0.0721665 54.4012 0.212592 54.4989L18.1954 66.9972C19.0125 67.565 20.0192 67.565 20.836 66.9972L38.8466 54.5108C38.987 54.4131 39.0572 54.2425 39.0572 54.0717V43.2218C39.0572 43.0506 38.987 42.88 38.8468 42.7823Z" fill="#A683FF"/>
</g>
<g opacity="0.11">
<path d="M21.0373 26.2943C20.1116 25.6509 18.9711 25.6503 18.0449 26.2925L0.210638 38.6588C-0.0702126 38.8539 -0.0702126 39.3417 0.210638 39.5368L18.1935 52.0351C19.0106 52.6029 20.0172 52.6029 20.8341 52.0351L38.8446 39.5487C39.1255 39.3537 39.1255 38.8658 38.8446 38.6708L21.0373 26.2943Z" fill="url(#paint4_linear_17_1390)"/>
</g>
<g opacity="0.11">
<path d="M21.0373 22.6778C20.1116 22.0344 18.9711 22.0338 18.0449 22.676L0.210638 35.0424C-0.0702126 35.2374 -0.0702126 35.7253 0.210638 35.9203L18.1935 48.4187C19.0106 48.9864 20.0172 48.9864 20.8341 48.4187L38.8446 35.9323C39.1255 35.7372 39.1255 35.2494 38.8446 35.0543L21.0373 22.6778Z" fill="url(#paint5_linear_17_1390)"/>
</g>
<g opacity="0.11">
<path d="M21.0373 19.0611C20.1116 18.4177 18.9711 18.4171 18.0449 19.0593L0.210638 31.4257C-0.0702126 31.6207 -0.0702126 32.1086 0.210638 32.3036L18.1935 44.802C19.0106 45.3697 20.0172 45.3697 20.8341 44.802L38.8446 32.3156C39.1255 32.1205 39.1255 31.6327 38.8446 31.4376L21.0373 19.0611Z" fill="url(#paint6_linear_17_1390)"/>
</g>
<g opacity="0.11">
<path d="M21.0373 15.4444C20.1116 14.801 18.9711 14.8004 18.0449 15.4426L0.210638 27.809C-0.0702126 28.004 -0.0702126 28.4919 0.210638 28.6869L18.1935 41.1853C19.0106 41.753 20.0172 41.753 20.8341 41.1853L38.8446 28.6989C39.1255 28.5038 39.1255 28.016 38.8446 27.8209L21.0373 15.4444Z" fill="#A683FF"/>
</g>
<path opacity="0.11" d="M38.8468 27.8211L21.0393 15.4449C20.1135 14.8015 18.9731 14.8009 18.0468 15.4431L0.212592 27.8094C0.0721665 27.9071 0.00195312 28.0777 0.00195312 28.2486V39.0985C0.00195312 39.269 0.0721665 39.4399 0.212592 39.5376L18.1954 52.036C19.0125 52.6037 20.0192 52.6037 20.836 52.036L38.8466 39.5496C38.987 39.4519 39.0572 39.2813 39.0572 39.1104V28.2605C39.0572 28.0893 38.987 27.9185 38.8468 27.8211Z" fill="#A683FF"/>
<g opacity="0.11">
<path d="M21.0373 11.3329C20.1116 10.6895 18.9711 10.6888 18.0449 11.331L0.210638 23.6974C-0.0702126 23.8925 -0.0702126 24.3803 0.210638 24.5754L18.1935 37.0737C19.0106 37.6415 20.0172 37.6415 20.8341 37.0737L38.8446 24.5873C39.1255 24.3922 39.1255 23.9044 38.8446 23.7093L21.0373 11.3329Z" fill="url(#paint7_linear_17_1390)"/>
</g>
<g opacity="0.11">
<path d="M21.0373 7.71641C20.1116 7.07301 18.9711 7.0724 18.0449 7.71457L0.210638 20.0809C-0.0702126 20.276 -0.0702126 20.7638 0.210638 20.9589L18.1935 33.4569C19.0106 34.0247 20.0172 34.0247 20.8341 33.4569L38.8446 20.9705C39.1255 20.7755 39.1255 20.2876 38.8446 20.0926L21.0373 7.71641Z" fill="url(#paint8_linear_17_1390)"/>
</g>
<g opacity="0.11">
<path d="M21.0373 4.09971C20.1116 3.45631 18.9711 3.4557 18.0449 4.09787L0.210638 16.4642C-0.0702126 16.6593 -0.0702126 17.1471 0.210638 17.3422L18.1935 29.8402C19.0106 30.408 20.0172 30.408 20.8341 29.8402L38.8446 17.3538C39.1255 17.1588 39.1255 16.6709 38.8446 16.4759L21.0373 4.09971Z" fill="url(#paint9_linear_17_1390)"/>
</g>
<g opacity="0.11">
<path d="M21.0373 0.483008C20.1116 -0.16039 18.9711 -0.161002 18.0449 0.481172L0.210638 12.8475C-0.0702126 13.0426 -0.0702126 13.5304 0.210638 13.7255L18.1935 26.2239C19.0106 26.7916 20.0172 26.7916 20.8341 26.2239L38.8446 13.7374C39.1255 13.5424 39.1255 13.0545 38.8446 12.8595L21.0373 0.483008Z" fill="url(#paint10_linear_17_1390)"/>
</g>
<path opacity="0.5" d="M38.8468 12.8595L21.0393 0.483008C20.1135 -0.16039 18.9731 -0.161002 18.0468 0.481172L0.212592 12.8475C0.0721665 12.9452 0.00195312 13.1158 0.00195312 13.2867V24.1366C0.00195312 24.3074 0.0721665 24.478 0.212592 24.5757L18.1954 37.074C19.0125 37.6418 20.0192 37.6418 20.836 37.074L38.8466 24.5876C38.987 24.4899 39.0572 24.3194 39.0572 24.1485V13.2986C39.0572 13.1277 38.987 12.9569 38.8468 12.8595Z" fill="#A683FF"/>
<g opacity="0.11">
<path d="M21.0373 0.483008C20.1116 -0.16039 18.9711 -0.161002 18.0449 0.481172L0.210638 12.8475C-0.0702126 13.0426 -0.0702126 13.5304 0.210638 13.7255L18.1935 26.2239C19.0106 26.7916 20.0172 26.7916 20.8341 26.2239L38.8446 13.7374C39.1255 13.5424 39.1255 13.0545 38.8446 12.8595L21.0373 0.483008Z" fill="url(#paint11_linear_17_1390)"/>
</g>
<g opacity="0.5">
<path d="M20.1731 7.57206C19.7806 7.2992 19.2972 7.2989 18.9047 7.57114L10.9142 13.1118C10.789 13.1988 10.789 13.4165 10.9142 13.5035L18.9377 19.08C19.3023 19.3333 19.7513 19.3333 20.1158 19.08L28.1519 13.5087C28.277 13.4218 28.277 13.204 28.1519 13.117L20.1731 7.57206Z" fill="#A683FF"/>
</g>
<path d="M10.9119 13.4594L18.9024 7.91872C19.2952 7.64648 19.7785 7.64678 20.1708 7.91963L28.1493 13.4646C28.1575 13.4701 28.1605 13.4802 28.1677 13.4867C28.2697 13.3905 28.2666 13.1985 28.1493 13.117L20.1708 7.57206C19.7783 7.2992 19.2949 7.2989 18.9024 7.57114L10.9119 13.1118C10.7946 13.1933 10.7916 13.3853 10.8936 13.4815C10.9007 13.475 10.9038 13.4652 10.9119 13.4594Z" fill="#A683FF"/>
<path d="M38.8501 13.2376L20.8396 25.724C20.0224 26.2917 19.0158 26.2917 18.199 25.724L0.216141 13.2256C0.146946 13.1775 0.0950541 13.1114 0.0599478 13.0364C-0.0471518 13.2654 0.00474016 13.5781 0.216141 13.7251L18.199 26.2234C19.0161 26.7912 20.0227 26.7912 20.8396 26.2234L38.8501 13.737C39.0615 13.59 39.1134 13.2771 39.0063 13.0483C38.9712 13.123 38.9193 13.1895 38.8501 13.2376Z" fill="#A683FF"/>
<path d="M2.10156 17.0598L2.54472 17.3676V17.0102L2.10156 16.7021V17.0598Z" fill="#A683FF"/>
<path d="M2.10156 19.4772L2.54472 19.7853V17.6931L2.10156 17.385V19.4772Z" fill="#A683FF"/>
<path d="M2.10156 20.6337L2.54472 20.9418V20.1113L2.10156 19.8032V20.6337Z" fill="#A683FF"/>
<path d="M2.10156 21.8322L2.54472 22.1403V21.3098L2.10156 21.0017V21.8322Z" fill="#A683FF"/>
<path d="M1.44189 17.7565L1.88531 18.0646V17.2341L1.44189 16.926V17.7565Z" fill="#A683FF"/>
<path d="M1.44189 19.3439L1.88531 19.652V18.4326L1.44189 18.1245V19.3439Z" fill="#A683FF"/>
<path d="M1.44189 20.8054L1.88531 21.1134V20.0673L1.44189 19.7593V20.8054Z" fill="#A683FF"/>
<path d="M2.10156 23.0314L2.54472 23.3395V22.509L2.10156 22.2009V23.0314Z" fill="#A683FF"/>
<path d="M1.44189 16.6001L1.88531 16.9079V16.5505L1.44189 16.2424V16.6001Z" fill="#A683FF"/>
<path d="M1.77344 23.9644L2.54705 24.5018V24.1552L1.77344 23.6174V23.9644Z" fill="#A683FF"/>
<defs>
<linearGradient id="paint0_linear_17_1390" x1="5.08787e-05" y1="54.0974" x2="39.0553" y2="54.0974" gradientUnits="userSpaceOnUse">
<stop stop-color="#DCCFFF"/>
<stop offset="0.0726" stop-color="#DCCFFF"/>
<stop offset="0.2791" stop-color="#DCCFFF"/>
<stop offset="0.4801" stop-color="#DCCFFF"/>
<stop offset="0.6715" stop-color="#DCCFFF"/>
<stop offset="0.8493" stop-color="white"/>
<stop offset="1" stop-color="#DCCFFF"/>
</linearGradient>
<linearGradient id="paint1_linear_17_1390" x1="5.08787e-05" y1="50.481" x2="39.0553" y2="50.481" gradientUnits="userSpaceOnUse">
<stop stop-color="#DCCFFF"/>
<stop offset="0.0726" stop-color="#DCCFFF"/>
<stop offset="0.2791" stop-color="#DCCFFF"/>
<stop offset="0.4801" stop-color="#DCCFFF"/>
<stop offset="0.6715" stop-color="#DCCFFF"/>
<stop offset="0.8493" stop-color="white"/>
<stop offset="1" stop-color="#DCCFFF"/>
</linearGradient>
<linearGradient id="paint2_linear_17_1390" x1="5.08787e-05" y1="46.8647" x2="39.0553" y2="46.8647" gradientUnits="userSpaceOnUse">
<stop stop-color="#DCCFFF"/>
<stop offset="0.0726" stop-color="#DCCFFF"/>
<stop offset="0.2791" stop-color="#DCCFFF"/>
<stop offset="0.4801" stop-color="#DCCFFF"/>
<stop offset="0.6715" stop-color="#DCCFFF"/>
<stop offset="0.8493" stop-color="white"/>
<stop offset="1" stop-color="#DCCFFF"/>
</linearGradient>
<linearGradient id="paint3_linear_17_1390" x1="5.08787e-05" y1="43.248" x2="39.0553" y2="43.248" gradientUnits="userSpaceOnUse">
<stop stop-color="#DCCFFF"/>
<stop offset="0.0726" stop-color="#DCCFFF"/>
<stop offset="0.2791" stop-color="#DCCFFF"/>
<stop offset="0.4801" stop-color="#DCCFFF"/>
<stop offset="0.6715" stop-color="#DCCFFF"/>
<stop offset="0.8493" stop-color="white"/>
<stop offset="1" stop-color="#DCCFFF"/>
</linearGradient>
<linearGradient id="paint4_linear_17_1390" x1="5.08787e-05" y1="39.1363" x2="39.0553" y2="39.1363" gradientUnits="userSpaceOnUse">
<stop stop-color="#A683FF"/>
<stop offset="0.0726" stop-color="#A683FF"/>
<stop offset="0.2791" stop-color="#A683FF"/>
<stop offset="0.4801" stop-color="#A683FF"/>
<stop offset="0.6715" stop-color="#A683FF"/>
<stop offset="0.8493" stop-color="#5A19FF"/>
<stop offset="1" stop-color="#B5C5A1"/>
</linearGradient>
<linearGradient id="paint5_linear_17_1390" x1="5.08787e-05" y1="35.5198" x2="39.0553" y2="35.5198" gradientUnits="userSpaceOnUse">
<stop stop-color="#A683FF"/>
<stop offset="0.0726" stop-color="#A683FF"/>
<stop offset="0.2791" stop-color="#A683FF"/>
<stop offset="0.4801" stop-color="#A683FF"/>
<stop offset="0.6715" stop-color="#A683FF"/>
<stop offset="0.8493" stop-color="#5A19FF"/>
<stop offset="1" stop-color="#B5C5A1"/>
</linearGradient>
<linearGradient id="paint6_linear_17_1390" x1="5.08787e-05" y1="31.9031" x2="39.0553" y2="31.9031" gradientUnits="userSpaceOnUse">
<stop stop-color="#A683FF"/>
<stop offset="0.0726" stop-color="#A683FF"/>
<stop offset="0.2791" stop-color="#A683FF"/>
<stop offset="0.4801" stop-color="#A683FF"/>
<stop offset="0.6715" stop-color="#A683FF"/>
<stop offset="0.8493" stop-color="#5A19FF"/>
<stop offset="1" stop-color="#B5C5A1"/>
</linearGradient>
<linearGradient id="paint7_linear_17_1390" x1="5.08787e-05" y1="24.1748" x2="39.0553" y2="24.1748" gradientUnits="userSpaceOnUse">
<stop stop-color="#A683FF"/>
<stop offset="0.0726" stop-color="#DCCFFF"/>
<stop offset="0.2791" stop-color="#DCCFFF"/>
<stop offset="0.4801" stop-color="#DCCFFF"/>
<stop offset="0.6715" stop-color="#DCCFFF"/>
<stop offset="0.8493" stop-color="#DCCFFF"/>
<stop offset="1" stop-color="#DCCFFF"/>
</linearGradient>
<linearGradient id="paint8_linear_17_1390" x1="5.08787e-05" y1="20.5583" x2="39.0553" y2="20.5583" gradientUnits="userSpaceOnUse">
<stop stop-color="#A683FF"/>
<stop offset="0.0726" stop-color="#A683FF"/>
<stop offset="0.2791" stop-color="#A683FF"/>
<stop offset="0.4801" stop-color="#A683FF"/>
<stop offset="0.6715" stop-color="#A683FF"/>
<stop offset="0.8493" stop-color="#A683FF"/>
<stop offset="1" stop-color="#A683FF"/>
</linearGradient>
<linearGradient id="paint9_linear_17_1390" x1="5.08787e-05" y1="16.9416" x2="39.0553" y2="16.9416" gradientUnits="userSpaceOnUse">
<stop stop-color="#A683FF"/>
<stop offset="0.0726" stop-color="#A683FF"/>
<stop offset="0.2791" stop-color="#A683FF"/>
<stop offset="0.4801" stop-color="#A683FF"/>
<stop offset="0.6715" stop-color="#A683FF"/>
<stop offset="0.8493" stop-color="#A683FF"/>
<stop offset="1" stop-color="#A683FF"/>
</linearGradient>
<linearGradient id="paint10_linear_17_1390" x1="5.08787e-05" y1="13.3249" x2="39.0553" y2="13.3249" gradientUnits="userSpaceOnUse">
<stop stop-color="#A683FF"/>
<stop offset="0.0726" stop-color="#DCCFFF"/>
<stop offset="0.2791" stop-color="#DCCFFF"/>
<stop offset="0.4801" stop-color="#DCCFFF"/>
<stop offset="0.6715" stop-color="#DCCFFF"/>
<stop offset="0.8493" stop-color="#DCCFFF"/>
<stop offset="1" stop-color="#DCCFFF"/>
</linearGradient>
<linearGradient id="paint11_linear_17_1390" x1="5.08787e-05" y1="13.3249" x2="39.0553" y2="13.3249" gradientUnits="userSpaceOnUse">
<stop stop-color="#A683FF"/>
<stop offset="0.0726" stop-color="#DCCFFF"/>
<stop offset="0.2791" stop-color="#DCCFFF"/>
<stop offset="0.4801" stop-color="#DCCFFF"/>
<stop offset="0.6715" stop-color="#DCCFFF"/>
<stop offset="0.8493" stop-color="#DCCFFF"/>
<stop offset="1" stop-color="#DCCFFF"/>
</linearGradient>
</defs>
</svg>
