<svg width="18" height="18" viewBox="0 0 18 18" fill="none" xmlns="http://www.w3.org/2000/svg">
<g clip-path="url(#clip0_2186_9467)">
<g clip-path="url(#clip1_2186_9467)">
<path opacity="0.6" d="M2.94862 16.9232C2.64294 17.2376 2.8626 17.7662 3.30135 17.7708L17.5921 17.9441C18.0297 17.9497 18.2627 17.4287 17.9664 17.1062L14.1138 12.9092C14.029 12.8171 13.9823 12.6975 13.9819 12.5732L13.9582 6.80552C13.9565 6.3573 13.4115 6.13775 13.0993 6.45876L2.94862 16.9232Z" fill="#A683FF"/>
<path d="M15.1064 0.0380168C15.5455 0.0369527 15.7729 0.561518 15.4715 0.881351L5.66838 11.2812C5.36771 11.6003 4.83198 11.4059 4.80534 10.9683L4.46327 5.28151C4.45633 5.15723 4.40227 5.0404 4.31268 4.95286L0.180183 0.929659C-0.14047 0.616878 0.0799447 0.0725887 0.528225 0.0712996L15.1064 0.0380168Z" fill="#A683FF"/>
</g>
</g>
<defs>
<clipPath id="clip0_2186_9467">
<rect width="18" height="18" fill="white"/>
</clipPath>
<clipPath id="clip1_2186_9467">
<rect width="18" height="18" fill="white"/>
</clipPath>
</defs>
</svg>
