<svg width="28" height="28" viewBox="0 0 28 28" fill="none" xmlns="http://www.w3.org/2000/svg">
<path d="M18.3321 14.8955C18.3321 15.8447 19.1016 16.6142 20.0508 16.6142C21 16.6142 21.7695 15.8447 21.7695 14.8955C21.7695 13.9463 21 13.1768 20.0508 13.1768C19.1016 13.1768 18.3321 13.9463 18.3321 14.8955Z" stroke="#A683FF" stroke-width="1.59871"/>
<path d="M12.6034 21.7706H18.3325C21.5734 21.7706 23.1938 21.7706 24.2006 20.7638C25.2075 19.757 25.2075 18.1366 25.2075 14.8957V13.7499C25.2075 10.509 25.2075 8.88859 24.2006 7.88178C23.4658 7.14696 22.4041 6.94844 20.6242 6.89482M11.4576 6.87497H18.3325C19.208 6.87497 19.9653 6.87497 20.6242 6.89482M2.29102 11.4583C2.29102 7.13709 2.29102 6.12233 3.63343 4.77991C4.97584 3.4375 7.13643 3.4375 11.4576 3.4375H17.1668C18.2533 3.4375 18.7965 3.4375 19.2239 3.61796C19.7739 3.85016 20.2115 4.28781 20.4437 4.83779C20.6242 5.2652 20.6242 5.8084 20.6242 6.89482" stroke="#A683FF" stroke-width="1.59871" stroke-linecap="round"/>
<path d="M3.58007 22.3437L3.58007 15.4687M5.72848 15.4687V13.75M5.72848 24.0624V22.3437M3.58007 18.9062H7.8769M7.8769 18.9062C8.58882 18.9062 9.16595 19.4833 9.16595 20.1952V21.0546C9.16595 21.7665 8.58882 22.3437 7.8769 22.3437H2.29102M7.8769 18.9062C8.58882 18.9062 9.16595 18.3291 9.16595 17.6171V16.7578C9.16595 16.0459 8.58882 15.4687 7.8769 15.4687H2.29102" stroke="#A683FF" stroke-width="1.59871" stroke-linecap="round" stroke-linejoin="round"/>
</svg>
