<svg width="26" height="14" viewBox="0 0 26 14" fill="none" xmlns="http://www.w3.org/2000/svg">
<g clip-path="url(#clip0_2186_12150)">
<g clip-path="url(#clip1_2186_12150)">
<g clip-path="url(#clip2_2186_12150)">
<path d="M12.25 3.875C12.25 1.735 13.985 0 16.125 0C18.265 0 20 1.735 20 3.875C20 6.015 18.265 7.75 16.125 7.75L16 7.748V7.75H9.875C8.563 7.75 7.5 8.813 7.5 10.125C7.5 11.437 8.563 12.5 9.875 12.5C11.187 12.5 12.25 11.437 12.25 10.125V10C12.25 9.586 12.586 9.25 13 9.25C13.414 9.25 13.75 9.586 13.75 10L13.749 10.038L13.75 10.125C13.75 12.265 12.015 14 9.875 14C7.735 14 6 12.265 6 10.125C6 7.985 7.735 6.25 9.875 6.25L10 6.252V6.25H16.125C17.437 6.25 18.5 5.187 18.5 3.875C18.5 2.563 17.437 1.5 16.125 1.5C14.813 1.5 13.75 2.563 13.75 3.875V4C13.75 4.414 13.414 4.75 13 4.75C12.586 4.75 12.25 4.414 12.25 4L12.251 3.962L12.25 3.875Z" fill="#9B9B9C"/>
</g>
</g>
</g>
<defs>
<clipPath id="clip0_2186_12150">
<rect width="26" height="14" fill="white"/>
</clipPath>
<clipPath id="clip1_2186_12150">
<rect width="14" height="14" fill="white" transform="translate(6)"/>
</clipPath>
<clipPath id="clip2_2186_12150">
<rect width="14" height="14" fill="white" transform="translate(6)"/>
</clipPath>
</defs>
</svg>
