<svg width="26" height="14" viewBox="0 0 26 14" fill="none" xmlns="http://www.w3.org/2000/svg">
<g clip-path="url(#clip0_2186_12179)">
<g clip-path="url(#clip1_2186_12179)">
<g clip-path="url(#clip2_2186_12179)">
<path d="M19.0003 7C19.0003 7.064 18.9993 7.127 18.9973 7.191L19.5413 7.485C19.8033 7.627 19.9463 7.921 19.8943 8.216C19.8423 8.51 19.6083 8.737 19.3123 8.781L18.7023 8.872C18.6623 8.993 18.6193 9.113 18.5713 9.232L18.9803 9.693C19.1793 9.916 19.2113 10.241 19.0623 10.5C18.9133 10.759 18.6153 10.893 18.3223 10.833L17.7663 10.719L17.4753 11.01L17.6993 11.576C17.8093 11.854 17.7283 12.17 17.5003 12.362C17.2713 12.554 16.9453 12.578 16.6903 12.422L16.1643 12.099C16.0563 12.166 15.9463 12.23 15.8333 12.29L15.8503 12.907C15.8583 13.206 15.6753 13.476 15.3943 13.578C15.1143 13.68 14.7993 13.591 14.6133 13.357L14.2303 12.874C14.1063 12.9 13.9803 12.922 13.8533 12.94L13.6583 13.526C13.5643 13.809 13.2993 14 13.0003 14C12.7013 14 12.4363 13.809 12.3423 13.526L12.1473 12.94C12.0203 12.922 11.8943 12.9 11.7703 12.874L11.3873 13.357C11.2013 13.591 10.8863 13.68 10.6063 13.578C10.3253 13.476 10.1423 13.206 10.1503 12.907L10.1673 12.29C10.0543 12.23 9.94429 12.166 9.83629 12.099L9.31029 12.422C9.05529 12.578 8.72929 12.554 8.50029 12.362C8.27229 12.17 8.19129 11.854 8.30129 11.576L8.52529 11.01L8.23429 10.719L7.67829 10.833C7.38529 10.893 7.08729 10.759 6.93829 10.5C6.78929 10.241 6.82129 9.916 7.02029 9.693L7.42929 9.232C7.38129 9.113 7.33829 8.993 7.29829 8.872L6.68829 8.781C6.39229 8.737 6.15829 8.51 6.10629 8.216C6.05429 7.921 6.19729 7.627 6.45929 7.485L7.00329 7.191C7.00129 7.127 7.00029 7.064 7.00029 7C7.00029 6.936 7.00129 6.873 7.00329 6.809L6.45929 6.515C6.19729 6.373 6.05429 6.079 6.10629 5.784C6.15829 5.49 6.39229 5.263 6.68829 5.219L7.29829 5.128C7.33829 5.007 7.38129 4.887 7.42929 4.768L7.02029 4.307C6.82129 4.084 6.78929 3.759 6.93829 3.5C7.08729 3.241 7.38529 3.107 7.67829 3.167L8.28329 3.291C8.36229 3.191 8.44429 3.094 8.52929 2.999L8.30129 2.424C8.19129 2.146 8.27229 1.83 8.50029 1.638C8.72929 1.446 9.05529 1.422 9.31029 1.578L9.83629 1.901C9.94429 1.834 10.0543 1.77 10.1673 1.71L10.1503 1.093C10.1423 0.794 10.3253 0.524 10.6063 0.422C10.8863 0.32 11.2013 0.409 11.3873 0.643L11.7703 1.126C11.8943 1.1 12.0203 1.078 12.1473 1.06L12.3423 0.474C12.4363 0.191 12.7013 0 13.0003 0C13.2993 0 13.5643 0.191 13.6583 0.474L13.8533 1.06C13.9803 1.078 14.1063 1.1 14.2303 1.126L14.6133 0.643C14.7993 0.409 15.1143 0.32 15.3943 0.422C15.6753 0.524 15.8583 0.794 15.8503 1.093L15.8333 1.71C15.9463 1.77 16.0563 1.834 16.1643 1.901L16.6903 1.578C16.9453 1.422 17.2713 1.446 17.5003 1.638C17.7283 1.83 17.8093 2.146 17.6993 2.424L17.4713 2.999C17.5563 3.094 17.6383 3.191 17.7173 3.291L18.3223 3.167C18.6153 3.107 18.9133 3.241 19.0623 3.5C19.2113 3.759 19.1793 4.084 18.9803 4.307L18.5713 4.768C18.6193 4.887 18.6623 5.007 18.7023 5.128L19.3123 5.219C19.6083 5.263 19.8423 5.49 19.8943 5.784C19.9463 6.079 19.8033 6.373 19.5413 6.515L18.9973 6.809C18.9993 6.873 19.0003 6.936 19.0003 7ZM8.00029 7C8.00029 8.11 8.36229 9.136 8.97429 9.965L10.4153 8.524C10.1513 8.077 10.0003 7.556 10.0003 7C10.0003 5.602 10.9563 4.428 12.2503 4.095V2.056C9.84429 2.418 8.00029 4.493 8.00029 7ZM13.0003 12C14.1103 12 15.1363 11.638 15.9653 11.026L14.5243 9.585C14.0773 9.849 13.5563 10 13.0003 10C12.4443 10 11.9233 9.849 11.4763 9.585L10.0353 11.026C10.8643 11.638 11.8903 12 13.0003 12ZM18.0003 7C18.0003 4.493 16.1563 2.418 13.7503 2.056V4.095C15.0443 4.428 16.0003 5.602 16.0003 7C16.0003 7.556 15.8493 8.077 15.5853 8.524L17.0263 9.965C17.6383 9.136 18.0003 8.11 18.0003 7ZM11.5003 7C11.5003 7.828 12.1723 8.5 13.0003 8.5C13.8283 8.5 14.5003 7.828 14.5003 7C14.5003 6.172 13.8283 5.5 13.0003 5.5C12.1723 5.5 11.5003 6.172 11.5003 7Z" fill="#9B9B9C"/>
</g>
</g>
</g>
<defs>
<clipPath id="clip0_2186_12179">
<rect width="26" height="14" fill="white"/>
</clipPath>
<clipPath id="clip1_2186_12179">
<rect width="14" height="14" fill="white" transform="translate(6)"/>
</clipPath>
<clipPath id="clip2_2186_12179">
<rect width="14" height="14" fill="white" transform="translate(6)"/>
</clipPath>
</defs>
</svg>
