<svg width="16" height="16" viewBox="0 0 16 16" fill="none" xmlns="http://www.w3.org/2000/svg">
<path opacity="0.4" d="M7.0335 1.32002C7.22507 1.0177 7.51973 0.666763 7.99988 0.666763C8.48003 0.666763 8.77468 1.0177 8.96625 1.32002C9.16281 1.63022 9.36564 2.07708 9.60635 2.60741L9.60636 2.60743C9.91735 3.29252 10.1976 4.00357 10.5547 4.66653C10.7453 5.02031 11.0819 5.22209 11.4922 5.07646C11.7188 4.99605 11.9375 4.89278 12.157 4.79522C12.5958 4.60018 13.1598 4.26548 13.658 4.40802C14.0772 4.52796 14.3755 4.87627 14.4735 5.28364C14.533 5.53121 14.4811 5.78519 14.4203 6.00379C14.3574 6.22976 14.2551 6.51294 14.1317 6.85446L13.0035 9.97683C12.7734 10.6135 12.5877 11.1274 12.3954 11.5263C12.0021 12.3419 11.3818 12.8399 10.4733 12.95C10.0593 13.0001 9.55148 13.0001 8.93413 13.0001H7.06563C6.44828 13.0001 5.94045 13.0001 5.52647 12.95C4.61791 12.8399 3.9977 12.3419 3.60437 11.5263C3.41201 11.1274 3.22635 10.6136 2.99631 9.97692L2.99631 9.97691L1.8681 6.8545L1.8681 6.85448C1.74469 6.51296 1.64236 6.22976 1.57948 6.00379C1.51866 5.78519 1.46676 5.53121 1.52629 5.28364C1.62424 4.87627 1.92257 4.52796 2.34176 4.40802C2.84849 4.26304 3.41811 4.60647 3.8641 4.80471C4.15815 4.9354 4.35285 5.02155 4.50756 5.07646C4.91788 5.22209 5.25447 5.02031 5.44503 4.66653C5.80211 4.00358 6.0824 3.29254 6.39339 2.60745C6.63411 2.0771 6.83694 1.63023 7.0335 1.32002Z" fill="#A683FF"/>
<path fill-rule="evenodd" clip-rule="evenodd" d="M7.00382 9.66676C7.00382 9.11448 7.44953 8.66676 7.99935 8.66676H8.00829C8.55811 8.66676 9.00382 9.11448 9.00382 9.66676C9.00382 10.219 8.55811 10.6668 8.00829 10.6668H7.99935C7.44953 10.6668 7.00382 10.219 7.00382 9.66676Z" fill="#A683FF"/>
<path fill-rule="evenodd" clip-rule="evenodd" d="M4 14.6667C4 14.2985 4.29848 14 4.66667 14H11.3333C11.7015 14 12 14.2985 12 14.6667C12 15.0349 11.7015 15.3333 11.3333 15.3333H4.66667C4.29848 15.3333 4 15.0349 4 14.6667Z" fill="#A683FF"/>
</svg>
