<svg width="24" height="24" viewBox="0 0 24 24" fill="none" xmlns="http://www.w3.org/2000/svg">
<g clip-path="url(#clip0_2186_9405)">
<path d="M12 1C18.075 1 23 5.925 23 12C23 18.075 18.075 23 12 23C5.925 23 1 18.075 1 12C1 5.925 5.925 1 12 1ZM10.821 11.921V11.94C10.8 12.354 10.997 12.748 11.34 12.979L16.029 16.142C16.378 16.389 16.833 16.427 17.218 16.243C17.603 16.059 17.859 15.68 17.885 15.254C17.912 14.828 17.707 14.42 17.348 14.189L13.179 11.376V5.321C13.179 4.671 12.651 4.143 12 4.143C11.349 4.143 10.821 4.671 10.821 5.321V11.921Z" fill="#646465"/>
</g>
<defs>
<clipPath id="clip0_2186_9405">
<rect width="24" height="24" fill="white"/>
</clipPath>
</defs>
</svg>
