<svg width="18" height="18" viewBox="0 0 18 18" fill="none" xmlns="http://www.w3.org/2000/svg">
<g clip-path="url(#clip0_2186_6836)">
<g clip-path="url(#clip1_2186_6836)">
<path d="M0 11.571C0 10.861 0.576 10.286 1.286 10.286H3.214C3.924 10.286 4.5 10.861 4.5 11.571V16.714C4.5 17.424 3.924 18 3.214 18H1.286C0.576 18 0 17.424 0 16.714V11.571Z" fill="#9095A4"/>
<path d="M6.75 6.42894C6.75 5.71794 7.326 5.14294 8.036 5.14294H9.964C10.674 5.14294 11.25 5.71794 11.25 6.42894V16.7139C11.25 17.4239 10.674 17.9999 9.964 17.9999H8.036C7.326 17.9999 6.75 17.4239 6.75 16.7139V6.42894Z" fill="#9095A4"/>
<path opacity="0.25" d="M13.5 1.286C13.5 0.576 14.076 0 14.786 0H16.714C17.424 0 18 0.576 18 1.286V16.714C18 17.424 17.424 18 16.714 18H14.786C14.076 18 13.5 17.424 13.5 16.714V1.286Z" fill="#9095A4"/>
</g>
</g>
<defs>
<clipPath id="clip0_2186_6836">
<rect width="18" height="18" fill="white"/>
</clipPath>
<clipPath id="clip1_2186_6836">
<rect width="18" height="18" fill="white"/>
</clipPath>
</defs>
</svg>
