<svg width="19" height="23" viewBox="0 0 19 23" fill="none" xmlns="http://www.w3.org/2000/svg">
<g opacity="0.4" filter="url(#filter0_d_2374_2626)">
<path d="M4 14.5455H14.3657V12.6305C14.3657 9.81001 12.0453 7.52359 9.18286 7.52359C6.32045 7.52359 4 9.81001 4 12.6305V14.5455Z" fill="#A683FF"/>
</g>
<path fill-rule="evenodd" clip-rule="evenodd" d="M5.29572 1.50476V3.41984C5.29572 5.53517 7.03605 7.24999 9.18286 7.24999C11.3297 7.24999 13.07 5.53517 13.07 3.41984V1.50476H14.3657V3.41984C14.3657 6.24028 12.0453 8.5267 9.18286 8.5267C6.32045 8.5267 4 6.24028 4 3.41984V1.50476H5.29572Z" fill="#A683FF"/>
<path fill-rule="evenodd" clip-rule="evenodd" d="M3.16406 1.33758C3.16406 0.968236 3.46348 0.668823 3.83282 0.668823H14.5329C14.9023 0.668823 15.2017 0.968236 15.2017 1.33758C15.2017 1.70692 14.9023 2.00634 14.5329 2.00634H3.83282C3.46348 2.00634 3.16406 1.70692 3.16406 1.33758ZM3.16406 14.7127C3.16406 14.3434 3.46348 14.044 3.83282 14.044H14.5329C14.9023 14.044 15.2017 14.3434 15.2017 14.7127C15.2017 15.0821 14.9023 15.3815 14.5329 15.3815H3.83282C3.46348 15.3815 3.16406 15.0821 3.16406 14.7127Z" fill="#A683FF"/>
<defs>
<filter id="filter0_d_2374_2626" x="0" y="7.52356" width="18.3652" height="15.022" filterUnits="userSpaceOnUse" color-interpolation-filters="sRGB">
<feFlood flood-opacity="0" result="BackgroundImageFix"/>
<feColorMatrix in="SourceAlpha" type="matrix" values="0 0 0 0 0 0 0 0 0 0 0 0 0 0 0 0 0 0 127 0" result="hardAlpha"/>
<feOffset dy="4"/>
<feGaussianBlur stdDeviation="2"/>
<feComposite in2="hardAlpha" operator="out"/>
<feColorMatrix type="matrix" values="0 0 0 0 0 0 0 0 0 0 0 0 0 0 0 0 0 0 0.25 0"/>
<feBlend mode="normal" in2="BackgroundImageFix" result="effect1_dropShadow_2374_2626"/>
<feBlend mode="normal" in="SourceGraphic" in2="effect1_dropShadow_2374_2626" result="shape"/>
</filter>
</defs>
</svg>
