<svg width="16" height="16" viewBox="0 0 16 16" fill="none" xmlns="http://www.w3.org/2000/svg">
<path opacity="0.4" d="M3.83301 8C3.83301 10.3012 5.69849 12.1667 7.99967 12.1667C8.54762 12.1667 9.0697 12.0612 9.54759 11.8698C10.0917 11.6519 10.7827 11.6643 11.3013 12.0976C11.6828 12.4164 11.8741 12.8812 11.8475 13.334C11.8204 13.7955 11.5644 14.2416 11.081 14.4721C10.147 14.9176 9.10173 15.1667 7.99967 15.1667C4.04163 15.1667 0.833008 11.958 0.833008 8H3.83301Z" fill="#A683FF" stroke="#A683FF" stroke-width="1.5" stroke-linecap="round"/>
<path d="M0.833008 8C0.833008 4.04196 4.04163 0.833336 7.99967 0.833336C11.9577 0.833336 15.1663 4.04196 15.1663 8C15.1663 8.61797 15.088 9.21837 14.9405 9.7915C14.7053 10.7052 13.7336 11.0637 12.947 10.7869C12.1689 10.5131 11.8833 9.66774 12.0485 8.98855C12.1254 8.67217 12.1663 8.3412 12.1663 8C12.1663 5.69882 10.3009 3.83334 7.99967 3.83334C5.69849 3.83334 3.83301 5.69882 3.83301 8H0.833008Z" fill="#A683FF" stroke="#A683FF" stroke-width="1.5" stroke-linecap="round"/>
</svg>
