<svg width="24" height="24" viewBox="0 0 24 24" fill="none" xmlns="http://www.w3.org/2000/svg">
<g clip-path="url(#clip0_2186_9422)">
<g clip-path="url(#clip1_2186_9422)">
<path d="M12 19.714C13.183 19.714 14.143 20.674 14.143 21.857C14.143 23.041 13.183 24 12 24C10.817 24 9.857 23.041 9.857 21.857C9.857 20.674 10.817 19.714 12 19.714ZM12 0C13.183 0 14.143 0.959 14.143 2.143C14.143 3.326 13.183 4.286 12 4.286C10.817 4.286 9.857 3.326 9.857 2.143C9.857 0.959 10.817 0 12 0ZM4.286 12C4.286 13.183 3.326 14.143 2.143 14.143C0.959 14.143 0 13.183 0 12C0 10.817 0.959 9.857 2.143 9.857C3.326 9.857 4.286 10.817 4.286 12ZM24 12C24 13.183 23.041 14.143 21.857 14.143C20.674 14.143 19.714 13.183 19.714 12C19.714 10.817 20.674 9.857 21.857 9.857C23.041 9.857 24 10.817 24 12ZM6.545 17.455C7.382 18.293 7.381 19.65 6.543 20.487C5.706 21.324 4.348 21.324 3.511 20.486C2.674 19.648 2.675 18.29 3.513 17.453C4.35 16.616 5.708 16.617 6.545 17.455ZM20.486 3.514C21.323 4.352 21.322 5.71 20.484 6.547C19.646 7.384 18.288 7.383 17.451 6.545C16.614 5.707 16.615 4.35 17.453 3.513C18.291 2.676 19.649 2.676 20.486 3.514ZM17.455 17.455C18.293 16.618 19.65 16.619 20.487 17.457C21.324 18.294 21.324 19.652 20.486 20.489C19.648 21.326 18.29 21.325 17.453 20.487C16.616 19.65 16.617 18.292 17.455 17.455ZM3.514 3.514C4.352 2.677 5.71 2.678 6.547 3.516C7.384 4.354 7.383 5.712 6.545 6.549C5.707 7.386 4.35 7.385 3.513 6.547C2.676 5.709 2.676 4.351 3.514 3.514Z" fill="#A683FF"/>
<path opacity="0.6" d="M12.0004 6.85693C12.9474 6.85693 13.7144 7.62493 13.7144 8.57093C13.7144 9.51793 12.9474 10.2859 12.0004 10.2859C11.0534 10.2859 10.2864 9.51793 10.2864 8.57093C10.2864 7.62493 11.0534 6.85693 12.0004 6.85693ZM12.0004 13.7139C12.9474 13.7139 13.7144 14.4819 13.7144 15.4289C13.7144 16.3749 12.9474 17.1429 12.0004 17.1429C11.0534 17.1429 10.2864 16.3749 10.2864 15.4289C10.2864 14.4819 11.0534 13.7139 12.0004 13.7139ZM17.1434 11.9999C17.1434 12.9469 16.3754 13.7139 15.4294 13.7139C14.4824 13.7139 13.7144 12.9469 13.7144 11.9999C13.7144 11.0529 14.4824 10.2859 15.4294 10.2859C16.3754 10.2859 17.1434 11.0529 17.1434 11.9999ZM10.2864 11.9999C10.2864 12.9469 9.51842 13.7139 8.57142 13.7139C7.62542 13.7139 6.85742 12.9469 6.85742 11.9999C6.85742 11.0529 7.62542 10.2859 8.57142 10.2859C9.51842 10.2859 10.2864 11.0529 10.2864 11.9999Z" fill="#A683FF"/>
</g>
</g>
<defs>
<clipPath id="clip0_2186_9422">
<rect width="24" height="24" fill="white"/>
</clipPath>
<clipPath id="clip1_2186_9422">
<rect width="24" height="24" fill="white"/>
</clipPath>
</defs>
</svg>
