<svg width="16" height="16" viewBox="0 0 16 16" fill="none" xmlns="http://www.w3.org/2000/svg">
<path opacity="0.4" d="M12.4478 0.860651C12.8097 0.909584 13.2355 1.04974 13.5323 1.45579C13.7076 1.69571 13.7741 1.96561 13.8041 2.24397C13.8403 2.58071 13.8324 2.92184 13.8324 3.25999C13.8325 4.15209 13.7699 4.99918 12.9487 5.54793C12.7017 5.71301 12.4118 5.84819 12.2162 5.94989L9.99863 7.10272C9.57668 7.32209 9.23053 7.50205 8.93096 7.62478C8.61748 7.75321 8.32273 7.83324 7.9991 7.83324C7.67547 7.83324 7.38073 7.75321 7.06725 7.62478C6.76767 7.50205 6.42153 7.32209 5.99959 7.10273L3.78205 5.94989C2.53076 5.29938 2.16574 4.64285 2.16577 3.26003C2.16577 2.92187 2.15786 2.58072 2.19412 2.24397C2.2241 1.96561 2.29058 1.69571 2.46595 1.45579C2.76275 1.04974 3.18852 0.909584 3.55042 0.860651C3.8084 0.825769 4.09783 0.83237 4.31629 0.837352C5.18764 0.857224 6.06088 0.840236 6.93244 0.840236C7.121 0.840236 7.21528 0.840236 7.27386 0.898814C7.33244 0.957393 7.33244 1.05167 7.33244 1.24024V3.33334C7.33244 3.70153 7.63091 4 7.9991 4C8.36729 4 8.66577 3.70153 8.66577 3.33334V1.24024C8.66577 1.05167 8.66577 0.957393 8.72435 0.898814C8.78293 0.840236 8.87721 0.840236 9.06577 0.840236C9.93732 0.840236 10.8106 0.857224 11.6819 0.837352C11.9004 0.83237 12.1898 0.825769 12.4478 0.860651Z" fill="#A683FF"/>
<path d="M7.99996 8.16666C8.4688 8.16666 8.78971 8.51827 8.96739 8.87812L9.49322 9.93847C9.51197 9.96095 9.53714 9.97751 9.56326 9.99022L10.5129 10.1493C10.9071 10.2155 11.3199 10.4238 11.4588 10.8595C11.5974 11.2945 11.3817 11.7041 11.0988 11.9877L10.3607 12.7319C10.3453 12.7574 10.3335 12.7981 10.3343 12.8279L10.5455 13.749C10.6389 14.1574 10.6408 14.6964 10.2271 15.0005C9.81132 15.3061 9.29726 15.1389 8.93794 14.9249L8.04703 14.3931C8.02005 14.3854 7.9789 14.3853 7.95214 14.394L7.0629 14.9248C6.70265 15.1403 6.18978 15.3048 5.77449 14.9992C5.36165 14.6955 5.36123 14.1582 5.45523 13.7486L5.6664 12.8279C5.66713 12.7981 5.65537 12.7574 5.63996 12.7319L4.90063 11.9865C4.61946 11.703 4.40524 11.2946 4.54274 10.8604C4.68085 10.4243 5.09335 10.2156 5.48799 10.1493L6.43491 9.99064C6.46161 9.97895 6.48475 9.9598 6.5044 9.93855L7.03091 8.87685C7.21002 8.51754 7.53176 8.16666 7.99996 8.16666Z" fill="#A683FF"/>
</svg>
