<svg width="16" height="16" viewBox="0 0 16 16" fill="none" xmlns="http://www.w3.org/2000/svg">
<path opacity="0.4" d="M2.5 9.6666C2.5 6.62903 4.96243 4.1666 8 4.1666C11.0376 4.1666 13.5 6.62903 13.5 9.6666C13.5 12.7042 11.0376 15.1666 8 15.1666C4.96243 15.1666 2.5 12.7042 2.5 9.6666Z" fill="#A683FF"/>
<path d="M5.5 9.6666C5.5 8.30318 6.57033 7.1666 7.92857 7.1666H8.07143C9.42968 7.1666 10.5 8.30318 10.5 9.6666C10.5 11.03 9.42968 12.1666 8.07143 12.1666H7.92857C6.57033 12.1666 5.5 11.03 5.5 9.6666Z" fill="#A683FF"/>
<path d="M12.5952 1.79992C12.7608 1.47109 12.6286 1.07025 12.2997 0.904607C11.9709 0.738968 11.5701 0.871259 11.4044 1.20009L9.76445 4.45576C10.1908 4.60012 10.5938 4.79535 10.966 5.03421L12.5952 1.79992Z" fill="#A683FF"/>
<path d="M5.05611 5.01968L3.40664 1.80429C3.23859 1.47669 3.36793 1.07489 3.69552 0.906831C4.02312 0.738776 4.42493 0.868112 4.59299 1.19571L6.26088 4.44704C5.83358 4.58932 5.42958 4.78261 5.05611 5.01968Z" fill="#A683FF"/>
<path d="M6.86531 4.28363L7.3209 3.39402L6.38847 1.84359C6.19871 1.52806 6.30066 1.11845 6.61619 0.928693C6.93171 0.738936 7.34133 0.840892 7.53108 1.15642L8.03646 1.99675L8.44647 1.19612C8.6143 0.868407 9.01602 0.738792 9.34374 0.906621C9.67145 1.07445 9.80106 1.47617 9.63324 1.80388L8.41537 4.182C8.27814 4.17174 8.13952 4.16652 7.99967 4.16652C7.61081 4.16652 7.23137 4.20688 6.86531 4.28363Z" fill="#A683FF"/>
</svg>
