<svg width="18" height="18" viewBox="0 0 18 18" fill="none" xmlns="http://www.w3.org/2000/svg">
<g clip-path="url(#clip0_2186_9473)">
<g clip-path="url(#clip1_2186_9473)">
<path d="M9 0C13.971 0 18 4.029 18 9C18 13.971 13.971 18 9 18C4.029 18 0 13.971 0 9C0 4.029 4.029 0 9 0ZM5.958 12.292L5.531 12.013C5.478 11.976 5.412 11.957 5.349 11.957H4.916C4.806 11.957 4.702 11.901 4.639 11.81L4.479 11.569C4.445 11.519 4.426 11.459 4.423 11.397L4.41 11.062C4.41 11.009 4.42 10.956 4.442 10.909L4.555 10.671C4.574 10.627 4.586 10.58 4.586 10.53V9.958L4.232 9.83L4.411 9.614L4.04 9.257C4.027 9.248 4.018 9.238 4.005 9.229L3.682 8.991C3.657 8.972 3.631 8.942 3.362 8.669C3.324 8.635 3.283 8.606 3.236 8.591L2.856 8.456C2.733 8.412 2.594 8.445 2.505 8.541L2.119 8.941C2.059 9.004 1.971 9.041 1.883 9.041H1.861C1.846 9.041 1.83 9.041 1.814 9.044C1.814 9.145 1.817 9.247 1.824 9.348C1.874 10.68 2.313 11.925 3.029 12.979L3.133 12.798L3.428 12.588C3.484 12.548 3.55 12.526 3.622 12.526H3.983C4.009 12.526 4.034 12.529 4.062 12.535C4.15 12.557 4.363 12.607 4.41 12.626C4.467 12.645 5.195 12.839 5.27 12.895C5.327 12.936 5.594 12.786 5.744 12.692C5.814 12.651 5.867 12.585 5.889 12.507L5.958 12.292ZM14.647 11.744C14.735 11.487 14.575 11.309 14.302 11.344C14.18 11.359 14.06 11.39 13.938 11.428C13.724 11.494 13.555 11.437 13.42 11.247C13.159 10.874 13.021 10.471 13.046 10.011C13.049 9.948 13.062 9.883 13.046 9.82C13.009 9.62 13.062 9.448 13.162 9.273C13.345 8.982 13.502 8.681 13.589 8.337C13.627 8.178 13.728 8.031 13.809 7.884C13.881 7.734 13.872 7.699 13.709 7.674C13.615 7.659 13.589 7.612 13.58 7.533C13.555 7.361 13.527 7.192 13.498 7.017C13.47 6.848 13.517 6.798 13.696 6.808C13.8 6.814 13.897 6.808 14.001 6.808C13.985 6.542 13.862 6.354 13.627 6.22C13.734 6.148 13.837 6.088 13.928 6.023C13.953 6.007 13.969 5.976 13.985 5.951C13.953 5.945 13.919 5.929 13.887 5.935C13.793 5.951 13.696 5.976 13.589 6.001C13.558 5.873 13.523 5.757 13.492 5.629C13.404 5.785 13.36 5.807 13.159 5.782C13.122 5.607 13.071 5.435 13.219 5.281C13.235 5.266 13.235 5.213 13.219 5.188C13.191 5.116 13.15 5.041 13.106 4.962C13.175 4.915 13.247 4.872 13.316 4.825C13.548 5.155 13.78 5.485 14.01 5.816C14.089 5.71 14.161 5.613 14.227 5.51C14.242 5.491 14.252 5.438 14.236 5.419C14.145 5.306 14.145 5.169 14.145 5.034C14.145 4.962 14.114 4.922 14.048 4.915C13.837 4.903 13.734 4.759 13.662 4.593C13.63 4.524 13.63 4.415 13.662 4.34C13.759 4.077 13.765 3.842 13.564 3.623C13.52 3.573 13.508 3.498 13.523 3.423C12.826 2.857 12.02 2.422 11.141 2.15C11.169 2.222 11.216 2.288 11.266 2.353C11.326 2.438 11.392 2.522 11.448 2.61C11.502 2.682 11.552 2.754 11.593 2.826C11.665 2.954 11.706 3.098 11.756 3.235C11.8 3.351 11.737 3.429 11.646 3.489C11.552 3.551 11.455 3.617 11.357 3.673C11.295 3.72 11.235 3.761 11.172 3.795C10.987 3.905 10.89 4.068 10.887 4.283C10.88 4.421 10.858 4.559 10.843 4.718C10.767 4.702 10.689 4.702 10.629 4.678C10.234 4.534 9.96 4.274 9.829 3.867C9.775 3.727 9.763 3.592 9.929 3.473C9.741 3.486 9.668 3.382 9.603 3.251C9.505 3.06 9.392 2.873 9.279 2.687C9.247 2.634 9.172 2.606 9.109 2.584C9.062 2.562 9.012 2.569 8.962 2.575C8.695 2.6 8.51 2.472 8.375 2.237C8.503 2.181 8.632 2.131 8.764 2.074C8.761 2.062 8.751 2.052 8.751 2.037C8.667 2.021 8.585 2.018 8.513 2.084C8.35 2.231 8.18 2.375 8.017 2.522C7.932 2.606 7.933 2.807 7.734 2.8C7.681 2.794 7.625 2.803 7.581 2.8C7.358 2.759 7.194 2.875 7.031 2.994C6.959 3.044 6.937 3.107 6.994 3.182C7.088 3.319 7.179 3.46 7.276 3.592C7.405 3.517 7.421 3.473 7.345 3.382C7.329 3.366 7.307 3.351 7.298 3.332C7.251 3.254 7.169 3.157 7.191 3.097C7.22 2.972 7.317 2.872 7.458 2.856C7.606 2.841 7.75 2.835 7.898 2.844C7.986 2.85 8.073 2.891 8.149 2.932C8.325 3.035 8.494 3.148 8.664 3.254C8.72 3.294 8.764 3.332 8.739 3.42C8.72 3.501 8.77 3.545 8.849 3.576C8.935 3.617 9.022 3.658 9.109 3.698C9.197 3.739 9.222 3.795 9.16 3.879C9.125 3.936 9.094 3.995 9.053 4.058C8.974 4.001 8.899 3.939 8.821 3.883C8.811 3.889 8.802 3.905 8.792 3.908C8.827 3.951 8.852 4.002 8.893 4.036C9.018 4.139 9.047 4.217 8.99 4.317C8.94 4.414 8.78 4.461 8.657 4.411C8.601 4.389 8.551 4.355 8.494 4.314C8.375 4.227 8.252 4.161 8.092 4.146C8.033 4.139 7.964 4.099 7.873 4.061C8.017 3.952 8.133 3.858 8.259 3.767C8.315 3.726 8.328 3.689 8.262 3.623C8.19 3.664 8.118 3.704 8.027 3.751C8.036 3.673 8.042 3.614 8.052 3.557C8.073 3.448 8.001 3.423 7.923 3.392C7.848 3.367 7.8 3.376 7.76 3.454C7.669 3.629 7.565 3.795 7.458 3.97C7.549 4.049 7.625 4.124 7.713 4.202C7.653 4.246 7.606 4.277 7.549 4.211C7.502 4.155 7.443 4.171 7.402 4.221C7.345 4.293 7.289 4.286 7.217 4.246C7.034 4.139 6.909 4.171 6.783 4.333C6.711 4.421 6.652 4.509 6.595 4.599C6.473 4.784 6.498 4.89 6.711 5.034C6.821 5.106 6.953 5.137 7.078 5.181C7.163 5.219 7.251 5.25 7.339 5.281C7.446 5.316 7.477 5.381 7.471 5.494C7.468 5.588 7.508 5.688 7.527 5.785C7.681 5.741 7.703 5.71 7.672 5.588C7.625 5.412 7.64 5.366 7.8 5.275C7.882 5.228 7.888 5.168 7.879 5.084C7.866 4.902 7.857 4.712 7.851 4.524C7.851 4.396 7.929 4.333 8.058 4.365C8.205 4.399 8.356 4.452 8.497 4.496C8.595 4.533 8.595 4.624 8.601 4.705C8.61 4.752 8.626 4.84 8.648 4.84C8.72 4.846 8.802 4.846 8.858 4.809C8.924 4.762 8.962 4.677 9.018 4.605C9.062 4.693 9.116 4.777 9.166 4.871C9.263 5.059 9.386 5.225 9.555 5.347C9.7 5.453 9.781 5.597 9.853 5.76C9.919 5.919 10.029 6.063 10.111 6.217C10.145 6.273 10.155 6.339 10.183 6.401C10.111 6.414 10.029 6.461 9.96 6.442C9.813 6.404 9.674 6.332 9.521 6.273C9.602 6.135 9.675 6.007 9.747 5.882C9.734 5.872 9.731 5.869 9.718 5.857C9.612 5.913 9.505 5.969 9.401 6.026C9.314 6.079 9.223 6.123 9.141 6.179C9.103 6.201 9.078 6.248 9.072 6.288C9.069 6.304 9.109 6.345 9.141 6.354C9.254 6.404 9.37 6.442 9.508 6.492C9.474 6.539 9.439 6.598 9.392 6.629C9.238 6.717 9.078 6.798 8.893 6.895C8.924 6.805 8.956 6.736 8.981 6.676C8.827 6.667 8.689 6.736 8.617 6.886C8.535 7.058 8.413 7.177 8.228 7.224C8.13 7.255 8.077 7.336 8.058 7.433C8.005 7.702 7.898 7.943 7.669 8.109C7.437 8.272 7.358 8.465 7.468 8.738C7.487 8.788 7.503 8.844 7.503 8.9C7.499 8.972 7.471 9.044 7.462 9.116C7.443 9.119 7.427 9.119 7.411 9.119C7.355 9.022 7.289 8.925 7.236 8.822C7.098 8.556 6.912 8.459 6.602 8.497C6.605 8.547 6.611 8.603 6.611 8.669C6.539 8.65 6.473 8.634 6.41 8.613C6.231 8.553 6.087 8.594 5.98 8.747C5.82 8.963 5.81 9.495 5.955 9.72C6.071 9.898 6.24 9.914 6.394 9.761C6.416 9.732 6.435 9.704 6.457 9.676C6.573 9.51 6.645 9.495 6.853 9.601C6.805 9.779 6.755 9.958 6.702 10.158C6.784 10.164 6.862 10.167 6.944 10.18C7.145 10.189 7.21 10.264 7.21 10.461C7.204 10.602 7.236 10.705 7.302 10.777C7.358 10.843 7.452 10.884 7.581 10.906C7.662 10.921 7.744 10.956 7.832 10.981C7.907 10.784 8.049 10.643 8.272 10.615C8.319 10.608 8.375 10.599 8.422 10.615C8.899 10.727 9.383 10.834 9.731 11.231C9.756 11.262 9.813 11.284 9.86 11.284C10.042 11.278 10.186 11.35 10.284 11.509C10.346 11.609 10.409 11.722 10.469 11.832C10.516 11.907 10.576 11.947 10.686 11.969C11.003 12.013 11.332 12.235 11.609 12.407C11.634 12.423 11.659 12.479 11.656 12.504C11.615 12.701 11.533 12.879 11.423 13.052C11.26 13.308 11.125 13.59 10.971 13.849C10.905 13.946 10.814 14.056 10.717 14.103C10.51 14.209 10.347 14.337 10.208 14.522C10.08 14.7 9.92 14.856 9.772 15.022C9.735 15.057 9.706 15.097 9.662 15.119C9.578 15.16 9.53 15.232 9.483 15.313C9.458 15.363 9.402 15.42 9.345 15.435C9.191 15.476 9.069 15.532 9.019 15.692C9.006 15.726 8.972 15.754 8.95 15.783C8.862 15.892 8.793 16.005 8.771 16.142C8.771 16.148 8.768 16.158 8.764 16.164C8.843 16.17 8.925 16.17 9.006 16.17C10.868 16.17 12.566 15.463 13.844 14.306C13.913 14.134 13.985 13.962 14.057 13.79C14.117 13.652 14.202 13.508 14.274 13.37C14.44 13.067 14.606 12.757 14.575 12.398C14.55 12.172 14.575 11.96 14.647 11.744Z" fill="#A683FF"/>
</g>
</g>
<defs>
<clipPath id="clip0_2186_9473">
<rect width="18" height="18" fill="white"/>
</clipPath>
<clipPath id="clip1_2186_9473">
<rect width="18" height="18" fill="white"/>
</clipPath>
</defs>
</svg>
