<svg width="16" height="16" viewBox="0 0 16 16" fill="none" xmlns="http://www.w3.org/2000/svg">
<path opacity="0.4" fill-rule="evenodd" clip-rule="evenodd" d="M5.3087 10.6851C5.18191 10.6681 4.99914 10.6667 4.66602 10.6667H4.33269C3.84244 10.6667 3.54181 10.6681 3.32425 10.6973C3.13302 10.723 3.10109 10.7596 3.0973 10.764C3.09716 10.7641 3.09705 10.7642 3.09699 10.7643C3.09692 10.7644 3.0968 10.7645 3.09664 10.7646C3.0923 10.7684 3.05573 10.8003 3.03002 10.9916C3.00077 11.2091 2.99935 11.5098 2.99935 12V14H5.33269V11.3333C5.33269 11.0002 5.33127 10.8174 5.31422 10.6907C5.314 10.689 5.31378 10.6874 5.31356 10.6858C5.31197 10.6856 5.31036 10.6854 5.3087 10.6851ZM5.48637 9.36369C5.74184 9.39804 6.03335 9.48172 6.2755 9.72386C6.51764 9.96601 6.60132 10.2575 6.63567 10.513C6.66614 10.7396 6.66608 11.0144 6.66603 11.2971C6.66602 11.3091 6.66602 11.3212 6.66602 11.3333V14.6667C6.66602 15.0349 6.36754 15.3333 5.99935 15.3333H2.33269C1.9645 15.3333 1.66602 15.0349 1.66602 14.6667V12C1.66602 11.9863 1.66602 11.9726 1.66602 11.9589C1.66598 11.5228 1.66594 11.131 1.70858 10.8139C1.75513 10.4677 1.86322 10.1125 2.15418 9.82149C2.44514 9.53053 2.80034 9.42244 3.14658 9.37589C3.46372 9.33326 3.85553 9.33329 4.29162 9.33334C4.30526 9.33334 4.31895 9.33334 4.33269 9.33334H4.66602C4.67812 9.33334 4.69022 9.33334 4.70229 9.33333C4.98501 9.33328 5.25976 9.33322 5.48637 9.36369Z" fill="#A683FF"/>
<path opacity="0.4" fill-rule="evenodd" clip-rule="evenodd" d="M11.2967 10.6667C11.3088 10.6667 11.3209 10.6667 11.333 10.6667H11.6664C11.6801 10.6667 11.6938 10.6667 11.7074 10.6667C12.1435 10.6666 12.5353 10.6666 12.8525 10.7092C13.1987 10.7558 13.5539 10.8639 13.8449 11.1548C14.1358 11.4458 14.2439 11.801 14.2905 12.1472C14.3331 12.4644 14.3331 12.8562 14.333 13.2923C14.333 13.3059 14.333 13.3196 14.333 13.3333V14.6667C14.333 15.0349 14.0345 15.3333 13.6664 15.3333H9.99968C9.63149 15.3333 9.33302 15.0349 9.33302 14.6667V12.6667C9.33302 12.6546 9.33301 12.6425 9.33301 12.6304C9.33296 12.3477 9.3329 12.0729 9.36337 11.8463C9.39772 11.5909 9.4814 11.2993 9.72354 11.0572C9.96569 10.815 10.2572 10.7314 10.5127 10.697C10.7393 10.6666 11.014 10.6666 11.2967 10.6667ZM10.6855 12.0191C10.6853 12.0207 10.685 12.0223 10.6848 12.024C10.6678 12.1508 10.6664 12.3335 10.6664 12.6667V14H12.9997V13.3333C12.9997 12.8431 12.9983 12.5425 12.969 12.3249C12.9433 12.1337 12.9067 12.1017 12.9024 12.0979C12.9022 12.0978 12.9021 12.0977 12.9021 12.0976C12.902 12.0976 12.9019 12.0974 12.9017 12.0973C12.898 12.0929 12.866 12.0564 12.6748 12.0307C12.4572 12.0014 12.1566 12 11.6664 12H11.333C10.9999 12 10.8171 12.0014 10.6903 12.0185C10.6887 12.0187 10.6871 12.0189 10.6855 12.0191Z" fill="#A683FF"/>
<path fill-rule="evenodd" clip-rule="evenodd" d="M0.666016 14.6667C0.666016 14.2985 0.964492 14 1.33268 14H14.666C15.0342 14 15.3327 14.2985 15.3327 14.6667C15.3327 15.0349 15.0342 15.3333 14.666 15.3333H1.33268C0.964492 15.3333 0.666016 15.0349 0.666016 14.6667Z" fill="#A683FF"/>
<path d="M7.95861 8C7.52252 7.99996 7.13071 7.99992 6.81358 8.04256C6.46734 8.08911 6.11213 8.1972 5.82117 8.48816C5.53021 8.77912 5.42212 9.13433 5.37557 9.48057C5.33293 9.7977 5.33297 10.1895 5.33301 10.6256L5.33301 14.6667C5.33301 15.0349 5.63149 15.3333 5.99968 15.3333H9.99968C10.3679 15.3333 10.6663 15.0349 10.6663 14.6667L10.6663 10.6256C10.6664 10.1895 10.6664 9.7977 10.6238 9.48057C10.5772 9.13433 10.4692 8.77912 10.1782 8.48816C9.88723 8.1972 9.53202 8.08911 9.18578 8.04256C8.86865 7.99992 8.47683 7.99996 8.04075 8H7.95861Z" fill="#A683FF"/>
<path opacity="0.4" d="M7.99877 0.833328C8.4467 0.833328 8.74673 1.16897 8.90857 1.49678L9.37248 2.43228L9.37634 2.43597C9.37953 2.43887 9.38327 2.44198 9.38743 2.44507C9.39158 2.44816 9.39568 2.45089 9.39948 2.45317L9.40498 2.45628L10.2417 2.59644C10.6019 2.65696 10.9937 2.84998 11.1262 3.26565C11.2585 3.68062 11.0517 4.06489 10.7933 4.32396L10.7926 4.32463L10.1421 4.98053C10.1398 4.98523 10.1369 4.99251 10.1342 5.00178C10.1313 5.01209 10.1299 5.02092 10.1294 5.02675L10.3157 5.83859C10.3997 6.2062 10.4077 6.71683 10.0114 7.00817C9.61294 7.30103 9.12755 7.13656 8.80406 6.9439L8.0196 6.47568L8.01462 6.47499C8.0103 6.47449 8.00538 6.47419 8.0001 6.47419C7.99482 6.47419 7.98979 6.47449 7.98526 6.47501C7.9823 6.47535 7.97983 6.47574 7.97787 6.47612L7.19447 6.94371C6.86987 7.1379 6.38557 7.29978 5.98766 7.00703C5.59223 6.71612 5.59798 6.20709 5.68264 5.83815L5.86875 5.02675C5.86827 5.02092 5.86689 5.01209 5.86396 5.00178C5.86133 4.99251 5.85835 4.98523 5.85608 4.98053L5.20436 4.32342C4.94753 4.06447 4.74156 3.68071 4.87273 3.26655C5.0045 2.85048 5.39608 2.65701 5.75673 2.5964L6.5906 2.45671L6.59535 2.45399C6.59916 2.45168 6.6033 2.44891 6.60751 2.44577C6.61171 2.44262 6.61552 2.43945 6.61878 2.43647L6.62297 2.43245L7.08721 1.49631L7.08767 1.49537C7.25079 1.16816 7.55153 0.833328 7.99877 0.833328Z" fill="#A683FF"/>
</svg>
