<svg width="18" height="18" viewBox="0 0 18 18" fill="none" xmlns="http://www.w3.org/2000/svg">
<g clip-path="url(#clip0_2186_6844)">
<g clip-path="url(#clip1_2186_6844)">
<path d="M9 0C9.533 0 9.964 0.432 9.964 0.964C9.964 1.497 9.533 1.929 9 1.929C8.467 1.929 8.036 1.497 8.036 0.964C8.036 0.432 8.467 0 9 0ZM18 9C18 9.533 17.568 9.964 17.036 9.964C16.503 9.964 16.071 9.533 16.071 9C16.071 8.467 16.503 8.036 17.036 8.036C17.568 8.036 18 8.467 18 9ZM1.929 9C1.929 9.533 1.497 9.964 0.964 9.964C0.432 9.964 0 9.533 0 9C0 8.467 0.432 8.036 0.964 8.036C1.497 8.036 1.929 8.467 1.929 9ZM13.5 1.206C13.812 1.371 14.01 1.693 14.014 2.046C14.019 2.399 13.831 2.726 13.523 2.899C13.215 3.072 12.837 3.064 12.538 2.876C12.099 2.601 11.956 2.027 12.214 1.578C12.473 1.128 13.041 0.964 13.5 1.206ZM16.794 4.5C16.981 4.799 16.99 5.176 16.817 5.483C16.644 5.791 16.318 5.979 15.965 5.975C15.613 5.971 15.291 5.775 15.125 5.464C14.881 5.006 15.044 4.436 15.494 4.176C15.944 3.916 16.519 4.059 16.794 4.5ZM2.876 12.536C3.142 12.997 2.984 13.587 2.523 13.854C2.061 14.12 1.471 13.962 1.205 13.5C0.938 13.038 1.097 12.448 1.558 12.182C2.02 11.916 2.61 12.074 2.876 12.536ZM4.5 1.206C4.799 1.019 5.176 1.01 5.483 1.183C5.791 1.356 5.979 1.682 5.975 2.035C5.971 2.387 5.775 2.709 5.464 2.875C5.006 3.119 4.436 2.956 4.176 2.506C3.916 2.056 4.059 1.481 4.5 1.206ZM1.206 4.5C1.371 4.188 1.693 3.99 2.046 3.986C2.399 3.981 2.726 4.169 2.899 4.477C3.072 4.785 3.064 5.163 2.876 5.462C2.601 5.901 2.027 6.044 1.578 5.786C1.128 5.527 0.964 4.959 1.206 4.5ZM15.124 12.536C15.39 12.074 15.98 11.916 16.442 12.182C16.903 12.448 17.062 13.038 16.795 13.5C16.529 13.962 15.939 14.12 15.477 13.854C15.016 13.587 14.858 12.997 15.124 12.536ZM9 5.143C9.932 5.122 10.803 5.607 11.275 6.411C11.747 7.215 11.748 8.211 11.276 9.015C10.804 9.819 9.933 10.305 9.001 10.284C7.604 10.254 6.487 9.112 6.487 7.714C6.486 6.317 7.603 5.174 9 5.143ZM9 11.571C11.84 11.571 14.143 13.01 14.143 14.786C14.143 16.561 11.84 18 9 18C6.16 18 3.857 16.561 3.857 14.786C3.857 13.01 6.16 11.571 9 11.571Z" fill="#A683FF"/>
</g>
</g>
<defs>
<clipPath id="clip0_2186_6844">
<rect width="18" height="18" fill="white"/>
</clipPath>
<clipPath id="clip1_2186_6844">
<rect width="18" height="18" fill="white"/>
</clipPath>
</defs>
</svg>
