<svg width="16" height="16" viewBox="0 0 16 16" fill="none" xmlns="http://www.w3.org/2000/svg">
<path opacity="0.4" d="M10.4067 9.30469C10.4657 9.15685 10.724 9.18374 11.2397 9.2373C12.0393 9.32036 12.8222 9.53767 13.5337 9.88965C13.5892 9.91709 13.6591 9.95054 13.7397 9.98828C14.1048 10.1592 14.6843 10.43 15.0815 10.7529C15.324 10.9501 15.6052 11.2473 15.6577 11.6465C15.7161 12.0908 15.4743 12.4673 15.105 12.7598C14.4814 13.2533 13.7312 13.6493 12.7671 13.6494C12.4277 13.6494 12.2572 13.6494 12.1929 13.5693C12.1888 13.5643 12.1867 13.561 12.1831 13.5557C12.1259 13.4707 12.1923 13.2911 12.3247 12.9326C12.4359 12.6317 12.4856 12.2981 12.4429 11.9365C12.3506 11.1564 11.8611 10.6135 11.5278 10.3115C11.3797 10.1773 11.211 10.048 11.0366 9.92773C10.5778 9.61121 10.3481 9.45245 10.4067 9.30469ZM10.8521 3.03613C12.3291 3.03613 13.5269 4.18646 13.5269 5.60449C13.5266 7.02231 12.329 8.17188 10.8521 8.17188C10.424 8.17183 10.0194 8.07501 9.66064 7.90332C9.48845 7.8209 9.40213 7.77949 9.37744 7.68945C9.3529 7.59914 9.41792 7.50769 9.54736 7.3252C10.0336 6.63968 10.3179 5.81084 10.3179 4.91895C10.3178 4.45899 10.242 4.01581 10.1021 3.60059C10.0312 3.39031 9.99537 3.28515 10.0454 3.20508C10.0955 3.12498 10.1906 3.10861 10.3804 3.07617C10.5335 3.05 10.6911 3.03615 10.8521 3.03613Z" fill="#A683FF"/>
<path d="M9.36024 10.1462L9.36032 10.1462C9.75423 10.3517 10.3721 10.6741 10.7948 11.0571C11.058 11.2956 11.3303 11.6285 11.3802 12.0518C11.4343 12.5099 11.2146 12.9235 10.8199 13.2716C10.1573 13.856 9.35164 14.3331 8.30671 14.3331H3.41514C2.37021 14.3331 1.56457 13.856 0.90199 13.2716C0.507251 12.9235 0.28752 12.5099 0.341607 12.0518C0.391591 11.6285 0.663851 11.2956 0.927044 11.0571C1.34975 10.6741 1.96762 10.3517 2.36153 10.1462C2.44924 10.1004 2.52584 10.0605 2.58671 10.0269C4.59196 8.92159 7.12989 8.92159 9.13513 10.0269C9.19599 10.0605 9.27256 10.1004 9.36024 10.1462Z" fill="#A683FF"/>
<path d="M2.47266 4.91892C2.47266 3.12275 3.98937 1.66667 5.86034 1.66667C7.73131 1.66667 9.24803 3.12275 9.24803 4.91892C9.24803 6.71509 7.73131 8.17118 5.86034 8.17118C3.98937 8.17118 2.47266 6.71509 2.47266 4.91892Z" fill="#A683FF"/>
</svg>
