<svg width="24" height="24" viewBox="0 0 24 24" fill="none" xmlns="http://www.w3.org/2000/svg">
<g clip-path="url(#clip0_2186_9399)">
<g clip-path="url(#clip1_2186_9399)">
<path d="M12 0C13.656 0 15.065 1.642 16.5 2.251C17.935 2.858 19.399 2.429 20.486 3.514C21.571 4.601 21.142 6.065 21.751 7.5C22.358 8.935 24 10.344 24 12C24 13.656 22.358 15.065 21.751 16.5C21.142 17.935 21.571 19.399 20.486 20.486C19.399 21.571 17.935 21.142 16.5 21.751C15.065 22.358 13.656 24 12 24C10.344 24 8.935 22.358 7.5 21.751C6.065 21.142 4.601 21.571 3.514 20.486C2.429 19.399 2.858 17.935 2.251 16.5C1.642 15.065 0 13.656 0 12C0 10.344 1.642 8.935 2.251 7.5C2.858 6.065 2.429 4.601 3.514 3.514C4.601 2.429 6.065 2.858 7.5 2.251C8.935 1.642 10.344 0 12 0Z" fill="#A683FF"/>
<path d="M6.85742 11.9998L10.2864 15.4288L17.1434 8.5708" stroke="#F6F6F7" stroke-width="2.5" stroke-miterlimit="10" stroke-linecap="round"/>
</g>
</g>
<defs>
<clipPath id="clip0_2186_9399">
<rect width="24" height="24" fill="white"/>
</clipPath>
<clipPath id="clip1_2186_9399">
<rect width="24" height="24" fill="white"/>
</clipPath>
</defs>
</svg>
