<svg width="92" height="20" viewBox="0 0 92 20" fill="none" xmlns="http://www.w3.org/2000/svg">
<g clip-path="url(#clip0_2255_1160)">
<path d="M28.5272 10.1732V9.95072C28.5272 9.39154 28.3319 8.96358 27.9414 8.66687C27.5627 8.35875 27.0656 8.20471 26.4501 8.20471C25.9767 8.20471 25.6039 8.28457 25.3317 8.44435C25.0714 8.59269 24.8228 8.82095 24.5861 9.12907C24.5151 9.22034 24.4382 9.28312 24.3553 9.31735C24.2725 9.35159 24.16 9.36871 24.018 9.36871H23.4854C23.3553 9.36871 23.2369 9.32306 23.1304 9.23176C23.0357 9.14048 22.9943 9.03206 23.0061 8.90652C23.0416 8.56415 23.2132 8.22753 23.5209 7.89658C23.8405 7.55422 24.2607 7.27463 24.7814 7.05779C25.3021 6.84097 25.8584 6.73254 26.4501 6.73254C27.5508 6.73254 28.4384 7.02925 29.1131 7.62267C29.7995 8.21612 30.1427 9.04918 30.1427 10.1219V15.3429C30.1427 15.4684 30.0954 15.5768 30.0007 15.6681C29.906 15.7594 29.7936 15.805 29.6634 15.805H29.0066C28.8764 15.805 28.7639 15.7594 28.6693 15.6681C28.5746 15.5768 28.5272 15.4684 28.5272 15.3429V14.641C28.3379 15.0519 27.9355 15.3771 27.32 15.6167C26.7046 15.8564 26.0892 15.9762 25.4738 15.9762C24.8701 15.9762 24.3317 15.8735 23.8582 15.6681C23.3848 15.4513 23.0179 15.1603 22.7576 14.7951C22.509 14.4299 22.3848 14.0191 22.3848 13.5626C22.3848 12.7067 22.7162 12.0391 23.3789 11.5598C24.0417 11.0691 24.9234 10.7381 26.0241 10.567L28.5272 10.1732ZM28.5272 11.5427L26.4324 11.8679C25.6631 11.982 25.0654 12.1703 24.6394 12.4328C24.2133 12.6839 24.0003 13.0034 24.0003 13.3914C24.0003 13.6767 24.1364 13.9335 24.4086 14.1617C24.6808 14.39 25.095 14.5041 25.6513 14.5041C26.5034 14.5041 27.1958 14.2701 27.7283 13.8023C28.2609 13.3343 28.5272 12.7238 28.5272 11.9706V11.5427Z" fill="#636475"/>
<path d="M34.3479 15.3428C34.3479 15.4683 34.3004 15.5767 34.2057 15.668C34.1111 15.7593 33.9988 15.8049 33.8684 15.8049H33.2116C33.0815 15.8049 32.9689 15.7593 32.8743 15.668C32.7796 15.5767 32.7324 15.4683 32.7324 15.3428V4.11344C32.7324 3.9879 32.7796 3.87951 32.8743 3.7882C32.9689 3.6969 33.0815 3.65125 33.2116 3.65125H33.8684C33.9988 3.65125 34.1111 3.6969 34.2057 3.7882C34.3004 3.87951 34.3479 3.9879 34.3479 4.11344V15.3428Z" fill="#636475"/>
<path d="M40.7421 14.5041C41.9255 14.5041 42.7245 14.059 43.1389 13.1689C43.2216 12.9977 43.3045 12.8779 43.3875 12.8094C43.4701 12.7409 43.5826 12.7067 43.7245 12.7067H44.2573C44.3875 12.7067 44.4997 12.7523 44.5944 12.8437C44.6893 12.9235 44.7365 13.0205 44.7365 13.1347C44.7365 13.5226 44.5768 13.9392 44.2573 14.3843C43.9376 14.8293 43.4759 15.2059 42.8725 15.514C42.2691 15.8221 41.5589 15.9762 40.7421 15.9762C39.9018 15.9762 39.1741 15.805 38.5586 15.4627C37.9431 15.1203 37.4698 14.6524 37.1383 14.059C36.8068 13.4542 36.6237 12.7809 36.5879 12.0391C36.5762 11.9022 36.5703 11.6397 36.5703 11.2517C36.5703 10.9778 36.5762 10.7838 36.5879 10.6697C36.6946 9.50564 37.1028 8.55845 37.813 7.82811C38.5231 7.09773 39.4994 6.73254 40.7421 6.73254C41.5589 6.73254 42.2629 6.88662 42.8546 7.19474C43.4584 7.49145 43.9141 7.86234 44.2215 8.30739C44.5413 8.74106 44.7128 9.1519 44.7365 9.53988C44.7482 9.66542 44.7011 9.77385 44.5944 9.86512C44.4997 9.95642 44.3875 10.0021 44.2573 10.0021H43.7245C43.5826 10.0021 43.4701 9.96784 43.3875 9.89936C43.3045 9.83088 43.2216 9.71107 43.1389 9.53988C42.7245 8.64975 41.9255 8.20471 40.7421 8.20471C40.0911 8.20471 39.5231 8.41582 39.0378 8.83807C38.5527 9.26029 38.2746 9.89936 38.2034 10.7552C38.1916 10.8808 38.1858 11.0862 38.1858 11.3715C38.1858 11.634 38.1916 11.828 38.2034 11.9535C38.2863 12.8094 38.5644 13.4485 39.0378 13.8707C39.5231 14.293 40.0911 14.5041 40.7421 14.5041Z" fill="#636475"/>
<path d="M55.063 15.3429C55.063 15.4684 55.0158 15.5768 54.9208 15.6681C54.8262 15.7594 54.7139 15.8051 54.5838 15.8051H53.9267C53.7966 15.8051 53.6843 15.7594 53.5897 15.6681C53.4947 15.5768 53.4475 15.4684 53.4475 15.3429V10.8238C53.4475 9.96788 53.2286 9.31739 52.7907 8.87232C52.3528 8.42727 51.7432 8.20475 50.9622 8.20475C50.1928 8.20475 49.5832 8.42727 49.1336 8.87232C48.6957 9.31739 48.4768 9.96788 48.4768 10.8238V15.3429C48.4768 15.4684 48.4293 15.5768 48.3346 15.6681C48.24 15.7594 48.1274 15.8051 47.9973 15.8051H47.3405C47.2104 15.8051 47.0978 15.7594 47.0032 15.6681C46.9085 15.5768 46.8613 15.4684 46.8613 15.3429V4.11357C46.8613 3.98802 46.9085 3.87963 47.0032 3.78832C47.0978 3.69702 47.2104 3.65137 47.3405 3.65137H47.9973C48.1274 3.65137 48.24 3.69702 48.3346 3.78832C48.4293 3.87963 48.4768 3.98802 48.4768 4.11357V7.89662C48.7371 7.56568 49.0923 7.29179 49.5419 7.07494C50.0035 6.84671 50.5656 6.73258 51.2283 6.73258C51.9739 6.73258 52.6368 6.88666 53.2169 7.19478C53.7966 7.5029 54.2465 7.94795 54.5659 8.52999C54.8974 9.10058 55.063 9.77959 55.063 10.567V15.3429Z" fill="#636475"/>
<path d="M61.2844 6.73254C62.5508 6.73254 63.5508 7.12056 64.2847 7.89658C65.0186 8.67258 65.3856 9.72819 65.3856 11.0634V11.5256C65.3856 11.6511 65.3381 11.7595 65.2434 11.8508C65.1488 11.9421 65.0362 11.9877 64.9061 11.9877H58.7991V12.0904C58.8228 12.8436 59.0596 13.4371 59.5092 13.8707C59.9708 14.293 60.5626 14.5041 61.2844 14.5041C61.8762 14.5041 62.3319 14.4299 62.6514 14.2815C62.9829 14.1332 63.2789 13.9221 63.5391 13.6482C63.6338 13.5569 63.7167 13.4941 63.7877 13.4599C63.8706 13.4257 63.977 13.4085 64.1071 13.4085H64.64C64.7818 13.4085 64.9002 13.4542 64.9949 13.5455C65.0895 13.6368 65.1309 13.7452 65.1191 13.8707C65.0717 14.1788 64.8944 14.4984 64.5866 14.8293C64.2906 15.1488 63.8586 15.4227 63.2906 15.651C62.7343 15.8678 62.0658 15.9762 61.2844 15.9762C60.5271 15.9762 59.8524 15.8107 59.2607 15.4798C58.669 15.1374 58.1956 14.6696 57.8404 14.0761C57.4972 13.4827 57.2903 12.8151 57.2191 12.0733C57.1956 11.731 57.1836 11.4685 57.1836 11.2859C57.1836 11.1033 57.1956 10.8408 57.2191 10.4985C57.2903 9.79093 57.4972 9.1519 57.8404 8.58127C58.1956 8.01068 58.6631 7.55993 59.2431 7.22898C59.8349 6.89803 60.5154 6.73254 61.2844 6.73254ZM63.7877 10.5498V10.4985C63.7877 9.80235 63.557 9.24888 63.0954 8.83807C62.6455 8.41582 62.0421 8.20471 61.2844 8.20471C60.598 8.20471 60.0121 8.41582 59.5271 8.83807C59.0535 9.26029 58.8111 9.81376 58.7991 10.4985V10.5498H63.7877Z" fill="#636475"/>
<path d="M69.1428 7.89646C69.4268 7.54269 69.7466 7.2631 70.1015 7.05766C70.4567 6.84085 70.9301 6.73242 71.5218 6.73242C72.9066 6.73242 73.877 7.22886 74.4333 8.2217C74.7765 7.74239 75.1669 7.3772 75.6051 7.12614C76.0429 6.86367 76.6168 6.73242 77.3269 6.73242C78.4866 6.73242 79.3448 7.06908 79.9011 7.74239C80.4691 8.41569 80.7534 9.36859 80.7534 10.6011V15.3427C80.7534 15.4683 80.7059 15.5767 80.6112 15.668C80.5166 15.7593 80.404 15.8049 80.2739 15.8049H79.6171C79.487 15.8049 79.3744 15.7593 79.2797 15.668C79.1851 15.5767 79.1376 15.4683 79.1376 15.3427V10.7722C79.1376 9.06047 78.4395 8.20458 77.0429 8.20458C76.4037 8.20458 75.8949 8.40999 75.5162 8.82083C75.1373 9.23163 74.9479 9.84217 74.9479 10.6524V15.3427C74.9479 15.4683 74.9008 15.5767 74.8061 15.668C74.7114 15.7593 74.5989 15.8049 74.4688 15.8049H73.812C73.6818 15.8049 73.5693 15.7593 73.4746 15.668C73.38 15.5767 73.3325 15.4683 73.3325 15.3427V10.7722C73.3325 9.06047 72.6343 8.20458 71.2378 8.20458C70.5986 8.20458 70.0898 8.40999 69.7111 8.82083C69.3321 9.23163 69.1428 9.84217 69.1428 10.6524V15.3427C69.1428 15.4683 69.0957 15.5767 69.001 15.668C68.9063 15.7593 68.7938 15.8049 68.6636 15.8049H68.0068C67.8764 15.8049 67.7642 15.7593 67.6695 15.668C67.5748 15.5767 67.5273 15.4683 67.5273 15.3427V7.36578C67.5273 7.24027 67.5748 7.13185 67.6695 7.04054C67.7642 6.94927 67.8764 6.90362 68.0068 6.90362H68.6636C68.7938 6.90362 68.9063 6.94927 69.001 7.04054C69.0957 7.13185 69.1428 7.24027 69.1428 7.36578V7.89646Z" fill="#636475"/>
<path d="M85.724 18.6462C85.6173 18.9201 85.4458 19.057 85.209 19.057H84.4813C84.3629 19.057 84.262 19.0171 84.1794 18.9372C84.0964 18.8573 84.0551 18.7603 84.0551 18.6462C84.0551 18.6005 84.061 18.5606 84.0727 18.5263L85.777 14.9487L82.262 7.43397C82.2503 7.39973 82.2441 7.35978 82.2441 7.31413C82.2441 7.20003 82.2858 7.10302 82.3684 7.02313C82.4514 6.94327 82.5519 6.90332 82.6703 6.90332H83.3983C83.6348 6.90332 83.8066 7.04025 83.913 7.31413L86.6468 13.1342L89.4165 7.31413C89.5229 7.04025 89.6947 6.90332 89.9312 6.90332H90.6592C90.7776 6.90332 90.8781 6.94327 90.9608 7.02313C91.0437 7.10302 91.085 7.20003 91.085 7.31413C91.085 7.35978 91.0792 7.39973 91.0675 7.43397L85.724 18.6462Z" fill="#636475"/>
<path d="M15.6729 10.1424L9.71184 0.23347C9.68298 0.184541 9.64118 0.143784 9.59066 0.115311C9.54014 0.0868372 9.48269 0.0716549 9.4241 0.0712956C9.36551 0.0709363 9.30787 0.0854128 9.25699 0.113264C9.20611 0.141115 9.16379 0.181357 9.13428 0.229928L7.349 3.19906C7.29054 3.29624 7.25977 3.40651 7.25977 3.51873C7.25977 3.63095 7.29054 3.74122 7.349 3.83839L11.236 10.3027C11.2945 10.3999 11.3787 10.4807 11.4801 10.5368C11.5815 10.593 11.6965 10.6225 11.8136 10.6223H15.3841C15.4426 10.6222 15.4999 10.6073 15.5505 10.5792C15.6011 10.551 15.6431 10.5106 15.6723 10.4621C15.7016 10.4135 15.717 10.3584 15.7171 10.3023C15.7172 10.2462 15.7019 10.1911 15.6729 10.1424Z" fill="#636475"/>
<path d="M0.045966 15.3205L6.007 5.41161C6.03625 5.36306 6.07831 5.32276 6.12893 5.29474C6.17951 5.26671 6.2369 5.25195 6.29532 5.25195C6.35375 5.25195 6.41116 5.26671 6.46175 5.29474C6.51237 5.32276 6.5544 5.36306 6.58364 5.41161L8.36984 8.37806C8.4283 8.47542 8.45907 8.58582 8.45907 8.69817C8.45907 8.81054 8.4283 8.92094 8.36984 9.01831L4.48284 15.4825C4.42454 15.5798 4.34052 15.6606 4.23928 15.7167C4.13804 15.7729 4.02315 15.8024 3.9062 15.8022H0.334745C0.275912 15.8025 0.218053 15.7878 0.167048 15.7597C0.116044 15.7315 0.0737193 15.6909 0.0443778 15.642C0.0150363 15.593 -0.000276228 15.5375 3.77217e-06 15.481C0.000283772 15.4246 0.0161403 15.3692 0.045966 15.3205Z" fill="#636475"/>
<path d="M6.58273 15.8001H18.5048C18.5633 15.8 18.6207 15.7852 18.6714 15.7571C18.722 15.729 18.764 15.6886 18.7931 15.6399C18.8223 15.5913 18.8376 15.5361 18.8376 15.48C18.8375 15.4238 18.822 15.3687 18.7927 15.3202L17.0093 12.3519C16.9507 12.2546 16.8665 12.1738 16.7651 12.1177C16.6637 12.0616 16.5487 12.0321 16.4317 12.0322H8.6577C8.54065 12.0321 8.42566 12.0616 8.32426 12.1177C8.22286 12.1738 8.13867 12.2546 8.08015 12.3519L6.29489 15.3202C6.26555 15.3687 6.25007 15.4238 6.25 15.48C6.2499 15.5361 6.26519 15.5913 6.29437 15.6399C6.32355 15.6886 6.36558 15.729 6.4162 15.7571C6.46682 15.7852 6.52423 15.8 6.58273 15.8001Z" fill="#636475"/>
</g>
<defs>
<clipPath id="clip0_2255_1160">
<rect width="91.0861" height="19.1281" fill="white"/>
</clipPath>
</defs>
</svg>
