<svg width="74" height="20" viewBox="0 0 74 20" fill="none" xmlns="http://www.w3.org/2000/svg">
<g clip-path="url(#clip0_2255_1184)">
<path d="M0.638672 5.82727V13.3364C0.638672 13.7967 0.901072 14.257 1.27846 14.4857L7.66156 18.2403C8.07432 18.4689 8.56374 18.4689 8.97651 18.2403L15.3596 14.4857C15.7724 14.257 15.9994 13.7967 15.9994 13.3364V5.82727C15.9994 5.36697 15.737 4.90667 15.3596 4.67802L8.97356 0.923437C8.56079 0.694792 8.07137 0.694792 7.65861 0.923437L1.27551 4.67802C0.862744 4.90667 0.638672 5.36697 0.638672 5.82727Z" fill="#636475"/>
<path d="M9.72585 11.0381L8.82367 13.5682C8.78534 13.6435 8.78534 13.7217 8.82367 13.7969L10.401 18.1652L12.2024 17.0912L10.0236 11.0381C9.98825 10.8847 9.79956 10.8847 9.72585 11.0381Z" fill="#636475"/>
<path d="M11.5266 6.74801C11.4883 6.59458 11.3025 6.59458 11.2259 6.74801L10.3237 9.27814C10.2853 9.35336 10.2853 9.43158 10.3237 9.50679L12.8769 16.673L14.6783 15.599L11.5266 6.74801Z" fill="#636475"/>
<path d="M8.29973 1.19128C8.33806 1.19128 8.37344 1.19128 8.41177 1.23039L15.3197 5.29184C15.3934 5.33096 15.4317 5.40617 15.4317 5.52049V13.6434C15.4317 13.7186 15.3934 13.8359 15.3197 13.872L8.41177 17.9335C8.37344 17.9726 8.33806 17.9726 8.29973 17.9726C8.2614 17.9726 8.22602 17.9726 8.18769 17.9335L1.27979 13.872C1.20608 13.8329 1.16776 13.7577 1.16776 13.6434V5.52049C1.16776 5.44528 1.20608 5.32795 1.27979 5.29184L8.18769 1.23039C8.22307 1.19128 8.2614 1.19128 8.29973 1.19128ZM8.29973 0.00292969C8.03733 0.00292969 7.81031 0.0781418 7.58624 0.195473L0.678336 4.25693C0.227244 4.52468 -0.0351563 4.98498 -0.0351563 5.52049L-0.0351563 13.6434C-0.0351563 14.1428 0.227244 14.6392 0.678336 14.907L7.58624 18.9684C7.81031 19.0827 8.03733 19.161 8.29973 19.161C8.56213 19.161 8.78915 19.0857 9.01322 18.9684L15.9211 14.907C16.3722 14.6392 16.6346 14.1789 16.6346 13.6434V5.52049C16.6346 5.02108 16.3722 4.52468 15.9211 4.25693L9.0486 0.195473C8.82453 0.0811503 8.59751 0.00292969 8.33511 0.00292969H8.29973Z" fill="#636475"/>
<path d="M3.75586 16.6702L4.3927 14.9072L5.66932 15.9813L4.46935 17.1305L3.75586 16.6702Z" fill="#636475"/>
<path d="M7.73599 4.94629H5.96995C5.85791 4.94629 5.70755 5.0215 5.66922 5.13883L1.91602 15.6354L3.71744 16.7095L7.84802 5.17493C7.88635 5.06061 7.8097 4.94629 7.69766 4.94629H7.73599Z" fill="#636475"/>
<path d="M10.7764 4.94632H9.01037C8.89834 4.94632 8.74797 5.02153 8.70964 5.13886L4.43164 17.0916L6.23306 18.1656L10.8884 5.13886C10.9268 5.02454 10.8501 4.91022 10.7381 4.91022L10.7764 4.94632Z" fill="#636475"/>
<path d="M24.0704 7.12976C24.2591 7.12976 24.4095 7.16887 24.5215 7.24408C24.6336 7.3193 24.7456 7.47273 24.8606 7.66527L27.1514 11.8802C27.1898 11.9193 27.1898 11.9554 27.1514 11.9945C27.1514 12.0336 27.1131 12.0336 27.0394 12.0336H26.1755C26.1018 12.0336 26.0635 11.9945 26.0252 11.9584L25.5328 11.0378H22.3044L21.815 11.9584C21.7766 12.0336 21.7413 12.0336 21.6646 12.0336H20.7624C20.6887 12.0336 20.6504 12.0336 20.6504 11.9945C20.6504 11.9554 20.6504 11.9193 20.6504 11.8802L22.9029 7.66527C23.0149 7.43663 23.127 7.3193 23.242 7.24408C23.3569 7.16887 23.466 7.12976 23.6164 7.12976H24.0292H24.0704ZM22.7172 10.2345H25.0817L23.9938 8.16468C23.9554 8.12557 23.9554 8.12557 23.9201 8.12557H23.8817C23.8434 8.12557 23.808 8.12557 23.808 8.16468L22.7172 10.2345Z" fill="#636475"/>
<path d="M32.1438 7.12982C32.6686 7.12982 33.046 7.24414 33.27 7.5119C33.4941 7.74054 33.6091 8.12563 33.6091 8.58593V8.96801C33.6091 9.38919 33.5354 9.69606 33.385 9.9247C33.2346 10.1533 32.9722 10.3068 32.5978 10.385L33.7624 11.8802C33.8007 11.9193 33.8007 11.9554 33.8007 11.9945C33.8007 12.0337 33.7624 12.0698 33.6887 12.0698H32.7865C32.7128 12.0698 32.6745 12.0698 32.6745 12.0306C32.6361 12.0306 32.6361 11.9915 32.6008 11.9554L31.5128 10.4993H29.2986V11.9163C29.2986 12.0306 29.2603 12.0698 29.1483 12.0698H28.3965C28.2844 12.0698 28.2461 12.0306 28.2461 11.9163V7.35847C28.2461 7.20503 28.3198 7.12982 28.4702 7.12982H32.188H32.1438ZM29.2898 9.65695H31.9167C32.1408 9.65695 32.3295 9.61784 32.4062 9.50352C32.5182 9.38919 32.5565 9.23576 32.5565 9.04322V8.73635C32.5565 8.50771 32.5182 8.35427 32.4062 8.27605C32.2941 8.16173 32.1438 8.12262 31.9167 8.12262H29.3635C29.2898 8.12262 29.2898 8.16173 29.2898 8.19783V9.65695Z" fill="#636475"/>
<path d="M39.3876 7.12982C39.877 7.12982 40.2132 7.24414 40.4018 7.43669C40.5905 7.62923 40.7026 7.9361 40.7026 8.31817V8.66415C40.7026 9.04623 40.5522 9.35309 40.2515 9.54563C40.5522 9.73818 40.7409 10.045 40.7409 10.4662V10.8874C40.7409 11.08 40.7026 11.2334 40.6672 11.3868C40.6318 11.5403 40.5552 11.6546 40.4785 11.7689C40.3665 11.8832 40.2544 11.9614 40.1041 11.9975C39.9537 12.0367 39.765 12.0728 39.5409 12.0728H35.4487C35.2983 12.0728 35.2246 11.9976 35.2246 11.8441V7.36147C35.2246 7.20804 35.2983 7.13283 35.4487 7.13283H39.4289H39.3876V7.12982ZM36.2713 9.16055H39.0869C39.311 9.16055 39.4613 9.12144 39.538 9.04623C39.6146 8.97101 39.65 8.89279 39.65 8.73936V8.51072C39.65 8.35728 39.6117 8.24296 39.538 8.20385C39.4643 8.12864 39.3139 8.08953 39.1636 8.08953H36.3479C36.2742 8.08953 36.2742 8.12864 36.2742 8.16474V9.16055H36.2713ZM36.2713 9.92771V10.9626C36.2713 11.0378 36.3096 11.0378 36.345 11.0378H39.1606C39.3493 11.0378 39.4613 10.9987 39.535 10.9235C39.6088 10.8483 39.6471 10.731 39.6471 10.6167V10.3489C39.6471 10.1955 39.6088 10.0811 39.535 10.0029C39.4613 9.9247 39.311 9.8886 39.0456 9.8886H36.2329L36.2713 9.92771Z" fill="#636475"/>
<path d="M43.2948 7.12982C43.4068 7.12982 43.4451 7.16893 43.4451 7.28325V11.8802C43.4451 11.9945 43.4068 12.0337 43.2948 12.0337H42.5429C42.4309 12.0337 42.3926 11.9945 42.3926 11.8802V7.28325C42.3926 7.16893 42.4309 7.12982 42.5429 7.12982H43.2948Z" fill="#636475"/>
<path d="M50.539 7.12982C50.6511 7.12982 50.6894 7.16893 50.6894 7.28325V7.9722C50.6894 8.08652 50.6511 8.12563 50.539 8.12563H48.3602V11.8802C48.3602 11.9945 48.3219 12.0337 48.2099 12.0337H47.458C47.346 12.0337 47.3077 11.9945 47.3077 11.8802V8.12563H45.1289C45.0168 8.12563 44.9785 8.08652 44.9785 7.9722V7.28325C44.9785 7.16893 45.0168 7.12982 45.1289 7.12982H50.4978H50.539Z" fill="#636475"/>
<path d="M55.9856 7.12982C56.5104 7.12982 56.8877 7.24414 57.1118 7.5119C57.3359 7.74054 57.4509 8.12563 57.4509 8.58593V8.96801C57.4509 9.38919 57.3772 9.69606 57.2268 9.9247C57.0764 10.1533 56.814 10.3068 56.4396 10.385L57.6042 11.8802C57.6425 11.9193 57.6425 11.9554 57.6425 11.9945C57.6425 12.0337 57.6042 12.0698 57.5305 12.0698H56.6283C56.5546 12.0698 56.5163 12.0698 56.5163 12.0306C56.4779 12.0306 56.4779 11.9915 56.4426 11.9554L55.3546 10.4993H53.1404V11.9163C53.1404 12.0306 53.1021 12.0698 52.9901 12.0698H52.2383C52.1262 12.0698 52.0879 12.0306 52.0879 11.9163V7.35847C52.0879 7.20503 52.1616 7.12982 52.312 7.12982H56.0298H55.9856ZM53.1316 9.65695H55.7585C55.9826 9.65695 56.1713 9.61784 56.248 9.50352C56.36 9.38919 56.3983 9.23576 56.3983 9.04322V8.73635C56.3983 8.50771 56.36 8.35427 56.248 8.27605C56.1359 8.16173 55.9856 8.12262 55.7585 8.12262H53.2053C53.1316 8.12262 53.1316 8.16173 53.1316 8.19783V9.65695Z" fill="#636475"/>
<path d="M59.8548 7.12982C59.9668 7.12982 60.0052 7.16893 60.0052 7.28325V10.0811C60.0052 10.2737 60.0052 10.4271 60.0435 10.5414C60.0818 10.6558 60.1172 10.7701 60.1939 10.8483C60.2705 10.9265 60.3442 10.9626 60.4563 11.0017C60.5683 11.0409 60.7187 11.0409 60.9073 11.0409H62.8238C63.0124 11.0409 63.1628 11.0409 63.2748 11.0017C63.3869 10.9626 63.4989 10.9265 63.5372 10.8483C63.611 10.7731 63.6493 10.6558 63.6876 10.5414C63.7259 10.4271 63.7259 10.2737 63.7259 10.0811V7.28325C63.7259 7.16893 63.7643 7.12982 63.8763 7.12982H64.6281C64.7402 7.12982 64.7785 7.16893 64.7785 7.28325V10.1955C64.7785 10.5414 64.7402 10.8092 64.6664 11.0378C64.5927 11.2665 64.4778 11.459 64.3274 11.6125C64.177 11.7659 63.9883 11.8802 63.7259 11.9193C63.4635 11.9945 63.2011 12.0337 62.8238 12.0337H60.8336C60.4946 12.0337 60.1939 11.9945 59.9315 11.9193C59.7074 11.8441 59.4804 11.7268 59.33 11.6125C59.1796 11.459 59.0676 11.2665 58.9909 11.0378C58.9172 10.8092 58.8789 10.5023 58.8789 10.1955V7.28325C58.8789 7.16893 58.9172 7.12982 59.0293 7.12982H59.7811H59.8548Z" fill="#636475"/>
<path d="M67.7388 7.12982C67.8508 7.12982 67.9275 7.12982 68.0012 7.16893C68.0749 7.16893 68.1515 7.20804 68.1899 7.24414C68.2282 7.28325 68.3019 7.31936 68.3402 7.39758C68.3786 7.47279 68.4139 7.55101 68.4906 7.66533L69.9176 11.0378C69.9559 11.077 69.9559 11.1131 70.0296 11.1131H70.1033C70.1417 11.1131 70.177 11.0739 70.2154 11.0378L71.6423 7.66533C71.6807 7.55101 71.7161 7.47279 71.7927 7.39758C71.831 7.32236 71.8664 7.28325 71.9431 7.24414C71.9814 7.20503 72.0551 7.16893 72.1318 7.16893C72.2084 7.16893 72.2821 7.12982 72.3942 7.12982H73.146C73.3701 7.12982 73.5588 7.16893 73.6354 7.28325C73.7091 7.39758 73.7474 7.59012 73.7474 7.85788V11.8802C73.7474 11.9945 73.7091 12.0337 73.5971 12.0337H72.8836C72.7716 12.0337 72.7332 11.9945 72.7332 11.8802V8.20385C72.7332 8.16474 72.6949 8.12864 72.6949 8.12864H72.6212C72.5829 8.12864 72.5475 8.16775 72.5475 8.16775L71.1588 11.3086C71.1205 11.4229 71.0468 11.5373 70.9701 11.6155C70.8935 11.6937 70.8581 11.7689 70.7814 11.8441C70.7077 11.8832 70.6311 11.9584 70.5574 11.9584C70.4837 11.9975 70.3687 11.9975 70.2566 11.9975H69.9176C69.8055 11.9975 69.6935 11.9975 69.6169 11.9584C69.5402 11.9193 69.4665 11.8832 69.3928 11.8441C69.3191 11.805 69.2807 11.7298 69.2041 11.6155C69.1304 11.5403 69.0921 11.4229 69.0154 11.3086L67.6267 8.16775C67.6267 8.12864 67.5884 8.12864 67.553 8.12864H67.4793C67.441 8.12864 67.441 8.16775 67.441 8.20385V11.8832C67.441 11.9975 67.4027 12.0367 67.2906 12.0367H66.5742C66.4622 12.0367 66.4238 11.9975 66.4238 11.8832V7.85788C66.4238 7.59012 66.4622 7.39758 66.5359 7.28325C66.6096 7.16893 66.7983 7.12982 67.0253 7.12982H67.7771H67.7388Z" fill="#636475"/>
</g>
<defs>
<clipPath id="clip0_2255_1184">
<rect width="73.7079" height="19.164" fill="white"/>
</clipPath>
</defs>
</svg>
