<svg width="72" height="18" viewBox="0 0 72 18" fill="none" xmlns="http://www.w3.org/2000/svg">
<g clip-path="url(#clip0_2010_2972)">
<path d="M25.1557 17.9855C23.7371 17.9855 22.3691 17.4731 21.563 16.1213H21.095V17.6009H17.8696V0L21.095 0V6.40316H21.563C22.391 5.00136 23.939 4.46109 25.3357 4.46109C28.8204 4.46109 31.175 7.21467 31.175 11.0921C31.175 14.9696 28.5903 17.9789 25.1557 17.9789V17.9861V17.9855ZM24.4576 15.133C26.4449 15.133 27.863 13.525 27.863 11.2272C27.863 8.92941 26.4157 7.32139 24.4576 7.32139C22.4996 7.32139 21.1023 8.85104 21.1023 11.2272C21.1023 13.6034 22.5209 15.133 24.4576 15.133ZM37.1364 17.9855C34.6597 17.9855 32.6437 16.5059 32.6437 14.0797C32.6437 11.6535 34.8611 10.3018 37.547 10.0244L41.3416 9.64032V8.92885C41.3416 7.83331 40.4343 7.0646 38.8363 7.0646C37.2382 7.0646 36.4316 7.72604 36.1509 8.72208H33.0549C33.3643 6.29589 35.4022 4.46054 38.8363 4.46054C42.2703 4.46054 44.3369 6.04021 44.3369 9.12784V15.3531C44.3369 16.143 44.4163 17.2385 44.4663 17.5442V17.5942H41.3703C41.3416 17.1601 41.3416 16.7549 41.3416 16.3208H40.8736C40.0743 17.5942 38.6776 17.9783 37.1296 17.9783L37.1369 17.9855H37.1364ZM38.015 15.5883C40.1317 15.5883 41.3484 14.0086 41.3484 12.4011V11.7608L38.5044 12.0954C36.7477 12.3016 35.8978 12.8069 35.8978 13.9308C35.8978 15.0547 36.7764 15.5883 38.0144 15.5883H38.015ZM52.091 17.9855C48.8364 17.9855 46.511 16.3775 46.151 13.8518H49.3263C49.6863 14.9757 50.8743 15.4599 52.1129 15.4599C53.3516 15.4599 54.4096 14.9263 54.4096 13.9802C54.4096 13.0342 53.4303 12.778 52.0843 12.5501L50.7163 12.3222C48.1316 11.8881 46.5329 10.8137 46.5329 8.5231C46.5329 6.23252 48.7503 4.46776 51.8249 4.46776C54.8996 4.46776 56.8076 5.84789 57.3476 8.24574H54.2516C53.8916 7.29972 52.9342 6.92231 51.8469 6.92231C50.7596 6.92231 49.6796 7.48425 49.6796 8.27409C49.6796 9.06392 50.3489 9.34851 51.7462 9.57584L53.1142 9.80373C55.6196 10.2095 57.5276 11.2339 57.5276 13.7095C57.5276 16.1852 55.2523 17.9994 52.0769 17.9994L52.0916 17.985L52.091 17.9855ZM65.6197 17.9855C61.6451 17.9855 59.0103 15.3031 59.0103 11.1983C59.0103 7.0935 61.7969 4.46054 65.6489 4.46054C69.5009 4.46054 71.9996 7.42033 71.9996 11.3261V11.8881H62.1642C62.3229 14.008 63.8202 15.2531 65.6276 15.2531C67.4349 15.2531 68.0322 14.7406 68.4716 13.8513H71.7762C71.1069 16.2491 68.7016 17.985 65.6276 17.985H65.6202L65.6197 17.9855ZM68.8456 9.77538C68.5863 8.06787 67.2183 7.07183 65.6202 7.07183C64.0222 7.07183 62.5243 8.03953 62.2149 9.77538H68.8535H68.8462H68.8456Z" fill="#E3E8FF"/>
<path d="M0.777375 17.6091C0.25875 17.6091 0 17.3528 0 16.8409L0 5.61369C0 5.10122 0.259312 4.84554 0.777375 4.84554H12.1388C12.6574 4.84554 12.9161 5.10177 12.9161 5.61369V16.8403C12.9161 17.3528 12.6568 17.6085 12.1388 17.6085H0.777375V17.6091Z" fill="#E3E8FF"/>
</g>
<defs>
<clipPath id="clip0_2010_2972">
<rect width="72" height="18" fill="white"/>
</clipPath>
</defs>
</svg>
