<svg width="77" height="20" viewBox="0 0 77 20" fill="none" xmlns="http://www.w3.org/2000/svg">
<g clip-path="url(#clip0_2255_1171)">
<path d="M26.7992 19.1606C25.2879 19.1606 23.8305 18.6147 22.9718 17.1746H22.4732V18.7509H19.0371V0L22.4732 0V6.82151H22.9718C23.8539 5.32812 25.503 4.75256 26.991 4.75256C30.7033 4.75256 33.2118 7.68604 33.2118 11.8168C33.2118 15.9477 30.4582 19.1535 26.7992 19.1535V19.1612V19.1606ZM26.0555 16.1217C28.1727 16.1217 29.6834 14.4087 29.6834 11.9607C29.6834 9.51281 28.1415 7.79974 26.0555 7.79974C23.9695 7.79974 22.481 9.42932 22.481 11.9607C22.481 14.4922 23.9923 16.1217 26.0555 16.1217ZM39.5626 19.1606C36.9241 19.1606 34.7764 17.5843 34.7764 14.9996C34.7764 12.4149 37.1387 10.9748 40.0001 10.6793L44.0426 10.2702V9.51222C44.0426 8.3451 43.0761 7.52617 41.3736 7.52617C39.6711 7.52617 38.8118 8.23082 38.5128 9.29194H35.2145C35.5441 6.70723 37.7152 4.75197 41.3736 4.75197C45.032 4.75197 47.2337 6.43484 47.2337 9.72421V16.3562C47.2337 17.1977 47.3182 18.3648 47.3715 18.6905V18.7438H44.0732C44.0426 18.2813 44.0426 17.8496 44.0426 17.3872H43.5441C42.6925 18.7438 41.2046 19.1529 39.5555 19.1529L39.5632 19.1606H39.5626ZM40.4987 16.6067C42.7537 16.6067 44.0498 14.9238 44.0498 13.2114V12.5292L41.02 12.8857C39.1486 13.1054 38.2431 13.6436 38.2431 14.8409C38.2431 16.0383 39.1791 16.6067 40.4981 16.6067H40.4987ZM55.4943 19.1606C52.0271 19.1606 49.5498 17.4476 49.1662 14.7569H52.549C52.9325 15.9542 54.1981 16.4699 55.5177 16.4699C56.8372 16.4699 57.9644 15.9015 57.9644 14.8936C57.9644 13.8858 56.9211 13.6128 55.4871 13.37L54.0298 13.1273C51.2762 12.6648 49.5731 11.5202 49.5731 9.07995C49.5731 6.63972 51.9354 4.75966 55.2109 4.75966C58.4864 4.75966 60.519 6.22996 61.0943 8.78447H57.7961C57.4125 7.77664 56.3926 7.37458 55.2343 7.37458C54.0759 7.37458 52.9253 7.97323 52.9253 8.81467C52.9253 9.65611 53.6385 9.95929 55.127 10.2015L56.5844 10.4443C59.2534 10.8765 61.2861 11.9678 61.2861 14.6053C61.2861 17.2427 58.8621 19.1754 55.4793 19.1754L55.4949 19.16L55.4943 19.1606ZM69.9069 19.1606C65.6726 19.1606 62.8657 16.3029 62.8657 11.9299C62.8657 7.55696 65.8344 4.75197 69.9381 4.75197C74.0417 4.75197 76.7036 7.90514 76.7036 12.0661V12.6648H66.2257C66.3947 14.9232 67.9899 16.2496 69.9153 16.2496C71.8407 16.2496 72.4771 15.7037 72.9451 14.7563H76.4657C75.7526 17.3108 73.1902 19.16 69.9153 19.16H69.9075L69.9069 19.1606ZM73.3436 10.4141C73.0674 8.59499 71.61 7.53386 69.9075 7.53386C68.205 7.53386 66.6092 8.56479 66.2796 10.4141H73.352H73.3442H73.3436Z" fill="#636475"/>
<path d="M0.828165 18.7595C0.275655 18.7595 0 18.4866 0 17.9412L0 5.98045C0 5.4345 0.276255 5.16211 0.828165 5.16211H12.9318C13.4843 5.16211 13.76 5.43509 13.76 5.98045V17.9406C13.76 18.4866 13.4837 18.7589 12.9318 18.7589H0.828165V18.7595Z" fill="#636475"/>
</g>
<defs>
<clipPath id="clip0_2255_1171">
<rect width="76.7041" height="19.176" fill="white"/>
</clipPath>
</defs>
</svg>
