<svg width="107" height="20" viewBox="0 0 107 20" fill="none" xmlns="http://www.w3.org/2000/svg">
<g clip-path="url(#clip0_2255_1174)">
<path d="M3.11741 2.94088L8.07607 0L13.0347 2.94088L11.2117 4.02732L8.07607 2.17288L4.94045 4.02732L3.11741 2.94088ZM13.0347 6.64975L11.2117 5.56332L8.07607 7.41776L4.94045 5.56332L3.11741 6.64975V8.82264L6.25303 10.677V14.3859L8.07607 15.4724L9.89913 14.3859V10.677L13.0347 8.82264V6.64975ZM13.0347 12.5315V10.3586L11.2117 11.445V13.6179L13.0347 12.5315ZM14.3291 13.2995L11.1935 15.1539V17.3268L16.1521 14.3859V8.50416L14.3291 9.59064V13.2995ZM12.5061 4.79532L14.3291 5.88175V8.05464L16.1521 6.96819V4.79532L14.3291 3.70888L12.5061 4.79532ZM6.25303 15.9407V18.1136L8.07607 19.2L9.89913 18.1136V15.9407L8.07607 17.0271L6.25303 15.9407ZM3.11741 12.5315L4.94045 13.6179V11.445L3.11741 10.3586V12.5315ZM6.25303 4.79532L8.07607 5.88175L9.89913 4.79532L8.07607 3.70888L6.25303 4.79532ZM1.82303 5.88175L3.64608 4.79532L1.82303 3.70888L0 4.79532L0 6.96819L1.82303 8.05464V5.88175ZM1.82303 9.59064L0 8.50416L0 14.3859L4.95865 17.3268V15.1539L1.82303 13.2995V9.59064Z" fill="#636475"/>
<path d="M30.5231 12.0492V12.0187C30.5231 10.5838 29.7803 9.86641 28.5769 9.39321C29.3198 8.96577 29.9437 8.29409 29.9437 7.08819V7.05767C29.9437 5.37854 28.6364 4.29474 26.5119 4.29474H21.6836V14.9801H26.6307C28.978 14.9801 30.5231 14.0031 30.5231 12.0492ZM27.6707 7.48507C27.6707 8.27881 27.0319 8.61465 26.0217 8.61465H23.9121V6.35548H26.1702C27.1359 6.35548 27.6707 6.75237 27.6707 7.45455V7.48507ZM28.2501 11.7592C28.2501 12.553 27.641 12.9194 26.6307 12.9194H23.9121V10.5686H26.5565C27.7301 10.5686 28.2501 11.0112 28.2501 11.7286V11.7592Z" fill="#636475"/>
<path d="M41.7953 14.9801V4.29474H39.5371V10.8739L34.6643 4.29474H32.5547V14.9801H34.8128V8.18729L39.8491 14.9801H41.7953Z" fill="#636475"/>
<path d="M53.2789 12.0494V12.0189C53.2789 10.584 52.5361 9.86659 51.3327 9.39339C52.0755 8.96595 52.6995 8.29427 52.6995 7.08838V7.05785C52.6995 5.37872 51.3922 4.29492 49.2677 4.29492H44.4395V14.9803H49.3865C51.7338 14.9803 53.2789 14.0033 53.2789 12.0494ZM50.4265 7.48526C50.4265 8.27899 49.7877 8.61483 48.7774 8.61483H46.6679V6.35567H48.926C49.8917 6.35567 50.4265 6.75255 50.4265 7.45473V7.48526ZM51.0059 11.7594C51.0059 12.5532 50.3967 12.9196 49.3865 12.9196H46.6679V10.5688H49.3123C50.4859 10.5688 51.0059 11.0114 51.0059 11.7288V11.7594Z" fill="#636475"/>
<path d="M67.0685 13.0925L65.8949 11.8713C65.0035 12.7261 64.1864 13.2604 62.9087 13.2604C60.9181 13.2604 59.477 11.5507 59.477 9.44416C59.477 7.33764 60.9181 5.65851 62.9087 5.65851C64.0973 5.65851 64.9887 6.19279 65.8206 6.98655L66.9942 5.59746C65.9989 4.62051 64.84 3.93359 62.9236 3.93359C59.7741 3.93359 57.5605 6.42175 57.5605 9.47472C57.5605 12.5582 59.8187 14.9853 62.8493 14.9853C64.7955 14.9853 65.984 14.2526 67.0685 13.0925Z" fill="#636475"/>
<path d="M75.928 10.2995V14.8026H77.7553V4.11719H75.928V8.55922H70.966V4.11719H69.1387V14.8026H70.966V10.2995H75.928Z" fill="#636475"/>
<path d="M85.9528 4.04004H84.2594L79.6836 14.8018H81.5553L82.6251 12.222H87.5427L88.5977 14.8018H90.5286L85.9528 4.04004ZM86.8739 10.5581H83.2939L85.0761 6.28396L86.8739 10.5581Z" fill="#636475"/>
<path d="M92.5625 4.11719V14.8026H94.3898V4.11719H92.5625Z" fill="#636475"/>
<path d="M104.587 11.5054L99.0157 4.11719H97.3223V14.8026H99.12V7.20068L104.854 14.8026H106.385V4.11719H104.587V11.5054Z" fill="#636475"/>
</g>
<defs>
<clipPath id="clip0_2255_1174">
<rect width="106.667" height="19.2" fill="white"/>
</clipPath>
</defs>
</svg>
