<svg width="20" height="20" viewBox="0 0 20 20" fill="none" xmlns="http://www.w3.org/2000/svg">
<path opacity="0.4" d="M3.54102 12.4998C3.54102 8.933 6.43251 6.0415 9.99935 6.0415C13.5662 6.0415 16.4577 8.933 16.4577 12.4998C16.4577 16.0667 13.5662 18.9582 9.99935 18.9582C6.43251 18.9582 3.54102 16.0667 3.54102 12.4998Z" fill="#9095A4"/>
<path d="M9.99935 1.0415C7.46804 1.0415 5.41602 3.09353 5.41602 5.62484V7.94977C5.90075 7.46151 6.46296 7.05029 7.08268 6.73607V5.62484C7.08268 4.01401 8.38852 2.70817 9.99935 2.70817C11.6102 2.70817 12.916 4.01401 12.916 5.62484V6.73607C13.5357 7.05029 14.0979 7.46151 14.5827 7.94977V5.62484C14.5827 3.09353 12.5307 1.0415 9.99935 1.0415Z" fill="#9095A4"/>
<path fill-rule="evenodd" clip-rule="evenodd" d="M9.99935 10.8335C10.4596 10.8335 10.8327 11.2066 10.8327 11.6668V13.3335C10.8327 13.7937 10.4596 14.1668 9.99935 14.1668C9.53911 14.1668 9.16602 13.7937 9.16602 13.3335V11.6668C9.16602 11.2066 9.53911 10.8335 9.99935 10.8335Z" fill="#9095A4"/>
</svg>
