<svg width="32" height="32" viewBox="0 0 32 32" fill="none" xmlns="http://www.w3.org/2000/svg">
<path d="M3.33398 16C3.33398 10.0289 3.33398 7.04331 5.18897 5.18832C7.04397 3.33333 10.0295 3.33333 16.0007 3.33333C21.9718 3.33333 24.9573 3.33333 26.8123 5.18832C28.6673 7.04331 28.6673 10.0289 28.6673 16C28.6673 21.9711 28.6673 24.9567 26.8123 26.8117C24.9573 28.6667 21.9718 28.6667 16.0007 28.6667C10.0295 28.6667 7.04397 28.6667 5.18897 26.8117C3.33398 24.9567 3.33398 21.9711 3.33398 16Z" stroke="#E3E8FF" stroke-width="1.5"/>
<path d="M21.334 21.3333C22.1554 21.3333 22.8213 20.6511 22.8213 19.8095V18.155C22.8213 17.7509 22.978 17.3633 23.257 17.0775L23.7828 16.5388C24.0733 16.2412 24.0733 15.7588 23.7828 15.4613L23.257 14.9225C22.978 14.6367 22.8213 14.2492 22.8213 13.845V12.1905C22.8213 11.3489 22.1554 10.6667 21.334 10.6667" stroke="#E3E8FF" stroke-width="1.5" stroke-linecap="round" stroke-linejoin="round"/>
<path d="M10.666 21.3333C9.84457 21.3333 9.17866 20.6511 9.17866 19.8095V18.155C9.17866 17.7509 9.02196 17.3633 8.74303 17.0775L8.21717 16.5388C7.92674 16.2412 7.92674 15.7588 8.21717 15.4613L8.74303 14.9225C9.02196 14.6367 9.17866 14.2492 9.17866 13.845V12.1905C9.17866 11.3489 9.84457 10.6667 10.666 10.6667" stroke="#E3E8FF" stroke-width="1.5" stroke-linecap="round" stroke-linejoin="round"/>
<path d="M13.334 16H13.3459M18.6554 16H18.6673" stroke="#E3E8FF" stroke-width="2" stroke-linecap="round" stroke-linejoin="round"/>
</svg>
