<svg width="568" height="360" viewBox="0 0 568 360" fill="none" xmlns="http://www.w3.org/2000/svg">
<rect width="568" height="360" rx="16" fill="url(#paint0_linear_2280_2423)" fill-opacity="0.04"/>
<rect x="0.5" y="0.5" width="567" height="359" rx="15.5" stroke="white" stroke-opacity="0.1"/>
<g filter="url(#filter0_i_2280_2423)">
<circle cx="283.571" cy="193.632" r="138.788" fill="white" fill-opacity="0.02"/>
</g>
<circle cx="283.571" cy="193.632" r="138.324" stroke="url(#paint1_linear_2280_2423)" stroke-opacity="0.1" stroke-width="0.928171"/>
<g filter="url(#filter1_i_2280_2423)">
<circle cx="283.5" cy="193.5" r="110.5" fill="white" fill-opacity="0.02"/>
</g>
<circle cx="283.5" cy="193.5" r="110.036" stroke="url(#paint2_linear_2280_2423)" stroke-opacity="0.1" stroke-width="0.928171"/>
<path d="M204.938 190.625C204.938 181.133 212.633 173.438 222.125 173.438H344.155C353.647 173.438 361.342 181.133 361.342 190.625V260.116C361.342 269.608 353.647 277.303 344.155 277.303H286.871H222.125C212.633 277.303 204.938 269.608 204.938 260.116V190.625Z" fill="url(#paint3_linear_2280_2423)" fill-opacity="0.18"/>
<rect x="204.938" y="109.845" width="156.405" height="165.858" rx="17.1873" fill="url(#paint4_linear_2280_2423)" fill-opacity="0.2"/>
<rect x="205.367" y="110.274" width="155.545" height="164.998" rx="16.7576" stroke="white" stroke-opacity="0.1" stroke-width="0.859366"/>
<rect x="257.637" y="203.242" width="50.3901" height="50.3901" rx="13.4764" fill="url(#paint5_radial_2280_2423)"/>
<rect x="257.637" y="203.242" width="50.3901" height="50.3901" rx="13.4764" stroke="url(#paint6_linear_2280_2423)" stroke-width="1.17186"/>
<path d="M274.629 229.609L273.827 229.249C273.705 229.521 273.729 229.836 273.891 230.086C274.053 230.337 274.331 230.488 274.629 230.488V229.609ZM280.488 229.609L281.341 229.822C281.407 229.56 281.348 229.282 281.181 229.068C281.014 228.855 280.759 228.73 280.488 228.73V229.609ZM278.144 238.984L277.292 238.771L276.522 241.849L278.766 239.606L278.144 238.984ZM291.035 226.094L291.656 226.715C291.908 226.464 291.983 226.086 291.847 225.757C291.711 225.429 291.39 225.215 291.035 225.215V226.094ZM289.863 217.891L290.627 218.325L291.373 217.012H289.863V217.891ZM279.902 217.891V217.012H279.334L279.101 217.53L279.902 217.891ZM285.204 226.094L284.44 225.66C284.285 225.932 284.287 226.265 284.445 226.536C284.602 226.806 284.891 226.973 285.204 226.973V226.094ZM274.629 229.609V230.488H280.488V229.609V228.73H274.629V229.609ZM280.488 229.609L279.636 229.396L277.292 238.771L278.144 238.984L278.997 239.197L281.341 229.822L280.488 229.609ZM278.144 238.984L278.766 239.606L291.656 226.715L291.035 226.094L290.414 225.472L277.523 238.363L278.144 238.984ZM289.863 217.891V217.012H279.902V217.891V218.77H289.863V217.891ZM279.902 217.891L279.101 217.53L273.827 229.249L274.629 229.609L275.43 229.97L280.704 218.251L279.902 217.891ZM289.863 217.891L289.099 217.457L284.44 225.66L285.204 226.094L285.969 226.528L290.627 218.325L289.863 217.891ZM285.204 226.094V226.973H291.035V226.094V225.215H285.204V226.094Z" fill="white"/>
<rect x="376.537" y="89.8057" width="49.7651" height="49.7651" rx="13.4764" fill="url(#paint7_radial_2280_2423)"/>
<rect x="376.537" y="89.8057" width="49.7651" height="49.7651" rx="13.4764" stroke="url(#paint8_linear_2280_2423)" stroke-width="1.17186"/>
<path d="M406.002 115.834C406.002 116.783 406.771 117.553 407.721 117.553C408.67 117.553 409.439 116.783 409.439 115.834C409.439 114.885 408.67 114.115 407.721 114.115C406.771 114.115 406.002 114.885 406.002 115.834Z" stroke="#A683FF" stroke-width="1.59871"/>
<path d="M400.273 122.709H406.002C409.243 122.709 410.864 122.709 411.871 121.702C412.877 120.696 412.877 119.075 412.877 115.834V114.688C412.877 111.447 412.877 109.827 411.871 108.82C411.136 108.085 410.074 107.887 408.294 107.833M399.128 107.813H406.002C406.878 107.813 407.635 107.813 408.294 107.833M389.961 112.397C389.961 108.076 389.961 107.061 391.303 105.718C392.646 104.376 394.806 104.376 399.128 104.376H404.837C405.923 104.376 406.466 104.376 406.894 104.556C407.444 104.789 407.881 105.226 408.114 105.776C408.294 106.204 408.294 106.747 408.294 107.833" stroke="#A683FF" stroke-width="1.59871" stroke-linecap="round"/>
<path d="M391.25 123.282L391.25 116.407M393.398 116.407V114.688M393.398 125V123.282M391.25 119.844H395.547M395.547 119.844C396.259 119.844 396.836 120.421 396.836 121.133V121.993C396.836 122.705 396.259 123.282 395.547 123.282H389.961M395.547 119.844C396.259 119.844 396.836 119.267 396.836 118.555V117.696C396.836 116.984 396.259 116.407 395.547 116.407H389.961" stroke="#A683FF" stroke-width="1.59871" stroke-linecap="round" stroke-linejoin="round"/>
<rect x="140.586" y="89.8057" width="49.7651" height="49.7651" rx="13.4764" fill="url(#paint9_radial_2280_2423)"/>
<rect x="140.586" y="89.8057" width="49.7651" height="49.7651" rx="13.4764" stroke="url(#paint10_linear_2280_2423)" stroke-width="1.17186"/>
<path d="M170.051 115.834C170.051 116.783 170.82 117.553 171.77 117.553C172.719 117.553 173.488 116.783 173.488 115.834C173.488 114.885 172.719 114.115 171.77 114.115C170.82 114.115 170.051 114.885 170.051 115.834Z" stroke="#A683FF" stroke-width="1.59871"/>
<path d="M164.322 122.709H170.051C173.292 122.709 174.913 122.709 175.919 121.702C176.926 120.696 176.926 119.075 176.926 115.834V114.688C176.926 111.447 176.926 109.827 175.919 108.82C175.185 108.085 174.123 107.887 172.343 107.833M163.176 107.813H170.051C170.927 107.813 171.684 107.813 172.343 107.833M154.01 112.397C154.01 108.076 154.01 107.061 155.352 105.718C156.695 104.376 158.855 104.376 163.176 104.376H168.886C169.972 104.376 170.515 104.376 170.943 104.556C171.493 104.789 171.93 105.226 172.162 105.776C172.343 106.204 172.343 106.747 172.343 107.833" stroke="#A683FF" stroke-width="1.59871" stroke-linecap="round"/>
<path d="M155.299 123.282L155.299 116.407M157.447 116.407V114.688M157.447 125V123.282M155.299 119.844H159.596M159.596 119.844C160.308 119.844 160.885 120.421 160.885 121.133V121.993C160.885 122.705 160.308 123.282 159.596 123.282H154.01M159.596 119.844C160.308 119.844 160.885 119.267 160.885 118.555V117.696C160.885 116.984 160.308 116.407 159.596 116.407H154.01" stroke="#A683FF" stroke-width="1.59871" stroke-linecap="round" stroke-linejoin="round"/>
<path d="M190.724 210.65C190.724 209.123 191.962 207.885 193.489 207.885L204.158 207.885L204.158 213.416L193.489 213.416C191.962 213.416 190.724 212.178 190.724 210.65Z" stroke="url(#paint11_linear_2280_2423)" stroke-width="0.79029"/>
<path d="M190.724 199.587C190.724 198.059 191.962 196.821 193.489 196.821L204.158 196.821L204.158 202.353L193.489 202.353C191.962 202.353 190.724 201.115 190.724 199.587Z" stroke="url(#paint12_linear_2280_2423)" stroke-width="0.79029"/>
<path d="M190.724 188.522C190.724 186.995 191.962 185.757 193.489 185.757L204.158 185.757L204.158 191.288L193.489 191.288C191.962 191.288 190.724 190.05 190.724 188.522Z" stroke="url(#paint13_linear_2280_2423)" stroke-width="0.79029"/>
<path d="M190.724 177.458C190.724 175.93 191.962 174.692 193.489 174.692L204.158 174.692L204.158 180.224L193.489 180.224C191.962 180.224 190.724 178.986 190.724 177.458Z" stroke="url(#paint14_linear_2280_2423)" stroke-width="0.79029"/>
<path d="M375.173 210.65C375.173 209.123 373.935 207.885 372.407 207.885L361.738 207.885L361.738 213.416L372.407 213.416C373.935 213.416 375.173 212.178 375.173 210.65Z" stroke="url(#paint15_linear_2280_2423)" stroke-width="0.79029"/>
<path d="M375.173 199.587C375.173 198.059 373.935 196.821 372.407 196.821L361.738 196.821L361.738 202.353L372.407 202.353C373.935 202.353 375.173 201.115 375.173 199.587Z" stroke="url(#paint16_linear_2280_2423)" stroke-width="0.79029"/>
<path d="M375.173 188.522C375.173 186.995 373.935 185.757 372.407 185.757L361.738 185.757L361.738 191.288L372.407 191.288C373.935 191.288 375.173 190.05 375.173 188.522Z" stroke="url(#paint17_linear_2280_2423)" stroke-width="0.79029"/>
<path d="M375.173 177.458C375.173 175.93 373.935 174.692 372.407 174.692L361.738 174.692L361.738 180.224L372.407 180.224C373.935 180.224 375.173 178.986 375.173 177.458Z" stroke="url(#paint18_linear_2280_2423)" stroke-width="0.79029"/>
<path d="M487.158 178.895C475.749 179.28 467.191 179.231 460.636 179.243C454.063 179.255 449.55 179.329 446.174 179.943C442.836 180.551 440.65 181.68 438.717 183.799C436.75 185.955 435.025 189.152 432.678 193.973L432.187 193.732L432.667 193.993L431.429 196.281L430.577 198.013C428.641 201.899 427.042 204.711 425.211 206.718C423.085 209.048 420.663 210.275 417.131 210.918C413.637 211.554 409.015 211.625 402.473 211.637C395.912 211.649 387.372 211.6 375.984 211.984L375.947 210.871C387.356 210.486 395.915 210.534 402.47 210.522C409.042 210.51 413.556 210.437 416.932 209.822C420.27 209.215 422.455 208.085 424.389 205.967C426.356 203.811 428.08 200.614 430.428 195.793L430.433 195.782L430.438 195.772L431.68 193.477C434.015 188.682 435.803 185.341 437.895 183.049C440.021 180.718 442.442 179.491 445.975 178.848C449.469 178.212 454.09 178.141 460.633 178.129C467.194 178.117 475.733 178.166 487.121 177.781L487.158 178.895Z" fill="url(#paint19_linear_2280_2423)" fill-opacity="0.4"/>
<path d="M487.158 210.873C475.749 210.488 467.191 210.536 460.636 210.524C454.063 210.512 449.55 210.439 446.174 209.824C442.836 209.217 440.65 208.087 438.717 205.969C436.75 203.813 435.025 200.616 432.678 195.795L432.187 196.035L432.667 195.774L431.429 193.486L430.577 191.755C428.641 187.868 427.042 185.056 425.211 183.05C423.085 180.72 420.663 179.493 417.131 178.85C413.637 178.214 409.015 178.143 402.473 178.131C395.912 178.119 387.372 178.168 375.984 177.783L375.947 178.896C387.356 179.282 395.915 179.233 402.47 179.245C409.042 179.257 413.556 179.331 416.932 179.945C420.27 180.553 422.455 181.682 424.389 183.801C426.356 185.956 428.08 189.154 430.428 193.975L430.433 193.985L430.438 193.995L431.68 196.291C434.015 201.085 435.803 204.427 437.895 206.719C440.021 209.049 442.442 210.277 445.975 210.92C449.469 211.556 454.09 211.627 460.633 211.639C467.194 211.651 475.733 211.602 487.121 211.986L487.158 210.873Z" fill="url(#paint20_linear_2280_2423)" fill-opacity="0.4"/>
<path d="M79.4707 178.895C90.8796 179.28 99.4381 179.231 105.993 179.243C112.566 179.255 117.079 179.329 120.455 179.943C123.793 180.551 125.979 181.68 127.912 183.799C129.879 185.955 131.604 189.152 133.951 193.973L134.442 193.732L133.962 193.993L135.2 196.281L136.052 198.013C137.988 201.899 139.587 204.711 141.418 206.718C143.544 209.048 145.966 210.275 149.498 210.918C152.992 211.554 157.613 211.625 164.156 211.637C170.717 211.649 179.257 211.6 190.645 211.984L190.682 210.871C179.273 210.486 170.714 210.534 164.159 210.522C157.587 210.51 153.073 210.437 149.697 209.822C146.359 209.215 144.173 208.085 142.24 205.967C140.273 203.811 138.549 200.614 136.201 195.793L136.196 195.782L136.19 195.772L134.949 193.477C132.614 188.682 130.826 185.341 128.734 183.049C126.608 180.718 124.187 179.491 120.654 178.848C117.16 178.212 112.539 178.141 105.996 178.129C99.4352 178.117 90.8955 178.166 79.5078 177.781L79.4707 178.895Z" fill="url(#paint21_linear_2280_2423)" fill-opacity="0.4"/>
<path d="M79.4707 210.873C90.8796 210.488 99.4381 210.536 105.993 210.524C112.566 210.512 117.079 210.439 120.455 209.824C123.793 209.217 125.979 208.087 127.912 205.969C129.879 203.813 131.604 200.616 133.951 195.795L134.442 196.035L133.962 195.774L135.2 193.486L136.052 191.755C137.988 187.868 139.587 185.056 141.418 183.05C143.544 180.72 145.966 179.493 149.498 178.85C152.992 178.214 157.613 178.143 164.156 178.131C170.717 178.119 179.257 178.168 190.645 177.783L190.682 178.896C179.273 179.282 170.714 179.233 164.159 179.245C157.587 179.257 153.073 179.331 149.697 179.945C146.359 180.553 144.173 181.682 142.24 183.801C140.273 185.956 138.549 189.154 136.201 193.975L136.196 193.985L136.19 193.995L134.949 196.291C132.614 201.085 130.826 204.427 128.734 206.719C126.608 209.049 124.187 210.277 120.654 210.92C117.16 211.556 112.539 211.627 105.996 211.639C99.4352 211.651 90.8955 211.602 79.5078 211.986L79.4707 210.873Z" fill="url(#paint22_linear_2280_2423)" fill-opacity="0.4"/>
<path d="M238.692 137.345H240.523L243.707 145.118H243.824L247.008 137.345H248.839V147.345H247.403V140.108H247.31L244.361 147.33H243.17L240.221 140.104H240.128V147.345H238.692V137.345ZM251.838 150.157C251.62 150.157 251.421 150.139 251.242 150.103C251.063 150.071 250.93 150.035 250.842 149.996L251.193 148.8C251.46 148.871 251.698 148.902 251.906 148.893C252.115 148.883 252.299 148.805 252.458 148.658C252.621 148.512 252.764 148.272 252.888 147.94L253.068 147.442L250.324 139.845H251.887L253.786 145.665H253.864L255.764 139.845H257.331L254.24 148.346C254.097 148.736 253.915 149.067 253.693 149.337C253.472 149.61 253.208 149.815 252.902 149.952C252.596 150.089 252.242 150.157 251.838 150.157ZM261.966 138.644V137.345H269.705V138.644H266.585V147.345H265.081V138.644H261.966ZM270.519 147.345V139.845H271.931V141.036H272.009C272.145 140.633 272.386 140.315 272.731 140.084C273.08 139.85 273.474 139.732 273.913 139.732C274.004 139.732 274.112 139.736 274.235 139.742C274.362 139.749 274.461 139.757 274.533 139.767V141.163C274.474 141.147 274.37 141.129 274.221 141.109C274.071 141.087 273.921 141.075 273.771 141.075C273.426 141.075 273.119 141.148 272.849 141.295C272.582 141.438 272.37 141.638 272.214 141.896C272.058 142.149 271.979 142.439 271.979 142.765V147.345H270.519ZM280.547 144.234V139.845H282.012V147.345H280.577V146.046H280.499C280.326 146.446 280.049 146.78 279.669 147.047C279.291 147.311 278.821 147.442 278.257 147.442C277.776 147.442 277.349 147.337 276.978 147.125C276.61 146.91 276.321 146.593 276.109 146.173C275.901 145.753 275.796 145.234 275.796 144.615V139.845H277.256V144.439C277.256 144.951 277.398 145.357 277.681 145.66C277.964 145.963 278.332 146.114 278.785 146.114C279.058 146.114 279.33 146.046 279.6 145.909C279.874 145.772 280.1 145.566 280.279 145.289C280.461 145.012 280.551 144.661 280.547 144.234ZM289.594 141.676L288.271 141.91C288.215 141.741 288.127 141.58 288.007 141.427C287.89 141.274 287.73 141.148 287.529 141.051C287.327 140.953 287.074 140.904 286.772 140.904C286.358 140.904 286.013 140.997 285.737 141.183C285.46 141.365 285.322 141.601 285.322 141.891C285.322 142.141 285.414 142.343 285.6 142.496C285.785 142.649 286.085 142.774 286.498 142.872L287.69 143.146C288.38 143.305 288.894 143.551 289.233 143.883C289.571 144.215 289.74 144.646 289.74 145.177C289.74 145.626 289.61 146.026 289.35 146.378C289.093 146.726 288.733 147 288.271 147.198C287.812 147.397 287.28 147.496 286.674 147.496C285.834 147.496 285.149 147.317 284.618 146.959C284.088 146.598 283.762 146.085 283.642 145.421L285.053 145.206C285.141 145.574 285.322 145.852 285.595 146.041C285.868 146.227 286.225 146.319 286.664 146.319C287.143 146.319 287.525 146.22 287.812 146.021C288.098 145.82 288.241 145.574 288.241 145.284C288.241 145.05 288.154 144.853 287.978 144.693C287.805 144.534 287.54 144.413 287.182 144.332L285.912 144.054C285.212 143.894 284.695 143.64 284.36 143.292C284.028 142.944 283.862 142.503 283.862 141.969C283.862 141.526 283.985 141.139 284.233 140.807C284.48 140.475 284.822 140.216 285.258 140.03C285.694 139.842 286.194 139.747 286.757 139.747C287.568 139.747 288.206 139.923 288.671 140.274C289.137 140.623 289.444 141.09 289.594 141.676ZM294.847 139.845V141.017H290.75V139.845H294.847ZM291.849 138.048H293.309V145.143C293.309 145.426 293.351 145.639 293.435 145.782C293.52 145.922 293.629 146.018 293.763 146.07C293.899 146.119 294.047 146.144 294.207 146.144C294.324 146.144 294.427 146.135 294.515 146.119C294.602 146.103 294.671 146.09 294.72 146.08L294.983 147.286C294.899 147.319 294.778 147.351 294.622 147.384C294.466 147.42 294.27 147.439 294.036 147.442C293.652 147.449 293.294 147.381 292.962 147.237C292.63 147.094 292.361 146.873 292.156 146.573C291.951 146.274 291.849 145.898 291.849 145.445V138.048ZM301.961 141.676L300.638 141.91C300.582 141.741 300.494 141.58 300.374 141.427C300.257 141.274 300.097 141.148 299.895 141.051C299.694 140.953 299.441 140.904 299.139 140.904C298.725 140.904 298.38 140.997 298.103 141.183C297.827 141.365 297.688 141.601 297.688 141.891C297.688 142.141 297.781 142.343 297.967 142.496C298.152 142.649 298.452 142.774 298.865 142.872L300.056 143.146C300.747 143.305 301.261 143.551 301.599 143.883C301.938 144.215 302.107 144.646 302.107 145.177C302.107 145.626 301.977 146.026 301.717 146.378C301.459 146.726 301.1 147 300.638 147.198C300.179 147.397 299.646 147.496 299.041 147.496C298.201 147.496 297.516 147.317 296.985 146.959C296.455 146.598 296.129 146.085 296.009 145.421L297.42 145.206C297.508 145.574 297.688 145.852 297.962 146.041C298.235 146.227 298.592 146.319 299.031 146.319C299.51 146.319 299.892 146.22 300.179 146.021C300.465 145.82 300.608 145.574 300.608 145.284C300.608 145.05 300.52 144.853 300.345 144.693C300.172 144.534 299.907 144.413 299.549 144.332L298.279 144.054C297.579 143.894 297.062 143.64 296.726 143.292C296.394 142.944 296.228 142.503 296.228 141.969C296.228 141.526 296.352 141.139 296.6 140.807C296.847 140.475 297.189 140.216 297.625 140.03C298.061 139.842 298.561 139.747 299.124 139.747C299.934 139.747 300.572 139.923 301.038 140.274C301.503 140.623 301.811 141.09 301.961 141.676ZM306.872 147.496C306.146 147.496 305.521 147.332 304.997 147.003C304.476 146.671 304.075 146.214 303.795 145.631C303.516 145.048 303.376 144.381 303.376 143.629C303.376 142.867 303.519 142.195 303.805 141.612C304.092 141.026 304.495 140.569 305.016 140.24C305.537 139.912 306.151 139.747 306.857 139.747C307.427 139.747 307.934 139.853 308.38 140.065C308.826 140.273 309.186 140.566 309.459 140.943C309.736 141.321 309.901 141.762 309.953 142.267H308.532C308.454 141.915 308.275 141.612 307.995 141.358C307.718 141.105 307.347 140.978 306.881 140.978C306.474 140.978 306.118 141.085 305.812 141.3C305.509 141.511 305.273 141.814 305.104 142.208C304.935 142.599 304.85 143.061 304.85 143.595C304.85 144.142 304.933 144.614 305.099 145.011C305.265 145.408 305.5 145.716 305.802 145.934C306.108 146.152 306.468 146.261 306.881 146.261C307.158 146.261 307.409 146.21 307.633 146.109C307.861 146.005 308.052 145.857 308.205 145.665C308.361 145.473 308.47 145.242 308.532 144.972H309.953C309.901 145.457 309.743 145.89 309.479 146.271C309.215 146.651 308.862 146.951 308.419 147.169C307.98 147.387 307.464 147.496 306.872 147.496ZM314.673 147.496C313.97 147.496 313.356 147.335 312.832 147.013C312.308 146.69 311.901 146.24 311.612 145.66C311.322 145.081 311.177 144.404 311.177 143.629C311.177 142.851 311.322 142.171 311.612 141.588C311.901 141.005 312.308 140.553 312.832 140.231C313.356 139.908 313.97 139.747 314.673 139.747C315.376 139.747 315.99 139.908 316.514 140.231C317.038 140.553 317.445 141.005 317.735 141.588C318.024 142.171 318.169 142.851 318.169 143.629C318.169 144.404 318.024 145.081 317.735 145.66C317.445 146.24 317.038 146.69 316.514 147.013C315.99 147.335 315.376 147.496 314.673 147.496ZM314.678 146.271C315.134 146.271 315.511 146.15 315.811 145.909C316.11 145.668 316.332 145.348 316.475 144.947C316.621 144.547 316.695 144.106 316.695 143.624C316.695 143.146 316.621 142.706 316.475 142.306C316.332 141.902 316.11 141.578 315.811 141.334C315.511 141.09 315.134 140.968 314.678 140.968C314.219 140.968 313.838 141.09 313.535 141.334C313.236 141.578 313.013 141.902 312.866 142.306C312.723 142.706 312.652 143.146 312.652 143.624C312.652 144.106 312.723 144.547 312.866 144.947C313.013 145.348 313.236 145.668 313.535 145.909C313.838 146.15 314.219 146.271 314.678 146.271ZM319.799 147.345V139.845H321.21V141.036H321.288C321.425 140.633 321.666 140.315 322.011 140.084C322.359 139.85 322.753 139.732 323.192 139.732C323.283 139.732 323.391 139.736 323.515 139.742C323.641 139.749 323.741 139.757 323.812 139.767V141.163C323.754 141.147 323.65 141.129 323.5 141.109C323.35 141.087 323.2 141.075 323.051 141.075C322.706 141.075 322.398 141.148 322.128 141.295C321.861 141.438 321.649 141.638 321.493 141.896C321.337 142.149 321.259 142.439 321.259 142.765V147.345H319.799ZM328.04 147.496C327.301 147.496 326.664 147.338 326.13 147.022C325.6 146.703 325.19 146.256 324.9 145.68C324.614 145.1 324.47 144.422 324.47 143.644C324.47 142.875 324.614 142.198 324.9 141.612C325.19 141.026 325.593 140.569 326.111 140.24C326.632 139.912 327.24 139.747 327.937 139.747C328.36 139.747 328.77 139.817 329.168 139.957C329.565 140.097 329.921 140.317 330.237 140.616C330.553 140.916 330.802 141.305 330.984 141.783C331.166 142.259 331.257 142.836 331.257 143.517V144.034H325.295V142.94H329.827C329.827 142.556 329.749 142.216 329.592 141.92C329.436 141.621 329.216 141.385 328.933 141.212C328.653 141.039 328.324 140.953 327.947 140.953C327.537 140.953 327.179 141.054 326.873 141.256C326.57 141.454 326.336 141.715 326.17 142.037C326.007 142.356 325.925 142.703 325.925 143.077V143.932C325.925 144.433 326.013 144.859 326.189 145.211C326.368 145.563 326.617 145.831 326.936 146.017C327.255 146.199 327.628 146.29 328.054 146.29C328.331 146.29 328.583 146.251 328.811 146.173C329.039 146.091 329.236 145.971 329.402 145.812C329.568 145.652 329.695 145.455 329.783 145.221L331.165 145.47C331.054 145.877 330.855 146.233 330.569 146.539C330.286 146.842 329.929 147.078 329.5 147.247C329.073 147.413 328.586 147.496 328.04 147.496Z" fill="white"/>
<line x1="252.203" y1="164.844" x2="315.796" y2="164.844" stroke="white" stroke-opacity="0.4" stroke-width="3.43747"/>
<line x1="238.453" y1="178.594" x2="329.546" y2="178.594" stroke="white" stroke-opacity="0.4" stroke-width="3.43747"/>
<path d="M84.1969 186.167L67.869 176.982L51.541 186.167L67.869 195.351L84.1969 186.167Z" stroke="white" stroke-width="1.28905" stroke-linejoin="round"/>
<path d="M67.869 213.72L84.1969 204.536V186.167M67.869 213.72L51.541 204.536V186.167M67.869 213.72V195.351" stroke="white" stroke-width="1.28905" stroke-linejoin="round"/>
<path d="M516.459 186.167L500.131 176.982L483.803 186.167L500.131 195.351L516.459 186.167Z" stroke="white" stroke-width="1.28905" stroke-linejoin="round"/>
<path d="M500.131 213.72L516.459 204.536V186.167M500.131 213.72L483.803 204.536V186.167M500.131 213.72V195.351" stroke="white" stroke-width="1.28905" stroke-linejoin="round"/>
<defs>
<filter id="filter0_i_2280_2423" x="144.783" y="54.8447" width="283.145" height="283.144" filterUnits="userSpaceOnUse" color-interpolation-filters="sRGB">
<feFlood flood-opacity="0" result="BackgroundImageFix"/>
<feBlend mode="normal" in="SourceGraphic" in2="BackgroundImageFix" result="shape"/>
<feColorMatrix in="SourceAlpha" type="matrix" values="0 0 0 0 0 0 0 0 0 0 0 0 0 0 0 0 0 0 127 0" result="hardAlpha"/>
<feOffset dx="5.56902" dy="5.56902"/>
<feGaussianBlur stdDeviation="7.42536"/>
<feComposite in2="hardAlpha" operator="arithmetic" k2="-1" k3="1"/>
<feColorMatrix type="matrix" values="0 0 0 0 1 0 0 0 0 1 0 0 0 0 1 0 0 0 0.03 0"/>
<feBlend mode="normal" in2="shape" result="effect1_innerShadow_2280_2423"/>
</filter>
<filter id="filter1_i_2280_2423" x="173" y="83" width="226.569" height="226.569" filterUnits="userSpaceOnUse" color-interpolation-filters="sRGB">
<feFlood flood-opacity="0" result="BackgroundImageFix"/>
<feBlend mode="normal" in="SourceGraphic" in2="BackgroundImageFix" result="shape"/>
<feColorMatrix in="SourceAlpha" type="matrix" values="0 0 0 0 0 0 0 0 0 0 0 0 0 0 0 0 0 0 127 0" result="hardAlpha"/>
<feOffset dx="5.56902" dy="5.56902"/>
<feGaussianBlur stdDeviation="7.42536"/>
<feComposite in2="hardAlpha" operator="arithmetic" k2="-1" k3="1"/>
<feColorMatrix type="matrix" values="0 0 0 0 1 0 0 0 0 1 0 0 0 0 1 0 0 0 0.03 0"/>
<feBlend mode="normal" in2="shape" result="effect1_innerShadow_2280_2423"/>
</filter>
<linearGradient id="paint0_linear_2280_2423" x1="0.42117" y1="0.223332" x2="572.136" y2="362.966" gradientUnits="userSpaceOnUse">
<stop stop-color="#A683FF"/>
<stop offset="1"/>
</linearGradient>
<linearGradient id="paint1_linear_2280_2423" x1="137.804" y1="79.9446" x2="410.547" y2="297.871" gradientUnits="userSpaceOnUse">
<stop stop-color="white"/>
<stop offset="1" stop-color="white" stop-opacity="0"/>
</linearGradient>
<linearGradient id="paint2_linear_2280_2423" x1="167.443" y1="102.984" x2="384.596" y2="276.493" gradientUnits="userSpaceOnUse">
<stop stop-color="white"/>
<stop offset="1" stop-color="white" stop-opacity="0"/>
</linearGradient>
<linearGradient id="paint3_linear_2280_2423" x1="283.14" y1="173.437" x2="283.14" y2="324.834" gradientUnits="userSpaceOnUse">
<stop stop-color="#A683FF" stop-opacity="0"/>
<stop offset="0.637475" stop-color="#A683FF"/>
<stop offset="1" stop-color="#A683FF" stop-opacity="0"/>
</linearGradient>
<linearGradient id="paint4_linear_2280_2423" x1="283.14" y1="109.845" x2="283.14" y2="275.702" gradientUnits="userSpaceOnUse">
<stop stop-color="#A683FF" stop-opacity="0"/>
<stop offset="1" stop-color="#A683FF"/>
</linearGradient>
<radialGradient id="paint5_radial_2280_2423" cx="0" cy="0" r="1" gradientUnits="userSpaceOnUse" gradientTransform="translate(261.152 205.586) rotate(46.1535) scale(61.7456)">
<stop stop-color="#272727"/>
<stop offset="1"/>
</radialGradient>
<linearGradient id="paint6_linear_2280_2423" x1="261.738" y1="205.586" x2="303.339" y2="254.218" gradientUnits="userSpaceOnUse">
<stop/>
<stop offset="1" stop-color="#2D2D2D"/>
</linearGradient>
<radialGradient id="paint7_radial_2280_2423" cx="0" cy="0" r="1" gradientUnits="userSpaceOnUse" gradientTransform="translate(380.003 92.1139) rotate(46.1535) scale(60.9972)">
<stop stop-color="#272727"/>
<stop offset="1"/>
</radialGradient>
<linearGradient id="paint8_linear_2280_2423" x1="380.582" y1="92.1139" x2="421.679" y2="140.157" gradientUnits="userSpaceOnUse">
<stop/>
<stop offset="1" stop-color="#2D2D2D"/>
</linearGradient>
<radialGradient id="paint9_radial_2280_2423" cx="0" cy="0" r="1" gradientUnits="userSpaceOnUse" gradientTransform="translate(144.052 92.1139) rotate(46.1535) scale(60.9972)">
<stop stop-color="#272727"/>
<stop offset="1"/>
</radialGradient>
<linearGradient id="paint10_linear_2280_2423" x1="144.631" y1="92.1139" x2="185.728" y2="140.157" gradientUnits="userSpaceOnUse">
<stop/>
<stop offset="1" stop-color="#2D2D2D"/>
</linearGradient>
<linearGradient id="paint11_linear_2280_2423" x1="190.328" y1="210.65" x2="204.553" y2="210.65" gradientUnits="userSpaceOnUse">
<stop stop-color="white" stop-opacity="0.6"/>
<stop offset="1" stop-color="white" stop-opacity="0"/>
</linearGradient>
<linearGradient id="paint12_linear_2280_2423" x1="190.328" y1="199.587" x2="204.553" y2="199.587" gradientUnits="userSpaceOnUse">
<stop stop-color="white" stop-opacity="0.6"/>
<stop offset="1" stop-color="white" stop-opacity="0"/>
</linearGradient>
<linearGradient id="paint13_linear_2280_2423" x1="190.328" y1="188.522" x2="204.553" y2="188.522" gradientUnits="userSpaceOnUse">
<stop stop-color="white" stop-opacity="0.6"/>
<stop offset="1" stop-color="white" stop-opacity="0"/>
</linearGradient>
<linearGradient id="paint14_linear_2280_2423" x1="190.328" y1="177.458" x2="204.553" y2="177.458" gradientUnits="userSpaceOnUse">
<stop stop-color="white" stop-opacity="0.6"/>
<stop offset="1" stop-color="white" stop-opacity="0"/>
</linearGradient>
<linearGradient id="paint15_linear_2280_2423" x1="375.568" y1="210.65" x2="361.343" y2="210.65" gradientUnits="userSpaceOnUse">
<stop stop-color="white" stop-opacity="0.6"/>
<stop offset="1" stop-color="white" stop-opacity="0"/>
</linearGradient>
<linearGradient id="paint16_linear_2280_2423" x1="375.568" y1="199.587" x2="361.343" y2="199.587" gradientUnits="userSpaceOnUse">
<stop stop-color="white" stop-opacity="0.6"/>
<stop offset="1" stop-color="white" stop-opacity="0"/>
</linearGradient>
<linearGradient id="paint17_linear_2280_2423" x1="375.568" y1="188.522" x2="361.343" y2="188.522" gradientUnits="userSpaceOnUse">
<stop stop-color="white" stop-opacity="0.6"/>
<stop offset="1" stop-color="white" stop-opacity="0"/>
</linearGradient>
<linearGradient id="paint18_linear_2280_2423" x1="375.568" y1="177.458" x2="361.343" y2="177.458" gradientUnits="userSpaceOnUse">
<stop stop-color="white" stop-opacity="0.6"/>
<stop offset="1" stop-color="white" stop-opacity="0"/>
</linearGradient>
<linearGradient id="paint19_linear_2280_2423" x1="375.947" y1="194.883" x2="487.158" y2="194.883" gradientUnits="userSpaceOnUse">
<stop stop-color="white" stop-opacity="0"/>
<stop offset="1" stop-color="white"/>
</linearGradient>
<linearGradient id="paint20_linear_2280_2423" x1="375.947" y1="194.885" x2="487.158" y2="194.885" gradientUnits="userSpaceOnUse">
<stop stop-color="white" stop-opacity="0"/>
<stop offset="1" stop-color="white"/>
</linearGradient>
<linearGradient id="paint21_linear_2280_2423" x1="190.682" y1="194.883" x2="79.4707" y2="194.883" gradientUnits="userSpaceOnUse">
<stop stop-color="white" stop-opacity="0"/>
<stop offset="1" stop-color="white"/>
</linearGradient>
<linearGradient id="paint22_linear_2280_2423" x1="190.682" y1="194.885" x2="79.4707" y2="194.885" gradientUnits="userSpaceOnUse">
<stop stop-color="white" stop-opacity="0"/>
<stop offset="1" stop-color="white"/>
</linearGradient>
</defs>
</svg>
