<svg width="32" height="32" viewBox="0 0 32 32" fill="none" xmlns="http://www.w3.org/2000/svg">
<path d="M24 21.3333L26.4531 23.4477C27.4844 24.3366 28 24.781 28 25.3333C28 25.8856 27.4844 26.3301 26.4531 27.2189L24 29.3333" stroke="#E3E8FF" stroke-width="1.5" stroke-linecap="round" stroke-linejoin="round"/>
<path d="M18.668 21.3333L16.2149 23.4477C15.1836 24.3366 14.668 24.781 14.668 25.3333C14.668 25.8856 15.1836 26.3301 16.2149 27.2189L18.668 29.3333" stroke="#E3E8FF" stroke-width="1.5" stroke-linecap="round" stroke-linejoin="round"/>
<path d="M26.668 17.3376L26.668 10.4265C26.668 8.1682 26.668 7.03904 26.3107 6.13721C25.7363 4.68739 24.5216 3.54379 22.9816 3.00303C22.0237 2.66666 20.8243 2.66666 18.4255 2.66666C14.2277 2.66666 12.1288 2.66666 10.4525 3.25531C7.75748 4.20163 5.63172 6.20293 4.62655 8.74012C4.0013 10.3183 4.0013 12.2944 4.0013 16.2464L4.0013 19.6414C4.0013 23.735 4.0013 25.7819 5.13157 27.2034C5.45541 27.6106 5.83946 27.9722 6.27206 28.2771C7.48805 29.1341 9.13489 29.3009 12.0013 29.3333" stroke="#E3E8FF" stroke-width="1.5" stroke-linecap="round" stroke-linejoin="round"/>
<path d="M4.00065 16C4.00065 13.5454 5.9905 11.5556 8.4451 11.5556C9.33281 11.5556 10.3794 11.7111 11.2425 11.4798C12.0093 11.2744 12.6083 10.6754 12.8138 9.90849C13.0451 9.04538 12.8895 7.99882 12.8895 7.11111C12.8895 4.65651 14.8794 2.66667 17.334 2.66667" stroke="#E3E8FF" stroke-width="1.5" stroke-linecap="round" stroke-linejoin="round"/>
</svg>
