<svg width="77" height="20" viewBox="0 0 77 20" fill="none" xmlns="http://www.w3.org/2000/svg">
<g clip-path="url(#clip0_2255_1105)">
<path d="M21.7475 11.0336C21.7464 11.1003 21.7188 11.1638 21.6709 11.2103C21.623 11.2568 21.5586 11.2824 21.4918 11.2817H16.783C16.9038 12.4438 17.7773 13.5068 19.0131 13.5068C19.8583 13.5068 20.4833 13.1879 20.952 12.5147C20.9739 12.4793 21.0041 12.4499 21.04 12.4289C21.0759 12.4079 21.1164 12.396 21.158 12.3942C21.189 12.3934 21.2199 12.3988 21.2487 12.4103C21.2776 12.4217 21.3037 12.4389 21.3257 12.4608C21.3476 12.4827 21.3649 12.5088 21.3763 12.5376C21.3878 12.5663 21.3933 12.5971 21.3924 12.6281C21.3925 12.6708 21.3802 12.7127 21.3569 12.7486C20.881 13.5706 19.9364 13.9745 19.0131 13.9745C17.4293 13.9745 16.293 12.5572 16.293 11.0478C16.293 9.53839 17.4222 8.12109 19.0131 8.12109C20.604 8.12109 21.7404 9.52422 21.7475 11.0336ZM21.2432 10.814C21.1438 9.65178 20.2489 8.5888 19.0131 8.5888C17.7773 8.5888 16.9038 9.65178 16.783 10.814H21.2432Z" fill="#636475"/>
<path d="M27.471 8.23483C27.5325 8.23661 27.5911 8.26183 27.6347 8.3053C27.6783 8.34878 27.7035 8.40723 27.7053 8.46869C27.7062 8.49964 27.7008 8.53044 27.6893 8.55921C27.6778 8.58798 27.6606 8.61411 27.6386 8.63601C27.6167 8.6579 27.5905 8.67509 27.5617 8.68653C27.5328 8.69797 27.502 8.70342 27.471 8.70254H26.2068V13.656C26.2062 13.7178 26.1813 13.777 26.1375 13.8207C26.0937 13.8645 26.0344 13.8893 25.9724 13.8898C25.9108 13.8881 25.8522 13.8629 25.8086 13.8194C25.7651 13.7759 25.7398 13.7175 25.738 13.656V8.70254H24.5235C24.4925 8.70342 24.4616 8.69797 24.4328 8.68653C24.404 8.67509 24.3778 8.6579 24.3558 8.63601C24.3339 8.61411 24.3167 8.58798 24.3052 8.55921C24.2937 8.53044 24.2883 8.49964 24.2892 8.46869C24.2897 8.40684 24.3146 8.34768 24.3584 8.30394C24.4022 8.2602 24.4615 8.23539 24.5235 8.23483H25.738V6.42778C25.7381 6.3679 25.7597 6.31003 25.7987 6.26456C25.8378 6.2191 25.8918 6.18903 25.9511 6.17975C25.9842 6.17536 26.0179 6.17816 26.0499 6.18796C26.0818 6.19776 26.1113 6.21432 26.1362 6.23653C26.1612 6.25873 26.181 6.28604 26.1944 6.31661C26.2078 6.34717 26.2145 6.38025 26.2139 6.41361V8.23483H27.471Z" fill="#636475"/>
<path d="M35.1783 10.6295V13.627C35.1765 13.6885 35.1512 13.7469 35.1077 13.7904C35.0641 13.8339 35.0055 13.8591 34.9439 13.8609C34.9129 13.8618 34.882 13.8563 34.8532 13.8449C34.8243 13.8334 34.7982 13.8163 34.7762 13.7944C34.7543 13.7725 34.737 13.7463 34.7256 13.7176C34.7141 13.6888 34.7086 13.658 34.7095 13.627V10.6295C34.7095 9.61609 34.1343 8.60981 33.005 8.60981C31.5561 8.60981 30.9311 9.8712 31.0164 11.168C31.0164 11.2035 31.0306 11.3523 31.0306 11.3735V13.62C31.0305 13.6798 31.0089 13.7377 30.9699 13.7832C30.9308 13.8286 30.8768 13.8587 30.8175 13.868C30.7844 13.8724 30.7507 13.8696 30.7187 13.8598C30.6868 13.85 30.6573 13.8334 30.6323 13.8112C30.6074 13.789 30.5875 13.7617 30.5741 13.7311C30.5608 13.7006 30.5541 13.6675 30.5547 13.6341V3.77682C30.5553 3.71497 30.5802 3.65581 30.624 3.61208C30.6678 3.56834 30.7271 3.54352 30.7891 3.54297C30.8507 3.54475 30.9093 3.56996 30.9528 3.61344C30.9964 3.65691 31.0217 3.71536 31.0235 3.77682V9.3468C31.4283 8.62398 32.1527 8.13501 32.9979 8.13501C34.3899 8.13501 35.1783 9.3468 35.1783 10.6295Z" fill="#636475"/>
<path d="M43.6362 11.0336C43.635 11.1003 43.6075 11.1638 43.5596 11.2103C43.5117 11.2568 43.4473 11.2824 43.3805 11.2817H38.6717C38.7924 12.4438 39.666 13.5068 40.9018 13.5068C41.747 13.5068 42.372 13.1879 42.8407 12.5147C42.8625 12.4793 42.8927 12.4499 42.9286 12.4289C42.9645 12.4079 43.0051 12.396 43.0467 12.3942C43.0777 12.3934 43.1086 12.3988 43.1374 12.4103C43.1662 12.4217 43.1924 12.4389 43.2144 12.4608C43.2363 12.4827 43.2535 12.5088 43.265 12.5376C43.2765 12.5663 43.2819 12.5971 43.281 12.6281C43.2812 12.6708 43.2689 12.7127 43.2455 12.7486C42.7697 13.5706 41.8251 13.9745 40.9018 13.9745C39.318 13.9745 38.1816 12.5572 38.1816 11.0478C38.1816 9.53839 39.3109 8.12109 40.9018 8.12109C42.4785 8.12109 43.6291 9.52422 43.6362 11.0336ZM43.1248 10.814C43.0254 9.65178 42.1305 8.5888 40.8947 8.5888C39.6589 8.5888 38.7853 9.65178 38.6646 10.814H43.1248Z" fill="#636475"/>
<path d="M49.4247 8.45418C49.4292 8.51709 49.4086 8.57923 49.3674 8.62703C49.3261 8.67483 49.2676 8.7044 49.2046 8.70929C47.8196 8.9148 47.1946 10.0416 47.1946 11.3526V13.599C47.1945 13.6588 47.173 13.7167 47.1339 13.7622C47.0949 13.8076 47.0409 13.8377 46.9816 13.847C46.9484 13.8514 46.9147 13.8486 46.8828 13.8388C46.8508 13.829 46.8214 13.8124 46.7964 13.7902C46.7715 13.768 46.7516 13.7407 46.7382 13.7101C46.7248 13.6796 46.7182 13.6465 46.7188 13.6131V8.48961C46.7189 8.42973 46.7404 8.37186 46.7795 8.3264C46.8185 8.28093 46.8726 8.25086 46.9319 8.24158C46.965 8.23719 46.9987 8.23999 47.0306 8.24979C47.0626 8.25959 47.0921 8.27615 47.117 8.29836C47.142 8.32056 47.1618 8.34788 47.1752 8.37844C47.1886 8.409 47.1952 8.44209 47.1946 8.47544V9.51715C47.5853 8.85811 48.3594 8.2345 49.1691 8.2345C49.2898 8.2345 49.4247 8.31954 49.4247 8.45418Z" fill="#636475"/>
<path d="M57.1655 11.0336C57.1643 11.1003 57.1368 11.1638 57.0889 11.2103C57.041 11.2568 56.9766 11.2824 56.9098 11.2817H52.201C52.3217 12.4438 53.1953 13.5068 54.4311 13.5068C55.2763 13.5068 55.9013 13.1879 56.37 12.5147C56.3918 12.4793 56.422 12.4499 56.4579 12.4289C56.4938 12.4079 56.5344 12.396 56.576 12.3942C56.607 12.3934 56.6379 12.3988 56.6667 12.4103C56.6955 12.4217 56.7217 12.4389 56.7437 12.4608C56.7656 12.4827 56.7828 12.5088 56.7943 12.5376C56.8058 12.5663 56.8112 12.5971 56.8103 12.6281C56.8105 12.6708 56.7982 12.7127 56.7748 12.7486C56.299 13.5706 55.3544 13.9745 54.4311 13.9745C52.8473 13.9745 51.7109 12.5572 51.7109 11.0478C51.7109 9.53839 52.8402 8.12109 54.4311 8.12109C56.022 8.12109 57.1584 9.52422 57.1655 11.0336ZM56.6612 10.814C56.5618 9.65178 55.6669 8.5888 54.4311 8.5888C53.1953 8.5888 52.3217 9.65178 52.201 10.814H56.6612Z" fill="#636475"/>
<path d="M64.78 8.51098V13.6558C64.7782 13.7172 64.7529 13.7757 64.7094 13.8192C64.6658 13.8626 64.6072 13.8878 64.5456 13.8896C64.5146 13.8905 64.4837 13.8851 64.4549 13.8736C64.426 13.8622 64.3999 13.845 64.3779 13.8231C64.356 13.8012 64.3387 13.7751 64.3273 13.7463C64.3158 13.7175 64.3104 13.6867 64.3112 13.6558V12.6778C63.9206 13.4503 63.2317 14.0101 62.351 14.0101C60.9519 14.0101 60.1777 12.7983 60.1777 11.5157V8.5039C60.1783 8.44205 60.2032 8.38289 60.247 8.33915C60.2908 8.29541 60.3501 8.2706 60.4121 8.27004C60.4737 8.27183 60.5323 8.29704 60.5759 8.34051C60.6194 8.38399 60.6447 8.44244 60.6465 8.5039V11.5157C60.6465 12.529 61.2218 13.5353 62.351 13.5353C63.9348 13.5353 64.3112 12.0542 64.3112 10.4172V8.49681C64.3118 8.4589 64.3214 8.42166 64.3393 8.38822C64.3572 8.35478 64.3829 8.3261 64.4142 8.30459C64.4455 8.28308 64.4815 8.26937 64.5192 8.26459C64.5568 8.25981 64.5951 8.26411 64.6308 8.27713C64.6755 8.29783 64.7132 8.33086 64.7397 8.3723C64.7661 8.41374 64.7801 8.46186 64.78 8.51098Z" fill="#636475"/>
<path d="M76.7044 10.6089V13.6207C76.7026 13.6821 76.6773 13.7406 76.6337 13.7841C76.5902 13.8275 76.5316 13.8528 76.47 13.8545C76.439 13.8554 76.4081 13.85 76.3793 13.8385C76.3504 13.8271 76.3242 13.8099 76.3023 13.788C76.2803 13.7661 76.2631 13.74 76.2516 13.7112C76.2402 13.6824 76.2347 13.6516 76.2356 13.6207V10.6089C76.2356 9.59556 75.6603 8.60345 74.5311 8.60345C73.1106 8.60345 72.5709 10.12 72.5709 11.2963V13.6207C72.5691 13.6821 72.5438 13.7406 72.5002 13.7841C72.4567 13.8275 72.3981 13.8528 72.3365 13.8545C72.3055 13.8554 72.2746 13.85 72.2458 13.8385C72.2169 13.8271 72.1907 13.8099 72.1688 13.788C72.1469 13.7661 72.1296 13.74 72.1182 13.7112C72.1067 13.6824 72.1012 13.6516 72.1021 13.6207V10.6089C72.1021 9.59556 71.5268 8.60345 70.3976 8.60345C68.9629 8.60345 68.3734 9.7302 68.4232 11.2325C68.4232 11.268 68.4374 11.3317 68.4232 11.353V13.6136C68.423 13.6735 68.4015 13.7313 68.3625 13.7768C68.3234 13.8223 68.2694 13.8523 68.2101 13.8616C68.1769 13.866 68.1432 13.8632 68.1113 13.8534C68.0793 13.8436 68.0499 13.8271 68.0249 13.8048C68 13.7826 67.9801 13.7553 67.9667 13.7248C67.9533 13.6942 67.9467 13.6611 67.9473 13.6278V8.49007C67.9474 8.43019 67.9689 8.37232 68.008 8.32685C68.0471 8.28139 68.1011 8.25132 68.1604 8.24204C68.1935 8.23765 68.2272 8.24045 68.2592 8.25024C68.2911 8.26004 68.3206 8.27661 68.3455 8.29881C68.3705 8.32102 68.3903 8.34833 68.4037 8.37889C68.4171 8.40945 68.4238 8.44254 68.4232 8.47589V9.33336C68.828 8.61054 69.5524 8.13574 70.3976 8.13574C71.3564 8.13574 72.1021 8.74518 72.4075 9.63099C72.7981 8.75227 73.5581 8.13574 74.5311 8.13574C75.916 8.13574 76.7044 9.33336 76.7044 10.6089Z" fill="#636475"/>
<path opacity="0.6" d="M5.89485 7.09363L0 9.76523L5.89485 13.2447L11.7968 9.76523L5.89485 7.09363Z" fill="#636475"/>
<path opacity="0.45" d="M0 9.76518L5.89485 13.2446V0L0 9.76518Z" fill="#636475"/>
<path opacity="0.8" d="M5.89453 0V13.2446L11.7965 9.76518L5.89453 0Z" fill="#636475"/>
<path opacity="0.45" d="M0 10.8848L5.89485 19.176V14.3572L0 10.8848Z" fill="#636475"/>
<path opacity="0.8" d="M5.89453 14.3572V19.176L11.7965 10.8848L5.89453 14.3572Z" fill="#636475"/>
</g>
<defs>
<clipPath id="clip0_2255_1105">
<rect width="76.7041" height="19.176" fill="white"/>
</clipPath>
</defs>
</svg>
