<svg width="72" height="18" viewBox="0 0 72 18" fill="none" xmlns="http://www.w3.org/2000/svg">
<g clip-path="url(#clip0_20_2485)">
<path d="M20.4139 10.357C20.4129 10.4195 20.3871 10.4792 20.3421 10.5228C20.2971 10.5664 20.2367 10.5905 20.1739 10.5898H15.7539C15.8673 11.6807 16.6873 12.6785 17.8473 12.6785C18.6406 12.6785 19.2273 12.3791 19.6673 11.7472C19.6878 11.714 19.7161 11.6863 19.7498 11.6666C19.7835 11.6469 19.8216 11.6358 19.8606 11.6341C19.8897 11.6333 19.9187 11.6384 19.9458 11.6492C19.9728 11.6599 19.9974 11.676 20.018 11.6966C20.0386 11.7171 20.0548 11.7417 20.0656 11.7687C20.0763 11.7957 20.0814 11.8246 20.0806 11.8536C20.0808 11.8938 20.0692 11.9331 20.0473 11.9667C19.6006 12.7383 18.7139 13.1175 17.8473 13.1175C16.3606 13.1175 15.2939 11.7871 15.2939 10.3703C15.2939 8.95342 16.3539 7.62305 17.8473 7.62305C19.3406 7.62305 20.4073 8.94012 20.4139 10.357ZM19.9406 10.1508C19.8473 9.05985 19.0073 8.06207 17.8473 8.06207C16.6873 8.06207 15.8673 9.05985 15.7539 10.1508H19.9406Z" fill="#E3E8FF"/>
<path d="M25.7866 7.72977C25.8444 7.73144 25.8994 7.75511 25.9403 7.79592C25.9812 7.83672 26.0049 7.89159 26.0066 7.94928C26.0074 7.97833 26.0023 8.00725 25.9915 8.03425C25.9807 8.06126 25.9646 8.08579 25.944 8.10634C25.9234 8.12689 25.8988 8.14303 25.8717 8.15377C25.8447 8.16451 25.8157 8.16962 25.7866 8.16879H24.5999V12.8185C24.5994 12.8765 24.576 12.932 24.5349 12.9731C24.4937 13.0142 24.4381 13.0375 24.3799 13.038C24.3221 13.0363 24.2671 13.0126 24.2262 12.9718C24.1853 12.931 24.1616 12.8761 24.1599 12.8185V8.16879H23.0199C22.9908 8.16962 22.9618 8.16451 22.9347 8.15377C22.9077 8.14303 22.8831 8.12689 22.8625 8.10634C22.8419 8.08579 22.8257 8.06126 22.815 8.03425C22.8042 8.00725 22.7991 7.97833 22.7999 7.94928C22.8004 7.89122 22.8238 7.83569 22.8649 7.79464C22.906 7.75358 22.9617 7.73029 23.0199 7.72977H24.1599V6.03354C24.16 5.97733 24.1802 5.92301 24.2169 5.88033C24.2535 5.83766 24.3042 5.80943 24.3599 5.80072C24.391 5.7966 24.4226 5.79923 24.4526 5.80842C24.4826 5.81762 24.5103 5.83317 24.5337 5.85401C24.5571 5.87485 24.5758 5.90049 24.5883 5.92918C24.6009 5.95787 24.6071 5.98893 24.6066 6.02023V7.72977H25.7866Z" fill="#E3E8FF"/>
<path d="M33.0207 9.97757V12.7913C33.019 12.849 32.9953 12.9039 32.9544 12.9447C32.9135 12.9855 32.8585 13.0092 32.8007 13.0108C32.7716 13.0117 32.7426 13.0065 32.7155 12.9958C32.6885 12.9851 32.6639 12.9689 32.6433 12.9484C32.6227 12.9278 32.6065 12.9033 32.5958 12.8763C32.585 12.8493 32.5799 12.8204 32.5807 12.7913V9.97757C32.5807 9.02635 32.0407 8.08178 30.9807 8.08178C29.6207 8.08178 29.034 9.26582 29.114 10.4831C29.114 10.5164 29.1274 10.6561 29.1274 10.676V12.7847C29.1273 12.8409 29.1071 12.8952 29.0704 12.9379C29.0337 12.9805 28.983 13.0088 28.9274 13.0175C28.8963 13.0216 28.8646 13.019 28.8346 13.0098C28.8046 13.0006 28.777 12.985 28.7536 12.9642C28.7301 12.9433 28.7115 12.9177 28.6989 12.889C28.6864 12.8603 28.6801 12.8293 28.6807 12.798V3.5452C28.6812 3.48714 28.7046 3.43161 28.7457 3.39055C28.7869 3.3495 28.8425 3.3262 28.9007 3.32568C28.9585 3.32736 29.0135 3.35102 29.0544 3.39183C29.0953 3.43264 29.119 3.48751 29.1207 3.5452V8.77358C29.5007 8.09509 30.1807 7.63611 30.974 7.63611C32.2807 7.63611 33.0207 8.77358 33.0207 9.97757Z" fill="#E3E8FF"/>
<path d="M40.9598 10.357C40.9588 10.4195 40.933 10.4792 40.888 10.5228C40.843 10.5664 40.7826 10.5905 40.7198 10.5898H36.2998C36.4132 11.6807 37.2332 12.6785 38.3932 12.6785C39.1865 12.6785 39.7732 12.3791 40.2132 11.7472C40.2337 11.714 40.262 11.6863 40.2957 11.6666C40.3294 11.6469 40.3675 11.6358 40.4065 11.6341C40.4356 11.6333 40.4646 11.6384 40.4917 11.6492C40.5187 11.6599 40.5433 11.676 40.5639 11.6966C40.5845 11.7171 40.6007 11.7417 40.6115 11.7687C40.6222 11.7957 40.6273 11.8246 40.6265 11.8536C40.6267 11.8938 40.6151 11.9331 40.5932 11.9667C40.1465 12.7383 39.2598 13.1175 38.3932 13.1175C36.9065 13.1175 35.8398 11.7871 35.8398 10.3703C35.8398 8.95342 36.8998 7.62305 38.3932 7.62305C39.8732 7.62305 40.9532 8.94012 40.9598 10.357ZM40.4798 10.1508C40.3865 9.05985 39.5465 8.06207 38.3865 8.06207C37.2265 8.06207 36.4065 9.05985 36.2932 10.1508H40.4798Z" fill="#E3E8FF"/>
<path d="M46.3936 7.9357C46.3978 7.99476 46.3784 8.05309 46.3397 8.09795C46.301 8.14282 46.246 8.17058 46.1869 8.17517C44.8869 8.36807 44.3002 9.42572 44.3002 10.6563V12.765C44.3001 12.8212 44.2799 12.8755 44.2432 12.9182C44.2066 12.9608 44.1559 12.9891 44.1002 12.9978C44.0691 13.0019 44.0375 12.9993 44.0075 12.9901C43.9775 12.9809 43.9498 12.9653 43.9264 12.9445C43.903 12.9237 43.8844 12.898 43.8718 12.8693C43.8592 12.8406 43.853 12.8096 43.8536 12.7783V7.96896C43.8537 7.91275 43.8739 7.85843 43.9105 7.81576C43.9472 7.77308 43.9979 7.74485 44.0536 7.73614C44.0847 7.73202 44.1163 7.73465 44.1463 7.74385C44.1763 7.75304 44.2039 7.76859 44.2274 7.78944C44.2508 7.81028 44.2694 7.83592 44.282 7.86461C44.2946 7.89329 44.3008 7.92435 44.3002 7.95566V8.93348C44.6669 8.31486 45.3936 7.72949 46.1536 7.72949C46.2669 7.72949 46.3936 7.80932 46.3936 7.9357Z" fill="#E3E8FF"/>
<path d="M53.66 10.357C53.659 10.4195 53.6332 10.4792 53.5882 10.5228C53.5432 10.5664 53.4828 10.5905 53.42 10.5898H49C49.1134 11.6807 49.9334 12.6785 51.0934 12.6785C51.8867 12.6785 52.4734 12.3791 52.9134 11.7472C52.9339 11.714 52.9622 11.6863 52.9959 11.6666C53.0296 11.6469 53.0677 11.6358 53.1067 11.6341C53.1358 11.6333 53.1648 11.6384 53.1919 11.6492C53.2189 11.6599 53.2435 11.676 53.2641 11.6966C53.2847 11.7171 53.3009 11.7417 53.3116 11.7687C53.3224 11.7957 53.3275 11.8246 53.3267 11.8536C53.3269 11.8938 53.3153 11.9331 53.2934 11.9667C52.8467 12.7383 51.96 13.1175 51.0934 13.1175C49.6067 13.1175 48.54 11.7871 48.54 10.3703C48.54 8.95342 49.6 7.62305 51.0934 7.62305C52.5867 7.62305 53.6534 8.94012 53.66 10.357ZM53.1867 10.1508C53.0934 9.05985 52.2534 8.06207 51.0934 8.06207C49.9334 8.06207 49.1134 9.05985 49 10.1508H53.1867Z" fill="#E3E8FF"/>
<path d="M60.8073 7.98904V12.8183C60.8056 12.876 60.7819 12.9309 60.741 12.9717C60.7001 13.0125 60.6451 13.0362 60.5873 13.0378C60.5582 13.0387 60.5292 13.0335 60.5021 13.0228C60.4751 13.0121 60.4505 12.9959 60.4299 12.9754C60.4093 12.9548 60.3931 12.9303 60.3824 12.9033C60.3716 12.8763 60.3665 12.8474 60.3673 12.8183V11.9004C60.0006 12.6254 59.354 13.1509 58.5273 13.1509C57.214 13.1509 56.4873 12.0134 56.4873 10.8094V7.98239C56.4878 7.92433 56.5112 7.8688 56.5523 7.82775C56.5935 7.78669 56.6491 7.7634 56.7073 7.76288C56.7651 7.76455 56.8201 7.78822 56.861 7.82903C56.9019 7.86984 56.9256 7.9247 56.9273 7.98239V10.8094C56.9273 11.7607 57.4673 12.7052 58.5273 12.7052C60.014 12.7052 60.3673 11.315 60.3673 9.7784V7.97574C60.3678 7.94015 60.3768 7.9052 60.3936 7.87381C60.4104 7.84242 60.4345 7.8155 60.4639 7.79531C60.4933 7.77512 60.5271 7.76224 60.5625 7.75776C60.5979 7.75327 60.6338 7.75731 60.6673 7.76953C60.7092 7.78896 60.7447 7.81996 60.7695 7.85886C60.7943 7.89776 60.8074 7.94294 60.8073 7.98904Z" fill="#E3E8FF"/>
<path d="M72.0003 9.95829V12.7853C71.9986 12.843 71.9749 12.8979 71.934 12.9387C71.8931 12.9795 71.8381 13.0032 71.7803 13.0049C71.7512 13.0057 71.7222 13.0006 71.6951 12.9898C71.6681 12.9791 71.6435 12.9629 71.6229 12.9424C71.6023 12.9218 71.5861 12.8973 71.5754 12.8703C71.5646 12.8433 71.5595 12.8144 71.5603 12.7853V9.95829C71.5603 9.00707 71.0203 8.0758 69.9603 8.0758C68.627 8.0758 68.1203 9.49931 68.1203 10.6035V12.7853C68.1186 12.843 68.0949 12.8979 68.054 12.9387C68.0131 12.9795 67.9581 13.0032 67.9003 13.0049C67.8712 13.0057 67.8422 13.0006 67.8151 12.9898C67.7881 12.9791 67.7635 12.9629 67.7429 12.9424C67.7223 12.9218 67.7061 12.8973 67.6954 12.8703C67.6846 12.8433 67.6795 12.8144 67.6803 12.7853V9.95829C67.6803 9.00707 67.1403 8.0758 66.0803 8.0758C64.7336 8.0758 64.1803 9.13345 64.227 10.5437C64.227 10.5769 64.2403 10.6368 64.227 10.6567V12.7787C64.2269 12.8349 64.2067 12.8892 64.17 12.9319C64.1333 12.9746 64.0826 13.0028 64.027 13.0115C63.9959 13.0156 63.9642 13.013 63.9342 13.0038C63.9042 12.9946 63.8766 12.9791 63.8532 12.9582C63.8297 12.9374 63.8111 12.9117 63.7985 12.883C63.786 12.8544 63.7797 12.8233 63.7803 12.792V7.96937C63.7804 7.91317 63.8006 7.85884 63.8373 7.81617C63.8739 7.77349 63.9247 7.74527 63.9803 7.73656C64.0114 7.73244 64.043 7.73506 64.073 7.74426C64.103 7.75346 64.1307 7.76901 64.1541 7.78985C64.1775 7.81069 64.1962 7.83633 64.2087 7.86502C64.2213 7.89371 64.2275 7.92476 64.227 7.95607V8.76095C64.607 8.08246 65.287 7.63678 66.0803 7.63678C66.9803 7.63678 67.6803 8.20884 67.967 9.04033C68.3336 8.21549 69.047 7.63678 69.9603 7.63678C71.2603 7.63678 72.0003 8.76095 72.0003 9.95829Z" fill="#E3E8FF"/>
<path opacity="0.6" d="M5.53333 6.65863L0 9.16639L5.53333 12.4325L11.0733 9.16639L5.53333 6.65863Z" fill="#E3E8FF"/>
<path opacity="0.45" d="M0 9.1663L5.53333 12.4324V0L0 9.1663Z" fill="#E3E8FF"/>
<path opacity="0.8" d="M5.5332 0V12.4324L11.0732 9.1663L5.5332 0Z" fill="#E3E8FF"/>
<path opacity="0.45" d="M0 10.2172L5.53333 17.9999V13.4766L0 10.2172Z" fill="#E3E8FF"/>
<path opacity="0.8" d="M5.5332 13.4766V17.9999L11.0732 10.2172L5.5332 13.4766Z" fill="#E3E8FF"/>
</g>
<defs>
<clipPath id="clip0_20_2485">
<rect width="72" height="18" fill="white"/>
</clipPath>
</defs>
</svg>
