<svg width="20" height="20" viewBox="0 0 20 20" fill="none" xmlns="http://www.w3.org/2000/svg">
<path opacity="0.4" d="M11.041 5.41667C11.041 3.46066 12.6267 1.875 14.5827 1.875C16.5387 1.875 18.1243 3.46066 18.1243 5.41667C18.1243 7.37268 16.5387 8.95833 14.5827 8.95833C12.6267 8.95833 11.041 7.37268 11.041 5.41667Z" fill="#9095A4"/>
<path opacity="0.4" d="M5.3743 1.875L5.41667 1.875L5.45904 1.875H5.45907C6.11035 1.87497 6.66118 1.87495 7.10014 1.93397C7.56657 1.99668 7.99909 2.13615 8.34814 2.4852C8.69719 2.83425 8.83666 3.26677 8.89937 3.7332C8.95839 4.17217 8.95836 4.72301 8.95834 5.3743V5.45904C8.95836 6.11033 8.95839 6.66117 8.89937 7.10014C8.83666 7.56657 8.69719 7.99909 8.34814 8.34814C7.99909 8.69719 7.56657 8.83666 7.10014 8.89937C6.66117 8.95839 6.11033 8.95836 5.45904 8.95834H5.3743C4.72301 8.95836 4.17217 8.95839 3.7332 8.89937C3.26677 8.83666 2.83425 8.69719 2.4852 8.34814C2.13615 7.99909 1.99668 7.56657 1.93397 7.10014C1.87495 6.66118 1.87497 6.11035 1.875 5.45907V5.45904L1.875 5.41667L1.875 5.3743V5.37426C1.87497 4.72299 1.87495 4.17216 1.93397 3.7332C1.99668 3.26677 2.13615 2.83425 2.4852 2.4852C2.83425 2.13615 3.26677 1.99668 3.7332 1.93397C4.17216 1.87495 4.72299 1.87497 5.37426 1.875H5.3743Z" fill="#9095A4"/>
<path opacity="0.4" d="M5.3743 11.0415L5.41667 11.0415L5.45904 11.0415H5.45907C6.11035 11.0415 6.66118 11.0415 7.10014 11.1005C7.56657 11.1632 7.99909 11.3027 8.34814 11.6517C8.69719 12.0007 8.83666 12.4333 8.89937 12.8997C8.95839 13.3387 8.95836 13.8895 8.95834 14.5408V14.6255C8.95836 15.2768 8.95839 15.8277 8.89937 16.2666C8.83666 16.7331 8.69719 17.1656 8.34814 17.5146C7.99909 17.8637 7.56657 18.0032 7.10014 18.0659C6.66117 18.1249 6.11033 18.1249 5.45904 18.1248H5.3743C4.72301 18.1249 4.17217 18.1249 3.7332 18.0659C3.26677 18.0032 2.83425 17.8637 2.4852 17.5146C2.13615 17.1656 1.99668 16.7331 1.93397 16.2666C1.87495 15.8277 1.87497 15.2769 1.875 14.6256V14.6255L1.875 14.5832L1.875 14.5408V14.5408C1.87497 13.8895 1.87495 13.3387 1.93397 12.8997C1.99668 12.4333 2.13615 12.0007 2.4852 11.6517C2.83425 11.3027 3.26677 11.1632 3.7332 11.1005C4.17216 11.0415 4.72299 11.0415 5.37426 11.0415H5.3743Z" fill="#9095A4"/>
<path opacity="0.4" d="M14.5403 11.0415L14.5827 11.0415L14.6251 11.0415H14.6251C15.2764 11.0415 15.8272 11.0415 16.2662 11.1005C16.7326 11.1632 17.1651 11.3027 17.5142 11.6517C17.8632 12.0007 18.0027 12.4333 18.0654 12.8997C18.1244 13.3387 18.1244 13.8895 18.1244 14.5408V14.6255C18.1244 15.2768 18.1244 15.8277 18.0654 16.2666C18.0027 16.7331 17.8632 17.1656 17.5142 17.5146C17.1651 17.8637 16.7326 18.0032 16.2662 18.0659C15.8272 18.1249 15.2763 18.1249 14.6251 18.1248H14.5403C13.889 18.1249 13.3382 18.1249 12.8992 18.0659C12.4328 18.0032 12.0003 17.8637 11.6512 17.5146C11.3022 17.1656 11.1627 16.7331 11.1 16.2666C11.041 15.8277 11.041 15.2769 11.041 14.6256V14.6255L11.041 14.5832L11.041 14.5408V14.5408C11.041 13.8895 11.041 13.3387 11.1 12.8997C11.1627 12.4333 11.3022 12.0007 11.6512 11.6517C12.0003 11.3027 12.4328 11.1632 12.8992 11.1005C13.3382 11.0415 13.889 11.0415 14.5403 11.0415H14.5403Z" fill="#9095A4"/>
<path d="M11.1399 4.5835C11.0755 4.85074 11.0413 5.1298 11.0413 5.41683C11.0413 5.70386 11.0755 5.98292 11.1399 6.25016H8.95312C8.95795 6.0061 8.95794 5.74215 8.95793 5.45924V5.37447C8.95794 5.09155 8.95795 4.82757 8.95312 4.5835H11.1399Z" fill="#9095A4"/>
<path d="M13.7496 8.85988C14.0169 8.92434 14.2959 8.9585 14.583 8.9585C14.87 8.9585 15.149 8.92436 15.4163 8.85992V11.0466C15.1722 11.0418 14.9082 11.0418 14.6253 11.0418H14.5406C14.2576 11.0418 13.9937 11.0418 13.7496 11.0466V8.85988Z" fill="#9095A4"/>
<path d="M8.95312 15.4168C8.95795 15.1728 8.95794 14.9088 8.95793 14.6259V14.5411C8.95794 14.2582 8.95795 13.9942 8.95312 13.7502H11.0461C11.0412 13.9942 11.0413 14.2582 11.0413 14.5411V14.6259C11.0413 14.9088 11.0412 15.1728 11.0461 15.4168H8.95312Z" fill="#9095A4"/>
</svg>
