<svg width="122" height="20" viewBox="0 0 122 20" fill="none" xmlns="http://www.w3.org/2000/svg">
<path opacity="0.987" fill-rule="evenodd" clip-rule="evenodd" d="M17.1093 2.23345C16.2066 3.16714 15.2933 4.09385 14.3694 5.01357C14.4158 5.05106 14.4509 5.09523 14.4748 5.14596C12.6826 3.77453 10.7681 3.62446 8.73141 4.69584C8.37064 4.96173 8.03694 5.25298 7.73028 5.56959C6.40599 5.32092 5.12385 5.45331 3.88382 5.96675C3.48626 6.1576 3.09988 6.36058 2.72461 6.57573C3.91844 2.77152 6.48276 0.591531 10.4175 0.0358237C12.9709 -0.176631 15.2015 0.555892 17.1093 2.23345Z" fill="#636475"/>
<path opacity="0.994" fill-rule="evenodd" clip-rule="evenodd" d="M17.1104 2.23346C18.4372 3.37982 19.3418 4.8096 19.824 6.52279C22.0006 8.18176 22.8963 10.353 22.5113 13.0362C22.0183 15.4345 20.5869 17.0936 18.2169 18.014C18.1324 18.0632 18.0533 18.0632 17.9798 18.014C17.9627 18.1236 17.9188 18.1411 17.8481 18.0669C17.7011 18.1013 17.5606 18.1543 17.4266 18.2258C17.3769 18.22 17.333 18.2025 17.2948 18.1728C17.1505 18.2141 17.0011 18.2406 16.847 18.2523C14.9587 18.2962 13.0794 18.2872 11.209 18.2258C11.2441 16.9194 11.2792 15.6135 11.3144 14.3071C13.0006 14.3161 14.6867 14.3071 16.3727 14.2807C17.7224 14.045 18.46 13.2422 18.5858 11.8712C18.4469 10.3546 17.6389 9.54275 16.162 9.4353C16.2406 8.19336 15.9508 7.06367 15.2926 6.0462C15.0435 5.72 14.7713 5.4199 14.4758 5.14597C14.452 5.09524 14.4169 5.05107 14.3705 5.01358C15.2944 4.09386 16.2077 3.16716 17.1104 2.23346Z" fill="#636475"/>
<path opacity="0.98" fill-rule="evenodd" clip-rule="evenodd" d="M35.0246 2.65681C36.6085 2.54285 38.0491 2.94001 39.3453 3.84829C39.5813 4.02379 39.7921 4.22681 39.9776 4.45727C39.5708 4.88372 39.1667 5.30736 38.7657 5.72819C37.3899 4.51499 35.8266 4.18842 34.0761 4.74852C32.188 5.57038 31.1869 7.01779 31.0727 9.09081C31.2518 11.6358 32.5867 13.154 35.0773 13.6449C36.7882 13.8128 38.1671 13.2213 39.2135 11.8709C39.4918 11.3943 39.6583 10.8828 39.7141 10.3352C38.3441 10.3352 36.9742 10.3352 35.6042 10.3352C35.6042 9.71727 35.6042 9.09966 35.6042 8.48183C37.5712 8.48183 39.5387 8.48183 41.5056 8.48183C41.9303 11.2053 40.9993 13.297 38.713 14.757C36.7903 15.7245 34.8407 15.7774 32.8643 14.9158C30.1796 13.5009 28.9589 11.2678 29.2022 8.21706C29.5581 6.13281 30.6383 4.55296 32.4427 3.47761C33.2557 3.03104 34.1164 2.75743 35.0246 2.65681Z" fill="#636475"/>
<path opacity="0.969" fill-rule="evenodd" clip-rule="evenodd" d="M69.1172 3.13354C69.7321 3.13354 70.3465 3.13354 70.9614 3.13354C70.9614 7.17574 70.9614 11.2181 70.9614 15.2602C70.3465 15.2602 69.7321 15.2602 69.1172 15.2602C69.1172 11.2181 69.1172 7.17574 69.1172 3.13354Z" fill="#636475"/>
<path opacity="0.975" fill-rule="evenodd" clip-rule="evenodd" d="M87.9274 3.82221C89.4275 3.62744 90.7975 3.95402 92.0373 4.80187C92.354 5.04965 92.6353 5.33206 92.8803 5.64915C92.5579 5.98176 92.2243 6.30833 91.8792 6.62881C90.6947 5.34249 89.2541 4.9277 87.5585 5.38438C86.1095 5.85213 85.1521 6.81415 84.6868 8.27041C84.2021 10.1265 84.6326 11.7241 85.9778 13.0628C87.8251 14.42 89.6867 14.4375 91.5631 13.1158C91.7833 12.8854 92.0115 12.6646 92.248 12.4538C92.581 12.762 92.9062 13.0798 93.2228 13.407C93.1254 13.666 92.9583 13.8868 92.7223 14.069C90.8391 15.5496 88.7667 15.8848 86.5047 15.0751C83.9075 13.7835 82.7568 11.6738 83.0534 8.747C83.4201 6.55277 84.6236 5.02593 86.6628 4.16642C87.0822 4.01703 87.5037 3.90233 87.9274 3.82221Z" fill="#636475"/>
<path opacity="0.993" fill-rule="evenodd" clip-rule="evenodd" d="M94.4082 4.03424C94.8998 4.03424 95.3919 4.03424 95.8836 4.03424C95.8836 7.77639 95.8836 11.5183 95.8836 15.2606C95.3919 15.2606 94.8998 15.2606 94.4082 15.2606C94.4082 11.5183 94.4082 7.77639 94.4082 4.03424Z" fill="#636475"/>
<path opacity="0.974" fill-rule="evenodd" clip-rule="evenodd" d="M120.172 4.03424C120.664 4.03424 121.156 4.03424 121.648 4.03424C121.648 7.77639 121.648 11.5183 121.648 15.2606C121.174 15.2606 120.699 15.2606 120.225 15.2606C120.234 14.9249 120.225 14.5892 120.199 14.2545C119.543 15.0652 118.691 15.4889 117.643 15.5254C115.733 15.3263 114.547 14.2852 114.087 12.4011C113.707 10.3491 114.384 8.76945 116.115 7.66164C117.429 7.09312 118.658 7.2343 119.804 8.08528C119.954 8.23853 120.086 8.40624 120.199 8.58835C120.18 7.07093 120.172 5.55288 120.172 4.03424ZM117.749 8.6413C119.382 8.81828 120.208 9.73641 120.225 11.3949C120.268 12.5721 119.776 13.4284 118.75 13.9633C117.151 14.3996 116.088 13.8261 115.562 12.2422C115.254 10.9824 115.579 9.93234 116.537 9.09142C116.91 8.84015 117.313 8.69013 117.749 8.6413Z" fill="#636475"/>
<path opacity="0.992" fill-rule="evenodd" clip-rule="evenodd" d="M7.72998 5.56904C9.26398 5.91075 10.511 6.70508 11.4711 7.952C10.5234 8.93092 9.56612 9.90179 8.59939 10.8645C8.28514 10.183 7.73188 9.71486 6.93961 9.46121C5.81207 9.26237 4.91632 9.65079 4.25236 10.6262C3.72513 11.7663 3.91835 12.7899 4.83196 13.6976C5.00205 13.8268 5.17767 13.9417 5.35888 14.0418C4.42798 15.0125 3.47954 15.9656 2.51355 16.9014C1.63076 16.2595 0.972116 15.4297 0.537624 14.4125C-0.312497 12.3372 -0.154424 10.3249 1.01185 8.37564C1.46768 7.66165 2.03848 7.06151 2.72431 6.57518C3.09958 6.36002 3.48596 6.15705 3.88352 5.9662C5.12356 5.45275 6.40569 5.32036 7.72998 5.56904Z" fill="#636475"/>
<path opacity="0.98" fill-rule="evenodd" clip-rule="evenodd" d="M46.0383 7.21114C47.9362 7.2059 49.2972 8.05318 50.1219 9.75297C50.6625 11.2998 50.4517 12.7296 49.4896 14.0423C47.9436 15.5992 46.1784 15.9079 44.1941 14.969C42.5591 13.9253 41.9004 12.4335 42.2182 10.4943C42.7424 8.51489 44.016 7.42053 46.0383 7.21114ZM45.9329 8.9057C47.3666 8.87239 48.236 9.5608 48.5411 10.9709C48.6634 12.0226 48.303 12.8609 47.461 13.4863C45.9487 14.1509 44.8338 13.7357 44.1151 12.2418C43.7088 10.5505 44.3148 9.43837 45.9329 8.9057Z" fill="#636475"/>
<path opacity="0.979" fill-rule="evenodd" clip-rule="evenodd" d="M54.9414 7.211C57.2176 7.21433 58.6667 8.30875 59.2884 10.4942C59.613 12.7284 58.761 14.3085 56.7329 15.2336C54.9119 15.8198 53.3401 15.4227 52.017 14.0422C51.0475 12.731 50.8367 11.3012 51.3847 9.75283C52.1076 8.24711 53.2932 7.39984 54.9414 7.211ZM54.836 8.90555C56.3208 8.8535 57.2082 9.55954 57.4969 11.0237C57.6033 12.1067 57.2082 12.9455 56.3114 13.5391C54.9719 14.0967 53.9271 13.7525 53.1762 12.5065C52.6746 11.2483 52.9296 10.1802 53.9402 9.30271C54.23 9.13913 54.5288 9.00675 54.836 8.90555Z" fill="#636475"/>
<path opacity="0.975" fill-rule="evenodd" clip-rule="evenodd" d="M63.5313 7.21091C64.544 7.1059 65.4134 7.40599 66.1395 8.11114C66.1659 7.90006 66.1748 7.68824 66.1659 7.47568C66.7629 7.47568 67.3604 7.47568 67.9574 7.47568C67.9663 10.2119 67.9574 12.9475 67.931 15.6837C67.4615 18.2197 65.9424 19.3757 63.3732 19.1522C61.9611 18.8721 60.96 18.0687 60.3698 16.7428C60.8772 16.4923 61.3952 16.263 61.9242 16.0543C61.9648 16.0618 62.0001 16.0798 62.0296 16.1073C62.6482 17.3565 63.623 17.7711 64.954 17.3517C65.6274 17.0271 66.0225 16.4886 66.1395 15.7366C66.1748 15.3485 66.1748 14.9598 66.1395 14.5716C65.3971 15.35 64.4924 15.6413 63.4259 15.4454C61.5865 15.0265 60.471 13.888 60.08 12.0298C59.864 10.0726 60.5927 8.59853 62.2667 7.60807C62.6793 7.42537 63.1008 7.29299 63.5313 7.21091ZM64.0582 8.90546C65.0662 8.95677 65.7601 9.451 66.1395 10.3882C66.4335 11.3027 66.3281 12.1675 65.8234 12.983C65.1284 13.8075 64.2769 14.0283 63.2678 13.6449C62.1139 12.9745 61.6834 11.9768 61.9769 10.653C62.3162 9.63147 63.0102 9.04902 64.0582 8.90546Z" fill="#636475"/>
<path opacity="0.979" fill-rule="evenodd" clip-rule="evenodd" d="M75.3327 7.21077C76.8965 7.14479 78.0821 7.78025 78.8893 9.11714C79.0922 9.49053 79.2592 9.87863 79.3899 10.2821C79.373 10.343 79.3383 10.387 79.2845 10.4145C77.5099 11.1268 75.7447 11.8591 73.989 12.6122C74.2688 13.2969 74.7873 13.694 75.5434 13.8036C76.5477 13.8857 77.3291 13.5066 77.8882 12.6651C78.3677 12.9722 78.833 13.2984 79.2845 13.6448C77.9198 15.4373 76.181 15.9314 74.0681 15.1275C72.8198 14.4899 72.0732 13.4753 71.8287 12.0826C71.5774 10.2678 72.1833 8.82933 73.6466 7.7668C74.1793 7.46771 74.7409 7.28237 75.3327 7.21077ZM75.5434 8.85237C76.2495 8.81874 76.7938 9.09231 77.1769 9.67317C76.0019 10.1752 74.8247 10.6782 73.6466 11.1824C73.6755 9.91729 74.3078 9.14039 75.5434 8.85237Z" fill="#636475"/>
<path opacity="0.975" fill-rule="evenodd" clip-rule="evenodd" d="M100.572 7.31712C102.477 7.22784 103.839 8.03979 104.656 9.75304C105.296 11.6027 104.936 13.2179 103.576 14.5984C101.902 15.8005 100.216 15.8185 98.5175 14.6513C97.2677 13.4953 96.8198 12.0746 97.1739 10.3885C97.6423 8.6143 98.7752 7.59052 100.572 7.31712ZM100.625 8.69394C102.221 8.66408 103.16 9.44076 103.444 11.024C103.569 12.1503 103.191 13.059 102.311 13.7511C100.921 14.4501 99.7884 14.1589 98.9127 12.8774C98.4406 11.8622 98.458 10.8561 98.9654 9.85895C99.3727 9.25325 99.926 8.86493 100.625 8.69394Z" fill="#636475"/>
<path opacity="0.977" fill-rule="evenodd" clip-rule="evenodd" d="M106.052 7.58209C106.544 7.58209 107.036 7.58209 107.528 7.58209C107.503 9.3315 107.53 11.0792 107.607 12.8246C107.853 13.7158 108.442 14.157 109.372 14.1485C110.371 14.0712 110.995 13.5416 111.242 12.5598C111.294 12.3512 111.33 12.1394 111.348 11.9244C111.374 10.4771 111.383 9.02961 111.374 7.58209C111.866 7.58209 112.358 7.58209 112.849 7.58209C112.849 10.1414 112.849 12.7012 112.849 15.2605C112.358 15.2605 111.866 15.2605 111.374 15.2605C111.383 14.9423 111.374 14.6245 111.348 14.3073C110.438 15.4083 109.287 15.77 107.896 15.3929C106.836 14.9444 106.23 14.1411 106.079 12.9835C106.052 11.183 106.043 9.38266 106.052 7.58209Z" fill="#636475"/>
<path opacity="0.992" fill-rule="evenodd" clip-rule="evenodd" d="M5.359 14.0421C5.58215 14.1199 5.81046 14.1813 6.04399 14.2274C7.8093 14.2364 9.56566 14.2629 11.3131 14.3068C11.278 15.6132 11.2429 16.9191 11.2077 18.2255C9.32634 18.2101 7.4558 18.2276 5.59611 18.2784C5.49784 18.1635 5.38371 18.1455 5.25362 18.2255C5.10924 18.1259 4.95997 18.091 4.80574 18.1196C4.75684 18.0227 4.69541 18.0047 4.62132 18.0666C4.38732 17.9559 4.15021 17.85 3.90999 17.7489C3.89244 17.7664 3.87485 17.7844 3.8573 17.8018C3.54637 17.6488 3.24777 17.4719 2.96155 17.2723C2.944 17.2898 2.9264 17.3078 2.90886 17.3252C2.77871 17.1775 2.64698 17.0361 2.51367 16.9016C3.47966 15.9659 4.4281 15.0127 5.359 14.0421Z" fill="#636475"/>
</svg>
