<svg width="120" height="20" viewBox="0 0 120 20" fill="none" xmlns="http://www.w3.org/2000/svg">
<g clip-path="url(#clip0_2255_1212)">
<path d="M20.4288 7.60971C20.4473 9.30403 20.0964 10.9231 19.4068 12.4699C18.4223 14.6725 16.0618 16.4734 13.9063 14.5564C12.1484 12.9939 11.8222 9.82173 9.18844 9.35737C5.70362 8.93065 5.61977 13.0127 3.34313 13.4739C0.805608 13.9948 -0.0360933 9.68367 0.00117762 7.72581C0.0384485 5.76794 0.55403 3.01626 2.75922 3.01626C5.29675 3.01626 5.46758 6.89748 8.6884 6.68726C11.8782 6.46762 11.9341 2.42952 14.0182 0.700697C15.8164 -0.792806 17.9316 0.30222 18.9907 2.10007C19.9721 3.763 20.4039 5.7146 20.4257 7.60971H20.4288Z" fill="#636475"/>
<path d="M30 14.2345V1.13184H31.23V6.79836H38.8146V1.13184H40.0259V14.2345H38.8146V7.8526H31.23V14.2345H30Z" fill="#636475"/>
<path d="M43.236 18.208L44.9133 13.991L41.2793 5.18066H42.5465L44.9318 11.1484C45.0686 11.5124 45.2611 11.9955 45.5096 12.5979C45.5469 12.5101 45.5841 12.4128 45.6214 12.3062C45.6586 12.1995 45.696 12.1022 45.7332 12.0144C45.8077 11.8512 45.873 11.6975 45.9289 11.5532C45.9848 11.4088 46.0375 11.2676 46.0873 11.1296L48.3235 5.18066H49.5349L44.4473 18.208H43.236Z" fill="#636475"/>
<path d="M50.7656 18.2069V5.17957H51.9211V6.83623C52.2192 6.27147 52.651 5.81023 53.2162 5.45255C53.7815 5.09487 54.412 4.91602 55.1077 4.91602C55.9401 4.91602 56.6638 5.11997 57.2788 5.52785C57.8937 5.93575 58.3658 6.50051 58.695 7.22217C59.0243 7.94381 59.1889 8.76273 59.1889 9.67891C59.1889 10.5951 59.018 11.436 58.6764 12.1639C58.3348 12.8918 57.8534 13.4629 57.2321 13.877C56.6109 14.2912 55.9028 14.4983 55.1077 14.4983C54.4368 14.4983 53.8187 14.3351 53.2535 14.0088C52.6882 13.6825 52.2441 13.2056 51.9211 12.5781V18.2069H50.7656ZM54.94 13.557C55.5487 13.557 56.0861 13.3938 56.552 13.0676C57.0178 12.7413 57.3751 12.2863 57.6235 11.7026C57.8719 11.1191 57.9962 10.4445 57.9962 9.67891C57.9962 8.91334 57.8688 8.27954 57.6142 7.70222C57.3595 7.12489 57.0023 6.67622 56.5426 6.35619C56.083 6.03615 55.5487 5.87613 54.94 5.87613C54.3313 5.87613 53.8125 6.03301 53.3467 6.34677C52.8808 6.66053 52.5173 7.10607 52.2565 7.68339C51.9956 8.26071 51.8652 8.92588 51.8652 9.67891C51.8652 10.432 51.9956 11.1191 52.2565 11.7026C52.5173 12.2863 52.8777 12.7413 53.3373 13.0676C53.797 13.3938 54.3313 13.557 54.94 13.557Z" fill="#636475"/>
<path d="M64.704 14.4983C63.8592 14.4983 63.1168 14.3101 62.477 13.9335C61.8372 13.557 61.3403 13.0048 60.9862 12.2769C60.6322 11.5489 60.4551 10.6767 60.4551 9.66008C60.4551 8.75646 60.6383 7.94381 61.0049 7.22217C61.3713 6.50051 61.8714 5.93575 62.505 5.52785C63.1386 5.11997 63.8467 4.91602 64.6295 4.91602C65.4743 4.91602 66.1948 5.11055 66.7912 5.49961C67.3875 5.88867 67.8409 6.43776 68.1516 7.14686C68.4622 7.85596 68.6175 8.68115 68.6175 9.62244V9.86716H61.6105C61.6105 10.6453 61.741 11.3104 62.0018 11.8627C62.2627 12.4149 62.6293 12.8353 63.1014 13.124C63.5735 13.4126 64.1139 13.557 64.7226 13.557C65.4432 13.557 66.0427 13.3845 66.521 13.0393C66.9993 12.6941 67.2943 12.1765 67.4062 11.4861H68.5615C68.4745 12.0635 68.2727 12.5781 67.9559 13.0299C67.6391 13.4817 67.2042 13.8393 66.6514 14.103C66.0985 14.3665 65.4494 14.4983 64.704 14.4983ZM67.3875 8.98236C67.3751 8.04108 67.1266 7.28805 66.642 6.72329C66.1575 6.15851 65.4867 5.87613 64.6295 5.87613C63.7722 5.87613 63.1107 6.16793 62.5702 6.75153C62.0298 7.33511 61.7223 8.07873 61.6478 8.98236H67.3875Z" fill="#636475"/>
<path d="M70.4043 14.2348V5.17957H71.5597V6.98685C71.8081 6.38443 72.1964 5.88867 72.7244 5.49961C73.2524 5.11055 73.8705 4.91602 74.5786 4.91602C74.7526 4.91602 74.9202 4.92857 75.0817 4.95367V6.08321C74.8706 6.05811 74.6842 6.04555 74.5227 6.04555C73.9264 6.04555 73.4045 6.18047 72.9573 6.45031C72.5101 6.72015 72.1653 7.10607 71.9231 7.60809C71.6808 8.11011 71.5597 8.6937 71.5597 9.35888V14.2348H70.4043Z" fill="#636475"/>
<path d="M86.0681 0.72528C86.6141 0.72528 87.2334 0.678182 87.9258 0.583984L87.746 4.13659H87.4664C87.4264 3.14079 87.2334 2.42085 86.8871 1.97677C86.5408 1.51923 85.9216 1.29046 85.0294 1.29046H80.7947L79.5962 7.0029H83.0319C83.7111 7.0029 84.2037 6.8616 84.5101 6.57901C84.8297 6.28296 85.0761 5.79178 85.2491 5.10548H85.5288L84.6099 9.44532H84.3303C84.3835 9.09545 84.4102 8.85323 84.4102 8.71865C84.4102 8.32841 84.297 8.03908 84.0706 7.85068C83.8442 7.66229 83.4581 7.56809 82.9121 7.56809H79.4764L78.4776 12.2914C78.4377 12.4933 78.4177 12.6749 78.4177 12.8364C78.4177 13.119 78.4909 13.3276 78.6374 13.4622C78.7839 13.5833 79.0169 13.6438 79.3365 13.6438H82.6724C83.5646 13.6438 84.2771 13.4218 84.8097 12.9777C85.3423 12.5337 85.8417 11.807 86.3078 10.7977H86.5875L85.2691 14.3503C84.6432 14.2562 84.0439 14.209 83.4714 14.209H75.002L75.0619 13.9264C75.7144 13.8996 76.2005 13.7785 76.5201 13.5631C76.8529 13.3478 77.086 12.9239 77.2192 12.2914L79.2566 2.6227C79.2966 2.39393 79.3166 2.20553 79.3166 2.05751C79.3166 1.66726 79.19 1.40485 78.937 1.27028C78.6973 1.12226 78.3111 1.03479 77.7785 1.00787L77.8384 0.72528H86.0681Z" fill="#636475"/>
<path d="M103.11 0.724731L103.05 1.00733C102.411 1.02079 101.898 1.16208 101.512 1.43121C101.139 1.70035 100.747 2.16462 100.333 2.82401L93.3026 14.5113H93.023L90.8657 2.84418C90.7458 2.1848 90.5594 1.72054 90.3064 1.4514C90.0533 1.18227 89.6472 1.03424 89.0879 1.00733L89.1478 0.724731H93.762L93.7021 1.00733C92.6101 1.04769 92.0642 1.46486 92.0642 2.25882C92.0642 2.40684 92.0841 2.57505 92.1241 2.76344L93.8819 12.5331L99.7346 2.80382C100.001 2.34628 100.134 1.98968 100.134 1.73399C100.134 1.49177 100.021 1.31683 99.7945 1.20917C99.5814 1.08806 99.2418 1.02079 98.7758 1.00733L98.8357 0.724731H103.11Z" fill="#636475"/>
<path d="M119.595 1.00733C118.956 1.02079 118.47 1.13517 118.137 1.35047C117.804 1.56579 117.585 1.94258 117.478 2.48085L115.36 12.5129C115.32 12.6744 115.301 12.8225 115.301 12.957C115.301 13.28 115.42 13.5155 115.66 13.6635C115.913 13.7981 116.319 13.8855 116.879 13.9259L116.819 14.2085H111.945L112.005 13.9259C112.671 13.8721 113.156 13.751 113.463 13.5626C113.782 13.3607 113.995 13.0109 114.102 12.5129L116.179 2.60196L108.169 14.5113H107.89L105.073 2.60196L102.996 12.5129C102.956 12.6879 102.936 12.8426 102.936 12.9772C102.936 13.3001 103.056 13.5289 103.296 13.6635C103.535 13.7981 103.922 13.8855 104.454 13.9259L104.394 14.2085H100.279L100.339 13.9259C101.005 13.8721 101.491 13.751 101.797 13.5626C102.104 13.3607 102.317 13.0109 102.437 12.5129L104.534 2.48085C104.574 2.29246 104.594 2.13098 104.594 1.9964C104.594 1.64653 104.467 1.40431 104.214 1.26973C103.975 1.12171 103.588 1.03424 103.056 1.00733L103.116 0.724731H105.892L108.709 12.6744L116.779 0.724731H119.655L119.595 1.00733Z" fill="#636475"/>
</g>
<defs>
<clipPath id="clip0_2255_1212">
<rect width="119.85" height="19.176" fill="white"/>
</clipPath>
</defs>
</svg>
