<svg width="113" height="18" viewBox="0 0 113 18" fill="none" xmlns="http://www.w3.org/2000/svg">
<g clip-path="url(#clip0_20_2475)">
<path d="M19.1759 7.14303C19.1933 8.73343 18.8639 10.2532 18.2167 11.7051C17.2925 13.7727 15.0768 15.4631 13.0535 13.6637C11.4034 12.197 11.0972 9.21938 8.62494 8.7835C5.35383 8.38295 5.27512 12.2146 3.1381 12.6476C0.756202 13.1365 -0.0338797 9.08979 0.0011054 7.252C0.0360906 5.4142 0.520052 2.83128 2.59 2.83128C4.97191 2.83128 5.13226 6.47447 8.15556 6.27714C11.1497 6.07097 11.2022 2.28052 13.1585 0.657725C14.8464 -0.744185 16.8319 0.283685 17.826 1.97127C18.7473 3.53223 19.1526 5.36413 19.173 7.14303H19.1759Z" fill="#E3E8FF"/>
<path d="M28.1602 13.3615V1.06238H29.3147V6.38139H36.4342V1.06238H37.5712V13.3615H36.4342V7.37097H29.3147V13.3615H28.1602Z" fill="#E3E8FF"/>
<path d="M40.5843 17.0913L42.1587 13.133L38.7476 4.86292H39.9371L42.1761 10.4647C42.3044 10.8063 42.4852 11.2598 42.7184 11.8253C42.7534 11.7429 42.7884 11.6516 42.8233 11.5514C42.8583 11.4513 42.8934 11.36 42.9283 11.2775C42.9983 11.1243 43.0595 10.9801 43.112 10.8446C43.1645 10.7091 43.214 10.5766 43.2607 10.447L45.3597 4.86292H46.4968L41.7213 17.0913H40.5843Z" fill="#E3E8FF"/>
<path d="M47.6523 17.0903V4.8619H48.7369V6.41696C49.0168 5.88683 49.4221 5.45388 49.9526 5.11813C50.4832 4.78239 51.0751 4.6145 51.7281 4.6145C52.5094 4.6145 53.1888 4.80595 53.7661 5.18882C54.3433 5.57169 54.7864 6.10182 55.0954 6.77922C55.4045 7.45661 55.559 8.2253 55.559 9.08529C55.559 9.94526 55.3986 10.7346 55.078 11.4178C54.7573 12.1012 54.3054 12.6372 53.7223 13.0259C53.1392 13.4147 52.4745 13.6091 51.7281 13.6091C51.0984 13.6091 50.5182 13.4559 49.9877 13.1496C49.457 12.8434 49.0401 12.3957 48.7369 11.8066V17.0903H47.6523ZM51.5707 12.7256C52.1421 12.7256 52.6465 12.5724 53.0838 12.2661C53.5211 11.9598 53.8564 11.5328 54.0896 10.9849C54.3228 10.4371 54.4395 9.80391 54.4395 9.08529C54.4395 8.36668 54.3199 7.77175 54.0809 7.22984C53.8418 6.68791 53.5066 6.26676 53.075 5.96635C52.6436 5.66594 52.1421 5.51573 51.5707 5.51573C50.9993 5.51573 50.5124 5.66299 50.0751 5.95751C49.6378 6.25203 49.2966 6.67024 49.0518 7.21216C48.8069 7.75407 48.6844 8.37845 48.6844 9.08529C48.6844 9.79216 48.8069 10.4371 49.0518 10.9849C49.2966 11.5328 49.6349 11.9598 50.0663 12.2661C50.4978 12.5724 50.9993 12.7256 51.5707 12.7256Z" fill="#E3E8FF"/>
<path d="M60.7354 13.6091C59.9424 13.6091 59.2456 13.4324 58.645 13.079C58.0445 12.7256 57.578 12.2072 57.2456 11.524C56.9133 10.8406 56.7471 10.0219 56.7471 9.06763C56.7471 8.21942 56.9191 7.45661 57.2632 6.77922C57.6071 6.10182 58.0765 5.57169 58.6713 5.18882C59.266 4.80595 59.9307 4.6145 60.6654 4.6145C61.4585 4.6145 62.1348 4.79711 62.6946 5.16231C63.2543 5.52751 63.68 6.04293 63.9715 6.70854C64.2631 7.37415 64.4089 8.14873 64.4089 9.03229V9.26201H57.8317C57.8317 9.99244 57.9541 10.6168 58.199 11.1352C58.4439 11.6535 58.7879 12.0481 59.2311 12.3191C59.6742 12.59 60.1815 12.7256 60.7529 12.7256C61.4293 12.7256 61.992 12.5636 62.441 12.2396C62.8899 11.9156 63.1669 11.4297 63.2719 10.7817H64.3564C64.2747 11.3237 64.0853 11.8066 63.7879 12.2308C63.4905 12.6548 63.0823 12.9906 62.5634 13.238C62.0444 13.4854 61.4351 13.6091 60.7354 13.6091ZM63.2543 8.43147C63.2427 7.54791 63.0095 6.84106 62.5546 6.31094C62.0998 5.7808 61.4701 5.51573 60.6654 5.51573C59.8608 5.51573 59.2398 5.78964 58.7325 6.33744C58.2252 6.88524 57.9366 7.58325 57.8666 8.43147H63.2543Z" fill="#E3E8FF"/>
<path d="M66.0864 13.3618V4.86193H67.1709V6.55836C67.4042 5.99289 67.7686 5.52754 68.2642 5.16234C68.7599 4.79714 69.34 4.61453 70.0047 4.61453C70.168 4.61453 70.3254 4.62632 70.477 4.64988V5.71014C70.2788 5.68658 70.1039 5.6748 69.9523 5.6748C69.3925 5.6748 68.9027 5.80144 68.4829 6.05473C68.063 6.30802 67.7394 6.67027 67.5121 7.1415C67.2846 7.61274 67.1709 8.16054 67.1709 8.78492V13.3618H66.0864Z" fill="#E3E8FF"/>
<path d="M80.7898 0.680757C81.3024 0.680757 81.8836 0.636547 82.5336 0.548126L82.3648 3.88286H82.1023C82.0648 2.94813 81.8836 2.27234 81.5586 1.8555C81.2336 1.42602 80.6523 1.21128 79.8148 1.21128H75.8398L74.7148 6.57339H77.9398C78.5773 6.57339 79.0398 6.44075 79.3273 6.17549C79.6273 5.8976 79.8586 5.43654 80.0211 4.79233H80.2836L79.4211 8.86602H79.1586C79.2086 8.5376 79.2336 8.31023 79.2336 8.18391C79.2336 7.8176 79.1274 7.54602 78.9148 7.36917C78.7023 7.19234 78.3399 7.10391 77.8273 7.10391H74.6023L73.6648 11.5376C73.6273 11.7271 73.6086 11.8976 73.6086 12.0492C73.6086 12.3144 73.6773 12.5102 73.8148 12.6365C73.9524 12.7502 74.1711 12.8071 74.4711 12.8071H77.6023C78.4398 12.8071 79.1086 12.5986 79.6086 12.1818C80.1086 11.7649 80.5773 11.0828 81.0148 10.1355H81.2773L80.0398 13.4702C79.4523 13.3818 78.8898 13.3376 78.3523 13.3376H70.4023L70.4586 13.0723C71.0711 13.0471 71.5273 12.9334 71.8273 12.7313C72.1398 12.5292 72.3586 12.1313 72.4836 11.5376L74.3961 2.46182C74.4336 2.24708 74.4523 2.07023 74.4523 1.93128C74.4523 1.56497 74.3336 1.31865 74.0961 1.19233C73.8711 1.05339 73.5086 0.971283 73.0086 0.94602L73.0648 0.680757H80.7898Z" fill="#E3E8FF"/>
<path d="M96.7861 0.680298L96.7299 0.945561C96.1299 0.958195 95.649 1.09083 95.2861 1.34345C94.9365 1.59609 94.568 2.03188 94.1799 2.65083L87.5803 13.6213H87.3178L85.2928 2.66977C85.1803 2.05082 85.0052 1.61503 84.7678 1.3624C84.5302 1.10977 84.149 0.970824 83.624 0.945561L83.6803 0.680298H88.0115L87.9553 0.945561C86.9302 0.983452 86.4178 1.37504 86.4178 2.1203C86.4178 2.25924 86.4365 2.41714 86.474 2.59398L88.124 11.7645L93.6178 2.63188C93.8677 2.2024 93.9924 1.86767 93.9924 1.62766C93.9924 1.40029 93.8865 1.23609 93.674 1.13503C93.474 1.02135 93.1552 0.958195 92.7178 0.945561L92.774 0.680298H96.7861Z" fill="#E3E8FF"/>
<path d="M112.261 0.945592C111.661 0.958226 111.204 1.06559 110.892 1.26769C110.58 1.4698 110.373 1.82349 110.273 2.32875L108.286 11.7456C108.248 11.8971 108.229 12.0361 108.229 12.1624C108.229 12.4656 108.342 12.6867 108.567 12.8256C108.804 12.9519 109.186 13.034 109.711 13.0719L109.654 13.3371H105.079L105.136 13.0719C105.761 13.0214 106.217 12.9077 106.504 12.7308C106.804 12.5414 107.004 12.213 107.104 11.7456L109.054 2.44243L101.536 13.6214H101.273L98.6294 2.44243L96.6794 11.7456C96.6419 11.9098 96.6231 12.0551 96.6231 12.1814C96.6231 12.4845 96.7356 12.6993 96.9606 12.8256C97.1856 12.9519 97.5485 13.034 98.0481 13.0719L97.9919 13.3371H94.1294L94.1856 13.0719C94.811 13.0214 95.2666 12.9077 95.5544 12.7308C95.8422 12.5414 96.0419 12.213 96.1544 11.7456L98.1231 2.32875C98.1606 2.15191 98.1794 2.00033 98.1794 1.87401C98.1794 1.54559 98.0603 1.31823 97.8231 1.1919C97.5981 1.05296 97.2353 0.970854 96.7356 0.945592L96.7919 0.680328H99.3981L102.042 11.8971L109.617 0.680328L112.317 0.680328L112.261 0.945592Z" fill="#E3E8FF"/>
</g>
<defs>
<clipPath id="clip0_20_2475">
<rect width="112.5" height="18" fill="white"/>
</clipPath>
</defs>
</svg>
