<svg width="20" height="20" viewBox="0 0 20 20" fill="none" xmlns="http://www.w3.org/2000/svg">
<path fill-rule="evenodd" clip-rule="evenodd" d="M6.04191 5.52586V4.55105C6.04191 3.82918 6.57003 3.21593 7.28391 3.10885L8.3005 2.95636C9.42736 2.78733 10.5731 2.78733 11.7 2.95636L12.7166 3.10885C13.4305 3.21593 13.9586 3.82918 13.9586 4.55105V5.52586L15.3869 5.64116C16.4806 5.72944 17.3727 6.55289 17.5481 7.63599C17.9358 10.0298 17.9358 12.4703 17.5481 14.8641C17.3727 15.9472 16.4806 16.7707 15.3869 16.8589L13.827 16.9849C11.28 17.1905 8.7205 17.1905 6.17347 16.9849L4.61353 16.8589C3.51988 16.7707 2.62776 15.9472 2.45236 14.8641C2.06471 12.4703 2.06471 10.0298 2.45236 7.63599C2.62776 6.55289 3.51988 5.72944 4.61353 5.64116L6.04191 5.52586ZM8.48593 4.19253C9.48985 4.04194 10.5106 4.04194 11.5145 4.19253L12.5311 4.34502C12.6331 4.36032 12.7086 4.44793 12.7086 4.55105V5.43822C10.9045 5.33532 9.09599 5.33532 7.29191 5.43822V4.55105C7.29191 4.44792 7.36735 4.36032 7.46933 4.34502L8.48593 4.19253ZM6.27404 6.76119C8.75414 6.561 11.2463 6.561 13.7264 6.76119L15.2864 6.88711C15.8065 6.92909 16.2308 7.32071 16.3142 7.83582C16.3661 8.15659 16.4107 8.47825 16.4479 8.80055C12.3832 10.802 7.61722 10.8021 3.55255 8.80056C3.58976 8.47826 3.63434 8.15659 3.68629 7.83582C3.76971 7.32071 4.19398 6.92909 4.71411 6.88711L6.27404 6.76119ZM3.44098 10.1306C7.60715 12.0254 12.3933 12.0254 16.5595 10.1306C16.6389 11.6441 16.5572 13.1639 16.3142 14.6643C16.2308 15.1794 15.8065 15.571 15.2864 15.613L13.7264 15.7389C11.2463 15.9391 8.75414 15.9391 6.27404 15.7389L4.71411 15.613C4.19398 15.571 3.76971 15.1794 3.68629 14.6643C3.44331 13.1639 3.36154 11.6441 3.44098 10.1306Z" fill="#E3E8FF" fill-opacity="0.6"/>
</svg>
