<svg width="18" height="18" viewBox="0 0 18 18" fill="none" xmlns="http://www.w3.org/2000/svg">
<g clip-path="url(#clip0_2280_2182)">
<g clip-path="url(#clip1_2280_2182)">
<path d="M17.8042 3.48381C17.6132 3.38981 17.5312 3.56881 17.4192 3.65881C17.3822 3.68881 17.3502 3.72581 17.3182 3.76081C17.0392 4.05881 16.7132 4.25381 16.2882 4.22981C15.6672 4.19481 15.1362 4.39081 14.6682 4.86581C14.5672 4.27981 14.2372 3.92981 13.7322 3.70481C13.4682 3.58781 13.2022 3.47281 13.0172 3.21781C12.8882 3.03781 12.8542 2.83581 12.7882 2.63781C12.7472 2.51881 12.7062 2.39681 12.5682 2.37581C12.4192 2.35281 12.3602 2.47781 12.3022 2.58281C12.0772 3.00681 11.9682 3.48281 11.9862 3.96281C12.0062 5.03881 12.4602 5.89481 13.3632 6.50381C13.4662 6.57481 13.4932 6.64481 13.4602 6.74681C13.3992 6.95681 13.3252 7.16081 13.2602 7.37081C13.2202 7.50481 13.1582 7.53381 13.0142 7.47581C12.5282 7.26681 12.0862 6.96681 11.7132 6.59181C11.0702 5.97081 10.4902 5.28581 9.76723 4.74881C9.59923 4.62581 9.42723 4.50781 9.25123 4.39681C8.51223 3.67981 9.34723 3.09081 9.54023 3.01981C9.74323 2.94681 9.61123 2.69581 8.95823 2.69981C8.30323 2.70281 7.70623 2.92081 6.94323 3.21281C6.83023 3.25581 6.71323 3.28981 6.59523 3.31481C5.88323 3.18081 5.15423 3.15481 4.43523 3.23881C3.02223 3.39681 1.89323 4.06381 1.06423 5.20481C0.0672344 6.57481 -0.167766 8.13181 0.120234 9.75581C0.422234 11.4668 1.29523 12.8848 2.63723 13.9918C4.03023 15.1418 5.63323 15.7048 7.46323 15.5968C8.57323 15.5328 9.81023 15.3838 11.2052 14.2028C11.5582 14.3778 11.9272 14.4478 12.5392 14.4998C13.0122 14.5438 13.4662 14.4768 13.8182 14.4038C14.3682 14.2878 14.3312 13.7778 14.1302 13.6838C12.5152 12.9318 12.8702 13.2378 12.5482 12.9898C13.3692 12.0188 14.6062 11.0098 15.0892 7.74081C15.1282 7.48181 15.0952 7.31781 15.0892 7.10881C15.0872 6.97981 15.1152 6.93081 15.2622 6.91581C15.6672 6.86981 16.0602 6.75881 16.4202 6.56081C17.4672 5.98881 17.8882 5.04981 17.9892 3.92381C18.0032 3.75281 17.9852 3.57381 17.8042 3.48381ZM8.68523 13.6138C7.11923 12.3838 6.36123 11.9778 6.04723 11.9958C5.75423 12.0118 5.80723 12.3478 5.87123 12.5668C5.93823 12.7828 6.02623 12.9318 6.14923 13.1208C6.23523 13.2468 6.29323 13.4328 6.06423 13.5728C5.56023 13.8838 4.68423 13.4678 4.64323 13.4468C3.62223 12.8468 2.77023 12.0538 2.16823 10.9698C1.58623 9.94081 1.25323 8.79081 1.19623 7.60981C1.18123 7.32081 1.26523 7.21881 1.55323 7.16681C1.93123 7.09681 2.32123 7.08181 2.69923 7.13681C4.29723 7.37081 5.65623 8.08581 6.79723 9.21581C7.44723 9.86081 7.94023 10.6298 8.44723 11.3838C8.98623 12.1818 9.56723 12.9428 10.3052 13.5668C10.5662 13.7848 10.7752 13.9528 10.9742 14.0748C10.3732 14.1418 9.37123 14.1558 8.68523 13.6138ZM9.44123 8.73281C9.45723 8.66881 9.50023 8.61481 9.55823 8.58381C9.61623 8.55381 9.68423 8.54881 9.74623 8.57181C9.83623 8.60481 9.89623 8.69181 9.89523 8.78781C9.89523 8.91581 9.79223 9.01781 9.66423 9.01781C9.55223 9.01881 9.45623 8.93681 9.43923 8.82581C9.43423 8.79481 9.43524 8.76281 9.44123 8.73281ZM11.6902 10.0128C11.5732 10.0618 11.4492 10.0928 11.3222 10.1028C11.1072 10.1108 10.8962 10.0438 10.7242 9.91381C10.5202 9.74181 10.3732 9.64481 10.3122 9.34481C10.2902 9.19781 10.2942 9.04981 10.3232 8.90481C10.3762 8.65881 10.3172 8.50181 10.1452 8.35981C10.0042 8.24281 9.82423 8.21081 9.62923 8.21081C9.56223 8.20681 9.49723 8.18681 9.43923 8.15281C9.35623 8.11181 9.28823 8.00981 9.35323 7.88381C9.39423 7.82581 9.44223 7.77281 9.49723 7.72681C9.76423 7.57481 10.0712 7.62381 10.3552 7.73881C10.6192 7.84681 10.8182 8.04481 11.1062 8.32481C11.3992 8.66281 11.4522 8.75581 11.6192 9.00981C11.7502 9.20781 11.8712 9.41281 11.9542 9.64481C11.9952 9.76781 11.9562 9.86981 11.8422 9.94381C11.7952 9.97481 11.7412 9.99381 11.6902 10.0128Z" fill="#646465"/>
</g>
</g>
<defs>
<clipPath id="clip0_2280_2182">
<rect width="18" height="18" fill="white"/>
</clipPath>
<clipPath id="clip1_2280_2182">
<rect width="18" height="18" fill="white"/>
</clipPath>
</defs>
</svg>
