<svg width="20" height="20" viewBox="0 0 20 20" fill="none" xmlns="http://www.w3.org/2000/svg">
<path d="M6.27511 5.44194C6.51919 5.19786 6.51919 4.80214 6.27511 4.55806C6.03103 4.31398 5.63531 4.31398 5.39123 4.55806L3.72456 6.22472C3.48048 6.4688 3.48048 6.86453 3.72456 7.10861L5.39123 8.77528C5.63531 9.01935 6.03103 9.01935 6.27511 8.77528C6.51919 8.5312 6.51919 8.13547 6.27511 7.89139L5.67539 7.29167H14.1665C14.5117 7.29167 14.7915 7.01184 14.7915 6.66667C14.7915 6.32149 14.5117 6.04167 14.1665 6.04167H5.67539L6.27511 5.44194Z" fill="#E3E8FF" fill-opacity="0.6"/>
<path d="M13.7246 11.2247C13.4805 11.4688 13.4805 11.8645 13.7246 12.1086L14.3243 12.7083H5.83317C5.48799 12.7083 5.20817 12.9882 5.20817 13.3333C5.20817 13.6785 5.48799 13.9583 5.83317 13.9583H14.3243L13.7246 14.5581C13.4805 14.8021 13.4805 15.1979 13.7246 15.4419C13.9686 15.686 14.3644 15.686 14.6084 15.4419L16.2751 13.7753C16.5192 13.5312 16.5192 13.1355 16.2751 12.8914L14.6084 11.2247C14.3644 10.9806 13.9686 10.9806 13.7246 11.2247Z" fill="#E3E8FF" fill-opacity="0.6"/>
</svg>
