<svg width="20" height="20" viewBox="0 0 20 20" fill="none" xmlns="http://www.w3.org/2000/svg">
<path fill-rule="evenodd" clip-rule="evenodd" d="M4.16667 1.0415C2.90101 1.0415 1.875 2.06752 1.875 3.33317C1.875 4.59882 2.90101 5.62484 4.16667 5.62484C5.43232 5.62484 6.45833 4.59882 6.45833 3.33317C6.45833 2.06752 5.43232 1.0415 4.16667 1.0415ZM3.125 3.33317C3.125 2.75787 3.59137 2.2915 4.16667 2.2915C4.74196 2.2915 5.20833 2.75787 5.20833 3.33317C5.20833 3.90847 4.74196 4.37484 4.16667 4.37484C3.59137 4.37484 3.125 3.90847 3.125 3.33317Z" fill="#E3E8FF" fill-opacity="0.6"/>
<path fill-rule="evenodd" clip-rule="evenodd" d="M1.875 6.6665C1.875 6.32133 2.15482 6.0415 2.5 6.0415H5.83333C6.17851 6.0415 6.45833 6.32133 6.45833 6.6665V17.4998C6.45833 17.845 6.17851 18.1248 5.83333 18.1248H2.5C2.15482 18.1248 1.875 17.845 1.875 17.4998V6.6665ZM3.125 7.2915V16.8748H5.20833V7.2915H3.125Z" fill="#E3E8FF" fill-opacity="0.6"/>
<path fill-rule="evenodd" clip-rule="evenodd" d="M7.70833 6.6665C7.70833 6.32133 7.98816 6.0415 8.33333 6.0415H11.6667C12.0118 6.0415 12.2917 6.32133 12.2917 6.6665V7.02819L12.6544 6.87274C13.278 6.60547 13.9449 6.43788 14.6194 6.37656C16.9318 6.16634 18.9583 7.98349 18.9583 10.3167V17.4998C18.9583 17.845 18.6785 18.1248 18.3333 18.1248H15C14.6548 18.1248 14.375 17.845 14.375 17.4998V11.6665C14.375 11.3902 14.2653 11.1253 14.0699 10.9299C13.8746 10.7346 13.6096 10.6248 13.3333 10.6248C13.0571 10.6248 12.7921 10.7346 12.5968 10.9299C12.4014 11.1253 12.2917 11.3902 12.2917 11.6665V17.4998C12.2917 17.845 12.0118 18.1248 11.6667 18.1248H8.33333C7.98816 18.1248 7.70833 17.845 7.70833 17.4998V6.6665ZM8.95833 7.2915V16.8748H11.0417V11.6665C11.0417 11.0587 11.2831 10.4758 11.7129 10.0461C12.1427 9.61628 12.7255 9.37484 13.3333 9.37484C13.9411 9.37484 14.524 9.61628 14.9538 10.0461C15.3836 10.4758 15.625 11.0587 15.625 11.6665V16.8748H17.7083V10.3167C17.7083 8.72973 16.3242 7.47673 14.7325 7.62143C14.1875 7.67097 13.6487 7.80656 13.1468 8.02167L11.9129 8.55049C11.7198 8.63325 11.498 8.61346 11.3226 8.4978C11.1472 8.38215 11.0417 8.18612 11.0417 7.97603V7.2915H8.95833Z" fill="#E3E8FF" fill-opacity="0.6"/>
</svg>
