<svg width="16" height="16" viewBox="0 0 16 16" fill="none" xmlns="http://www.w3.org/2000/svg">
<g clip-path="url(#clip0_2280_2167)">
<g clip-path="url(#clip1_2280_2167)">
<path d="M14.765 15.3791H11.812L11.813 12.3781L11.815 9.47609H14.768L14.766 12.4271L14.765 15.3791ZM2.957 6.52409L2.956 9.47609L2.954 12.4761L2.953 15.3791H0L0.001 12.4271L0.003 9.42709L0.004 6.47509L0.006 3.57309L0.007 0.621094H2.96L2.959 3.57309H5.912L5.91 6.52409H2.957ZM11.815 9.47609H8.862L8.863 6.52409H14.769L14.768 9.47609H11.815ZM8.863 6.52409L8.865 3.57309H11.818L11.819 0.621094H14.772L14.771 3.57309L14.769 6.52409H8.863ZM8.86 12.4271H5.907L5.909 9.47609H8.862L8.86 12.4271Z" fill="#646465"/>
<path d="M5.90808 9.47593H2.95508L2.95608 6.52393H5.90908L5.90808 9.47593Z" fill="#1C1C1B"/>
<path d="M8.8612 9.47593H5.9082L5.9092 6.52393H8.8622L8.8612 9.47593Z" fill="#1C1C1B"/>
<path d="M4.18737 3.57309H1.23438L1.23538 0.621094H4.18838L4.18737 3.57309ZM15.9994 3.60409H13.0464L13.0474 0.621094H16.0004L15.9994 3.60409Z" fill="#ADADAE"/>
<path d="M4.13642 6.52402H1.23242L1.23442 3.54102H4.18742V3.57302H7.14042L7.13842 6.52402H4.13642ZM10.0914 6.52402L10.0934 3.57302H15.9994L15.9974 6.52402H10.0914Z" fill="#9F9EA0"/>
<path d="M4.18347 9.47593V9.52493H1.23047L1.23147 6.52393H4.18447H15.9965L15.9955 9.47593H4.18347Z" fill="#909091"/>
<path d="M10.0885 12.4268H7.13547L7.13747 9.42578H10.0905L10.0885 12.4268ZM4.18247 12.4898H1.23047L1.23147 9.47578H4.18447L4.18247 12.4898ZM15.9945 12.4578H13.0415L13.0435 9.47578H15.9965L15.9945 12.4578Z" fill="#727273"/>
<path d="M1.22852 15.3788L1.23052 12.4268H4.18352L4.18152 15.3788H1.22852ZM13.0405 15.3788L13.0415 12.4268H15.9945L15.9935 15.3788H13.0405Z" fill="#646465"/>
</g>
</g>
<defs>
<clipPath id="clip0_2280_2167">
<rect width="16" height="16" fill="white"/>
</clipPath>
<clipPath id="clip1_2280_2167">
<rect width="16" height="16" fill="white"/>
</clipPath>
</defs>
</svg>
