<svg width="18" height="18" viewBox="0 0 18 18" fill="none" xmlns="http://www.w3.org/2000/svg">
<g clip-path="url(#clip0_2280_2178)">
<g clip-path="url(#clip1_2280_2178)">
<path d="M1.533 5.25979C2.425 3.84879 3.711 2.86279 5.187 2.86279C6.04 2.86279 6.89 3.12279 7.777 3.86579C8.244 4.25779 8.727 4.77179 9.245 5.44579C9.667 4.86179 10.121 4.30879 10.611 3.87079C11.334 3.22279 12.115 2.86279 12.901 2.86279C14.219 2.86279 15.476 3.64779 16.437 5.11979C17.49 6.73079 18 8.76079 18 10.8548C18 12.1008 17.761 13.0168 17.355 13.7388C16.961 14.4368 16.195 15.1368 14.905 15.1368C14.104 15.1368 13.395 14.9578 12.61 14.1978C12.006 13.6138 11.301 12.5778 10.759 11.6458L9.144 8.87779C9.098 8.79879 9.052 8.72079 9.007 8.64479C8.961 8.72779 8.914 8.81279 8.868 8.89779L8.301 9.92979C7.161 12.0018 6.872 12.4748 6.303 13.2538C5.305 14.6188 4.452 15.1368 3.33 15.1368C1.998 15.1368 1.156 14.5438 0.635 13.6528C0.21 12.9268 0 11.9728 0 10.8858C0 8.90979 0.528 6.84979 1.533 5.25979ZM11.071 8.22279L11.534 9.01479C12.65 10.9248 13.285 11.9068 13.658 12.3708C14.136 12.9658 14.471 13.1428 14.905 13.1428C16.01 13.1428 16.285 12.1018 16.285 10.9108C16.285 9.21279 15.899 7.32979 15.049 5.98379C14.448 5.02779 13.666 4.44479 12.807 4.44479C11.877 4.44479 11.129 5.16479 10.288 6.44779C10.235 6.52879 10.182 6.61079 10.129 6.69579C10.428 7.15179 10.742 7.65979 11.071 8.22279ZM7.161 5.98379C6.699 5.47979 6.103 4.86979 5.154 4.86979C4.387 4.86979 3.735 5.42279 3.189 6.26979C2.417 7.46579 1.944 9.24679 1.944 10.9568C1.944 11.6628 2.096 12.2038 2.292 12.5318C2.551 12.9608 2.937 13.1428 3.33 13.1428C3.837 13.1428 4.301 13.0138 5.194 11.7448C5.91 10.7278 6.754 9.29979 7.322 8.40479L8.087 7.19779C7.714 6.65179 7.392 6.23579 7.161 5.98379Z" fill="#646465"/>
</g>
</g>
<defs>
<clipPath id="clip0_2280_2178">
<rect width="18" height="18" fill="white"/>
</clipPath>
<clipPath id="clip1_2280_2178">
<rect width="18" height="18" fill="white"/>
</clipPath>
</defs>
</svg>
