<svg width="20" height="20" viewBox="0 0 20 20" fill="none" xmlns="http://www.w3.org/2000/svg">
<path d="M11.6668 7.4999C11.6668 6.80954 12.2264 6.2499 12.9168 6.2499C13.6071 6.2499 14.1668 6.80954 14.1668 7.4999C14.1668 8.19025 13.6071 8.7499 12.9168 8.7499C12.2264 8.7499 11.6668 8.19025 11.6668 7.4999Z" fill="#E3E8FF" fill-opacity="0.6"/>
<path fill-rule="evenodd" clip-rule="evenodd" d="M6.05637 3.88203C8.68057 3.65391 11.3196 3.65391 13.9438 3.88203L15.2024 3.99143C16.4066 4.09611 17.3821 5.01248 17.5619 6.2078C17.9399 8.72173 17.9399 11.2781 17.5619 13.792C17.3821 14.9873 16.4066 15.9037 15.2024 16.0084L13.9438 16.1178C11.3196 16.3459 8.68057 16.3459 6.05637 16.1178L4.79784 16.0084C3.59362 15.9037 2.61806 14.9873 2.43831 13.792C2.06028 11.2781 2.06028 8.72173 2.43831 6.2078C2.61806 5.01248 3.59362 4.09611 4.79784 3.99143L6.05637 3.88203ZM13.8356 5.12733C11.2834 4.90547 8.71679 4.90547 6.16462 5.12733L4.90609 5.23673C4.27749 5.29137 3.76824 5.76972 3.67441 6.39368C3.4598 7.82086 3.3733 9.26241 3.41493 10.7012L6.64148 7.47462C6.7632 7.35291 6.92972 7.28678 7.10178 7.29184C7.27384 7.29689 7.43619 7.37268 7.55055 7.50134L10.6101 10.9433L12.7191 10.2403C12.955 10.1617 13.215 10.2303 13.3813 10.4151L16.3139 13.6736C16.3184 13.6513 16.3224 13.6288 16.3258 13.6061C16.6853 11.2154 16.6853 8.78439 16.3258 6.39368C16.232 5.76972 15.7227 5.29137 15.0941 5.23673L13.8356 5.12733ZM15.5169 14.6566L12.726 11.5556L10.6144 12.2595C10.3772 12.3386 10.1157 12.2687 9.94962 12.0818L7.05666 8.82721L3.52025 12.3636C3.56091 12.7787 3.61229 13.193 3.67441 13.6061C3.76824 14.2301 4.27749 14.7084 4.90609 14.7631L6.16462 14.8725C8.71679 15.0943 11.2834 15.0943 13.8356 14.8725L15.0941 14.7631C15.243 14.7501 15.3853 14.7134 15.5169 14.6566Z" fill="#E3E8FF" fill-opacity="0.6"/>
</svg>
