<svg width="20" height="20" viewBox="0 0 20 20" fill="none" xmlns="http://www.w3.org/2000/svg">
<path fill-rule="evenodd" clip-rule="evenodd" d="M11.5069 7.03953C10.5132 6.92847 9.48679 6.92847 8.49309 7.03953C7.74476 7.12317 7.13832 7.71217 7.04971 8.46977C6.9308 9.48646 6.9308 10.5135 7.04971 11.5302C7.13832 12.2878 7.74476 12.8768 8.49309 12.9605C9.48679 13.0715 10.5132 13.0715 11.5069 12.9605C12.2552 12.8768 12.8617 12.2878 12.9503 11.5302C13.0692 10.5135 13.0692 9.48646 12.9503 8.46977C12.8617 7.71217 12.2552 7.12317 11.5069 7.03953ZM8.63193 8.28179C9.53335 8.18105 10.4666 8.18105 11.3681 8.28179C11.5481 8.30192 11.6888 8.44475 11.7087 8.61498C11.8164 9.53519 11.8164 10.4648 11.7087 11.385C11.6888 11.5552 11.5481 11.6981 11.3681 11.7182C10.4666 11.819 9.53335 11.819 8.63193 11.7182C8.45189 11.6981 8.31116 11.5552 8.29125 11.385C8.18362 10.4648 8.18362 9.53519 8.29125 8.61498C8.31116 8.44475 8.45189 8.30192 8.63193 8.28179Z" fill="#646465"/>
<path fill-rule="evenodd" clip-rule="evenodd" d="M13.125 2.5C13.125 2.15482 12.8452 1.875 12.5 1.875C12.1548 1.875 11.875 2.15482 11.875 2.5V4.60302C11.4598 4.57385 11.0427 4.55442 10.625 4.54472V3.33333C10.625 2.98816 10.3452 2.70833 10 2.70833C9.65482 2.70833 9.375 2.98816 9.375 3.33333V4.54472C8.95731 4.55442 8.54023 4.57385 8.125 4.60302V2.5C8.125 2.15482 7.84518 1.875 7.5 1.875C7.15482 1.875 6.875 2.15482 6.875 2.5V4.72669C5.79172 4.924 4.92709 5.77992 4.73992 6.875H2.5C2.15482 6.875 1.875 7.15482 1.875 7.5C1.875 7.84518 2.15482 8.125 2.5 8.125H4.6145C4.58407 8.54123 4.56379 8.95802 4.55366 9.375H3.33333C2.98816 9.375 2.70833 9.65482 2.70833 10C2.70833 10.3452 2.98816 10.625 3.33333 10.625H4.55366C4.56379 11.042 4.58407 11.4588 4.6145 11.875H2.5C2.15482 11.875 1.875 12.1548 1.875 12.5C1.875 12.8452 2.15482 13.125 2.5 13.125H4.73992C4.92709 14.2201 5.79172 15.076 6.875 15.2733V17.5C6.875 17.8452 7.15482 18.125 7.5 18.125C7.84518 18.125 8.125 17.8452 8.125 17.5V15.397C8.54023 15.4261 8.95731 15.4456 9.375 15.4553V16.6667C9.375 17.0118 9.65482 17.2917 10 17.2917C10.3452 17.2917 10.625 17.0118 10.625 16.6667V15.4553C11.0427 15.4456 11.4598 15.4261 11.875 15.397V17.5C11.875 17.8452 12.1548 18.125 12.5 18.125C12.8452 18.125 13.125 17.8452 13.125 17.5V15.2733C14.2083 15.076 15.0729 14.2201 15.2601 13.125H17.5C17.8452 13.125 18.125 12.8452 18.125 12.5C18.125 12.1548 17.8452 11.875 17.5 11.875H15.3855C15.4159 11.4588 15.4362 11.042 15.4463 10.625H16.6667C17.0118 10.625 17.2917 10.3452 17.2917 10C17.2917 9.65482 17.0118 9.375 16.6667 9.375H15.4463C15.4362 8.95802 15.4159 8.54123 15.3855 8.125H17.5C17.8452 8.125 18.125 7.84518 18.125 7.5C18.125 7.15482 17.8452 6.875 17.5 6.875H15.2601C15.0729 5.77992 14.2083 4.924 13.125 4.72669V2.5ZM7.19446 5.94245C9.04344 5.7358 10.9566 5.7358 12.8055 5.94245C13.4498 6.01445 13.9641 6.52321 14.0383 7.15736C14.2592 9.04601 14.2592 10.954 14.0383 12.8426C13.9641 13.4768 13.4498 13.9855 12.8055 14.0575C10.9566 14.2642 9.04344 14.2642 7.19446 14.0575C6.55022 13.9855 6.0359 13.4768 5.96174 12.8426C5.74084 10.954 5.74084 9.04601 5.96174 7.15736C6.0359 6.52321 6.55022 6.01445 7.19446 5.94245Z" fill="#646465"/>
</svg>
