<svg width="20" height="20" viewBox="0 0 20 20" fill="none" xmlns="http://www.w3.org/2000/svg">
<path fill-rule="evenodd" clip-rule="evenodd" d="M9.67613 2.75185C9.87905 2.69411 10.0931 2.69405 10.2959 2.75163C10.7272 2.87402 11.1625 2.98754 11.5992 3.10144C13.6499 3.63628 15.7325 4.17946 17.5855 5.68864L18.4388 6.38363C18.7849 6.66554 18.958 7.08281 18.9582 7.50016V13.3335C18.9582 13.6787 18.6783 13.9585 18.3332 13.9585C17.988 13.9585 17.7082 13.6787 17.7082 13.3335V9.21406L17.5724 9.32485C16.9304 9.84878 16.2605 10.2556 15.5739 10.5859C15.6067 10.6618 15.6248 10.7455 15.6248 10.8335V14.4118C15.6248 15.3562 15.0455 16.2039 14.1656 16.5469L10.8322 17.8465C10.2969 18.0552 9.70274 18.0552 9.16742 17.8465L5.83409 16.5469C4.95419 16.2039 4.37484 15.3562 4.37484 14.4118V10.8335C4.37484 10.7433 4.39394 10.6576 4.42832 10.5801C3.73636 10.2479 3.06128 9.83871 2.41421 9.31168L1.56092 8.61669C0.868707 8.05289 0.868343 6.9476 1.55996 6.38322L2.42727 5.67547C4.26681 4.17436 6.33478 3.63442 8.37028 3.10295C8.80793 2.98869 9.24408 2.87481 9.67613 2.75185ZM17.7082 7.50066C17.7081 7.42558 17.6778 7.37601 17.6494 7.35283L16.7961 6.65784C14.9998 5.41683 13.3993 4.86949 11.3664 4.3353C10.9194 4.21783 10.4598 4.09705 9.98647 3.96315C9.51108 4.09801 9.04975 4.21938 8.60126 4.33737C6.58467 4.8679 4.82753 5.33017 3.21757 6.64394L2.35026 7.35169C2.32176 7.37494 2.29147 7.42459 2.2915 7.49966C2.29153 7.57474 2.32186 7.62431 2.35032 7.64749L3.20361 8.34248C4.82721 9.66489 6.60038 10.1308 8.63326 10.665C9.08028 10.7825 9.53989 10.9033 10.0132 11.0372C10.4886 10.9023 10.9498 10.781 11.3983 10.663C13.4149 10.1325 15.1721 9.67015 16.7821 8.35639L17.6494 7.64863C17.6779 7.62541 17.7081 7.57561 17.7082 7.50066ZM11.6294 11.8974C12.5459 11.6581 13.469 11.4171 14.3748 11.0874V14.4118C14.3748 14.841 14.1115 15.2264 13.7115 15.3823L10.3782 16.6818C10.1349 16.7767 9.86479 16.7767 9.62147 16.6818L6.28813 15.3823C5.88818 15.2264 5.62484 14.841 5.62484 14.4118V11.0803C6.54048 11.4138 7.47375 11.6572 8.40048 11.8989C8.83719 12.0128 9.27245 12.1263 9.70373 12.2487C9.90662 12.3063 10.1206 12.3062 10.3235 12.2485C10.7556 12.1255 11.1918 12.0116 11.6294 11.8974Z" fill="#E3E8FF" fill-opacity="0.6"/>
</svg>
