<svg width="69" height="109" viewBox="0 0 69 109" fill="none" xmlns="http://www.w3.org/2000/svg">
<g filter="url(#filter0_d_17_1141)">
<path d="M34.3261 71.7812C33.8019 71.7812 33.2776 71.6427 32.8785 71.3654L25.1985 66.0278C24.7996 65.7505 24.5801 65.3767 24.5801 64.9749C24.5801 64.573 24.7996 64.1993 25.1985 63.922L32.8782 58.5846C33.676 58.0301 34.975 58.0301 35.773 58.5846L43.453 63.9223C43.8519 64.1996 44.0717 64.5733 44.0717 64.9752C44.0717 65.377 43.8521 65.7508 43.4532 66.0281L35.7735 71.3654C35.3746 71.6427 34.8504 71.7812 34.3261 71.7812ZM34.3256 58.3279C33.8257 58.3279 33.3261 58.4604 32.9456 58.7249L25.2658 64.0623C24.9107 64.309 24.715 64.6335 24.715 64.9749C24.715 65.3163 24.9107 65.6404 25.2658 65.8875L32.9458 71.2251C33.7067 71.7543 34.9451 71.7543 35.7064 71.2251L43.3862 65.8878C43.7414 65.641 43.937 65.3169 43.937 64.9752C43.937 64.6338 43.7414 64.3096 43.3859 64.0626L35.7059 58.7249C35.3254 58.46 34.8252 58.3279 34.3256 58.3279Z" fill="url(#paint0_linear_17_1141)"/>
<path opacity="0.4" d="M44.3088 62.9265V59.7606L43.8275 59.4382C43.6916 60.4267 42.725 61.078 41.9169 61.2135L36.4138 65.0873L34.0121 66.1312L26.3462 61.3689L26.5233 61.2459C25.8682 60.8776 25.5152 60.0348 25.1608 59.2659L24.6446 59.6363L24.3379 59.74V62.9595C24.3379 63.3698 24.5627 63.7804 25.0124 64.0928L32.6923 69.4304C33.5916 70.0555 35.0546 70.0555 35.9538 69.4304L43.6336 64.0928C44.0759 63.7853 44.3005 63.3831 44.3078 62.9794C44.308 62.9613 44.3075 62.9434 44.3067 62.9253L44.3088 62.9265Z" fill="url(#paint1_linear_17_1141)"/>
<path d="M44.3049 60.1118V58.0172L43.8236 57.6948C43.6877 58.6833 42.7211 59.3346 41.913 59.4701L36.4099 63.3439L34.0082 64.3877L26.3423 59.6255L26.5194 59.5025C25.8643 59.1342 25.5113 58.2914 25.1569 57.5225L24.6407 57.8929L24.334 57.9966V60.1447C24.334 60.5551 24.5588 60.9657 25.0084 61.278L32.6884 66.6157C33.5877 67.2407 35.0506 67.2407 35.9499 66.6157L43.6296 61.278C44.072 60.9705 44.2966 60.5684 44.3038 60.1647C44.3041 60.1465 44.3036 60.1287 44.3028 60.1105L44.3049 60.1118Z" fill="url(#paint2_linear_17_1141)"/>
<path opacity="0.3" d="M41.9119 59.4707L36.4088 63.3445L34.3184 64.2531V67.0853C34.9089 67.0853 35.4997 66.9289 35.9494 66.6166L43.6291 61.2789C44.0714 60.9714 44.296 60.5692 44.3033 60.1655C44.3035 60.1474 44.303 60.1296 44.3023 60.1114L44.3033 60.112V58.0174L43.8635 57.7229H43.8175C43.6678 58.696 42.7125 59.3364 41.9119 59.4707Z" fill="url(#paint3_linear_17_1141)"/>
<path d="M26.5204 59.5032L33.7982 54.4452C34.0861 54.245 34.5546 54.245 34.8427 54.4452L41.9932 59.4149L41.9138 59.4708C42.7219 59.3353 43.6885 58.684 43.8244 57.6955L35.7993 52.3228L33.4644 51.5798L31.5631 52.9248L25.1582 57.5232C25.5124 58.2918 25.8653 59.1345 26.5204 59.5032Z" fill="url(#paint4_linear_17_1141)"/>
<path opacity="0.3" d="M34.3205 51.8518L33.4644 51.5793L31.5631 52.9243L25.1582 57.5227C25.5126 58.2913 25.8656 59.1344 26.5207 59.5027L33.7985 54.4447C33.9424 54.3446 34.1316 54.2947 34.3207 54.2947V51.8518H34.3205Z" fill="url(#paint5_linear_17_1141)"/>
<path d="M32.6865 64.4884L25.0065 59.1508C24.1072 58.5257 24.1072 57.5088 25.0065 56.8838L32.6862 51.5462C33.5855 50.9211 35.0484 50.9211 35.9477 51.5462L43.6277 56.8838C44.527 57.5088 44.527 58.5257 43.6277 59.1508L35.948 64.4884C35.0487 65.1131 33.5855 65.1131 32.6865 64.4884ZM34.8392 52.3169C34.5513 52.1168 34.0828 52.1168 33.7947 52.3169L26.115 57.6546C25.8271 57.8548 25.8271 58.1804 26.115 58.3803L33.795 63.718C34.0829 63.9181 34.5513 63.9181 34.8394 63.718L42.5192 58.3806C42.807 58.1804 42.807 57.8548 42.5192 57.6549L34.8392 52.3169Z" fill="url(#paint6_linear_17_1141)"/>
<path d="M42.5199 57.655L34.8399 52.3174C34.552 52.1172 34.0836 52.1172 33.7955 52.3174L26.1157 57.655C25.9236 57.7884 25.8605 57.9777 25.9246 58.1485C25.9567 58.0632 26.0198 57.9828 26.1157 57.916L33.7955 52.5783C34.0833 52.3781 34.5518 52.3781 34.8399 52.5783L42.5199 57.916C42.6159 57.9825 42.6789 58.0632 42.7111 58.1485C42.7751 57.9777 42.7118 57.7884 42.5199 57.655Z" fill="url(#paint7_linear_17_1141)"/>
<path d="M43.6273 59.151L35.9475 64.4886C35.0483 65.1136 33.5851 65.1136 32.686 64.4886L25.0061 59.151C24.6041 58.8716 24.3823 58.5138 24.3396 58.1479C24.2869 58.6006 24.5087 59.0663 25.0061 59.4119L32.686 64.7496C33.5853 65.3746 35.0483 65.3746 35.9475 64.7496L43.6273 59.4119C44.1246 59.0663 44.3462 58.6009 44.2934 58.1479C44.251 58.5138 44.0292 58.8716 43.6273 59.151Z" fill="url(#paint8_linear_17_1141)"/>
<path d="M32.9093 64.3377L25.2293 59C24.4496 58.4581 24.4496 57.5764 25.2293 57.0345L32.909 51.6972C33.6885 51.1553 34.9573 51.1553 35.7367 51.6972L43.4167 57.0348C44.1964 57.5767 44.1964 58.4581 43.4167 59L35.737 64.3377C34.9575 64.8795 33.689 64.8795 32.9093 64.3377ZM35.062 52.1662C34.6546 51.8828 33.9914 51.8828 33.584 52.1662L25.9043 57.5038C25.4968 57.7871 25.4968 58.248 25.9043 58.5313L33.5842 63.869C33.9917 64.1523 34.6548 64.1523 35.0625 63.869L42.7423 58.5313C43.1497 58.248 43.1497 57.7871 42.7423 57.5041L35.062 52.1662Z" fill="url(#paint9_linear_17_1141)"/>
<path opacity="0.4" d="M34.8444 52.3174C34.5565 52.1172 34.088 52.1172 33.7999 52.3174L26.1202 57.655C25.8323 57.8552 25.8323 58.1809 26.1202 58.3807L33.8002 63.7184C34.088 63.9186 34.5565 63.9186 34.8446 63.7184L42.5244 58.381C42.8122 58.1809 42.8122 57.8552 42.5244 57.6553L34.8444 52.3174Z" fill="url(#paint10_linear_17_1141)"/>
<path opacity="0.5" d="M42.7454 58.0101V25.0369H25.9102L25.9112 58.0098C25.9084 58.1438 25.9795 58.278 26.1262 58.3799L33.8062 63.7176C34.094 63.9178 34.5625 63.9178 34.8506 63.7176L42.5304 58.3799C42.6768 58.2783 42.7479 58.1441 42.7454 58.0101Z" fill="url(#paint11_linear_17_1141)"/>
<path d="M34.3261 61.7623C33.8019 61.7623 33.2776 61.6238 32.8785 61.3465L25.1985 56.0089C24.7996 55.7316 24.5801 55.3579 24.5801 54.956C24.5801 54.5544 24.7996 54.1807 25.1985 53.9031L32.8782 48.5655C33.676 48.0115 34.975 48.0112 35.773 48.5658L43.453 53.9031C43.8519 54.1804 44.0717 54.5541 44.0717 54.956C44.0717 55.3579 43.8521 55.7316 43.4532 56.0089L35.7735 61.3462C35.3746 61.6238 34.8504 61.7623 34.3261 61.7623ZM34.3256 48.3093C33.8257 48.3093 33.3261 48.4412 32.9456 48.7058L25.2658 54.0434C24.9107 54.2902 24.715 54.6143 24.715 54.9557C24.715 55.2974 24.9107 55.6212 25.2658 55.8683L32.9458 61.2059C33.7067 61.7351 34.9451 61.7351 35.7064 61.2059L43.3862 55.8686C43.7414 55.6218 43.937 55.2977 43.937 54.956C43.937 54.6146 43.7414 54.2905 43.3859 54.0434L35.7059 48.7061C35.3256 48.4418 34.8252 48.3093 34.3256 48.3093Z" fill="url(#paint12_linear_17_1141)"/>
<path opacity="0.4" d="M44.3088 52.9073V49.7417L43.8275 49.4194C43.6916 50.4079 42.725 51.0592 41.9169 51.1947L36.4138 55.0685L34.0121 56.1126L26.3462 51.3504L26.5233 51.2273C25.8682 50.859 25.5152 50.016 25.1608 49.2473L24.6446 49.6177L24.3379 49.7214V52.9409C24.3379 53.3512 24.5627 53.7619 25.0124 54.0742L32.6923 59.4119C33.5916 60.0369 35.0546 60.0369 35.9538 59.4119L43.6336 54.0742C44.0759 53.7667 44.3005 53.3645 44.3078 52.9609C44.308 52.9427 44.3075 52.9249 44.3067 52.9067L44.3088 52.9073Z" fill="url(#paint13_linear_17_1141)"/>
<path d="M44.3049 50.0932V47.9986L43.8236 47.6763C43.6877 48.6648 42.7211 49.3161 41.913 49.4516L36.4099 53.3254L34.0082 54.3692L26.3423 49.607L26.5194 49.4839C25.8643 49.1156 25.5113 48.2729 25.1569 47.5039L24.6407 47.8743L24.334 47.978V50.1262C24.334 50.5365 24.5588 50.9471 25.0084 51.2595L32.6884 56.5971C33.5877 57.2222 35.0506 57.2222 35.9499 56.5971L43.6296 51.2598C44.072 50.9523 44.2966 50.5501 44.3038 50.1464C44.3041 50.1283 44.3036 50.1104 44.3028 50.0923L44.3049 50.0932Z" fill="url(#paint14_linear_17_1141)"/>
<path opacity="0.3" d="M41.9119 49.4518L36.4088 53.3256L34.3184 54.2343V57.0664C34.9089 57.0664 35.4997 56.9101 35.9494 56.5977L43.6291 51.2604C44.0714 50.9528 44.296 50.5507 44.3033 50.147C44.3035 50.1288 44.303 50.111 44.3023 50.0929L44.3033 50.0935V47.9989L43.8635 47.7043H43.8175C43.6678 48.6771 42.7125 49.3179 41.9119 49.4518Z" fill="url(#paint15_linear_17_1141)"/>
<path d="M26.5204 49.4846L33.7982 44.4267C34.0861 44.2265 34.5546 44.2265 34.8427 44.4267L41.9932 49.3963L41.9138 49.4522C42.7219 49.3168 43.6885 48.6654 43.8244 47.677L35.7993 42.3042L33.4644 41.5613L31.5631 42.9063L25.1582 47.5046C25.5124 48.2733 25.8653 49.1163 26.5204 49.4846Z" fill="url(#paint16_linear_17_1141)"/>
<path opacity="0.3" d="M34.3205 41.8332L33.4644 41.5608L31.5631 42.9058L25.1582 47.5041C25.5126 48.2728 25.8656 49.1158 26.5207 49.4841L33.7985 44.4262C33.9424 44.3261 34.1316 44.2762 34.3207 44.2762V41.8332H34.3205Z" fill="url(#paint17_linear_17_1141)"/>
<path d="M32.6865 54.4699L25.0065 49.1322C24.1072 48.5072 24.1072 47.4903 25.0065 46.8653L32.6862 41.5276C33.5855 40.9026 35.0484 40.9026 35.9477 41.5276L43.6277 46.8653C44.527 47.4903 44.527 48.5072 43.6277 49.1319L35.948 54.4696C35.0487 55.0949 33.5855 55.0949 32.6865 54.4699ZM34.8392 42.2984C34.5513 42.0982 34.0828 42.0982 33.7947 42.2984L26.115 47.636C25.8271 47.8362 25.8271 48.1619 26.115 48.3617L33.795 53.6994C34.0829 53.8996 34.5513 53.8996 34.8394 53.6994L42.5192 48.3617C42.807 48.1616 42.807 47.8359 42.5192 47.636L34.8392 42.2984Z" fill="url(#paint18_linear_17_1141)"/>
<path d="M42.5199 47.6357L34.8399 42.2981C34.552 42.0979 34.0836 42.0979 33.7955 42.2981L26.1157 47.6357C25.9236 47.7691 25.8605 47.9584 25.9246 48.1292C25.9567 48.0439 26.0198 47.9635 26.1157 47.8967L33.7955 42.5593C34.0833 42.3592 34.5518 42.3592 34.8399 42.5593L42.5199 47.897C42.6159 47.9635 42.6789 48.0442 42.7111 48.1295C42.7751 47.9584 42.7118 47.7691 42.5199 47.6357Z" fill="url(#paint19_linear_17_1141)"/>
<path d="M43.6273 49.1317L35.9475 54.4693C35.0483 55.0943 33.5851 55.0943 32.686 54.4693L25.0061 49.1317C24.6041 48.8523 24.3823 48.4945 24.3396 48.1287C24.2869 48.5813 24.5087 49.047 25.0061 49.3926L32.686 54.7303C33.5853 55.3553 35.0483 55.3553 35.9475 54.7303L43.6273 49.3929C44.1246 49.0473 44.3462 48.5819 44.2934 48.129C44.251 48.4948 44.0292 48.8526 43.6273 49.1317Z" fill="url(#paint20_linear_17_1141)"/>
<path d="M32.9093 54.3189L25.2293 48.9813C24.4496 48.4394 24.4496 47.5577 25.2293 47.0158L32.909 41.6781C33.6885 41.1363 34.9573 41.1363 35.7367 41.6781L43.4167 47.0158C44.1964 47.5577 44.1964 48.4394 43.4167 48.981L35.737 54.3186C34.9575 54.8608 33.689 54.8608 32.9093 54.3189ZM35.062 42.1474C34.6546 41.8641 33.9914 41.8641 33.584 42.1474L25.9043 47.4851C25.4968 47.7684 25.4968 48.2292 25.9043 48.5126L33.5842 53.8502C33.9917 54.1336 34.6548 54.1336 35.0625 53.8502L42.7423 48.5126C43.1497 48.2292 43.1497 47.7684 42.7423 47.4854L35.062 42.1474Z" fill="url(#paint21_linear_17_1141)"/>
<path opacity="0.4" d="M34.8444 42.2981C34.5565 42.0979 34.088 42.0979 33.7999 42.2981L26.1202 47.6357C25.8323 47.8359 25.8323 48.1616 26.1202 48.3614L33.8002 53.6991C34.088 53.8993 34.5565 53.8993 34.8446 53.6991L42.5244 48.3614C42.8122 48.1613 42.8122 47.8356 42.5244 47.6357L34.8444 42.2981Z" fill="url(#paint22_linear_17_1141)"/>
<path d="M34.3261 51.7437C33.8019 51.7437 33.2776 51.6052 32.8785 51.3279L25.1985 45.9902C24.7996 45.713 24.5801 45.3392 24.5801 44.9373C24.5801 44.5358 24.7996 44.162 25.1985 43.8848L32.8782 38.5474C33.6765 37.9931 34.975 37.9928 35.773 38.5474L43.453 43.8851C43.8519 44.162 44.0714 44.5358 44.0717 44.9376C44.0717 45.3395 43.8521 45.7133 43.4532 45.9905L35.7735 51.3279C35.3746 51.6052 34.8504 51.7437 34.3261 51.7437ZM34.3256 38.2907C33.826 38.2907 33.3261 38.4231 32.9456 38.6877L25.2658 44.0251C24.9107 44.2718 24.715 44.596 24.715 44.9373C24.715 45.279 24.9107 45.6029 25.2658 45.8499L32.9458 51.1876C33.7067 51.7168 34.9451 51.7168 35.7064 51.1876L43.3862 45.8502C43.7416 45.6035 43.937 45.279 43.937 44.9376C43.937 44.5963 43.7414 44.2721 43.3859 44.0254L35.7059 38.6877C35.3256 38.4231 34.8255 38.2907 34.3256 38.2907Z" fill="url(#paint23_linear_17_1141)"/>
<path opacity="0.4" d="M44.3088 42.8889V39.7229L43.8275 39.4009C43.6916 40.3894 42.725 41.0407 41.9169 41.1762L36.4138 45.05L34.0121 46.0938L26.3462 41.3316L26.5233 41.2085C25.8682 40.8402 25.5152 39.9975 25.1608 39.2285L24.6446 39.5989L24.3379 39.7027V42.9221C24.3379 43.3324 24.5627 43.7431 25.0124 44.0554L32.6923 49.3931C33.5916 50.0181 35.0546 50.0181 35.9538 49.3931L43.6336 44.0554C44.0759 43.7479 44.3005 43.3458 44.3078 42.9421C44.308 42.9239 44.3075 42.9061 44.3067 42.8879L44.3088 42.8889Z" fill="url(#paint24_linear_17_1141)"/>
<path d="M44.3049 40.0746V37.98L43.8236 37.6576C43.6877 38.6461 42.7211 39.2975 41.913 39.4329L36.4099 43.3068L34.0082 44.3509L26.3423 39.5887L26.5194 39.4656C25.8643 39.0973 25.5113 38.2543 25.1569 37.4856L24.6407 37.856L24.334 37.9597V40.1079C24.334 40.5182 24.5588 40.9288 25.0084 41.2412L32.6884 46.5788C33.5877 47.2039 35.0506 47.2039 35.9499 46.5788L43.6296 41.2412C44.072 40.9337 44.2966 40.5315 44.3038 40.1278C44.3041 40.1097 44.3036 40.0918 44.3028 40.0737L44.3049 40.0746Z" fill="url(#paint25_linear_17_1141)"/>
<path opacity="0.3" d="M41.9119 39.4333L36.4088 43.3071L34.3184 44.2158V47.0479C34.9089 47.0479 35.4997 46.8916 35.9494 46.5792L43.6291 41.2416C44.0714 40.934 44.296 40.5319 44.3033 40.1282C44.3035 40.11 44.303 40.0922 44.3023 40.0741L44.3033 40.0747V37.9801L43.8635 37.6855H43.8175C43.6678 38.6586 42.7125 39.2991 41.9119 39.4333Z" fill="url(#paint26_linear_17_1141)"/>
<path d="M26.5204 39.4656L33.7982 34.4077C34.0861 34.2075 34.5546 34.2075 34.8427 34.4077L41.9932 39.3773L41.9138 39.4333C42.7219 39.2978 43.6885 38.6465 43.8244 37.658L35.7993 32.2849L33.4644 31.542L31.5631 32.8873L25.1582 37.4856C25.5124 38.2546 25.8653 39.0973 26.5204 39.4656Z" fill="url(#paint27_linear_17_1141)"/>
<path opacity="0.3" d="M34.3205 31.8144L33.4644 31.542L31.5631 32.8873L25.1582 37.4856C25.5126 38.2543 25.8656 39.0973 26.5207 39.4656L33.7985 34.4077C33.9424 34.3076 34.1316 34.2577 34.3207 34.2577V31.8144H34.3205Z" fill="url(#paint28_linear_17_1141)"/>
<path d="M32.6865 44.4511L25.0065 39.1134C24.1072 38.4884 24.1072 37.4715 25.0065 36.8465L32.6862 31.5088C33.5855 30.8838 35.0484 30.8838 35.9477 31.5088L43.6277 36.8465C44.527 37.4715 44.527 38.4884 43.6277 39.1131L35.948 44.4508C35.0487 45.0761 33.5855 45.0761 32.6865 44.4511ZM34.8392 32.2796C34.5513 32.0794 34.0828 32.0794 33.7947 32.2796L26.115 37.6172C25.8271 37.8174 25.8271 38.1431 26.115 38.3429L33.795 43.6806C34.0829 43.8808 34.5513 43.8808 34.8394 43.6806L42.5192 38.3429C42.807 38.1428 42.807 37.8174 42.5192 37.6172L34.8392 32.2796Z" fill="url(#paint29_linear_17_1141)"/>
<path d="M42.5199 37.6169L34.8399 32.2793C34.552 32.0791 34.0836 32.0791 33.7955 32.2793L26.1157 37.6169C25.9236 37.7503 25.8605 37.9396 25.9246 38.1104C25.9567 38.0251 26.0198 37.9447 26.1157 37.8779L33.7955 32.5402C34.0833 32.3401 34.5518 32.3401 34.8399 32.5402L42.5199 37.8779C42.6159 37.9444 42.6789 38.0251 42.7111 38.1104C42.7751 37.9399 42.7118 37.7506 42.5199 37.6169Z" fill="url(#paint30_linear_17_1141)"/>
<path d="M43.6273 39.1134L35.9475 44.451C35.0483 45.076 33.5851 45.076 32.686 44.451L25.0061 39.1134C24.6041 38.834 24.3823 38.4762 24.3396 38.1104C24.2869 38.563 24.5087 39.0287 25.0061 39.3743L32.686 44.712C33.5853 45.337 35.0483 45.337 35.9475 44.712L43.6273 39.3743C44.1246 39.0287 44.3462 38.5633 44.2934 38.1104C44.251 38.4762 44.0292 38.834 43.6273 39.1134Z" fill="url(#paint31_linear_17_1141)"/>
<path d="M32.9093 44.3006L25.2293 38.963C24.4496 38.4211 24.4496 37.5393 25.2293 36.9975L32.909 31.6598C33.6885 31.118 34.9573 31.118 35.7367 31.6598L43.4167 36.9975C44.1964 37.5393 44.1964 38.4211 43.4167 38.9627L35.737 44.3C34.9575 44.8425 33.689 44.8425 32.9093 44.3006ZM35.062 32.1291C34.6546 31.8458 33.9914 31.8458 33.584 32.1291L25.9043 37.4665C25.4968 37.7498 25.4968 38.2106 25.9043 38.494L33.5842 43.8316C33.9917 44.1149 34.6548 44.1149 35.0625 43.8316L42.7423 38.494C43.1497 38.2106 43.1497 37.7498 42.7423 37.4668L35.062 32.1291Z" fill="url(#paint32_linear_17_1141)"/>
<path opacity="0.4" d="M34.8444 32.2793C34.5565 32.0791 34.088 32.0791 33.7999 32.2793L26.1202 37.6169C25.8323 37.8171 25.8323 38.1428 26.1202 38.3427L33.8002 43.6803C34.088 43.8805 34.5565 43.8805 34.8446 43.6803L42.5244 38.3427C42.8122 38.1425 42.8122 37.8171 42.5244 37.6169L34.8444 32.2793Z" fill="url(#paint33_linear_17_1141)"/>
<path opacity="0.5" d="M42.9837 37.9733V5H26.1484L26.1494 37.973C26.1467 38.1069 26.2178 38.2412 26.3645 38.3431L34.0444 43.6807C34.3323 43.8809 34.8008 43.8809 35.0889 43.6807L42.7686 38.3431C42.9151 38.2415 42.9862 38.1069 42.9837 37.9733Z" fill="url(#paint34_linear_17_1141)"/>
<path d="M20.9863 82.678C20.462 82.678 19.9378 82.5392 19.5386 82.262L11.8587 76.9243C11.4598 76.647 11.2402 76.2733 11.2402 75.8711C11.2402 75.4689 11.4598 75.0955 11.8587 74.8182L19.5384 69.4809C20.3367 68.9263 21.6354 68.9263 22.4334 69.4809L30.1134 74.8185C30.5123 75.0958 30.7318 75.4695 30.7318 75.8714C30.7318 76.2733 30.512 76.647 30.1134 76.9243L22.4337 82.262C22.0348 82.5392 21.5105 82.678 20.9863 82.678ZM20.986 69.2244C20.4861 69.2244 19.9863 69.3569 19.6057 69.6215L11.926 74.9588C11.5708 75.2056 11.3751 75.53 11.3751 75.8711C11.3751 76.2125 11.5708 76.5367 11.926 76.7837L19.606 82.1213C20.3668 82.6505 21.6057 82.6505 22.3666 82.1213L30.0463 76.7837C30.4015 76.5373 30.5972 76.2128 30.5972 75.8714C30.5972 75.53 30.4018 75.2059 30.0463 74.9588L22.3663 69.6212C21.986 69.3566 21.4859 69.2244 20.986 69.2244Z" fill="url(#paint35_linear_17_1141)"/>
<path opacity="0.4" d="M30.9709 73.8224V70.6568L30.4896 70.3345C30.3537 71.323 29.3871 71.9743 28.579 72.1098L23.0759 75.9836L20.6742 77.0274L13.0083 72.2652L13.1854 72.1421C12.5303 71.7738 12.1773 70.9311 11.8229 70.1621L11.3067 70.5325L11 70.6362V73.8557C11 74.266 11.2248 74.6767 11.6745 74.989L19.3544 80.3267C20.2537 80.9517 21.7167 80.9517 22.6159 80.3267L30.2957 74.9893C30.738 74.6818 30.9626 74.2796 30.9699 73.876C30.9701 73.8578 30.9694 73.84 30.9689 73.8218L30.9709 73.8224Z" fill="url(#paint36_linear_17_1141)"/>
<path d="M30.9709 71.0087V68.9141L30.4896 68.5918C30.3537 69.5803 29.3871 70.2316 28.579 70.3671L23.0759 74.2409L20.6742 75.2847L13.0083 70.5225L13.1854 70.3994C12.5303 70.0311 12.1773 69.1881 11.8229 68.4194L11.3067 68.7898L11 68.8936V71.0417C11 71.452 11.2248 71.8627 11.6745 72.175L19.3544 77.5127C20.2537 78.1377 21.7167 78.1377 22.6159 77.5127L30.2957 72.175C30.738 71.8675 30.9626 71.4653 30.9699 71.0616C30.9701 71.0435 30.9694 71.0257 30.9689 71.0075L30.9709 71.0087Z" fill="url(#paint37_linear_17_1141)"/>
<path opacity="0.3" d="M28.5819 70.3672L23.0787 74.241L20.9883 75.1496V77.9817C21.5788 77.9817 22.1696 77.8254 22.6193 77.513L30.299 72.1754C30.7414 71.8679 30.9659 71.4657 30.9732 71.062C30.9735 71.0439 30.9727 71.026 30.9722 71.0079L30.9732 71.0085V68.9139L30.5334 68.6194H30.4874C30.3377 69.5925 29.3822 70.2332 28.5819 70.3672Z" fill="url(#paint38_linear_17_1141)"/>
<path d="M13.1845 70.3996L20.4623 65.3417C20.7502 65.1415 21.2187 65.1415 21.5068 65.3417L28.6572 70.3113L28.5779 70.3673C29.386 70.2318 30.3525 69.5805 30.4884 68.592L22.4633 63.2193L20.1285 62.4763L18.2272 63.8216L11.8223 68.4199C12.1764 69.1883 12.5294 70.031 13.1845 70.3996Z" fill="url(#paint39_linear_17_1141)"/>
<path opacity="0.3" d="M20.9845 62.7483L20.1285 62.4758L18.2272 63.8211L11.8223 68.4195C12.1767 69.1881 12.5296 70.0312 13.1847 70.3995L20.4626 65.3415C20.6065 65.2414 20.7956 65.1915 20.9848 65.1915V62.7483H20.9845Z" fill="url(#paint40_linear_17_1141)"/>
<path d="M19.3544 75.3849L11.6745 70.0473C10.7752 69.4222 10.7752 68.4053 11.6745 67.7803L19.3542 62.4426C20.2535 61.8176 21.7164 61.8176 22.6157 62.4426L30.2957 67.7803C31.1949 68.4053 31.1949 69.4222 30.2957 70.047L22.6159 75.3846C21.7169 76.0096 20.2537 76.0096 19.3544 75.3849ZM21.5072 63.2134C21.2193 63.0132 20.7508 63.0132 20.4627 63.2134L12.783 68.5511C12.4951 68.7512 12.4951 69.0769 12.783 69.2768L20.463 74.6144C20.7508 74.8146 21.2193 74.8146 21.5074 74.6144L29.1871 69.2768C29.475 69.0766 29.475 68.7512 29.1871 68.5511L21.5072 63.2134Z" fill="url(#paint41_linear_17_1141)"/>
<path d="M29.1879 68.551L21.5079 63.2134C21.22 63.0132 20.7515 63.0132 20.4634 63.2134L12.7837 68.551C12.5915 68.6844 12.5285 68.8737 12.5925 69.0445C12.6247 68.9592 12.6877 68.8788 12.7837 68.812L20.4634 63.4743C20.7513 63.2741 21.2198 63.2741 21.5079 63.4743L29.1879 68.812C29.2838 68.8785 29.3469 68.9592 29.379 69.0445C29.4433 68.8737 29.38 68.6844 29.1879 68.551Z" fill="url(#paint42_linear_17_1141)"/>
<path d="M30.2952 70.0472L22.6155 75.3848C21.7162 76.0099 20.253 76.0099 19.354 75.3848L11.674 70.0472C11.2721 69.7678 11.0503 69.4101 11.0076 69.0442C10.9548 69.4969 11.1766 69.9625 11.674 70.3081L19.354 75.6458C20.2533 76.2708 21.7162 76.2708 22.6155 75.6458L30.2952 70.3081C30.7926 69.9625 31.0141 69.4972 30.9614 69.0442C30.9187 69.4104 30.6971 69.7678 30.2952 70.0472Z" fill="url(#paint43_linear_17_1141)"/>
<path d="M19.5694 75.234L11.8895 69.8963C11.1098 69.3544 11.1098 68.4727 11.8895 67.9308L19.5692 62.5932C20.3486 62.0513 21.6174 62.0513 22.3969 62.5932L30.0769 67.9308C30.8566 68.4727 30.8566 69.3544 30.0769 69.896L22.3971 75.2333C21.6174 75.7758 20.3489 75.7758 19.5694 75.234ZM21.7219 63.0625C21.3145 62.7791 20.6513 62.7791 20.2439 63.0625L12.5642 68.3998C12.1567 68.6831 12.1567 69.144 12.5642 69.4273L20.2442 74.765C20.6518 75.0483 21.3147 75.0483 21.7224 74.765L29.4022 69.4273C29.8096 69.144 29.8096 68.6831 29.4022 68.4001L21.7219 63.0625Z" fill="url(#paint44_linear_17_1141)"/>
<path opacity="0.4" d="M21.5084 63.2134C21.2206 63.0132 20.7521 63.0132 20.464 63.2134L12.7843 68.551C12.4964 68.7512 12.4964 69.0769 12.7843 69.2767L20.4642 74.6144C20.7521 74.8146 21.2206 74.8146 21.5087 74.6144L29.1884 69.2767C29.4763 69.0766 29.4763 68.7512 29.1884 68.551L21.5084 63.2134Z" fill="url(#paint45_linear_17_1141)"/>
<path opacity="0.5" d="M29.4036 68.9066V35.9333H12.5684L12.5694 68.9063C12.5666 69.0403 12.6377 69.1745 12.7844 69.2764L20.4644 74.6141C20.7522 74.8143 21.2207 74.8143 21.5088 74.6141L29.1886 69.2764C29.3353 69.1748 29.4063 69.0406 29.4036 68.9066Z" fill="url(#paint46_linear_17_1141)"/>
<path d="M20.9863 72.6593C20.462 72.6593 19.9378 72.5205 19.5386 72.2432L11.8587 66.9056C11.4598 66.6283 11.2402 66.2545 11.2402 65.8527C11.2402 65.4511 11.4598 65.0774 11.8587 64.8001L19.5384 59.4624C20.3367 58.9085 21.6354 58.9082 22.4334 59.4627L30.1134 64.8001C30.5123 65.0774 30.7318 65.4511 30.7318 65.853C30.7318 66.2548 30.5123 66.6286 30.1134 66.9059L22.4337 72.2432C22.0348 72.5205 21.5105 72.6593 20.9863 72.6593ZM20.9858 59.206C20.4862 59.206 19.9863 59.3381 19.6057 59.6027L11.926 64.9404C11.5708 65.1871 11.3751 65.5113 11.3751 65.8527C11.3751 66.1944 11.5708 66.5182 11.926 66.7653L19.606 72.1029C20.3668 72.6321 21.6057 72.6321 22.3666 72.1029L30.0463 66.7656C30.4015 66.5188 30.5972 66.1944 30.5972 65.853C30.5972 65.5116 30.4015 65.1874 30.0463 64.9404L22.3663 59.603C21.986 59.3384 21.4857 59.206 20.9858 59.206Z" fill="url(#paint47_linear_17_1141)"/>
<path opacity="0.4" d="M30.9709 63.8042V60.6383L30.4896 60.3159C30.3537 61.3044 29.3871 61.9557 28.579 62.0912L23.0759 65.965L20.6742 67.0088L13.0083 62.2466L13.1854 62.1235C12.5303 61.7552 12.1773 60.9125 11.8229 60.1436L11.3067 60.514L11 60.6177V63.8372C11 64.2475 11.2248 64.6581 11.6745 64.9705L19.3544 70.3081C20.2537 70.9332 21.7167 70.9332 22.6159 70.3081L30.2957 64.9708C30.738 64.6633 30.9626 64.2611 30.9699 63.8574C30.9701 63.8393 30.9694 63.8214 30.9689 63.8033L30.9709 63.8042Z" fill="url(#paint48_linear_17_1141)"/>
<path d="M30.9709 60.9901V58.8955L30.4896 58.5732C30.3537 59.5617 29.3871 60.213 28.579 60.3485L23.0759 64.2223L20.6742 65.2664L13.0083 60.5042L13.1854 60.3811C12.5303 60.0128 12.1773 59.1701 11.8229 58.4011L11.3067 58.7715L11 58.8753V61.0234C11 61.4337 11.2248 61.8443 11.6745 62.1567L19.3544 67.4944C20.2537 68.1194 21.7167 68.1194 22.6159 67.4944L30.2957 62.1567C30.738 61.8492 30.9626 61.447 30.9699 61.0433C30.9701 61.0252 30.9694 61.0074 30.9689 60.9892L30.9709 60.9901Z" fill="url(#paint49_linear_17_1141)"/>
<path opacity="0.3" d="M28.5819 60.3484L23.0787 64.2222L20.9883 65.1308V67.9629C21.5788 67.9629 22.1696 67.8066 22.6193 67.4943L30.299 62.1566C30.7414 61.8491 30.9659 61.4469 30.9732 61.0432C30.9735 61.0251 30.9727 61.0072 30.9722 60.9891L30.9732 60.9897V58.8951L30.5334 58.6006H30.4874C30.3377 59.574 29.3822 60.2144 28.5819 60.3484Z" fill="url(#paint50_linear_17_1141)"/>
<path d="M13.1845 60.3814L20.4623 55.3234C20.7502 55.1233 21.2187 55.1233 21.5068 55.3234L28.6572 60.2931L28.5779 60.3487C29.386 60.2133 30.3525 59.5619 30.4884 58.5734L22.4633 53.2007L20.1285 52.4578L18.2272 53.8031L11.8223 58.4014C12.1764 59.1703 12.5294 60.0131 13.1845 60.3814Z" fill="url(#paint51_linear_17_1141)"/>
<path opacity="0.3" d="M20.9845 52.7302L20.1285 52.4578L18.2272 53.8031L11.8223 58.4014C12.1767 59.1703 12.5296 60.0131 13.1847 60.3814L20.4626 55.3234C20.6065 55.2233 20.7956 55.1735 20.9848 55.1735V52.7302H20.9845Z" fill="url(#paint52_linear_17_1141)"/>
<path d="M19.3544 65.3665L11.6745 60.0289C10.7752 59.4039 10.7752 58.3869 11.6745 57.7619L19.3542 52.4246C20.2535 51.7996 21.7164 51.7996 22.6157 52.4246L30.2957 57.7622C31.1949 58.3873 31.1949 59.4042 30.2957 60.0289L22.6159 65.3665C21.7169 65.9916 20.2537 65.9916 19.3544 65.3665ZM21.5072 53.195C21.2193 52.9949 20.7508 52.9949 20.4627 53.195L12.783 58.5327C12.4951 58.7329 12.4951 59.0585 12.783 59.2584L20.463 64.5961C20.7508 64.7962 21.2193 64.7962 21.5074 64.5961L29.1871 59.2587C29.475 59.0585 29.475 58.7329 29.1871 58.533L21.5072 53.195Z" fill="url(#paint53_linear_17_1141)"/>
<path d="M29.1879 58.5327L21.5079 53.1951C21.22 52.9949 20.7515 52.9949 20.4634 53.1951L12.7837 58.5327C12.5915 58.6661 12.5285 58.8553 12.5925 59.0262C12.6247 58.9409 12.6877 58.8605 12.7837 58.7937L20.4634 53.456C20.7513 53.2558 21.2198 53.2558 21.5079 53.456L29.1879 58.7937C29.2838 58.8602 29.3469 58.9409 29.379 59.0262C29.4433 58.8553 29.38 58.6664 29.1879 58.5327Z" fill="url(#paint54_linear_17_1141)"/>
<path d="M30.2952 60.0291L22.6155 65.3668C21.7162 65.9918 20.253 65.9918 19.354 65.3668L11.674 60.0291C11.2721 59.7497 11.0503 59.392 11.0076 59.0261C10.9548 59.4788 11.1766 59.9445 11.674 60.2901L19.354 65.6277C20.2533 66.2528 21.7162 66.2528 22.6155 65.6277L30.2952 60.2901C30.7926 59.9445 31.0141 59.4791 30.9614 59.0261C30.9187 59.3923 30.6971 59.75 30.2952 60.0291Z" fill="url(#paint55_linear_17_1141)"/>
<path d="M19.5694 65.2156L11.8895 59.8779C11.1098 59.3361 11.1098 58.4543 11.8895 57.9128L19.5692 52.5751C20.3486 52.0332 21.6174 52.0332 22.3969 52.5751L30.0769 57.9128C30.8566 58.4546 30.8566 59.3364 30.0769 59.8779L22.3971 65.2156C21.6174 65.7575 20.3489 65.7575 19.5694 65.2156ZM21.7219 53.0441C21.3145 52.7608 20.6513 52.7608 20.2439 53.0441L12.5642 58.3817C12.1567 58.6651 12.1567 59.1259 12.5642 59.4092L20.2442 64.7469C20.6518 65.0302 21.3147 65.0302 21.7224 64.7469L29.4022 59.4092C29.8096 59.1259 29.8096 58.6651 29.4022 58.3821L21.7219 53.0441Z" fill="url(#paint56_linear_17_1141)"/>
<path opacity="0.4" d="M21.5084 53.1951C21.2206 52.9949 20.7521 52.9949 20.464 53.1951L12.7843 58.5327C12.4964 58.7329 12.4964 59.0585 12.7843 59.2584L20.4642 64.5961C20.7521 64.7962 21.2206 64.7962 21.5087 64.5961L29.1884 59.2587C29.4763 59.0585 29.4763 58.7329 29.1884 58.533L21.5084 53.1951Z" fill="url(#paint57_linear_17_1141)"/>
<path d="M20.9863 62.6403C20.462 62.6403 19.9378 62.5015 19.5386 62.2242L11.8587 56.8866C11.4598 56.6093 11.2402 56.2356 11.2402 55.8337C11.2402 55.4321 11.4598 55.0584 11.8587 54.7811L19.5384 49.4438C20.3367 48.8892 21.6354 48.8892 22.4334 49.4438L30.1134 54.7814C30.512 55.0584 30.7318 55.4321 30.7318 55.834C30.7318 56.2359 30.5123 56.6099 30.1134 56.8869L22.4337 62.2242C22.0348 62.5015 21.5105 62.6403 20.9863 62.6403ZM20.986 49.187C20.4861 49.187 19.9863 49.3195 19.6057 49.5841L11.926 54.9214C11.5708 55.1682 11.3751 55.4923 11.3751 55.8337C11.3751 56.1754 11.5708 56.4992 11.926 56.7463L19.606 62.0839C20.3668 62.6131 21.6057 62.6131 22.3666 62.0839L30.0463 56.7466C30.4018 56.4998 30.5972 56.1754 30.5972 55.834C30.5972 55.4926 30.4015 55.1685 30.0463 54.9217L22.3663 49.5841C21.986 49.3195 21.4859 49.187 20.986 49.187Z" fill="url(#paint58_linear_17_1141)"/>
<path opacity="0.4" d="M30.9709 53.7856V50.6196L30.4896 50.2973C30.3537 51.2858 29.3871 51.9371 28.579 52.0726L23.0759 55.9464L20.6742 56.9905L13.0083 52.2283L13.1854 52.1052C12.5303 51.7369 12.1773 50.8942 11.8229 50.1252L11.3067 50.4957L11 50.5994V53.8188C11 54.2292 11.2248 54.6398 11.6745 54.9522L19.3544 60.2898C20.2537 60.9148 21.7167 60.9148 22.6159 60.2898L30.2957 54.9522C30.738 54.6446 30.9626 54.2425 30.9699 53.8388C30.9701 53.8207 30.9694 53.8028 30.9689 53.7847L30.9709 53.7856Z" fill="url(#paint59_linear_17_1141)"/>
<path d="M30.9709 50.9714V48.8768L30.4896 48.5544C30.3537 49.5429 29.3871 50.1943 28.579 50.3297L23.0759 54.2035L20.6742 55.2474L13.0083 50.4851L13.1854 50.3621C12.5303 49.9938 12.1773 49.151 11.8229 48.3821L11.3067 48.7525L11 48.8562V51.0043C11 51.4147 11.2248 51.8253 11.6745 52.1377L19.3544 57.4753C20.2537 58.1003 21.7167 58.1003 22.6159 57.4753L30.2957 52.1377C30.738 51.8301 30.9626 51.428 30.9699 51.0243C30.9701 51.0062 30.9694 50.9883 30.9689 50.9702L30.9709 50.9714Z" fill="url(#paint60_linear_17_1141)"/>
<path opacity="0.3" d="M28.5819 50.33L23.0787 54.2039L20.9883 55.1125V57.9446C21.5788 57.9446 22.1696 57.7883 22.6193 57.4759L30.299 52.1383C30.7414 51.8308 30.9659 51.4286 30.9732 51.0249C30.9735 51.0068 30.9727 50.9889 30.9722 50.9708L30.9732 50.9714V48.8768L30.5334 48.5823H30.4874C30.3377 49.5553 29.3822 50.1958 28.5819 50.33Z" fill="url(#paint61_linear_17_1141)"/>
<path d="M13.1845 50.3625L20.4623 45.3046C20.7502 45.1044 21.2187 45.1044 21.5068 45.3046L28.6572 50.2742L28.5779 50.3302C29.386 50.1947 30.3525 49.5434 30.4884 48.5549L22.4633 43.1822L20.1285 42.4392L18.2272 43.7842L11.8223 48.3825C12.1764 49.1515 12.5294 49.9942 13.1845 50.3625Z" fill="url(#paint62_linear_17_1141)"/>
<path opacity="0.3" d="M20.9845 42.7112L20.1285 42.4387L18.2272 43.7837L11.8223 48.382C12.1767 49.1507 12.5296 49.9937 13.1847 50.362L20.4626 45.3041C20.6065 45.204 20.7956 45.1541 20.9848 45.1541V42.7112H20.9845Z" fill="url(#paint63_linear_17_1141)"/>
<path d="M19.3544 55.3478L11.6745 50.0101C10.7752 49.3851 10.7752 48.3682 11.6745 47.7432L19.3542 42.4055C20.2535 41.7805 21.7164 41.7805 22.6157 42.4055L30.2957 47.7432C31.1949 48.3682 31.1949 49.3851 30.2957 50.0098L22.6159 55.3475C21.7169 55.9728 20.2537 55.9728 19.3544 55.3478ZM21.5072 43.1763C21.2193 42.9761 20.7508 42.9761 20.4627 43.1763L12.783 48.514C12.4951 48.7141 12.4951 49.0398 12.783 49.2397L20.463 54.5773C20.7508 54.7775 21.2193 54.7775 21.5074 54.5773L29.1871 49.2397C29.475 49.0395 29.475 48.7141 29.1871 48.514L21.5072 43.1763Z" fill="url(#paint64_linear_17_1141)"/>
<path d="M29.1879 48.5139L21.5079 43.1763C21.22 42.9761 20.7515 42.9761 20.4634 43.1763L12.7837 48.5139C12.5915 48.6473 12.5285 48.8365 12.5925 49.0074C12.6247 48.9221 12.6877 48.8417 12.7837 48.7749L20.4634 43.4372C20.7513 43.237 21.2198 43.237 21.5079 43.4372L29.1879 48.7749C29.2838 48.8414 29.3469 48.9221 29.379 49.0074C29.4433 48.8368 29.38 48.6476 29.1879 48.5139Z" fill="url(#paint65_linear_17_1141)"/>
<path d="M30.2952 50.0103L22.6155 55.348C21.7162 55.973 20.253 55.973 19.354 55.348L11.674 50.0103C11.2721 49.7309 11.0503 49.3732 11.0076 49.0073C10.9548 49.46 11.1766 49.9257 11.674 50.2713L19.354 55.6089C20.2533 56.234 21.7162 56.234 22.6155 55.6089L30.2952 50.2713C30.7926 49.9257 31.0141 49.4603 30.9614 49.0073C30.9187 49.3732 30.6971 49.7309 30.2952 50.0103Z" fill="url(#paint66_linear_17_1141)"/>
<path d="M19.5694 55.197L11.8895 49.8594C11.1098 49.3175 11.1098 48.4358 11.8895 47.8939L19.5692 42.5565C20.3486 42.0147 21.6174 42.0147 22.3969 42.5565L30.0769 47.8942C30.8566 48.4361 30.8566 49.3178 30.0769 49.8594L22.3971 55.197C21.6174 55.7389 20.3489 55.7389 19.5694 55.197ZM21.7219 43.0255C21.3145 42.7422 20.6513 42.7422 20.2439 43.0255L12.5642 48.3632C12.1567 48.6465 12.1567 49.1074 12.5642 49.3907L20.2442 54.7283C20.6518 55.0117 21.3147 55.0117 21.7224 54.7283L29.4022 49.391C29.8096 49.1077 29.8096 48.6468 29.4022 48.3638L21.7219 43.0255Z" fill="url(#paint67_linear_17_1141)"/>
<path opacity="0.4" d="M21.5084 43.1763C21.2206 42.9761 20.7521 42.9761 20.464 43.1763L12.7843 48.5139C12.4964 48.7141 12.4964 49.0397 12.7843 49.2396L20.4642 54.5773C20.7521 54.7775 21.2206 54.7775 21.5087 54.5773L29.1884 49.2396C29.4763 49.0394 29.4763 48.7141 29.1884 48.5139L21.5084 43.1763Z" fill="url(#paint68_linear_17_1141)"/>
<path opacity="0.5" d="M27.8352 48.87V15.8967H11L11.001 48.8697C10.9982 49.0036 11.0693 49.1379 11.216 49.2398L18.896 54.5775C19.1839 54.7776 19.6524 54.7776 19.9405 54.5775L27.6202 49.2398C27.7669 49.1382 27.838 49.0036 27.8352 48.87Z" fill="url(#paint69_linear_17_1141)"/>
<path d="M47.9882 81.8304C47.464 81.8304 46.9398 81.6916 46.5406 81.4144L38.8606 76.0767C38.4617 75.7994 38.2422 75.4257 38.2422 75.0238C38.2422 74.6222 38.4617 74.2485 38.8606 73.9712L46.5404 68.6336C47.3389 68.0793 48.6376 68.0796 49.4354 68.6339L57.1153 73.9712C57.5142 74.2485 57.7338 74.6222 57.7338 75.0241C57.7338 75.426 57.5142 75.7997 57.1153 76.077L49.4356 81.4144C49.0365 81.6916 48.5125 81.8304 47.9882 81.8304ZM47.9877 68.3771C47.4881 68.3771 46.9882 68.5093 46.6077 68.7739L38.9279 74.1115C38.5728 74.3583 38.3771 74.6824 38.3771 75.0238C38.3771 75.3655 38.5728 75.6894 38.9279 75.9364L46.6079 81.274C47.3688 81.8032 48.6077 81.8032 49.3685 81.274L57.0483 75.9367C57.4035 75.69 57.5991 75.3655 57.5991 75.0241C57.5991 74.6827 57.4035 74.3586 57.0483 74.1115L49.3683 68.7742C48.9877 68.5096 48.4876 68.3771 47.9877 68.3771Z" fill="url(#paint70_linear_17_1141)"/>
<path opacity="0.4" d="M57.9767 72.9755V69.8098L57.4954 69.4875C57.3595 70.476 56.393 71.1273 55.5849 71.2628L50.0817 75.1366L47.6801 76.1807L40.0141 71.4185L40.1912 71.2954C39.5361 70.9271 39.1832 70.0844 38.8288 69.3154L38.3126 69.6858L38.0059 69.7896V73.009C38.0059 73.4194 38.2307 73.83 38.6803 74.1424L46.3603 79.48C47.2596 80.105 48.7228 80.105 49.6218 79.48L57.3015 74.1424C57.7439 73.8348 57.9684 73.4327 57.9757 73.029C57.976 73.0108 57.9755 72.993 57.9747 72.9749L57.9767 72.9755Z" fill="url(#paint71_linear_17_1141)"/>
<path d="M57.9806 70.1615V68.0669L57.4993 67.7446C57.3634 68.7331 56.3969 69.3844 55.5888 69.5199L50.0856 73.3937L47.684 74.4378L40.0181 69.6756L40.1951 69.5525C39.54 69.1842 39.1871 68.3412 38.8327 67.5725L38.3165 67.9429L38.0098 68.0466V70.1948C38.0098 70.6051 38.2346 71.0157 38.6842 71.3281L46.3642 76.6657C47.2635 77.2908 48.7267 77.2908 49.6257 76.6657L57.3054 71.3281C57.7478 71.0206 57.9723 70.6184 57.9796 70.2147C57.9799 70.1966 57.9794 70.1787 57.9786 70.1606L57.9806 70.1615Z" fill="url(#paint72_linear_17_1141)"/>
<path opacity="0.3" d="M55.5897 69.5197L50.0865 73.3936L47.9961 74.3022V77.1343C48.5866 77.1343 49.1775 76.978 49.6271 76.6656L57.3068 71.328C57.7492 71.0205 57.9737 70.6183 57.981 70.2146C57.9813 70.1965 57.9808 70.1786 57.98 70.1605L57.981 70.1611V68.0665L57.5412 67.772H57.4952C57.3455 68.745 56.3902 69.3858 55.5897 69.5197Z" fill="url(#paint73_linear_17_1141)"/>
<path d="M40.1945 69.5525L47.4723 64.4945C47.7602 64.2943 48.2287 64.2943 48.5168 64.4945L55.6673 69.4642L55.5879 69.5201C56.396 69.3846 57.3626 68.7333 57.4985 67.7448L49.4733 62.3721L47.1385 61.6292L45.2372 62.9744L38.832 67.5728C39.1865 68.3411 39.5394 69.1842 40.1945 69.5525Z" fill="url(#paint74_linear_17_1141)"/>
<path opacity="0.3" d="M47.9946 61.9014L47.1385 61.6289L45.2372 62.9742L38.832 67.5725C39.1865 68.3412 39.5394 69.1842 40.1945 69.5525L47.4723 64.4946C47.6163 64.3945 47.8054 64.3446 47.9946 64.3446V61.9014Z" fill="url(#paint75_linear_17_1141)"/>
<path d="M46.3662 74.538L38.6862 69.2003C37.7869 68.5753 37.7869 67.5584 38.6862 66.9334L46.3659 61.5957C47.2652 60.9707 48.7281 60.9707 49.6274 61.5957L57.3074 66.9334C58.2067 67.5584 58.2067 68.5753 57.3074 69.2L49.6277 74.5377C48.7284 75.163 47.2652 75.163 46.3662 74.538ZM48.5189 62.3665C48.231 62.1663 47.7625 62.1663 47.4744 62.3665L39.7947 67.7041C39.5068 67.9043 39.5068 68.23 39.7947 68.4299L47.4747 73.7675C47.7625 73.9677 48.231 73.9677 48.5191 73.7675L56.1989 68.4299C56.4867 68.2297 56.4867 67.9043 56.1989 67.7041L48.5189 62.3665Z" fill="url(#paint76_linear_17_1141)"/>
<path d="M56.1996 67.7038L48.5196 62.3662C48.2317 62.166 47.7633 62.166 47.4751 62.3662L39.7954 67.7038C39.6032 67.8372 39.5402 68.0265 39.6043 68.1973C39.6364 68.1121 39.6995 68.0316 39.7954 67.9648L47.4751 62.6272C47.763 62.427 48.2315 62.427 48.5196 62.6272L56.1996 67.9648C56.2955 68.0313 56.3586 68.1121 56.3907 68.1973C56.4548 68.0265 56.3918 67.8372 56.1996 67.7038Z" fill="url(#paint77_linear_17_1141)"/>
<path d="M57.3069 69.1998L49.6272 74.5374C48.7279 75.1625 47.2647 75.1625 46.3657 74.5374L38.6857 69.1998C38.2838 68.9204 38.062 68.5627 38.0193 68.1968C37.9666 68.6494 38.1884 69.1151 38.6857 69.4607L46.3657 74.7984C47.265 75.4234 48.7282 75.4234 49.6272 74.7984L57.3069 69.4607C57.8043 69.1151 58.0258 68.6497 57.9731 68.1968C57.9306 68.563 57.7088 68.9207 57.3069 69.1998Z" fill="url(#paint78_linear_17_1141)"/>
<path d="M46.5812 74.387L38.9012 69.0494C38.1215 68.5075 38.1215 67.6258 38.9012 67.0839L46.5809 61.7462C47.3606 61.2044 48.6291 61.2044 49.4086 61.7462L57.0886 67.0839C57.8683 67.6258 57.8683 68.5075 57.0886 69.0491L49.4088 74.3864C48.6294 74.9289 47.3609 74.9289 46.5812 74.387ZM48.7339 62.2155C48.3265 61.9322 47.6633 61.9322 47.2559 62.2155L39.5761 67.5529C39.1687 67.8362 39.1687 68.2971 39.5761 68.5804L47.2561 73.918C47.6636 74.2014 48.3267 74.2014 48.7344 73.918L56.4141 68.5804C56.8216 68.2971 56.8216 67.8362 56.4141 67.5532L48.7339 62.2155Z" fill="url(#paint79_linear_17_1141)"/>
<path opacity="0.4" d="M48.5163 62.3662C48.2284 62.166 47.7599 62.166 47.4718 62.3662L39.7921 67.7038C39.5042 67.904 39.5042 68.2297 39.7921 68.4296L47.4721 73.7672C47.7599 73.9674 48.2284 73.9674 48.5165 73.7672L56.1963 68.4296C56.4841 68.2294 56.4841 67.904 56.1963 67.7038L48.5163 62.3662Z" fill="url(#paint80_linear_17_1141)"/>
<path opacity="0.5" d="M56.4055 68.0599V35.0869H39.5703L39.5713 68.0599C39.5686 68.1938 39.6396 68.3281 39.7863 68.43L47.4663 73.7676C47.7542 73.9678 48.2227 73.9678 48.5108 73.7676L56.1905 68.43C56.3372 68.3281 56.408 68.1938 56.4055 68.0599Z" fill="url(#paint81_linear_17_1141)"/>
<path d="M47.9882 71.8132C47.464 71.8132 46.9398 71.6744 46.5406 71.3972L38.8606 66.0595C38.4617 65.7822 38.2422 65.4085 38.2422 65.0066C38.2422 64.605 38.4617 64.2313 38.8606 63.9537L46.5404 58.6164C47.3386 58.0618 48.6373 58.0618 49.4354 58.6164L57.1153 63.954C57.514 64.231 57.7338 64.6047 57.7338 65.0066C57.7338 65.4085 57.5142 65.7822 57.1153 66.0595L49.4356 71.3969C49.0365 71.6744 48.5125 71.8132 47.9882 71.8132ZM47.988 58.3596C47.4881 58.3596 46.9882 58.4921 46.6077 58.7567L38.9279 64.094C38.5728 64.3408 38.3771 64.6649 38.3771 65.0063C38.3771 65.348 38.5728 65.6718 38.9279 65.9186L46.6079 71.2562C47.3688 71.7854 48.6077 71.7854 49.3685 71.2562L57.0483 65.9189C57.4037 65.6721 57.5991 65.3477 57.5991 65.0063C57.5991 64.6649 57.4035 64.3408 57.0483 64.094L49.3683 58.7564C48.9877 58.4921 48.4879 58.3596 47.988 58.3596Z" fill="url(#paint82_linear_17_1141)"/>
<path opacity="0.4" d="M57.9767 62.9578V59.7918L57.4954 59.4695C57.3595 60.458 56.393 61.1093 55.5849 61.2448L50.0817 65.1186L47.6801 66.1624L40.0141 61.4002L40.1912 61.2771C39.5361 60.9088 39.1832 60.0661 38.8288 59.2971L38.3126 59.6675L38.0059 59.7713V62.9907C38.0059 63.401 38.2307 63.8117 38.6803 64.124L46.3603 69.4617C47.2596 70.0867 48.7228 70.0867 49.6218 69.4617L57.3015 64.1243C57.7439 63.8168 57.9684 63.4147 57.9757 63.011C57.976 62.9928 57.9755 62.975 57.9747 62.9568L57.9767 62.9578Z" fill="url(#paint83_linear_17_1141)"/>
<path d="M57.9806 60.1437V58.0491L57.4993 57.7268C57.3634 58.7153 56.3969 59.3666 55.5888 59.5021L50.0856 63.3759L47.684 64.4197L40.0181 59.6575L40.1951 59.5344C39.54 59.1661 39.1871 58.3234 38.8327 57.5544L38.3165 57.9249L38.0098 58.0286V60.1767C38.0098 60.587 38.2346 60.9977 38.6842 61.31L46.3642 66.6477C47.2635 67.2727 48.7267 67.2727 49.6257 66.6477L57.3054 61.31C57.7478 61.0025 57.9723 60.6003 57.9796 60.1967C57.9799 60.1785 57.9794 60.1607 57.9786 60.1425L57.9806 60.1437Z" fill="url(#paint84_linear_17_1141)"/>
<path opacity="0.3" d="M55.5897 59.5022L50.0865 63.376L47.9961 64.2846V67.1168C48.5866 67.1168 49.1775 66.9604 49.6271 66.6481L57.3068 61.3104C57.7492 61.0029 57.9737 60.6007 57.981 60.197C57.9813 60.1789 57.9808 60.1611 57.98 60.1429L57.981 60.1435V58.0489L57.5412 57.7544H57.4952C57.3455 58.7275 56.3902 59.3679 55.5897 59.5022Z" fill="url(#paint85_linear_17_1141)"/>
<path d="M40.1945 59.5345L47.4723 54.4766C47.7602 54.2764 48.2287 54.2764 48.5168 54.4766L55.6673 59.4462L55.5879 59.5019C56.396 59.3664 57.3626 58.7151 57.4985 57.7266L49.4733 52.3535L47.1385 51.6106L45.2372 52.9559L38.832 57.5542C39.1865 58.3235 39.5394 59.1662 40.1945 59.5345Z" fill="url(#paint86_linear_17_1141)"/>
<path opacity="0.3" d="M47.9946 51.8835L47.1385 51.6111L45.2372 52.9564L38.832 57.5547C39.1865 58.3237 39.5394 59.1664 40.1945 59.5347L47.4723 54.4768C47.6163 54.3767 47.8054 54.3268 47.9946 54.3268V51.8835Z" fill="url(#paint87_linear_17_1141)"/>
<path d="M46.3662 64.5201L38.6862 59.1824C37.7869 58.5574 37.7869 57.5405 38.6862 56.9155L46.3659 51.5781C47.2652 50.9531 48.7281 50.9531 49.6274 51.5781L57.3074 56.9158C58.2067 57.5408 58.2067 58.5577 57.3074 59.1824L49.6277 64.5198C48.7284 65.1451 47.2652 65.1451 46.3662 64.5201ZM48.5189 52.3486C48.231 52.1484 47.7625 52.1484 47.4744 52.3486L39.7947 57.6863C39.5068 57.8864 39.5068 58.2121 39.7947 58.412L47.4747 63.7496C47.7625 63.9498 48.231 63.9498 48.5191 63.7496L56.1989 58.412C56.4867 58.2118 56.4867 57.8864 56.1989 57.6863L48.5189 52.3486Z" fill="url(#paint88_linear_17_1141)"/>
<path d="M56.1996 57.6863L48.5196 52.3486C48.2317 52.1484 47.7633 52.1484 47.4751 52.3486L39.7954 57.6863C39.6032 57.8196 39.5402 58.0089 39.6043 58.1798C39.6364 58.0945 39.6995 58.0141 39.7954 57.9472L47.4751 52.6096C47.763 52.4094 48.2315 52.4094 48.5196 52.6096L56.1996 57.9472C56.2955 58.0137 56.3586 58.0945 56.3907 58.1798C56.4548 58.0092 56.3918 57.8199 56.1996 57.6863Z" fill="url(#paint89_linear_17_1141)"/>
<path d="M57.3069 59.183L49.6272 64.5203C48.7279 65.1454 47.2647 65.1454 46.3657 64.5203L38.6857 59.1827C38.2838 58.9033 38.062 58.5456 38.0193 58.1797C37.9666 58.6324 38.1884 59.098 38.6857 59.4436L46.3657 64.7813C47.265 65.4063 48.7282 65.4063 49.6272 64.7813L57.3069 59.4436C57.8043 59.098 58.0258 58.6327 57.9731 58.1797C57.9306 58.5459 57.7088 58.9036 57.3069 59.183Z" fill="url(#paint90_linear_17_1141)"/>
<path d="M46.5812 64.3696L38.9012 59.032C38.1215 58.4901 38.1215 57.6084 38.9012 57.0668L46.5809 51.7292C47.3606 51.1873 48.6291 51.1873 49.4086 51.7292L57.0886 57.0668C57.8683 57.6087 57.8683 58.4904 57.0886 59.032L49.4088 64.3696C48.6294 64.9115 47.3609 64.9115 46.5812 64.3696ZM48.7339 52.1982C48.3265 51.9148 47.6633 51.9148 47.2559 52.1982L39.5761 57.5358C39.1687 57.8191 39.1687 58.28 39.5761 58.5633L47.2561 63.9009C47.6636 64.1843 48.3267 64.1843 48.7344 63.9009L56.4141 58.5633C56.8216 58.28 56.8216 57.8191 56.4141 57.5361L48.7339 52.1982Z" fill="url(#paint91_linear_17_1141)"/>
<path opacity="0.4" d="M48.5163 52.3486C48.2284 52.1484 47.7599 52.1484 47.4718 52.3486L39.7921 57.6863C39.5042 57.8864 39.5042 58.2121 39.7921 58.412L47.4721 63.7496C47.7599 63.9498 48.2284 63.9498 48.5165 63.7496L56.1963 58.412C56.4841 58.2118 56.4841 57.8864 56.1963 57.6863L48.5163 52.3486Z" fill="url(#paint92_linear_17_1141)"/>
<path d="M47.9882 61.7946C47.464 61.7946 46.9398 61.6558 46.5406 61.3785L38.8606 56.0412C38.4617 55.7639 38.2422 55.3902 38.2422 54.9883C38.2422 54.5864 38.4617 54.2127 38.8606 53.9354L46.5404 48.5981C47.3386 48.0435 48.6373 48.0435 49.4354 48.5981L57.1153 53.9357C57.5142 54.213 57.7338 54.5867 57.7338 54.9886C57.7338 55.3902 57.5142 55.7639 57.1153 56.0412L49.4356 61.3785C49.0365 61.6558 48.5125 61.7946 47.9882 61.7946ZM47.988 48.3413C47.4881 48.3413 46.9882 48.4738 46.6077 48.7384L38.9279 54.0757C38.5728 54.3225 38.3771 54.6469 38.3771 54.9883C38.3771 55.3297 38.5728 55.6538 38.9279 55.9009L46.6079 61.2382C47.3688 61.7674 48.6077 61.7674 49.3685 61.2382L57.0483 55.9009C57.4035 55.6541 57.5991 55.33 57.5991 54.9886C57.5991 54.6469 57.4035 54.3231 57.0483 54.076L49.3683 48.7384C48.9877 48.4735 48.4879 48.3413 47.988 48.3413Z" fill="url(#paint93_linear_17_1141)"/>
<path opacity="0.4" d="M57.9767 52.939V49.773L57.4954 49.4507C57.3595 50.4392 56.393 51.0905 55.5849 51.226L50.0817 55.0998L47.6801 56.1436L40.0141 51.3814L40.1912 51.2583C39.5361 50.89 39.1832 50.0473 38.8288 49.2783L38.3126 49.6487L38.0059 49.7525V52.9719C38.0059 53.3822 38.2307 53.7929 38.6803 54.1052L46.3603 59.4429C47.2596 60.0679 48.7228 60.0679 49.6218 59.4429L57.3015 54.1052C57.7439 53.7977 57.9684 53.3956 57.9757 52.9919C57.976 52.9737 57.9755 52.9559 57.9747 52.9378L57.9767 52.939Z" fill="url(#paint94_linear_17_1141)"/>
<path d="M57.9806 50.1254V48.0308L57.4993 47.7085C57.3634 48.697 56.3969 49.3483 55.5888 49.4838L50.0856 53.3576L47.684 54.4014L40.0181 49.6392L40.1951 49.5161C39.54 49.1478 39.1871 48.3051 38.8327 47.5361L38.3165 47.9066L38.0098 48.0103V50.1584C38.0098 50.5687 38.2346 50.9794 38.6842 51.2917L46.3642 56.6294C47.2635 57.2544 48.7267 57.2544 49.6257 56.6294L57.3054 51.2917C57.7478 50.9842 57.9723 50.582 57.9796 50.1784C57.9799 50.1602 57.9794 50.1424 57.9786 50.1242L57.9806 50.1254Z" fill="url(#paint95_linear_17_1141)"/>
<path opacity="0.3" d="M55.5897 49.4839L50.0865 53.3577L47.9961 54.2663V57.0984C48.5866 57.0984 49.1775 56.9421 49.6271 56.6297L57.3068 51.2921C57.7492 50.9846 57.9737 50.5824 57.981 50.1787C57.9813 50.1606 57.9808 50.1427 57.98 50.1246L57.981 50.1252V48.0306L57.5412 47.7361H57.4952C57.3455 48.7091 56.3902 49.3499 55.5897 49.4839Z" fill="url(#paint96_linear_17_1141)"/>
<path d="M40.1945 49.5162L47.4723 44.4582C47.7602 44.258 48.2287 44.258 48.5168 44.4582L55.6673 49.4279L55.5879 49.4838C56.396 49.3483 57.3626 48.697 57.4985 47.7085L49.4733 42.3355L47.1385 41.5925L45.2372 42.9375L38.832 47.5359C39.1865 48.3048 39.5394 49.1479 40.1945 49.5162Z" fill="url(#paint97_linear_17_1141)"/>
<path opacity="0.3" d="M47.9946 41.865L47.1385 41.5925L45.2372 42.9375L38.832 47.5359C39.1865 48.3045 39.5394 49.1475 40.1945 49.5159L47.4723 44.4579C47.6163 44.3578 47.8054 44.3079 47.9946 44.3079V41.865Z" fill="url(#paint98_linear_17_1141)"/>
<path d="M46.3662 54.5016L38.6862 49.164C37.7869 48.5389 37.7869 47.522 38.6862 46.897L46.3659 41.5593C47.2652 40.9343 48.7281 40.9343 49.6274 41.5593L57.3074 46.897C58.2067 47.522 58.2067 48.5389 57.3074 49.1637L49.6277 54.5013C48.7284 55.1266 47.2652 55.1266 46.3662 54.5016ZM48.5189 42.3301C48.231 42.1299 47.7625 42.1299 47.4744 42.3301L39.7947 47.6678C39.5068 47.8679 39.5068 48.1936 39.7947 48.3935L47.4747 53.7311C47.7625 53.9313 48.231 53.9313 48.5191 53.7311L56.1989 48.3935C56.4867 48.1933 56.4867 47.8679 56.1989 47.6678L48.5189 42.3301Z" fill="url(#paint99_linear_17_1141)"/>
<path d="M56.1996 47.6675L48.5196 42.3298C48.2317 42.1296 47.7633 42.1296 47.4751 42.3298L39.7954 47.6675C39.6032 47.8008 39.5402 47.9901 39.6043 48.161C39.6364 48.0757 39.6995 47.9953 39.7954 47.9284L47.4751 42.5908C47.763 42.3906 48.2315 42.3906 48.5196 42.5908L56.1996 47.9284C56.2955 47.9949 56.3586 48.0757 56.3907 48.161C56.4548 47.9901 56.3918 47.8008 56.1996 47.6675Z" fill="url(#paint100_linear_17_1141)"/>
<path d="M57.3069 49.1634L49.6272 54.5011C48.7279 55.1261 47.2647 55.1261 46.3657 54.5011L38.6857 49.1634C38.2838 48.884 38.062 48.5263 38.0193 48.1604C37.9666 48.6131 38.1884 49.0787 38.6857 49.4244L46.3657 54.762C47.265 55.387 48.7282 55.387 49.6272 54.762L57.3069 49.4244C57.8043 49.0787 58.0258 48.6134 57.9731 48.1604C57.9306 48.5266 57.7088 48.8843 57.3069 49.1634Z" fill="url(#paint101_linear_17_1141)"/>
<path d="M46.5812 54.3508L38.9012 49.0132C38.1215 48.4713 38.1215 47.5896 38.9012 47.0477L46.5809 41.7104C47.3606 41.1685 48.6291 41.1685 49.4086 41.7104L57.0886 47.048C57.8683 47.5899 57.8683 48.4716 57.0886 49.0132L49.4088 54.3508C48.6294 54.8927 47.3609 54.8927 46.5812 54.3508ZM48.7339 42.1793C48.3265 41.896 47.6633 41.896 47.2559 42.1793L39.5761 47.517C39.1687 47.8003 39.1687 48.2612 39.5761 48.5445L47.2561 53.8821C47.6636 54.1655 48.3267 54.1655 48.7344 53.8821L56.4141 48.5448C56.8216 48.2615 56.8216 47.8006 56.4141 47.5176L48.7339 42.1793Z" fill="url(#paint102_linear_17_1141)"/>
<path opacity="0.4" d="M48.5163 42.3298C48.2284 42.1296 47.7599 42.1296 47.4718 42.3298L39.7921 47.6675C39.5042 47.8676 39.5042 48.1933 39.7921 48.3932L47.4721 53.7308C47.7599 53.931 48.2284 53.931 48.5165 53.7308L56.1963 48.3932C56.4841 48.193 56.4841 47.8676 56.1963 47.6675L48.5163 42.3298Z" fill="url(#paint103_linear_17_1141)"/>
<path opacity="0.5" d="M57.3841 48.0235V15.0505H40.5488L40.5498 48.0235C40.5471 48.1575 40.6182 48.2917 40.7649 48.3936L48.4448 53.7313C48.7327 53.9314 49.2012 53.9314 49.4893 53.7313L57.169 48.3936C57.3157 48.2917 57.3866 48.1575 57.3841 48.0235Z" fill="url(#paint104_linear_17_1141)"/>
<path d="M34.3261 91.8213C33.8019 91.8213 33.2776 91.6828 32.8785 91.4055L25.1985 86.0679C24.7996 85.7906 24.5801 85.4168 24.5801 85.015C24.5801 84.6134 24.7996 84.2397 25.1985 83.9624L32.8782 78.625C33.6765 78.0708 34.975 78.0705 35.773 78.625L43.4532 83.9627C43.8521 84.24 44.0717 84.6137 44.0717 85.0159C44.0717 85.4174 43.8521 85.7912 43.4532 86.0685L35.7735 91.4058C35.3746 91.6831 34.8504 91.8213 34.3261 91.8213ZM34.3256 78.3683C33.826 78.3683 33.3261 78.5008 32.9456 78.7653L25.2658 84.1027C24.9107 84.3494 24.715 84.6736 24.715 85.015C24.715 85.3567 24.9107 85.6805 25.2658 85.9276L32.9458 91.2652C33.7067 91.7944 34.9451 91.7944 35.7064 91.2652L43.3862 85.9279C43.7414 85.6811 43.937 85.357 43.937 85.0156C43.937 84.6739 43.7414 84.35 43.3862 84.103L35.7059 78.7653C35.3256 78.5008 34.8255 78.3683 34.3256 78.3683Z" fill="url(#paint105_linear_17_1141)"/>
<path opacity="0.4" d="M44.3088 82.9668V79.8009L43.8275 79.4785C43.6916 80.467 42.725 81.1183 41.9169 81.2538L36.4138 85.1276L34.0121 86.1714L26.3462 81.4092L26.5233 81.2862C25.8682 80.9179 25.5152 80.0751 25.1608 79.3062L24.6446 79.6766L24.3379 79.7803V82.9997C24.3379 83.4101 24.5627 83.8207 25.0124 84.1331L32.6923 89.4707C33.5916 90.0958 35.0546 90.0958 35.9538 89.4707L43.6336 84.1334C44.0759 83.8259 44.3005 83.4237 44.3078 83.02C44.308 83.0019 44.3075 82.984 44.3067 82.9659L44.3088 82.9668Z" fill="url(#paint106_linear_17_1141)"/>
<path d="M44.3049 80.1522V78.0576L43.8236 77.7353C43.6877 78.7238 42.7211 79.3751 41.913 79.5106L36.4099 83.3844L34.0082 84.4285L26.3423 79.6663L26.5194 79.5432C25.8643 79.1749 25.5113 78.3322 25.1569 77.5632L24.6407 77.9336L24.334 78.0374V80.1855C24.334 80.5958 24.5588 81.0065 25.0084 81.3188L32.6884 86.6565C33.5877 87.2815 35.0506 87.2815 35.9499 86.6565L43.6296 81.3191C44.072 81.0116 44.2966 80.6094 44.3038 80.2057C44.3041 80.1876 44.3036 80.1698 44.3028 80.1516L44.3049 80.1522Z" fill="url(#paint107_linear_17_1141)"/>
<path opacity="0.3" d="M41.9119 79.5111L36.4088 83.385L34.3184 84.2936V87.1257C34.9089 87.1257 35.4997 86.9694 35.9494 86.657L43.6291 81.3197C44.0714 81.0122 44.296 80.61 44.3033 80.2063C44.3035 80.1882 44.303 80.1703 44.3023 80.1522L44.3033 80.1528V78.0582L43.8635 77.7637H43.8175C43.6678 78.7364 42.7125 79.3769 41.9119 79.5111Z" fill="url(#paint108_linear_17_1141)"/>
<path d="M26.5204 79.5434L33.7982 74.4855C34.0861 74.2853 34.5546 74.2853 34.8427 74.4855L41.9932 79.4551L41.9138 79.5111C42.7219 79.3756 43.6885 78.7243 43.8244 77.7358L35.7993 72.3631L33.4644 71.6201L31.5631 72.9654L25.1582 77.5637C25.5124 78.3324 25.8653 79.1751 26.5204 79.5434Z" fill="url(#paint109_linear_17_1141)"/>
<path opacity="0.3" d="M34.3205 71.8921L33.4644 71.6196L31.5631 72.9649L25.1582 77.5633C25.5126 78.3319 25.8656 79.1749 26.5207 79.5432L33.7985 74.4853C33.9424 74.3852 34.1316 74.3353 34.3207 74.3353V71.8921H34.3205Z" fill="url(#paint110_linear_17_1141)"/>
<path d="M32.6865 84.5287L25.0065 79.191C24.1072 78.566 24.1072 77.5491 25.0065 76.9241L32.6862 71.5864C33.5855 70.9614 35.0484 70.9614 35.9477 71.5864L43.6277 76.9241C44.527 77.5491 44.527 78.566 43.6277 79.1908L35.948 84.5284C35.0487 85.1537 33.5855 85.1537 32.6865 84.5287ZM34.8392 72.3572C34.5513 72.157 34.0828 72.157 33.7947 72.3572L26.115 77.6949C25.8271 77.895 25.8271 78.2207 26.115 78.4206L33.795 83.7582C34.0829 83.9584 34.5513 83.9584 34.8394 83.7582L42.5192 78.4206C42.807 78.2204 42.807 77.895 42.5192 77.6949L34.8392 72.3572Z" fill="url(#paint111_linear_17_1141)"/>
<path d="M42.5199 77.6953L34.8399 72.3577C34.552 72.1575 34.0836 72.1575 33.7955 72.3577L26.1157 77.6953C25.9236 77.8287 25.8605 78.0179 25.9246 78.1888C25.9567 78.1035 26.0198 78.0231 26.1157 77.9563L33.7955 72.6186C34.0833 72.4184 34.5518 72.4184 34.8399 72.6186L42.5199 77.9563C42.6159 78.0228 42.6789 78.1035 42.7111 78.1888C42.7751 78.0182 42.7121 77.829 42.5199 77.6953Z" fill="url(#paint112_linear_17_1141)"/>
<path d="M43.6273 79.1917L35.9475 84.5294C35.0483 85.1544 33.5851 85.1544 32.686 84.5294L25.0061 79.1917C24.6041 78.9123 24.3823 78.5546 24.3396 78.1887C24.2869 78.6414 24.5087 79.1071 25.0061 79.4527L32.686 84.7903C33.5853 85.4154 35.0483 85.4154 35.9475 84.7903L43.6273 79.4527C44.1246 79.1071 44.3462 78.6417 44.2934 78.1887C44.251 78.5546 44.0292 78.9123 43.6273 79.1917Z" fill="url(#paint113_linear_17_1141)"/>
<path d="M32.9093 84.378L25.2293 79.0403C24.4496 78.4985 24.4496 77.6167 25.2293 77.0749L32.909 71.7372C33.6887 71.1953 34.9573 71.1953 35.7367 71.7372L43.4167 77.0749C44.1964 77.6167 44.1964 78.4985 43.4167 79.04L35.737 84.3774C34.9575 84.9199 33.689 84.9199 32.9093 84.378ZM35.062 72.2065C34.6546 71.9232 33.9914 71.9232 33.5837 72.2065L25.904 77.5439C25.4966 77.8272 25.4966 78.288 25.904 78.5714L33.584 83.909C33.9914 84.1923 34.6546 84.1923 35.0623 83.909L42.742 78.5714C43.1494 78.288 43.1494 77.8272 42.742 77.5442L35.062 72.2065Z" fill="url(#paint114_linear_17_1141)"/>
<path opacity="0.4" d="M34.8444 72.3577C34.5565 72.1575 34.088 72.1575 33.7999 72.3577L26.1202 77.6953C25.8323 77.8955 25.8323 78.2211 26.1202 78.421L33.8002 83.7587C34.088 83.9588 34.5565 83.9588 34.8446 83.7587L42.5244 78.421C42.8122 78.2208 42.8122 77.8955 42.5244 77.6953L34.8444 72.3577Z" fill="url(#paint115_linear_17_1141)"/>
<path opacity="0.5" d="M42.7454 78.0509V45.0776H25.9102L25.9112 78.0506C25.9084 78.1846 25.9795 78.3188 26.1262 78.4207L33.8062 83.7584C34.094 83.9585 34.5625 83.9585 34.8506 83.7584L42.5304 78.4207C42.677 78.3191 42.7479 78.1846 42.7454 78.0509Z" fill="url(#paint116_linear_17_1141)"/>
<path d="M34.3261 81.8028C33.8019 81.8028 33.2776 81.6643 32.8785 81.387L25.1985 76.0497C24.7996 75.7724 24.5801 75.3987 24.5801 74.9968C24.5801 74.5949 24.7996 74.2209 25.1985 73.9436L32.8782 68.6062C33.6765 68.052 34.975 68.0517 35.773 68.6062L43.4532 73.9439C43.8521 74.2212 44.0717 74.5949 44.0717 74.9968C44.0717 75.3984 43.8521 75.7724 43.4532 76.0497L35.7735 81.387C35.3746 81.6643 34.8504 81.8028 34.3261 81.8028ZM34.3256 68.3495C33.826 68.3495 33.3261 68.482 32.9456 68.7465L25.2658 74.0839C24.9107 74.3306 24.715 74.6551 24.715 74.9965C24.715 75.3379 24.9107 75.662 25.2658 75.9088L32.9458 81.2461C33.7067 81.7753 34.9451 81.7753 35.7064 81.2461L43.3862 75.9088C43.7414 75.662 43.937 75.3379 43.937 74.9965C43.937 74.6548 43.7414 74.3309 43.3862 74.0842L35.7059 68.7465C35.3256 68.482 34.8255 68.3495 34.3256 68.3495Z" fill="url(#paint117_linear_17_1141)"/>
<path opacity="0.4" d="M44.3088 72.9477V69.7818L43.8275 69.4595C43.6916 70.448 42.725 71.0993 41.9169 71.2348L36.4138 75.1086L34.0121 76.1524L26.3462 71.3902L26.5233 71.2671C25.8682 70.8988 25.5152 70.0561 25.1608 69.2871L24.6446 69.6575L24.3379 69.7612V72.9807C24.3379 73.391 24.5627 73.8017 25.0124 74.114L32.6923 79.4517C33.5916 80.0767 35.0546 80.0767 35.9538 79.4517L43.6336 74.1143C44.0759 73.8068 44.3005 73.4046 44.3078 73.001C44.308 72.9828 44.3075 72.965 44.3067 72.9468L44.3088 72.9477Z" fill="url(#paint118_linear_17_1141)"/>
<path d="M44.3049 70.1337V68.0391L43.8236 67.7168C43.6877 68.7053 42.7211 69.3566 41.913 69.4921L36.4099 73.3659L34.0082 74.4097L26.3423 69.6475L26.5194 69.5244C25.8643 69.1561 25.5113 68.3134 25.1569 67.5444L24.6407 67.9148L24.334 68.0186V70.1667C24.334 70.577 24.5588 70.9877 25.0084 71.3L32.6884 76.6377C33.5877 77.2627 35.0506 77.2627 35.9499 76.6377L43.6296 71.3C44.072 70.9925 44.2966 70.5903 44.3038 70.1866C44.3041 70.1685 44.3036 70.1507 44.3028 70.1325L44.3049 70.1337Z" fill="url(#paint119_linear_17_1141)"/>
<path opacity="0.3" d="M41.9119 69.4922L36.4088 73.366L34.3184 74.2746V77.1067C34.9089 77.1067 35.4997 76.9504 35.9494 76.6381L43.6291 71.3004C44.0714 70.9929 44.296 70.5907 44.3033 70.187C44.3035 70.1689 44.303 70.151 44.3023 70.1329L44.3033 70.1335V68.0389L43.8635 67.7444H43.8175C43.6678 68.7175 42.7125 69.3582 41.9119 69.4922Z" fill="url(#paint120_linear_17_1141)"/>
<path d="M26.5204 69.5249L33.7982 64.467C34.0861 64.2668 34.5546 64.2668 34.8427 64.467L41.9932 69.4366L41.9138 69.4923C42.7219 69.3568 43.6885 68.7055 43.8244 67.717L35.7993 62.3443L33.4644 61.6013L31.5631 62.9466L25.1582 67.5449C25.5124 68.3136 25.8653 69.1566 26.5204 69.5249Z" fill="url(#paint121_linear_17_1141)"/>
<path opacity="0.3" d="M34.3205 61.8738L33.4644 61.6013L31.5631 62.9466L25.1582 67.5449C25.5126 68.3139 25.8656 69.1566 26.5207 69.5249L33.7985 64.467C33.9424 64.3669 34.1316 64.317 34.3207 64.317V61.8738H34.3205Z" fill="url(#paint122_linear_17_1141)"/>
<path d="M32.6865 74.5101L25.0065 69.1724C24.1072 68.5474 24.1072 67.5305 25.0065 66.9055L32.6862 61.5681C33.5855 60.9431 35.0484 60.9431 35.9477 61.5681L43.6277 66.9058C44.527 67.5308 44.527 68.5477 43.6277 69.1724L35.948 74.5101C35.0487 75.1351 33.5855 75.1348 32.6865 74.5101ZM34.8392 62.3386C34.5513 62.1384 34.0828 62.1384 33.7947 62.3386L26.115 67.6763C25.8271 67.8764 25.8271 68.2021 26.115 68.402L33.795 73.7396C34.0829 73.9398 34.5513 73.9398 34.8394 73.7396L42.5192 68.4023C42.807 68.2021 42.807 67.8764 42.5192 67.6766L34.8392 62.3386Z" fill="url(#paint123_linear_17_1141)"/>
<path d="M42.5199 67.6763L34.8399 62.3386C34.552 62.1384 34.0836 62.1384 33.7955 62.3386L26.1157 67.6763C25.9236 67.8096 25.8605 67.9989 25.9246 68.1697C25.9567 68.0845 26.0198 68.004 26.1157 67.9372L33.7955 62.5996C34.0833 62.3994 34.5518 62.3994 34.8399 62.5996L42.5199 67.9372C42.6159 68.0037 42.6789 68.0845 42.7111 68.1697C42.7751 67.9989 42.7121 67.8096 42.5199 67.6763Z" fill="url(#paint124_linear_17_1141)"/>
<path d="M43.6273 69.1727L35.9475 74.5103C35.0483 75.1354 33.5851 75.1354 32.686 74.5103L25.0061 69.1727C24.6041 68.8933 24.3823 68.5356 24.3396 68.1697C24.2869 68.6223 24.5087 69.088 25.0061 69.4336L32.686 74.7713C33.5853 75.3963 35.0483 75.3963 35.9475 74.7713L43.6273 69.4336C44.1246 69.088 44.3462 68.6226 44.2934 68.1697C44.251 68.5359 44.0292 68.8933 43.6273 69.1727Z" fill="url(#paint125_linear_17_1141)"/>
<path d="M32.9093 74.3594L25.2293 69.0217C24.4496 68.4799 24.4496 67.5981 25.2293 67.0566L32.909 61.7189C33.6887 61.177 34.9573 61.177 35.7367 61.7189L43.4167 67.0566C44.1964 67.5984 44.1964 68.4802 43.4167 69.0217L35.737 74.3594C34.9575 74.9013 33.689 74.9013 32.9093 74.3594ZM35.062 62.1879C34.6546 61.9046 33.9914 61.9046 33.5837 62.1879L25.904 67.5255C25.4966 67.8089 25.4966 68.2697 25.904 68.553L33.584 73.8907C33.9914 74.174 34.6546 74.174 35.0623 73.8907L42.742 68.553C43.1494 68.2697 43.1494 67.8089 42.742 67.5259L35.062 62.1879Z" fill="url(#paint126_linear_17_1141)"/>
<path opacity="0.4" d="M34.8444 62.3386C34.5565 62.1384 34.088 62.1384 33.7999 62.3386L26.1202 67.6763C25.8323 67.8764 25.8323 68.2021 26.1202 68.402L33.8002 73.7396C34.088 73.9398 34.5565 73.9398 34.8446 73.7396L42.5244 68.4023C42.8122 68.2021 42.8122 67.8764 42.5244 67.6766L34.8444 62.3386Z" fill="url(#paint127_linear_17_1141)"/>
<path opacity="0.5" d="M42.7454 68.0321V35.0588H25.9102L25.9112 68.0318C25.9084 68.1658 25.9795 68.3 26.1262 68.4019L33.8062 73.7396C34.094 73.9397 34.5625 73.9397 34.8506 73.7396L42.5304 68.4022C42.677 68.3003 42.7479 68.1661 42.7454 68.0321Z" fill="url(#paint128_linear_17_1141)"/>
<path d="M34.3261 71.7844C33.8019 71.7844 33.2776 71.6459 32.8785 71.3686L25.1985 66.031C24.7996 65.7537 24.5801 65.3799 24.5801 64.9781C24.5801 64.5762 24.7996 64.2024 25.1985 63.9252L32.8782 58.5878C33.6765 58.0333 34.9755 58.0339 35.773 58.5878L43.4532 63.9255C43.8521 64.2028 44.0717 64.5765 44.0717 64.9784C44.0717 65.3802 43.8519 65.754 43.4532 66.031L35.7735 71.3686C35.3746 71.6459 34.8504 71.7844 34.3261 71.7844ZM32.9458 71.228C33.7072 71.7572 34.9456 71.7572 35.7064 71.228L43.3862 65.8903C43.7414 65.6439 43.937 65.3194 43.937 64.9781C43.937 64.6367 43.7416 64.3125 43.3862 64.0655L35.7059 58.7278C34.9448 58.1984 33.7062 58.1987 32.9456 58.7278L25.2658 64.0652C24.9107 64.3119 24.715 64.6364 24.715 64.9778C24.715 65.3191 24.9107 65.6433 25.2658 65.8903L32.9458 71.228Z" fill="url(#paint129_linear_17_1141)"/>
<path opacity="0.4" d="M44.3088 62.9294V59.7634L43.8275 59.4411C43.6916 60.4296 42.725 61.0809 41.9169 61.2164L36.4138 65.0902L34.0121 66.1343L26.3462 61.3721L26.5233 61.249C25.8682 60.8807 25.5152 60.038 25.1608 59.269L24.6446 59.6395L24.3379 59.7432V62.9626C24.3379 63.373 24.5627 63.7836 25.0124 64.096L32.6923 69.4336C33.5916 70.0586 35.0546 70.0586 35.9538 69.4336L43.6336 64.096C44.0759 63.7884 44.3005 63.3863 44.3078 62.9826C44.308 62.9645 44.3075 62.9466 44.3067 62.9285L44.3088 62.9294Z" fill="url(#paint130_linear_17_1141)"/>
<path d="M44.3049 60.1149V58.0203L43.8236 57.698C43.6877 58.6865 42.7211 59.3378 41.913 59.4733L36.4099 63.3471L34.0082 64.3909L26.3423 59.6287L26.5194 59.5056C25.8643 59.1373 25.5113 58.2946 25.1569 57.5256L24.6407 57.8961L24.334 57.9998V60.1479C24.334 60.5582 24.5588 60.9689 25.0084 61.2812L32.6884 66.6189C33.5877 67.2439 35.0506 67.2439 35.9499 66.6189L43.6296 61.2812C44.072 60.9737 44.2966 60.5715 44.3038 60.1679C44.3041 60.1497 44.3036 60.1319 44.3028 60.1137L44.3049 60.1149Z" fill="url(#paint131_linear_17_1141)"/>
<path opacity="0.3" d="M41.9119 59.4738L36.4088 63.3477L34.3184 64.2563V67.0884C34.9089 67.0884 35.4997 66.9321 35.9494 66.6197L43.6291 61.2821C44.0714 60.9746 44.296 60.5724 44.3033 60.1687C44.3035 60.1506 44.303 60.1327 44.3023 60.1146L44.3033 60.1152V58.0206L43.8635 57.7261H43.8175C43.6678 58.6991 42.7125 59.3396 41.9119 59.4738Z" fill="url(#paint132_linear_17_1141)"/>
<path d="M26.5204 59.5063L33.7982 54.4484C34.0861 54.2482 34.5546 54.2482 34.8427 54.4484L41.9932 59.418L41.9138 59.474C42.7219 59.3385 43.6885 58.6872 43.8244 57.6987L35.7993 52.326L33.4644 51.583L31.5631 52.928L25.1582 57.5263C25.5124 58.2953 25.8653 59.138 26.5204 59.5063Z" fill="url(#paint133_linear_17_1141)"/>
<path opacity="0.3" d="M34.3205 51.855L33.4644 51.5825L31.5631 52.9275L25.1582 57.5258C25.5126 58.2945 25.8656 59.1375 26.5207 59.5058L33.7985 54.4479C33.9424 54.3478 34.1316 54.2979 34.3207 54.2979V51.855H34.3205Z" fill="url(#paint134_linear_17_1141)"/>
<path d="M32.6865 64.4916L25.0065 59.1539C24.1072 58.5289 24.1072 57.512 25.0065 56.887L32.6862 51.5493C33.5855 50.9243 35.0484 50.9243 35.9477 51.5493L43.6277 56.887C44.527 57.512 44.527 58.5289 43.6277 59.1536L35.948 64.4913C35.0487 65.1166 33.5855 65.1166 32.6865 64.4916ZM34.8392 52.3201C34.5513 52.1199 34.0828 52.1199 33.7947 52.3201L26.115 57.6578C25.8271 57.8579 25.8271 58.1836 26.115 58.3835L33.795 63.7211C34.0829 63.9213 34.5513 63.9213 34.8394 63.7211L42.5192 58.3835C42.807 58.1833 42.807 57.8579 42.5192 57.6578L34.8392 52.3201Z" fill="url(#paint135_linear_17_1141)"/>
<path d="M42.5199 57.6575L34.8399 52.3198C34.552 52.1196 34.0836 52.1196 33.7955 52.3198L26.1157 57.6575C25.9236 57.7908 25.8605 57.9801 25.9246 58.151C25.9567 58.0657 26.0198 57.9852 26.1157 57.9184L33.7955 52.5808C34.0833 52.3806 34.5518 52.3806 34.8399 52.5808L42.5199 57.9184C42.6159 57.9849 42.6789 58.0657 42.7111 58.151C42.7751 57.9801 42.7121 57.7911 42.5199 57.6575Z" fill="url(#paint136_linear_17_1141)"/>
<path d="M43.6273 59.1539L35.9475 64.4915C35.0483 65.1166 33.5851 65.1166 32.686 64.4915L25.0061 59.1539C24.6041 58.8745 24.3823 58.5168 24.3396 58.1509C24.2869 58.6035 24.5087 59.0692 25.0061 59.4148L32.686 64.7525C33.5853 65.3775 35.0483 65.3775 35.9475 64.7525L43.6273 59.4148C44.1246 59.0692 44.3462 58.6038 44.2934 58.1509C44.251 58.5168 44.0292 58.8745 43.6273 59.1539Z" fill="url(#paint137_linear_17_1141)"/>
<path d="M32.9093 64.3408L25.2293 59.0032C24.4496 58.4613 24.4496 57.5796 25.2293 57.0377L32.909 51.7003C33.6887 51.1585 34.9573 51.1585 35.7367 51.7003L43.4167 57.038C44.1964 57.5799 44.1964 58.4616 43.4167 59.0032L35.737 64.3408C34.9575 64.8824 33.689 64.8824 32.9093 64.3408ZM35.062 52.1693C34.6546 51.886 33.9914 51.886 33.5837 52.1693L25.904 57.507C25.4966 57.7903 25.4966 58.2512 25.904 58.5345L33.584 63.8721C33.9914 64.1555 34.6546 64.1555 35.0623 63.8721L42.742 58.5348C43.1494 58.2515 43.1494 57.7906 42.742 57.5076L35.062 52.1693Z" fill="url(#paint138_linear_17_1141)"/>
<path opacity="0.4" d="M34.8444 52.3198C34.5565 52.1196 34.088 52.1196 33.7999 52.3198L26.1202 57.6575C25.8323 57.8576 25.8323 58.1833 26.1202 58.3832L33.8002 63.7208C34.088 63.921 34.5565 63.921 34.8446 63.7208L42.5244 58.3832C42.8122 58.183 42.8122 57.8576 42.5244 57.6575L34.8444 52.3198Z" fill="url(#paint139_linear_17_1141)"/>
<path opacity="0.5" d="M42.7454 58.0138V25.0405H25.9102L25.9112 58.0135C25.9084 58.1474 25.9795 58.2817 26.1262 58.3836L33.8062 63.7213C34.094 63.9214 34.5625 63.9214 34.8506 63.7213L42.5304 58.3836C42.677 58.2817 42.7479 58.1474 42.7454 58.0138Z" fill="url(#paint140_linear_17_1141)"/>
<path opacity="0.8" d="M12.7125 17.0798H12.5684V48.8699H12.7125V17.0798Z" fill="url(#paint141_linear_17_1141)"/>
<path opacity="0.8" d="M56.4 16.2407H56.2559V48.0308H56.4V16.2407Z" fill="url(#paint142_linear_17_1141)"/>
<path opacity="0.8" d="M42.7457 6.19019H42.6016V37.9802H42.7457V6.19019Z" fill="url(#paint143_linear_17_1141)"/>
<path opacity="0.8" d="M26.0582 6.19019H25.9141V37.9802H26.0582V6.19019Z" fill="url(#paint144_linear_17_1141)"/>
<path opacity="0.2" d="M32.5613 49.341L12.93 35.6972C11.9516 35.0172 12.0744 33.8294 13.2041 33.0444L32.2867 19.7819C33.4163 18.9967 35.1254 18.9114 36.1038 19.5914L55.7354 33.2352C56.7137 33.9153 56.5909 35.103 55.4613 35.888L36.3786 49.1505C35.2488 49.9358 33.5397 50.0211 32.5613 49.341Z" fill="url(#paint145_linear_17_1141)"/>
<path opacity="0.8" d="M34.2174 49.9479C33.5731 49.9479 32.957 49.791 32.4973 49.4716L12.866 35.8279C12.3998 35.504 12.1426 35.048 12.1426 34.5448C12.1426 33.9485 12.5061 33.3541 13.1401 32.9132L32.2227 19.6507C33.3855 18.8424 35.1539 18.7569 36.1654 19.4602L55.7967 33.104C56.2632 33.4281 56.5199 33.8838 56.5199 34.387C56.5199 34.9836 56.1567 35.5781 55.5227 36.0187L36.44 49.2811C35.8057 49.722 34.9911 49.9479 34.2174 49.9479ZM34.445 19.2815C33.7173 19.2815 32.9482 19.4956 32.3481 19.9123L13.2654 33.1748C12.7113 33.56 12.3935 34.0592 12.3935 34.5445C12.3935 34.9352 12.606 35.2978 12.9914 35.566L32.6226 49.2098C33.5648 49.8641 35.221 49.7792 36.3142 49.0193L55.3968 35.7568C55.9507 35.3719 56.2684 34.8723 56.2684 34.387C56.2684 33.9963 56.0562 33.6338 55.6709 33.3656L36.0396 19.7218C35.6146 19.4263 35.0439 19.2815 34.445 19.2815Z" fill="url(#paint146_linear_17_1141)"/>
<path opacity="0.8" d="M34.2174 49.9479C33.5731 49.9479 32.957 49.791 32.4973 49.4716L12.866 35.8279C12.3998 35.504 12.1426 35.048 12.1426 34.5448C12.1426 33.9485 12.5061 33.3541 13.1401 32.9132L32.2227 19.6507C33.3855 18.8424 35.1539 18.7569 36.1654 19.4602L55.7967 33.104C56.2632 33.4281 56.5199 33.8838 56.5199 34.387C56.5199 34.9836 56.1567 35.5781 55.5227 36.0187L36.44 49.2811C35.8057 49.722 34.9911 49.9479 34.2174 49.9479ZM34.445 19.2815C33.7173 19.2815 32.9482 19.4956 32.3481 19.9123L13.2654 33.1748C12.7113 33.56 12.3935 34.0592 12.3935 34.5445C12.3935 34.9352 12.606 35.2978 12.9914 35.566L32.6226 49.2098C33.5648 49.8641 35.221 49.7792 36.3142 49.0193L55.3968 35.7568C55.9507 35.3719 56.2684 34.8723 56.2684 34.387C56.2684 33.9963 56.0562 33.6338 55.6709 33.3656L36.0396 19.7218C35.6146 19.4263 35.0439 19.2815 34.445 19.2815Z" fill="url(#paint147_linear_17_1141)"/>
</g>
<defs>
<filter id="filter0_d_17_1141" x="0" y="0" width="68.9819" height="108.821" filterUnits="userSpaceOnUse" color-interpolation-filters="sRGB">
<feFlood flood-opacity="0" result="BackgroundImageFix"/>
<feColorMatrix in="SourceAlpha" type="matrix" values="0 0 0 0 0 0 0 0 0 0 0 0 0 0 0 0 0 0 127 0" result="hardAlpha"/>
<feOffset dy="6"/>
<feGaussianBlur stdDeviation="5.5"/>
<feComposite in2="hardAlpha" operator="out"/>
<feColorMatrix type="matrix" values="0 0 0 0 0 0 0 0 0 0 0 0 0 0 0 0 0 0 0.45 0"/>
<feBlend mode="normal" in2="BackgroundImageFix" result="effect1_dropShadow_17_1141"/>
<feBlend mode="normal" in="SourceGraphic" in2="effect1_dropShadow_17_1141" result="shape"/>
</filter>
<linearGradient id="paint0_linear_17_1141" x1="34.3259" y1="58.1687" x2="34.3259" y2="71.7812" gradientUnits="userSpaceOnUse">
<stop stop-color="white"/>
<stop offset="1" stop-color="#A683FF"/>
</linearGradient>
<linearGradient id="paint1_linear_17_1141" x1="34.3233" y1="59.2659" x2="34.3233" y2="69.8992" gradientUnits="userSpaceOnUse">
<stop stop-color="white"/>
<stop offset="1" stop-color="#A683FF"/>
</linearGradient>
<linearGradient id="paint2_linear_17_1141" x1="34.3194" y1="57.5225" x2="34.3194" y2="67.0845" gradientUnits="userSpaceOnUse">
<stop stop-color="white"/>
<stop offset="1" stop-color="#A683FF"/>
</linearGradient>
<linearGradient id="paint3_linear_17_1141" x1="39.3109" y1="57.7229" x2="39.3109" y2="67.0853" gradientUnits="userSpaceOnUse">
<stop stop-color="white"/>
<stop offset="1" stop-color="#A683FF"/>
</linearGradient>
<linearGradient id="paint4_linear_17_1141" x1="34.4913" y1="51.5798" x2="34.4913" y2="59.5032" gradientUnits="userSpaceOnUse">
<stop stop-color="white"/>
<stop offset="1" stop-color="#A683FF"/>
</linearGradient>
<linearGradient id="paint5_linear_17_1141" x1="29.7395" y1="51.5793" x2="29.7395" y2="59.5027" gradientUnits="userSpaceOnUse">
<stop stop-color="white"/>
<stop offset="1" stop-color="#A683FF"/>
</linearGradient>
<linearGradient id="paint6_linear_17_1141" x1="34.3171" y1="51.0774" x2="34.3171" y2="64.957" gradientUnits="userSpaceOnUse">
<stop stop-color="white"/>
<stop offset="1" stop-color="#A683FF"/>
</linearGradient>
<linearGradient id="paint7_linear_17_1141" x1="34.3178" y1="52.1672" x2="34.3178" y2="58.1485" gradientUnits="userSpaceOnUse">
<stop stop-color="white"/>
<stop offset="1" stop-color="#A683FF"/>
</linearGradient>
<linearGradient id="paint8_linear_17_1141" x1="34.3165" y1="58.1479" x2="34.3165" y2="65.2183" gradientUnits="userSpaceOnUse">
<stop stop-color="white"/>
<stop offset="1" stop-color="#A683FF"/>
</linearGradient>
<linearGradient id="paint9_linear_17_1141" x1="34.323" y1="51.2908" x2="34.323" y2="64.7441" gradientUnits="userSpaceOnUse">
<stop stop-color="white"/>
<stop offset="1" stop-color="#A683FF"/>
</linearGradient>
<linearGradient id="paint10_linear_17_1141" x1="34.3223" y1="52.1672" x2="34.3223" y2="63.8685" gradientUnits="userSpaceOnUse">
<stop stop-color="white"/>
<stop offset="1" stop-color="#A683FF"/>
</linearGradient>
<linearGradient id="paint11_linear_17_1141" x1="34.3278" y1="25.0369" x2="34.3278" y2="63.8677" gradientUnits="userSpaceOnUse">
<stop stop-color="white"/>
<stop offset="1" stop-color="#A683FF"/>
</linearGradient>
<linearGradient id="paint12_linear_17_1141" x1="34.3259" y1="48.1499" x2="34.3259" y2="61.7623" gradientUnits="userSpaceOnUse">
<stop stop-color="white"/>
<stop offset="1" stop-color="#A683FF"/>
</linearGradient>
<linearGradient id="paint13_linear_17_1141" x1="34.3233" y1="49.2473" x2="34.3233" y2="59.8807" gradientUnits="userSpaceOnUse">
<stop stop-color="white"/>
<stop offset="1" stop-color="#A683FF"/>
</linearGradient>
<linearGradient id="paint14_linear_17_1141" x1="34.3194" y1="47.5039" x2="34.3194" y2="57.0659" gradientUnits="userSpaceOnUse">
<stop stop-color="white"/>
<stop offset="1" stop-color="#A683FF"/>
</linearGradient>
<linearGradient id="paint15_linear_17_1141" x1="39.3109" y1="47.7043" x2="39.3109" y2="57.0664" gradientUnits="userSpaceOnUse">
<stop stop-color="white"/>
<stop offset="1" stop-color="#A683FF"/>
</linearGradient>
<linearGradient id="paint16_linear_17_1141" x1="34.4913" y1="41.5613" x2="34.4913" y2="49.4846" gradientUnits="userSpaceOnUse">
<stop stop-color="white"/>
<stop offset="1" stop-color="#A683FF"/>
</linearGradient>
<linearGradient id="paint17_linear_17_1141" x1="29.7395" y1="41.5608" x2="29.7395" y2="49.4841" gradientUnits="userSpaceOnUse">
<stop stop-color="white"/>
<stop offset="1" stop-color="#A683FF"/>
</linearGradient>
<linearGradient id="paint18_linear_17_1141" x1="34.3171" y1="41.0588" x2="34.3171" y2="54.9386" gradientUnits="userSpaceOnUse">
<stop stop-color="white"/>
<stop offset="1" stop-color="#A683FF"/>
</linearGradient>
<linearGradient id="paint19_linear_17_1141" x1="34.3178" y1="42.1479" x2="34.3178" y2="48.1295" gradientUnits="userSpaceOnUse">
<stop stop-color="white"/>
<stop offset="1" stop-color="#A683FF"/>
</linearGradient>
<linearGradient id="paint20_linear_17_1141" x1="34.3165" y1="48.1287" x2="34.3165" y2="55.199" gradientUnits="userSpaceOnUse">
<stop stop-color="white"/>
<stop offset="1" stop-color="#A683FF"/>
</linearGradient>
<linearGradient id="paint21_linear_17_1141" x1="34.323" y1="41.2717" x2="34.323" y2="54.7253" gradientUnits="userSpaceOnUse">
<stop stop-color="white"/>
<stop offset="1" stop-color="#A683FF"/>
</linearGradient>
<linearGradient id="paint22_linear_17_1141" x1="34.3223" y1="42.1479" x2="34.3223" y2="53.8492" gradientUnits="userSpaceOnUse">
<stop stop-color="white"/>
<stop offset="1" stop-color="#A683FF"/>
</linearGradient>
<linearGradient id="paint23_linear_17_1141" x1="34.3259" y1="38.1316" x2="34.3259" y2="51.7437" gradientUnits="userSpaceOnUse">
<stop stop-color="white"/>
<stop offset="1" stop-color="#A683FF"/>
</linearGradient>
<linearGradient id="paint24_linear_17_1141" x1="34.3233" y1="39.2285" x2="34.3233" y2="49.8619" gradientUnits="userSpaceOnUse">
<stop stop-color="white"/>
<stop offset="1" stop-color="#A683FF"/>
</linearGradient>
<linearGradient id="paint25_linear_17_1141" x1="34.3194" y1="37.4856" x2="34.3194" y2="47.0476" gradientUnits="userSpaceOnUse">
<stop stop-color="white"/>
<stop offset="1" stop-color="#A683FF"/>
</linearGradient>
<linearGradient id="paint26_linear_17_1141" x1="39.3109" y1="37.6855" x2="39.3109" y2="47.0479" gradientUnits="userSpaceOnUse">
<stop stop-color="white"/>
<stop offset="1" stop-color="#A683FF"/>
</linearGradient>
<linearGradient id="paint27_linear_17_1141" x1="34.4913" y1="31.542" x2="34.4913" y2="39.4656" gradientUnits="userSpaceOnUse">
<stop stop-color="white"/>
<stop offset="1" stop-color="#A683FF"/>
</linearGradient>
<linearGradient id="paint28_linear_17_1141" x1="29.7395" y1="31.542" x2="29.7395" y2="39.4656" gradientUnits="userSpaceOnUse">
<stop stop-color="white"/>
<stop offset="1" stop-color="#A683FF"/>
</linearGradient>
<linearGradient id="paint29_linear_17_1141" x1="34.3171" y1="31.04" x2="34.3171" y2="44.9198" gradientUnits="userSpaceOnUse">
<stop stop-color="white"/>
<stop offset="1" stop-color="#A683FF"/>
</linearGradient>
<linearGradient id="paint30_linear_17_1141" x1="34.3178" y1="32.1292" x2="34.3178" y2="38.1104" gradientUnits="userSpaceOnUse">
<stop stop-color="white"/>
<stop offset="1" stop-color="#A683FF"/>
</linearGradient>
<linearGradient id="paint31_linear_17_1141" x1="34.3165" y1="38.1104" x2="34.3165" y2="45.1807" gradientUnits="userSpaceOnUse">
<stop stop-color="white"/>
<stop offset="1" stop-color="#A683FF"/>
</linearGradient>
<linearGradient id="paint32_linear_17_1141" x1="34.323" y1="31.2534" x2="34.323" y2="44.7069" gradientUnits="userSpaceOnUse">
<stop stop-color="white"/>
<stop offset="1" stop-color="#A683FF"/>
</linearGradient>
<linearGradient id="paint33_linear_17_1141" x1="34.3223" y1="32.1292" x2="34.3223" y2="43.8304" gradientUnits="userSpaceOnUse">
<stop stop-color="white"/>
<stop offset="1" stop-color="#A683FF"/>
</linearGradient>
<linearGradient id="paint34_linear_17_1141" x1="34.5661" y1="5" x2="34.5661" y2="43.8309" gradientUnits="userSpaceOnUse">
<stop stop-color="white" stop-opacity="0"/>
<stop offset="1" stop-color="#A683FF"/>
</linearGradient>
<linearGradient id="paint35_linear_17_1141" x1="20.986" y1="69.0649" x2="20.986" y2="82.678" gradientUnits="userSpaceOnUse">
<stop stop-color="white"/>
<stop offset="1" stop-color="#A683FF"/>
</linearGradient>
<linearGradient id="paint36_linear_17_1141" x1="20.9854" y1="70.1621" x2="20.9854" y2="80.7955" gradientUnits="userSpaceOnUse">
<stop stop-color="white"/>
<stop offset="1" stop-color="#A683FF"/>
</linearGradient>
<linearGradient id="paint37_linear_17_1141" x1="20.9854" y1="68.4194" x2="20.9854" y2="77.9814" gradientUnits="userSpaceOnUse">
<stop stop-color="white"/>
<stop offset="1" stop-color="#A683FF"/>
</linearGradient>
<linearGradient id="paint38_linear_17_1141" x1="25.9808" y1="68.6194" x2="25.9808" y2="77.9817" gradientUnits="userSpaceOnUse">
<stop stop-color="white"/>
<stop offset="1" stop-color="#A683FF"/>
</linearGradient>
<linearGradient id="paint39_linear_17_1141" x1="21.1554" y1="62.4763" x2="21.1554" y2="70.3996" gradientUnits="userSpaceOnUse">
<stop stop-color="white"/>
<stop offset="1" stop-color="#A683FF"/>
</linearGradient>
<linearGradient id="paint40_linear_17_1141" x1="16.4035" y1="62.4758" x2="16.4035" y2="70.3995" gradientUnits="userSpaceOnUse">
<stop stop-color="white"/>
<stop offset="1" stop-color="#A683FF"/>
</linearGradient>
<linearGradient id="paint41_linear_17_1141" x1="20.9851" y1="61.9739" x2="20.9851" y2="75.8534" gradientUnits="userSpaceOnUse">
<stop stop-color="white"/>
<stop offset="1" stop-color="#A683FF"/>
</linearGradient>
<linearGradient id="paint42_linear_17_1141" x1="20.9858" y1="63.0632" x2="20.9858" y2="69.0445" gradientUnits="userSpaceOnUse">
<stop stop-color="white"/>
<stop offset="1" stop-color="#A683FF"/>
</linearGradient>
<linearGradient id="paint43_linear_17_1141" x1="20.9845" y1="69.0442" x2="20.9845" y2="76.1146" gradientUnits="userSpaceOnUse">
<stop stop-color="white"/>
<stop offset="1" stop-color="#A683FF"/>
</linearGradient>
<linearGradient id="paint44_linear_17_1141" x1="20.9832" y1="62.1868" x2="20.9832" y2="75.6403" gradientUnits="userSpaceOnUse">
<stop stop-color="white"/>
<stop offset="1" stop-color="#A683FF"/>
</linearGradient>
<linearGradient id="paint45_linear_17_1141" x1="20.9863" y1="63.0632" x2="20.9863" y2="74.7645" gradientUnits="userSpaceOnUse">
<stop stop-color="white"/>
<stop offset="1" stop-color="#A683FF"/>
</linearGradient>
<linearGradient id="paint46_linear_17_1141" x1="20.986" y1="35.9333" x2="20.986" y2="74.7642" gradientUnits="userSpaceOnUse">
<stop stop-color="white"/>
<stop offset="1" stop-color="#A683FF"/>
</linearGradient>
<linearGradient id="paint47_linear_17_1141" x1="20.986" y1="59.0469" x2="20.986" y2="72.6593" gradientUnits="userSpaceOnUse">
<stop stop-color="white"/>
<stop offset="1" stop-color="#A683FF"/>
</linearGradient>
<linearGradient id="paint48_linear_17_1141" x1="20.9854" y1="60.1436" x2="20.9854" y2="70.7769" gradientUnits="userSpaceOnUse">
<stop stop-color="white"/>
<stop offset="1" stop-color="#A683FF"/>
</linearGradient>
<linearGradient id="paint49_linear_17_1141" x1="20.9854" y1="58.4011" x2="20.9854" y2="67.9631" gradientUnits="userSpaceOnUse">
<stop stop-color="white"/>
<stop offset="1" stop-color="#A683FF"/>
</linearGradient>
<linearGradient id="paint50_linear_17_1141" x1="25.9808" y1="58.6006" x2="25.9808" y2="67.9629" gradientUnits="userSpaceOnUse">
<stop stop-color="white"/>
<stop offset="1" stop-color="#A683FF"/>
</linearGradient>
<linearGradient id="paint51_linear_17_1141" x1="21.1554" y1="52.4578" x2="21.1554" y2="60.3814" gradientUnits="userSpaceOnUse">
<stop stop-color="white"/>
<stop offset="1" stop-color="#A683FF"/>
</linearGradient>
<linearGradient id="paint52_linear_17_1141" x1="16.4035" y1="52.4578" x2="16.4035" y2="60.3814" gradientUnits="userSpaceOnUse">
<stop stop-color="white"/>
<stop offset="1" stop-color="#A683FF"/>
</linearGradient>
<linearGradient id="paint53_linear_17_1141" x1="20.9851" y1="51.9558" x2="20.9851" y2="65.8353" gradientUnits="userSpaceOnUse">
<stop stop-color="white"/>
<stop offset="1" stop-color="#A683FF"/>
</linearGradient>
<linearGradient id="paint54_linear_17_1141" x1="20.9858" y1="53.0449" x2="20.9858" y2="59.0262" gradientUnits="userSpaceOnUse">
<stop stop-color="white"/>
<stop offset="1" stop-color="#A683FF"/>
</linearGradient>
<linearGradient id="paint55_linear_17_1141" x1="20.9845" y1="59.0261" x2="20.9845" y2="66.0965" gradientUnits="userSpaceOnUse">
<stop stop-color="white"/>
<stop offset="1" stop-color="#A683FF"/>
</linearGradient>
<linearGradient id="paint56_linear_17_1141" x1="20.9832" y1="52.1687" x2="20.9832" y2="65.622" gradientUnits="userSpaceOnUse">
<stop stop-color="white"/>
<stop offset="1" stop-color="#A683FF"/>
</linearGradient>
<linearGradient id="paint57_linear_17_1141" x1="20.9863" y1="53.0449" x2="20.9863" y2="64.7462" gradientUnits="userSpaceOnUse">
<stop stop-color="white"/>
<stop offset="1" stop-color="#A683FF"/>
</linearGradient>
<linearGradient id="paint58_linear_17_1141" x1="20.986" y1="49.0278" x2="20.986" y2="62.6403" gradientUnits="userSpaceOnUse">
<stop stop-color="white"/>
<stop offset="1" stop-color="#A683FF"/>
</linearGradient>
<linearGradient id="paint59_linear_17_1141" x1="20.9854" y1="50.1252" x2="20.9854" y2="60.7586" gradientUnits="userSpaceOnUse">
<stop stop-color="white"/>
<stop offset="1" stop-color="#A683FF"/>
</linearGradient>
<linearGradient id="paint60_linear_17_1141" x1="20.9854" y1="48.3821" x2="20.9854" y2="57.9441" gradientUnits="userSpaceOnUse">
<stop stop-color="white"/>
<stop offset="1" stop-color="#A683FF"/>
</linearGradient>
<linearGradient id="paint61_linear_17_1141" x1="25.9808" y1="48.5823" x2="25.9808" y2="57.9446" gradientUnits="userSpaceOnUse">
<stop stop-color="white"/>
<stop offset="1" stop-color="#A683FF"/>
</linearGradient>
<linearGradient id="paint62_linear_17_1141" x1="21.1554" y1="42.4392" x2="21.1554" y2="50.3625" gradientUnits="userSpaceOnUse">
<stop stop-color="white"/>
<stop offset="1" stop-color="#A683FF"/>
</linearGradient>
<linearGradient id="paint63_linear_17_1141" x1="16.4035" y1="42.4387" x2="16.4035" y2="50.362" gradientUnits="userSpaceOnUse">
<stop stop-color="white"/>
<stop offset="1" stop-color="#A683FF"/>
</linearGradient>
<linearGradient id="paint64_linear_17_1141" x1="20.9851" y1="41.9368" x2="20.9851" y2="55.8165" gradientUnits="userSpaceOnUse">
<stop stop-color="white"/>
<stop offset="1" stop-color="#A683FF"/>
</linearGradient>
<linearGradient id="paint65_linear_17_1141" x1="20.9858" y1="43.0261" x2="20.9858" y2="49.0074" gradientUnits="userSpaceOnUse">
<stop stop-color="white"/>
<stop offset="1" stop-color="#A683FF"/>
</linearGradient>
<linearGradient id="paint66_linear_17_1141" x1="20.9845" y1="49.0073" x2="20.9845" y2="56.0777" gradientUnits="userSpaceOnUse">
<stop stop-color="white"/>
<stop offset="1" stop-color="#A683FF"/>
</linearGradient>
<linearGradient id="paint67_linear_17_1141" x1="20.9832" y1="42.1501" x2="20.9832" y2="55.6034" gradientUnits="userSpaceOnUse">
<stop stop-color="white"/>
<stop offset="1" stop-color="#A683FF"/>
</linearGradient>
<linearGradient id="paint68_linear_17_1141" x1="20.9863" y1="43.0261" x2="20.9863" y2="54.7274" gradientUnits="userSpaceOnUse">
<stop stop-color="white"/>
<stop offset="1" stop-color="#A683FF"/>
</linearGradient>
<linearGradient id="paint69_linear_17_1141" x1="19.4176" y1="15.8967" x2="19.4176" y2="54.7276" gradientUnits="userSpaceOnUse">
<stop stop-color="white" stop-opacity="0"/>
<stop offset="1" stop-color="#A683FF"/>
</linearGradient>
<linearGradient id="paint70_linear_17_1141" x1="47.988" y1="68.218" x2="47.988" y2="81.8304" gradientUnits="userSpaceOnUse">
<stop stop-color="white"/>
<stop offset="1" stop-color="#A683FF"/>
</linearGradient>
<linearGradient id="paint71_linear_17_1141" x1="47.9913" y1="69.3154" x2="47.9913" y2="79.9488" gradientUnits="userSpaceOnUse">
<stop stop-color="white"/>
<stop offset="1" stop-color="#A683FF"/>
</linearGradient>
<linearGradient id="paint72_linear_17_1141" x1="47.9952" y1="67.5725" x2="47.9952" y2="77.1345" gradientUnits="userSpaceOnUse">
<stop stop-color="white"/>
<stop offset="1" stop-color="#A683FF"/>
</linearGradient>
<linearGradient id="paint73_linear_17_1141" x1="52.9886" y1="67.772" x2="52.9886" y2="77.1343" gradientUnits="userSpaceOnUse">
<stop stop-color="white"/>
<stop offset="1" stop-color="#A683FF"/>
</linearGradient>
<linearGradient id="paint74_linear_17_1141" x1="48.1652" y1="61.6292" x2="48.1652" y2="69.5525" gradientUnits="userSpaceOnUse">
<stop stop-color="white"/>
<stop offset="1" stop-color="#A683FF"/>
</linearGradient>
<linearGradient id="paint75_linear_17_1141" x1="43.4133" y1="61.6289" x2="43.4133" y2="69.5525" gradientUnits="userSpaceOnUse">
<stop stop-color="white"/>
<stop offset="1" stop-color="#A683FF"/>
</linearGradient>
<linearGradient id="paint76_linear_17_1141" x1="47.9968" y1="61.127" x2="47.9968" y2="75.0067" gradientUnits="userSpaceOnUse">
<stop stop-color="white"/>
<stop offset="1" stop-color="#A683FF"/>
</linearGradient>
<linearGradient id="paint77_linear_17_1141" x1="47.9975" y1="62.2161" x2="47.9975" y2="68.1973" gradientUnits="userSpaceOnUse">
<stop stop-color="white"/>
<stop offset="1" stop-color="#A683FF"/>
</linearGradient>
<linearGradient id="paint78_linear_17_1141" x1="47.9962" y1="68.1968" x2="47.9962" y2="75.2672" gradientUnits="userSpaceOnUse">
<stop stop-color="white"/>
<stop offset="1" stop-color="#A683FF"/>
</linearGradient>
<linearGradient id="paint79_linear_17_1141" x1="47.9949" y1="61.3398" x2="47.9949" y2="74.7934" gradientUnits="userSpaceOnUse">
<stop stop-color="white"/>
<stop offset="1" stop-color="#A683FF"/>
</linearGradient>
<linearGradient id="paint80_linear_17_1141" x1="47.9942" y1="62.2161" x2="47.9942" y2="73.9173" gradientUnits="userSpaceOnUse">
<stop stop-color="white"/>
<stop offset="1" stop-color="#A683FF"/>
</linearGradient>
<linearGradient id="paint81_linear_17_1141" x1="47.988" y1="35.0869" x2="47.988" y2="73.9178" gradientUnits="userSpaceOnUse">
<stop stop-color="white"/>
<stop offset="1" stop-color="#A683FF"/>
</linearGradient>
<linearGradient id="paint82_linear_17_1141" x1="47.988" y1="58.2004" x2="47.988" y2="71.8132" gradientUnits="userSpaceOnUse">
<stop stop-color="white"/>
<stop offset="1" stop-color="#A683FF"/>
</linearGradient>
<linearGradient id="paint83_linear_17_1141" x1="47.9913" y1="59.2971" x2="47.9913" y2="69.9305" gradientUnits="userSpaceOnUse">
<stop stop-color="white"/>
<stop offset="1" stop-color="#A683FF"/>
</linearGradient>
<linearGradient id="paint84_linear_17_1141" x1="47.9952" y1="57.5544" x2="47.9952" y2="67.1164" gradientUnits="userSpaceOnUse">
<stop stop-color="white"/>
<stop offset="1" stop-color="#A683FF"/>
</linearGradient>
<linearGradient id="paint85_linear_17_1141" x1="52.9886" y1="57.7544" x2="52.9886" y2="67.1168" gradientUnits="userSpaceOnUse">
<stop stop-color="white"/>
<stop offset="1" stop-color="#A683FF"/>
</linearGradient>
<linearGradient id="paint86_linear_17_1141" x1="48.1652" y1="51.6106" x2="48.1652" y2="59.5345" gradientUnits="userSpaceOnUse">
<stop stop-color="white"/>
<stop offset="1" stop-color="#A683FF"/>
</linearGradient>
<linearGradient id="paint87_linear_17_1141" x1="43.4133" y1="51.6111" x2="43.4133" y2="59.5347" gradientUnits="userSpaceOnUse">
<stop stop-color="white"/>
<stop offset="1" stop-color="#A683FF"/>
</linearGradient>
<linearGradient id="paint88_linear_17_1141" x1="47.9968" y1="51.1094" x2="47.9968" y2="64.9888" gradientUnits="userSpaceOnUse">
<stop stop-color="white"/>
<stop offset="1" stop-color="#A683FF"/>
</linearGradient>
<linearGradient id="paint89_linear_17_1141" x1="47.9975" y1="52.1985" x2="47.9975" y2="58.1798" gradientUnits="userSpaceOnUse">
<stop stop-color="white"/>
<stop offset="1" stop-color="#A683FF"/>
</linearGradient>
<linearGradient id="paint90_linear_17_1141" x1="47.9962" y1="58.1797" x2="47.9962" y2="65.2501" gradientUnits="userSpaceOnUse">
<stop stop-color="white"/>
<stop offset="1" stop-color="#A683FF"/>
</linearGradient>
<linearGradient id="paint91_linear_17_1141" x1="47.9949" y1="51.3228" x2="47.9949" y2="64.776" gradientUnits="userSpaceOnUse">
<stop stop-color="white"/>
<stop offset="1" stop-color="#A683FF"/>
</linearGradient>
<linearGradient id="paint92_linear_17_1141" x1="47.9942" y1="52.1985" x2="47.9942" y2="63.8998" gradientUnits="userSpaceOnUse">
<stop stop-color="white"/>
<stop offset="1" stop-color="#A683FF"/>
</linearGradient>
<linearGradient id="paint93_linear_17_1141" x1="47.988" y1="48.1821" x2="47.988" y2="61.7946" gradientUnits="userSpaceOnUse">
<stop stop-color="white"/>
<stop offset="1" stop-color="#A683FF"/>
</linearGradient>
<linearGradient id="paint94_linear_17_1141" x1="47.9913" y1="49.2783" x2="47.9913" y2="59.9117" gradientUnits="userSpaceOnUse">
<stop stop-color="white"/>
<stop offset="1" stop-color="#A683FF"/>
</linearGradient>
<linearGradient id="paint95_linear_17_1141" x1="47.9952" y1="47.5361" x2="47.9952" y2="57.0981" gradientUnits="userSpaceOnUse">
<stop stop-color="white"/>
<stop offset="1" stop-color="#A683FF"/>
</linearGradient>
<linearGradient id="paint96_linear_17_1141" x1="52.9886" y1="47.7361" x2="52.9886" y2="57.0984" gradientUnits="userSpaceOnUse">
<stop stop-color="white"/>
<stop offset="1" stop-color="#A683FF"/>
</linearGradient>
<linearGradient id="paint97_linear_17_1141" x1="48.1652" y1="41.5925" x2="48.1652" y2="49.5162" gradientUnits="userSpaceOnUse">
<stop stop-color="white"/>
<stop offset="1" stop-color="#A683FF"/>
</linearGradient>
<linearGradient id="paint98_linear_17_1141" x1="43.4133" y1="41.5925" x2="43.4133" y2="49.5159" gradientUnits="userSpaceOnUse">
<stop stop-color="white"/>
<stop offset="1" stop-color="#A683FF"/>
</linearGradient>
<linearGradient id="paint99_linear_17_1141" x1="47.9968" y1="41.0906" x2="47.9968" y2="54.9703" gradientUnits="userSpaceOnUse">
<stop stop-color="white"/>
<stop offset="1" stop-color="#A683FF"/>
</linearGradient>
<linearGradient id="paint100_linear_17_1141" x1="47.9975" y1="42.1797" x2="47.9975" y2="48.161" gradientUnits="userSpaceOnUse">
<stop stop-color="white"/>
<stop offset="1" stop-color="#A683FF"/>
</linearGradient>
<linearGradient id="paint101_linear_17_1141" x1="47.9962" y1="48.1604" x2="47.9962" y2="55.2308" gradientUnits="userSpaceOnUse">
<stop stop-color="white"/>
<stop offset="1" stop-color="#A683FF"/>
</linearGradient>
<linearGradient id="paint102_linear_17_1141" x1="47.9949" y1="41.304" x2="47.9949" y2="54.7572" gradientUnits="userSpaceOnUse">
<stop stop-color="white"/>
<stop offset="1" stop-color="#A683FF"/>
</linearGradient>
<linearGradient id="paint103_linear_17_1141" x1="47.9942" y1="42.1797" x2="47.9942" y2="53.881" gradientUnits="userSpaceOnUse">
<stop stop-color="white"/>
<stop offset="1" stop-color="#A683FF"/>
</linearGradient>
<linearGradient id="paint104_linear_17_1141" x1="48.9665" y1="15.0505" x2="48.9665" y2="53.8814" gradientUnits="userSpaceOnUse">
<stop stop-color="white" stop-opacity="0"/>
<stop offset="1" stop-color="#A683FF"/>
</linearGradient>
<linearGradient id="paint105_linear_17_1141" x1="34.3259" y1="78.2092" x2="34.3259" y2="91.8213" gradientUnits="userSpaceOnUse">
<stop stop-color="white"/>
<stop offset="1" stop-color="#A683FF"/>
</linearGradient>
<linearGradient id="paint106_linear_17_1141" x1="34.3233" y1="79.3062" x2="34.3233" y2="89.9395" gradientUnits="userSpaceOnUse">
<stop stop-color="white"/>
<stop offset="1" stop-color="#A683FF"/>
</linearGradient>
<linearGradient id="paint107_linear_17_1141" x1="34.3194" y1="77.5632" x2="34.3194" y2="87.1252" gradientUnits="userSpaceOnUse">
<stop stop-color="white"/>
<stop offset="1" stop-color="#A683FF"/>
</linearGradient>
<linearGradient id="paint108_linear_17_1141" x1="39.3109" y1="77.7637" x2="39.3109" y2="87.1257" gradientUnits="userSpaceOnUse">
<stop stop-color="white"/>
<stop offset="1" stop-color="#A683FF"/>
</linearGradient>
<linearGradient id="paint109_linear_17_1141" x1="34.4913" y1="71.6201" x2="34.4913" y2="79.5434" gradientUnits="userSpaceOnUse">
<stop stop-color="white"/>
<stop offset="1" stop-color="#A683FF"/>
</linearGradient>
<linearGradient id="paint110_linear_17_1141" x1="29.7395" y1="71.6196" x2="29.7395" y2="79.5433" gradientUnits="userSpaceOnUse">
<stop stop-color="white"/>
<stop offset="1" stop-color="#A683FF"/>
</linearGradient>
<linearGradient id="paint111_linear_17_1141" x1="34.3171" y1="71.1177" x2="34.3171" y2="84.9974" gradientUnits="userSpaceOnUse">
<stop stop-color="white"/>
<stop offset="1" stop-color="#A683FF"/>
</linearGradient>
<linearGradient id="paint112_linear_17_1141" x1="34.3178" y1="72.2075" x2="34.3178" y2="78.1888" gradientUnits="userSpaceOnUse">
<stop stop-color="white"/>
<stop offset="1" stop-color="#A683FF"/>
</linearGradient>
<linearGradient id="paint113_linear_17_1141" x1="34.3165" y1="78.1887" x2="34.3165" y2="85.2591" gradientUnits="userSpaceOnUse">
<stop stop-color="white"/>
<stop offset="1" stop-color="#A683FF"/>
</linearGradient>
<linearGradient id="paint114_linear_17_1141" x1="34.323" y1="71.3308" x2="34.323" y2="84.7843" gradientUnits="userSpaceOnUse">
<stop stop-color="white"/>
<stop offset="1" stop-color="#A683FF"/>
</linearGradient>
<linearGradient id="paint115_linear_17_1141" x1="34.3223" y1="72.2075" x2="34.3223" y2="83.9088" gradientUnits="userSpaceOnUse">
<stop stop-color="white"/>
<stop offset="1" stop-color="#A683FF"/>
</linearGradient>
<linearGradient id="paint116_linear_17_1141" x1="34.3278" y1="45.0776" x2="34.3278" y2="83.9085" gradientUnits="userSpaceOnUse">
<stop stop-color="white"/>
<stop offset="1" stop-color="#A683FF"/>
</linearGradient>
<linearGradient id="paint117_linear_17_1141" x1="34.3259" y1="68.1904" x2="34.3259" y2="81.8028" gradientUnits="userSpaceOnUse">
<stop stop-color="white"/>
<stop offset="1" stop-color="#A683FF"/>
</linearGradient>
<linearGradient id="paint118_linear_17_1141" x1="34.3233" y1="69.2871" x2="34.3233" y2="79.9205" gradientUnits="userSpaceOnUse">
<stop stop-color="white"/>
<stop offset="1" stop-color="#A683FF"/>
</linearGradient>
<linearGradient id="paint119_linear_17_1141" x1="34.3194" y1="67.5444" x2="34.3194" y2="77.1064" gradientUnits="userSpaceOnUse">
<stop stop-color="white"/>
<stop offset="1" stop-color="#A683FF"/>
</linearGradient>
<linearGradient id="paint120_linear_17_1141" x1="39.3109" y1="67.7444" x2="39.3109" y2="77.1067" gradientUnits="userSpaceOnUse">
<stop stop-color="white"/>
<stop offset="1" stop-color="#A683FF"/>
</linearGradient>
<linearGradient id="paint121_linear_17_1141" x1="34.4913" y1="61.6013" x2="34.4913" y2="69.5249" gradientUnits="userSpaceOnUse">
<stop stop-color="white"/>
<stop offset="1" stop-color="#A683FF"/>
</linearGradient>
<linearGradient id="paint122_linear_17_1141" x1="29.7395" y1="61.6013" x2="29.7395" y2="69.5249" gradientUnits="userSpaceOnUse">
<stop stop-color="white"/>
<stop offset="1" stop-color="#A683FF"/>
</linearGradient>
<linearGradient id="paint123_linear_17_1141" x1="34.3171" y1="61.0994" x2="34.3171" y2="74.9787" gradientUnits="userSpaceOnUse">
<stop stop-color="white"/>
<stop offset="1" stop-color="#A683FF"/>
</linearGradient>
<linearGradient id="paint124_linear_17_1141" x1="34.3178" y1="62.1885" x2="34.3178" y2="68.1697" gradientUnits="userSpaceOnUse">
<stop stop-color="white"/>
<stop offset="1" stop-color="#A683FF"/>
</linearGradient>
<linearGradient id="paint125_linear_17_1141" x1="34.3165" y1="68.1697" x2="34.3165" y2="75.2401" gradientUnits="userSpaceOnUse">
<stop stop-color="white"/>
<stop offset="1" stop-color="#A683FF"/>
</linearGradient>
<linearGradient id="paint126_linear_17_1141" x1="34.323" y1="61.3125" x2="34.323" y2="74.7658" gradientUnits="userSpaceOnUse">
<stop stop-color="white"/>
<stop offset="1" stop-color="#A683FF"/>
</linearGradient>
<linearGradient id="paint127_linear_17_1141" x1="34.3223" y1="62.1885" x2="34.3223" y2="73.8898" gradientUnits="userSpaceOnUse">
<stop stop-color="white"/>
<stop offset="1" stop-color="#A683FF"/>
</linearGradient>
<linearGradient id="paint128_linear_17_1141" x1="34.3278" y1="35.0588" x2="34.3278" y2="73.8897" gradientUnits="userSpaceOnUse">
<stop stop-color="white"/>
<stop offset="1" stop-color="#A683FF"/>
</linearGradient>
<linearGradient id="paint129_linear_17_1141" x1="34.3259" y1="58.1721" x2="34.3259" y2="71.7844" gradientUnits="userSpaceOnUse">
<stop stop-color="white"/>
<stop offset="1" stop-color="#A683FF"/>
</linearGradient>
<linearGradient id="paint130_linear_17_1141" x1="34.3233" y1="59.269" x2="34.3233" y2="69.9024" gradientUnits="userSpaceOnUse">
<stop stop-color="white"/>
<stop offset="1" stop-color="#A683FF"/>
</linearGradient>
<linearGradient id="paint131_linear_17_1141" x1="34.3194" y1="57.5256" x2="34.3194" y2="67.0876" gradientUnits="userSpaceOnUse">
<stop stop-color="white"/>
<stop offset="1" stop-color="#A683FF"/>
</linearGradient>
<linearGradient id="paint132_linear_17_1141" x1="39.3109" y1="57.7261" x2="39.3109" y2="67.0884" gradientUnits="userSpaceOnUse">
<stop stop-color="white"/>
<stop offset="1" stop-color="#A683FF"/>
</linearGradient>
<linearGradient id="paint133_linear_17_1141" x1="34.4913" y1="51.583" x2="34.4913" y2="59.5063" gradientUnits="userSpaceOnUse">
<stop stop-color="white"/>
<stop offset="1" stop-color="#A683FF"/>
</linearGradient>
<linearGradient id="paint134_linear_17_1141" x1="29.7395" y1="51.5825" x2="29.7395" y2="59.5058" gradientUnits="userSpaceOnUse">
<stop stop-color="white"/>
<stop offset="1" stop-color="#A683FF"/>
</linearGradient>
<linearGradient id="paint135_linear_17_1141" x1="34.3171" y1="51.0806" x2="34.3171" y2="64.9603" gradientUnits="userSpaceOnUse">
<stop stop-color="white"/>
<stop offset="1" stop-color="#A683FF"/>
</linearGradient>
<linearGradient id="paint136_linear_17_1141" x1="34.3178" y1="52.1697" x2="34.3178" y2="58.151" gradientUnits="userSpaceOnUse">
<stop stop-color="white"/>
<stop offset="1" stop-color="#A683FF"/>
</linearGradient>
<linearGradient id="paint137_linear_17_1141" x1="34.3165" y1="58.1509" x2="34.3165" y2="65.2213" gradientUnits="userSpaceOnUse">
<stop stop-color="white"/>
<stop offset="1" stop-color="#A683FF"/>
</linearGradient>
<linearGradient id="paint138_linear_17_1141" x1="34.323" y1="51.2939" x2="34.323" y2="64.747" gradientUnits="userSpaceOnUse">
<stop stop-color="white"/>
<stop offset="1" stop-color="#A683FF"/>
</linearGradient>
<linearGradient id="paint139_linear_17_1141" x1="34.3223" y1="52.1697" x2="34.3223" y2="63.871" gradientUnits="userSpaceOnUse">
<stop stop-color="white"/>
<stop offset="1" stop-color="#A683FF"/>
</linearGradient>
<linearGradient id="paint140_linear_17_1141" x1="34.3278" y1="25.0405" x2="34.3278" y2="63.8714" gradientUnits="userSpaceOnUse">
<stop stop-color="white"/>
<stop offset="1" stop-color="#A683FF"/>
</linearGradient>
<linearGradient id="paint141_linear_17_1141" x1="12.6405" y1="17.0798" x2="12.6405" y2="48.8699" gradientUnits="userSpaceOnUse">
<stop stop-color="white" stop-opacity="0"/>
<stop offset="1" stop-color="#A683FF"/>
</linearGradient>
<linearGradient id="paint142_linear_17_1141" x1="56.328" y1="16.2407" x2="56.328" y2="48.0308" gradientUnits="userSpaceOnUse">
<stop stop-color="white" stop-opacity="0"/>
<stop offset="1" stop-color="#A683FF"/>
</linearGradient>
<linearGradient id="paint143_linear_17_1141" x1="42.6737" y1="6.19019" x2="42.6737" y2="37.9802" gradientUnits="userSpaceOnUse">
<stop stop-color="white" stop-opacity="0"/>
<stop offset="1" stop-color="#A683FF"/>
</linearGradient>
<linearGradient id="paint144_linear_17_1141" x1="25.9862" y1="6.19019" x2="25.9862" y2="37.9802" gradientUnits="userSpaceOnUse">
<stop stop-color="white" stop-opacity="0"/>
<stop offset="1" stop-color="#A683FF"/>
</linearGradient>
<linearGradient id="paint145_linear_17_1141" x1="34.3327" y1="19.1323" x2="34.3327" y2="49.8001" gradientUnits="userSpaceOnUse">
<stop stop-color="white"/>
<stop offset="1" stop-color="#A683FF"/>
</linearGradient>
<linearGradient id="paint146_linear_17_1141" x1="34.3312" y1="18.9839" x2="34.3312" y2="49.9479" gradientUnits="userSpaceOnUse">
<stop stop-color="white"/>
<stop offset="1" stop-color="#A683FF"/>
</linearGradient>
<linearGradient id="paint147_linear_17_1141" x1="34.3312" y1="18.9839" x2="34.3312" y2="49.9479" gradientUnits="userSpaceOnUse">
<stop stop-color="white"/>
<stop offset="1" stop-color="#A683FF"/>
</linearGradient>
</defs>
</svg>
