<svg width="113" height="20" viewBox="0 0 113 20" fill="none" xmlns="http://www.w3.org/2000/svg">
<path fill-rule="evenodd" clip-rule="evenodd" d="M0.658382 0V2.92051L7.63047 2.19461H10.1965V6.92145L5.87479 8.23821L0 9.65626L0.877843 12.5093L6.49941 10.3484L10.1965 9.21734V16.966H7.63047L0.658382 16.2401V19.1606H21.9292V16.2401L14.974 16.966H12.3911V9.21734L16.0881 10.3484L21.7266 12.5093L22.5876 9.65626L16.7465 8.23821L12.3911 6.92145V2.19461H14.974L21.9292 2.92051V0L0.658382 0Z" fill="#636475"/>
<path fill-rule="evenodd" clip-rule="evenodd" d="M108.327 10.3319L106.672 5.90891H106.267L104.613 10.3319H108.327ZM112.058 15.6327H110.285L108.901 11.9356H104.022L102.638 15.6327H100.865L105.457 3.39355H107.466L112.058 15.6327Z" fill="#636475"/>
<path fill-rule="evenodd" clip-rule="evenodd" d="M93.0837 9.4878C94.3499 9.4878 95.8692 9.09953 95.8692 7.25944C95.8692 5.30117 94.1304 5.01418 93.0837 5.01418H89.3529V9.50468H93.0837V9.4878ZM94.4849 10.9565L97.4392 15.6158H95.4134L92.5773 11.1253H89.3529V15.6158H87.6816V3.39355H93.0837C96.1731 3.39355 97.5405 5.33494 97.5405 7.25944C97.5405 10.0111 95.2784 10.7708 94.4849 10.9565Z" fill="#636475"/>
<path fill-rule="evenodd" clip-rule="evenodd" d="M81.7742 10.9734C81.7742 11.1084 81.7404 14.1809 78.5329 14.1809C75.5449 14.1809 75.2917 11.7162 75.2917 10.9734V3.39355H73.6035V10.9734C73.6035 13.1849 74.8865 15.7677 78.5329 15.7677C82.1625 15.7677 83.4624 13.1849 83.4624 10.9734V3.39355H81.7742V10.9734Z" fill="#636475"/>
<path fill-rule="evenodd" clip-rule="evenodd" d="M70.2612 3.39355V5.01418H62.0736V8.22168H69.3496V9.82543H62.0736V15.6158H60.4023V3.39355H70.2612Z" fill="#636475"/>
<path fill-rule="evenodd" clip-rule="evenodd" d="M53.0078 3.10645V12.8134H52.6364L46.7109 3.10645H44.5332V15.3287H46.2045V5.92567H46.5759L52.2312 15.3287H54.679V3.10645H53.0078Z" fill="#636475"/>
<path fill-rule="evenodd" clip-rule="evenodd" d="M31.0273 3.10645V4.6089H34.7582V13.8094H31.0273V15.3118H40.1603V13.8094H36.4294V4.6089H40.1603V3.10645H31.0273Z" fill="#636475"/>
</svg>
