<svg width="24" height="24" viewBox="0 0 24 24" fill="none" xmlns="http://www.w3.org/2000/svg">
<path d="M18.721 3.99182L18.2946 3.84741L4.63086 17.5194L5.04096 18.026C6.26422 19.5371 7.87022 20.7489 9.84244 21.5459L9.87581 21.5594C10.4681 21.7989 10.8866 21.9681 11.5877 21.968C12.2889 21.968 12.7073 21.7988 13.2996 21.5594L13.333 21.5459C19.4032 19.0926 21.8586 12.813 20.736 6.21589L20.7289 6.17434C20.6823 5.90141 20.6391 5.64875 20.5829 5.44079C20.5214 5.21369 20.4285 4.97408 20.2448 4.75857C20.0554 4.53647 19.7982 4.40363 19.582 4.3089C19.3529 4.2086 19.0608 4.10692 18.721 3.99182Z" fill="#DCD3FC"/>
<path opacity="0.4" d="M18.7211 3.99174C18.6401 3.96429 18.5547 3.93553 18.4654 3.90548L18.4644 3.90516C17.7734 3.67253 17.1456 3.30718 16.4316 2.89171C16.138 2.72085 15.8299 2.54151 15.4968 2.35944C14.4041 1.76222 13.1413 1.20703 11.5849 1.20703C10.0284 1.20703 8.76615 1.76221 7.67401 2.35946C7.34097 2.54158 7.03292 2.72095 6.73945 2.89184C6.02623 3.30715 5.3986 3.6725 4.70812 3.90512L4.68313 3.91353C4.27545 4.05083 3.93452 4.16564 3.6756 4.27274C3.43049 4.37413 3.1356 4.51474 2.92764 4.75871C2.74393 4.97421 2.65105 5.21379 2.58965 5.44088C2.53342 5.64884 2.49029 5.90143 2.4437 6.17435L2.4388 6.20303C1.68074 10.6409 2.53401 14.9289 5.0411 18.0259L5.54742 18.6514L19.8247 4.36551L18.7211 3.99174Z" fill="#DCD3FC"/>
</svg>
