<svg width="659" height="320" viewBox="0 0 659 320" fill="none" xmlns="http://www.w3.org/2000/svg">
<rect width="32.6315" height="32.6315" rx="16.3158" fill="#E3E8FF" fill-opacity="0.06"/>
<path opacity="0.4" d="M20.4871 13.9556C20.5253 13.9126 20.5445 13.8911 20.5437 13.8656C20.5429 13.84 20.5226 13.8197 20.4819 13.779L19.8618 13.1589L19.8522 13.1492C19.8159 13.1132 19.7471 13.0447 19.6954 12.976C19.6543 12.9214 19.4375 12.6284 19.5919 12.2555C19.7464 11.8826 20.1069 11.8287 20.1746 11.8191C20.2597 11.8071 20.3568 11.8074 20.4079 11.8075L21.4582 11.8076C21.738 11.8075 22.0098 11.8074 22.2341 11.8376C22.4869 11.8716 22.7753 11.9544 23.0149 12.194C23.2545 12.4336 23.3373 12.722 23.3713 12.9748C23.4014 13.199 23.4014 13.4709 23.4013 13.7506L23.4013 14.801C23.4015 14.8521 23.4018 14.9492 23.3897 15.0343C23.3802 15.102 23.3263 15.4625 22.9534 15.617C22.5805 15.7714 22.2875 15.5546 22.2328 15.5135C22.1641 15.4618 22.0957 15.393 22.0596 15.3567L22.05 15.347L21.5768 14.8738C21.5315 14.8285 21.5088 14.8059 21.4811 14.8067C21.4533 14.8075 21.432 14.8315 21.3894 14.8793L18.2323 18.4311C18.0596 18.6255 17.8908 18.8155 17.73 18.9546C17.5483 19.1118 17.3115 19.2637 16.9948 19.2906C16.6781 19.3175 16.419 19.2077 16.2134 19.0833C16.0315 18.9734 15.8331 18.8146 15.6301 18.6521L14.2387 17.5389C14.1615 17.4772 14.0849 17.4129 14.006 17.3516C13.9116 17.2782 13.8644 17.2415 13.7922 17.2455C13.72 17.2495 13.6772 17.2912 13.5914 17.3746C13.5198 17.4442 13.4507 17.5166 13.3809 17.5864L10.3319 20.6355C10.0804 20.887 9.67257 20.887 9.42106 20.6355C9.16954 20.384 9.16954 19.9762 9.42106 19.7247L12.493 16.6527C12.6669 16.4787 12.8378 16.3077 12.9987 16.1835C13.1811 16.0425 13.4143 15.9095 13.7173 15.8927C14.0203 15.8759 14.2668 15.9824 14.4636 16.1023C14.6372 16.2081 14.826 16.3591 15.018 16.5128L16.4083 17.6251C16.4901 17.6905 16.5713 17.7588 16.6549 17.8237C16.7545 17.9011 16.8043 17.9397 16.8795 17.9333C16.9548 17.927 16.9973 17.8804 17.0825 17.7874C17.1539 17.7093 17.2225 17.6283 17.292 17.5501L20.4871 13.9556Z" fill="#DCD3FC"/>
<path fill-rule="evenodd" clip-rule="evenodd" d="M11.1641 13.7396C11.1641 13.3839 11.4524 13.0956 11.8081 13.0956H15.6724C16.0281 13.0956 16.3164 13.3839 16.3164 13.7396C16.3164 14.0953 16.0281 14.3837 15.6724 14.3837H11.8081C11.4524 14.3837 11.1641 14.0953 11.1641 13.7396Z" fill="#DCD3FC"/>
<path d="M45.7006 20.8158V13.4703H43.0798V12.2801H49.6199V13.4703H46.999V20.8158H45.7006ZM50.0948 20.8158V14.42H51.261L51.3091 16.1151L51.2009 16.0791C51.289 15.502 51.4654 15.0812 51.7298 14.8167C52.0023 14.5523 52.367 14.42 52.8239 14.42H53.437V15.5621H52.8239C52.5033 15.5621 52.2348 15.6142 52.0184 15.7184C51.802 15.8226 51.6377 15.9829 51.5255 16.1993C51.4213 16.4157 51.3692 16.6962 51.3692 17.0408V20.8158H50.0948ZM56.7188 20.9601C56.0776 20.9601 55.5646 20.7477 55.1799 20.3229C54.8032 19.8901 54.6149 19.293 54.6149 18.5316V14.42H55.8892V18.207C55.8892 18.7841 55.9894 19.2088 56.1898 19.4813C56.3902 19.7538 56.6947 19.8901 57.1035 19.8901C57.5683 19.8901 57.929 19.7418 58.1855 19.4453C58.4499 19.1407 58.5822 18.7159 58.5822 18.1709V14.42H59.8565V20.8158H58.6663L58.6423 19.1447L58.8226 19.2168C58.7104 19.7779 58.474 20.2107 58.1133 20.5152C57.7527 20.8118 57.2878 20.9601 56.7188 20.9601ZM64.0062 20.9601C63.4051 20.9601 62.8962 20.8679 62.4794 20.6836C62.0707 20.4992 61.7541 20.2467 61.5297 19.9262C61.3053 19.5976 61.177 19.2209 61.145 18.7961L62.4554 18.736C62.5195 19.0886 62.6718 19.3691 62.9122 19.5775C63.1527 19.7859 63.5173 19.8901 64.0062 19.8901C64.407 19.8901 64.7236 19.826 64.956 19.6977C65.1884 19.5695 65.3046 19.3651 65.3046 19.0846C65.3046 18.9323 65.2646 18.8041 65.1844 18.6999C65.1123 18.5877 64.968 18.4955 64.7516 18.4234C64.5352 18.3432 64.2146 18.2671 63.7898 18.195C63.1567 18.0747 62.6598 17.9345 62.2991 17.7742C61.9384 17.6139 61.682 17.4095 61.5297 17.1611C61.3774 16.9126 61.3013 16.6121 61.3013 16.2594C61.3013 15.6743 61.5177 15.1974 61.9505 14.8288C62.3913 14.4601 63.0244 14.2757 63.85 14.2757C64.403 14.2757 64.8678 14.3719 65.2445 14.5643C65.6212 14.7486 65.9138 15.0011 66.1221 15.3217C66.3385 15.6342 66.4748 15.9869 66.5309 16.3796L65.2205 16.4518C65.1804 16.2273 65.1003 16.035 64.98 15.8747C64.8678 15.7064 64.7156 15.5781 64.5232 15.49C64.3308 15.3938 64.1024 15.3457 63.8379 15.3457C63.4292 15.3457 63.1246 15.4259 62.9243 15.5862C62.7239 15.7465 62.6237 15.9548 62.6237 16.2113C62.6237 16.4037 62.6678 16.56 62.7559 16.6802C62.8521 16.8004 63.0044 16.9006 63.2128 16.9807C63.4212 17.0529 63.6977 17.117 64.0423 17.1731C64.7075 17.2853 65.2285 17.4255 65.6052 17.5939C65.9819 17.7542 66.2464 17.9545 66.3987 18.195C66.5509 18.4354 66.6271 18.7279 66.6271 19.0726C66.6271 19.4733 66.5149 19.8139 66.2905 20.0945C66.066 20.375 65.7575 20.5914 65.3647 20.7437C64.972 20.8879 64.5192 20.9601 64.0062 20.9601ZM70.1344 20.8158C69.5253 20.8158 69.0765 20.6755 68.788 20.395C68.4994 20.1145 68.3552 19.6777 68.3552 19.0846V12.9172H69.6295V18.9884C69.6295 19.285 69.6936 19.4894 69.8219 19.6016C69.9501 19.7138 70.1465 19.7699 70.411 19.7699H71.3246V20.8158H70.1344ZM67.3814 15.4659V14.42H71.3246V15.4659H67.3814ZM79.0227 21.0082C78.2132 21.0082 77.5199 20.8198 76.9428 20.4431C76.3658 20.0584 75.925 19.5334 75.6204 18.8682C75.3158 18.195 75.1636 17.4255 75.1636 16.56C75.1636 15.7024 75.3158 14.937 75.6204 14.2637C75.933 13.5905 76.3818 13.0615 76.9669 12.6768C77.552 12.2841 78.2532 12.0877 79.0708 12.0877C79.768 12.0877 80.3571 12.2119 80.838 12.4604C81.3269 12.7089 81.7116 13.0495 81.9921 13.4823C82.2807 13.9151 82.481 14.408 82.5932 14.961L81.2347 15.0331C81.1386 14.5122 80.9222 14.0914 80.5855 13.7708C80.2489 13.4422 79.744 13.2779 79.0708 13.2779C78.4777 13.2779 77.9928 13.4262 77.6161 13.7227C77.2394 14.0193 76.9589 14.416 76.7745 14.9129C76.5982 15.4098 76.51 15.9588 76.51 16.56C76.51 17.1851 76.5982 17.7421 76.7745 18.231C76.9589 18.7199 77.2394 19.1087 77.6161 19.3972C78.0008 19.6777 78.4897 19.818 79.0828 19.818C79.5476 19.818 79.9484 19.7178 80.285 19.5174C80.6216 19.317 80.8821 19.0445 81.0664 18.6999C81.2588 18.3553 81.363 17.9746 81.379 17.5578H79.0948V16.4638H82.6173V20.8158H81.7276L81.6435 18.8923L81.8118 19.0365C81.7236 19.4212 81.5433 19.7619 81.2708 20.0584C80.9983 20.3549 80.6657 20.5874 80.273 20.7557C79.8883 20.924 79.4715 21.0082 79.0227 21.0082ZM84.1067 20.8158V14.42H85.2729L85.321 16.1151L85.2128 16.0791C85.3009 15.502 85.4772 15.0812 85.7417 14.8167C86.0142 14.5523 86.3789 14.42 86.8357 14.42H87.4489V15.5621H86.8357C86.5152 15.5621 86.2467 15.6142 86.0303 15.7184C85.8139 15.8226 85.6496 15.9829 85.5374 16.1993C85.4332 16.4157 85.3811 16.6962 85.3811 17.0408V20.8158H84.1067ZM90.9896 20.9601C90.3805 20.9601 89.8475 20.8238 89.3906 20.5513C88.9338 20.2788 88.5811 19.8901 88.3327 19.3852C88.0842 18.8802 87.96 18.2911 87.96 17.6179C87.96 16.9366 88.0842 16.3476 88.3327 15.8506C88.5811 15.3537 88.9338 14.969 89.3906 14.6965C89.8475 14.416 90.3805 14.2757 90.9896 14.2757C91.5987 14.2757 92.1317 14.416 92.5885 14.6965C93.0454 14.969 93.398 15.3537 93.6465 15.8506C93.8949 16.3476 94.0192 16.9366 94.0192 17.6179C94.0192 18.2911 93.8949 18.8802 93.6465 19.3852C93.398 19.8901 93.0454 20.2788 92.5885 20.5513C92.1317 20.8238 91.5987 20.9601 90.9896 20.9601ZM90.9896 19.854C91.5346 19.854 91.9554 19.6577 92.2519 19.2649C92.5485 18.8642 92.6967 18.3152 92.6967 17.6179C92.6967 16.9206 92.5485 16.3756 92.2519 15.9829C91.9554 15.5822 91.5346 15.3818 90.9896 15.3818C90.4526 15.3818 90.0318 15.5822 89.7273 15.9829C89.4307 16.3756 89.2824 16.9206 89.2824 17.6179C89.2824 18.3152 89.4307 18.8642 89.7273 19.2649C90.0318 19.6577 90.4526 19.854 90.9896 19.854ZM96.4179 20.8158L94.4703 14.42H95.8047L97.1753 19.4212L98.5819 14.42H99.7841L101.191 19.4212L102.573 14.42H103.908L101.96 20.8158H100.529L99.183 16.2474L97.8365 20.8158H96.4179ZM107.246 20.8158C106.637 20.8158 106.188 20.6755 105.899 20.395C105.611 20.1145 105.467 19.6777 105.467 19.0846V12.9172H106.741V18.9884C106.741 19.285 106.805 19.4894 106.933 19.6016C107.061 19.7138 107.258 19.7699 107.522 19.7699H108.436V20.8158H107.246ZM104.493 15.4659V14.42H108.436V15.4659H104.493ZM109.654 20.8158V12.2801H110.928V15.8627L110.772 15.8386C110.844 15.478 110.976 15.1854 111.169 14.961C111.361 14.7286 111.597 14.5563 111.878 14.4441C112.158 14.3318 112.467 14.2757 112.804 14.2757C113.268 14.2757 113.661 14.3799 113.982 14.5883C114.302 14.7887 114.543 15.0732 114.703 15.4419C114.871 15.8106 114.956 16.2313 114.956 16.7042V20.8158H113.681V17.0408C113.681 16.4638 113.581 16.039 113.381 15.7665C113.188 15.486 112.884 15.3457 112.467 15.3457C112.002 15.3457 111.629 15.494 111.349 15.7905C111.068 16.0791 110.928 16.5039 110.928 17.0649V20.8158H109.654ZM123.287 21.0082C122.461 21.0082 121.752 20.8318 121.159 20.4792C120.566 20.1185 120.109 19.6056 119.788 18.9403C119.468 18.2751 119.307 17.4817 119.307 16.56C119.307 15.6383 119.468 14.8448 119.788 14.1796C120.109 13.5063 120.566 12.9894 121.159 12.6287C121.752 12.268 122.461 12.0877 123.287 12.0877C124.12 12.0877 124.834 12.268 125.427 12.6287C126.028 12.9894 126.485 13.5063 126.797 14.1796C127.118 14.8448 127.278 15.6383 127.278 16.56C127.278 17.4817 127.118 18.2751 126.797 18.9403C126.485 19.6056 126.028 20.1185 125.427 20.4792C124.834 20.8318 124.12 21.0082 123.287 21.0082ZM123.287 19.818C123.84 19.818 124.313 19.6897 124.705 19.4332C125.106 19.1768 125.411 18.8081 125.619 18.3272C125.827 17.8383 125.932 17.2492 125.932 16.56C125.932 15.8707 125.827 15.2816 125.619 14.7927C125.411 14.3038 125.106 13.9311 124.705 13.6746C124.313 13.4102 123.84 13.2779 123.287 13.2779C122.742 13.2779 122.273 13.4102 121.88 13.6746C121.487 13.9311 121.183 14.3038 120.966 14.7927C120.758 15.2816 120.654 15.8707 120.654 16.56C120.654 17.2492 120.758 17.8383 120.966 18.3272C121.183 18.8081 121.487 19.1768 121.88 19.4332C122.273 19.6897 122.742 19.818 123.287 19.818ZM130.204 20.8158L127.872 14.42H129.23L130.973 19.5174L132.717 14.42H134.087L131.743 20.8158H130.204ZM137.54 20.9601C136.915 20.9601 136.374 20.8238 135.917 20.5513C135.468 20.2788 135.12 19.8901 134.871 19.3852C134.631 18.8802 134.511 18.2911 134.511 17.6179C134.511 16.9447 134.631 16.3596 134.871 15.8627C135.12 15.3577 135.468 14.969 135.917 14.6965C136.366 14.416 136.895 14.2757 137.504 14.2757C138.081 14.2757 138.59 14.412 139.031 14.6845C139.472 14.949 139.812 15.3337 140.053 15.8386C140.301 16.3436 140.426 16.9527 140.426 17.666V17.9906H135.833C135.865 18.6157 136.029 19.0846 136.326 19.3972C136.631 19.7098 137.039 19.866 137.552 19.866C137.929 19.866 138.241 19.7779 138.49 19.6016C138.738 19.4252 138.911 19.1888 139.007 18.8923L140.329 18.9764C140.161 19.5695 139.828 20.0504 139.332 20.4191C138.843 20.7797 138.246 20.9601 137.54 20.9601ZM135.833 17.0288H139.079C139.039 16.4598 138.875 16.039 138.586 15.7665C138.306 15.494 137.945 15.3577 137.504 15.3577C137.047 15.3577 136.671 15.502 136.374 15.7905C136.086 16.0711 135.905 16.4838 135.833 17.0288ZM141.717 20.8158V14.42H142.883L142.931 16.1151L142.823 16.0791C142.911 15.502 143.087 15.0812 143.352 14.8167C143.624 14.5523 143.989 14.42 144.446 14.42H145.059V15.5621H144.446C144.125 15.5621 143.857 15.6142 143.64 15.7184C143.424 15.8226 143.26 15.9829 143.147 16.1993C143.043 16.4157 142.991 16.6962 142.991 17.0408V20.8158H141.717ZM151.235 20.8158V13.4703H148.614V12.2801H155.154V13.4703H152.533V20.8158H151.235ZM155.887 20.8158V14.42H157.162V20.8158H155.887ZM155.863 13.4943V12.22H157.186V13.4943H155.863ZM159.069 20.8158V14.42H160.235L160.271 16.0069L160.127 15.9588C160.199 15.6062 160.323 15.3056 160.5 15.0572C160.684 14.8087 160.908 14.6164 161.173 14.4801C161.437 14.3439 161.726 14.2757 162.039 14.2757C162.584 14.2757 163.028 14.432 163.373 14.7446C163.718 15.0492 163.934 15.4699 164.022 16.0069H163.818C163.89 15.6302 164.01 15.3177 164.178 15.0692C164.355 14.8127 164.579 14.6164 164.852 14.4801C165.124 14.3439 165.433 14.2757 165.777 14.2757C166.226 14.2757 166.607 14.3719 166.92 14.5643C167.24 14.7486 167.481 15.0211 167.641 15.3818C167.809 15.7424 167.893 16.1833 167.893 16.7042V20.8158H166.619V17.0168C166.619 16.4638 166.519 16.047 166.318 15.7665C166.118 15.486 165.813 15.3457 165.405 15.3457C165.14 15.3457 164.908 15.4138 164.707 15.5501C164.507 15.6863 164.351 15.8827 164.239 16.1392C164.134 16.3957 164.082 16.7042 164.082 17.0649V20.8158H162.868V17.0649C162.868 16.5199 162.776 16.0991 162.592 15.8026C162.415 15.498 162.111 15.3457 161.678 15.3457C161.405 15.3457 161.169 15.4138 160.969 15.5501C160.776 15.6863 160.624 15.8867 160.512 16.1512C160.4 16.4077 160.343 16.7122 160.343 17.0649V20.8158H159.069ZM172.198 20.9601C171.573 20.9601 171.032 20.8238 170.575 20.5513C170.126 20.2788 169.777 19.8901 169.529 19.3852C169.288 18.8802 169.168 18.2911 169.168 17.6179C169.168 16.9447 169.288 16.3596 169.529 15.8627C169.777 15.3577 170.126 14.969 170.575 14.6965C171.024 14.416 171.553 14.2757 172.162 14.2757C172.739 14.2757 173.248 14.412 173.689 14.6845C174.129 14.949 174.47 15.3337 174.71 15.8386C174.959 16.3436 175.083 16.9527 175.083 17.666V17.9906H170.491C170.523 18.6157 170.687 19.0846 170.984 19.3972C171.288 19.7098 171.697 19.866 172.21 19.866C172.587 19.866 172.899 19.7779 173.148 19.6016C173.396 19.4252 173.568 19.1888 173.665 18.8923L174.987 18.9764C174.819 19.5695 174.486 20.0504 173.989 20.4191C173.5 20.7797 172.903 20.9601 172.198 20.9601ZM170.491 17.0288H173.737C173.697 16.4598 173.532 16.039 173.244 15.7665C172.963 15.494 172.603 15.3577 172.162 15.3577C171.705 15.3577 171.328 15.502 171.032 15.7905C170.743 16.0711 170.563 16.4838 170.491 17.0288Z" fill="#E3E8FF"/>
<rect x="34.1621" y="63.2467" width="36" height="235" rx="7.55993" fill="#E3E8FF" fill-opacity="0.02"/>
<rect x="85.1621" y="63.2467" width="35" height="235" rx="7.55993" fill="#E3E8FF" fill-opacity="0.02"/>
<rect x="135.162" y="63.2467" width="36" height="235" rx="7.55993" fill="#E3E8FF" fill-opacity="0.02"/>
<rect x="188.162" y="63.2467" width="36" height="235" rx="7.55993" fill="#E3E8FF" fill-opacity="0.02"/>
<rect x="241.162" y="63.2467" width="36" height="235" rx="7.55993" fill="#E3E8FF" fill-opacity="0.02"/>
<rect x="294.162" y="63.2467" width="36" height="235" rx="7.55993" fill="#E3E8FF" fill-opacity="0.02"/>
<rect x="346.162" y="63.2467" width="36" height="235" rx="7.55993" fill="url(#paint0_linear_2255_1285)"/>
<rect x="396.162" y="63.2467" width="36" height="235" rx="7.55993" fill="#E3E8FF" fill-opacity="0.02"/>
<rect x="446.162" y="63.2467" width="36" height="235" rx="7.55993" fill="#E3E8FF" fill-opacity="0.02"/>
<rect x="497.162" y="63.2467" width="35" height="235" rx="7.55993" fill="#E3E8FF" fill-opacity="0.02"/>
<rect x="547.162" y="63.2467" width="36" height="235" rx="7.55993" fill="#E3E8FF" fill-opacity="0.02"/>
<rect x="597.162" y="63.2467" width="36" height="235" rx="7.55993" fill="#E3E8FF" fill-opacity="0.02"/>
<path d="M45.4124 309.442V313.549C45.4124 314.006 45.2716 314.372 44.9899 314.649C44.7081 314.92 44.3361 315.055 43.8736 315.055C43.4059 315.055 43.0312 314.917 42.7495 314.641C42.4677 314.359 42.3269 313.976 42.3269 313.493H43.0524C43.0577 313.764 43.1268 313.984 43.2597 314.155C43.3979 314.325 43.6026 314.41 43.8736 314.41C44.1447 314.41 44.3467 314.33 44.4796 314.17C44.6125 314.006 44.6789 313.798 44.6789 313.549V309.442H45.4124ZM50.1266 313.764H47.7028L47.2563 315H46.4909L48.5001 309.474H49.3373L51.3385 315H50.5731L50.1266 313.764ZM49.9193 313.174L48.9147 310.367L47.9101 313.174H49.9193ZM56.5833 315H55.8578L52.9397 310.575V315H52.2141V309.435H52.9397L55.8578 313.852V309.435H56.5833V315Z" fill="#474B4E"/>
<path d="M7.57635 266.985C7.57635 266.071 7.72518 265.359 8.02284 264.849C8.32049 264.333 8.84139 264.075 9.58553 264.075C10.3244 264.075 10.8426 264.333 11.1403 264.849C11.4379 265.359 11.5867 266.071 11.5867 266.985C11.5867 267.916 11.4379 268.639 11.1403 269.154C10.8426 269.67 10.3244 269.927 9.58553 269.927C8.84139 269.927 8.32049 269.67 8.02284 269.154C7.72518 268.639 7.57635 267.916 7.57635 266.985ZM10.8692 266.985C10.8692 266.523 10.8373 266.132 10.7735 265.813C10.715 265.489 10.5901 265.229 10.3988 265.032C10.2127 264.835 9.94166 264.737 9.58553 264.737C9.22409 264.737 8.9477 264.835 8.75635 265.032C8.57031 265.229 8.4454 265.489 8.38162 265.813C8.32315 266.132 8.29392 266.523 8.29392 266.985C8.29392 267.464 8.32315 267.865 8.38162 268.189C8.4454 268.514 8.57031 268.774 8.75635 268.971C8.9477 269.167 9.22409 269.266 9.58553 269.266C9.94166 269.266 10.2127 269.167 10.3988 268.971C10.5901 268.774 10.715 268.514 10.7735 268.189C10.8373 267.865 10.8692 267.464 10.8692 266.985Z" fill="#474B4E"/>
<path d="M7.48865 237.243C8.16369 236.701 8.69256 236.257 9.07527 235.911C9.45797 235.561 9.77954 235.196 10.04 234.819C10.3058 234.436 10.4386 234.062 10.4386 233.695C10.4386 233.349 10.3536 233.078 10.1835 232.882C10.0187 232.68 9.75031 232.579 9.37824 232.579C9.0168 232.579 8.73509 232.693 8.53311 232.921C8.33644 233.145 8.23013 233.445 8.21419 233.822H7.51257C7.53383 233.227 7.71455 232.767 8.05473 232.443C8.39491 232.119 8.83342 231.957 9.37026 231.957C9.91774 231.957 10.3509 232.108 10.6699 232.411C10.9941 232.714 11.1562 233.131 11.1562 233.663C11.1562 234.104 11.0233 234.535 10.7576 234.955C10.4971 235.369 10.1994 235.736 9.86459 236.055C9.52972 236.368 9.10184 236.735 8.58094 237.155H11.3236V237.761H7.48865V237.243Z" fill="#474B4E"/>
<path d="M7.40095 202.187V201.637L10.1994 197.762H11.0685V201.557H11.8658V202.187H11.0685V203.47H10.3509V202.187H7.40095ZM10.3828 198.519L8.23811 201.557H10.3828V198.519Z" fill="#474B4E"/>
<path d="M10.7894 164.723C10.6725 164.133 10.3084 163.838 9.69715 163.838C9.22409 163.838 8.87063 164.021 8.63675 164.388C8.40288 164.75 8.2886 165.348 8.29392 166.182C8.41617 165.906 8.61815 165.69 8.89986 165.536C9.18689 165.377 9.5058 165.297 9.85661 165.297C10.4041 165.297 10.8399 165.467 11.1642 165.807C11.4937 166.147 11.6585 166.618 11.6585 167.219C11.6585 167.58 11.5867 167.904 11.4432 168.191C11.305 168.478 11.0924 168.707 10.8054 168.877C10.5237 169.047 10.1808 169.132 9.77688 169.132C9.22941 169.132 8.80153 169.01 8.49324 168.765C8.18495 168.521 7.96968 168.183 7.84743 167.753C7.72518 167.322 7.66406 166.791 7.66406 166.158C7.66406 164.207 8.34441 163.232 9.70513 163.232C10.226 163.232 10.6353 163.373 10.933 163.655C11.2306 163.936 11.406 164.292 11.4592 164.723H10.7894ZM9.70513 165.911C9.47657 165.911 9.2613 165.959 9.05932 166.054C8.85734 166.145 8.69256 166.286 8.565 166.477C8.44275 166.663 8.38162 166.892 8.38162 167.163C8.38162 167.567 8.49856 167.896 8.73243 168.151C8.9663 168.401 9.30116 168.526 9.73702 168.526C10.1091 168.526 10.4041 168.412 10.622 168.183C10.8453 167.949 10.9569 167.636 10.9569 167.242C10.9569 166.828 10.8506 166.504 10.638 166.27C10.4253 166.031 10.1144 165.911 9.70513 165.911Z" fill="#474B4E"/>
<path d="M8.62878 131.764C8.33112 131.647 8.10257 131.477 7.94311 131.254C7.78365 131.03 7.70392 130.759 7.70392 130.44C7.70392 130.153 7.77568 129.896 7.91919 129.667C8.0627 129.433 8.27531 129.25 8.55702 129.117C8.84405 128.979 9.18954 128.91 9.59351 128.91C9.99747 128.91 10.3403 128.979 10.622 129.117C10.909 129.25 11.1243 129.433 11.2678 129.667C11.4167 129.896 11.4911 130.153 11.4911 130.44C11.4911 130.749 11.4087 131.02 11.2439 131.254C11.0791 131.482 10.8532 131.652 10.5662 131.764C10.8958 131.865 11.1562 132.043 11.3476 132.298C11.5442 132.548 11.6426 132.851 11.6426 133.207C11.6426 133.552 11.5575 133.855 11.3874 134.116C11.2173 134.371 10.9755 134.57 10.6619 134.714C10.3536 134.852 9.99747 134.921 9.59351 134.921C9.18954 134.921 8.83342 134.852 8.52513 134.714C8.22216 134.57 7.98563 134.371 7.81554 134.116C7.64545 133.855 7.56041 133.552 7.56041 133.207C7.56041 132.851 7.65608 132.545 7.84743 132.29C8.03878 132.035 8.29923 131.86 8.62878 131.764ZM10.7894 130.528C10.7894 130.204 10.6831 129.954 10.4705 129.779C10.2579 129.603 9.96558 129.516 9.59351 129.516C9.22675 129.516 8.93707 129.603 8.72446 129.779C8.51184 129.954 8.40554 130.207 8.40554 130.536C8.40554 130.834 8.5145 131.073 8.73243 131.254C8.95567 131.434 9.2427 131.525 9.59351 131.525C9.94963 131.525 10.2367 131.434 10.4546 131.254C10.6778 131.068 10.7894 130.826 10.7894 130.528ZM9.59351 132.083C9.20017 132.083 8.8786 132.176 8.62878 132.362C8.37896 132.543 8.25405 132.816 8.25405 133.183C8.25405 133.523 8.37365 133.797 8.61283 134.004C8.85734 134.212 9.18423 134.315 9.59351 134.315C10.0028 134.315 10.327 134.212 10.5662 134.004C10.8054 133.797 10.925 133.523 10.925 133.183C10.925 132.827 10.8027 132.556 10.5582 132.37C10.3137 132.178 9.99215 132.083 9.59351 132.083Z" fill="#474B4E"/>
<path d="M5.94946 95.3047V94.6429H7.44837V100.407H6.71486V95.3047H5.94946ZM8.69464 97.4653C8.69464 96.5511 8.84347 95.8389 9.14112 95.3286C9.43878 94.813 9.95968 94.5552 10.7038 94.5552C11.4426 94.5552 11.9609 94.813 12.2585 95.3286C12.5562 95.8389 12.705 96.5511 12.705 97.4653C12.705 98.3955 12.5562 99.1184 12.2585 99.634C11.9609 100.15 11.4426 100.407 10.7038 100.407C9.95968 100.407 9.43878 100.15 9.14112 99.634C8.84347 99.1184 8.69464 98.3955 8.69464 97.4653ZM11.9875 97.4653C11.9875 97.0029 11.9556 96.6122 11.8918 96.2933C11.8333 95.9691 11.7084 95.7086 11.5171 95.512C11.331 95.3153 11.0599 95.217 10.7038 95.217C10.3424 95.217 10.066 95.3153 9.87463 95.512C9.6886 95.7086 9.56369 95.9691 9.4999 96.2933C9.44144 96.6122 9.4122 97.0029 9.4122 97.4653C9.4122 97.9437 9.44144 98.345 9.4999 98.6692C9.56369 98.9935 9.6886 99.2539 9.87463 99.4506C10.066 99.6473 10.3424 99.7456 10.7038 99.7456C11.0599 99.7456 11.331 99.6473 11.5171 99.4506C11.7084 99.2539 11.8333 98.9935 11.8918 98.6692C11.9556 98.345 11.9875 97.9437 11.9875 97.4653Z" fill="#474B4E"/>
<path d="M5.94946 60.9493V60.2876H7.44837V66.052H6.71486V60.9493H5.94946ZM8.60693 65.47C9.28198 64.9278 9.81085 64.484 10.1935 64.1385C10.5763 63.7877 10.8978 63.4236 11.1583 63.0462C11.424 62.6635 11.5569 62.2888 11.5569 61.922C11.5569 61.5765 11.4719 61.3054 11.3018 61.1088C11.137 60.9068 10.8686 60.8058 10.4965 60.8058C10.1351 60.8058 9.85337 60.9201 9.65139 61.1486C9.45472 61.3719 9.34842 61.6722 9.33247 62.0496H8.63085C8.65211 61.4543 8.83283 60.9945 9.17301 60.6703C9.51319 60.346 9.9517 60.1839 10.4885 60.1839C11.036 60.1839 11.4692 60.3354 11.7881 60.6384C12.1124 60.9414 12.2745 61.3586 12.2745 61.8901C12.2745 62.3313 12.1416 62.7618 11.8758 63.1817C11.6154 63.5963 11.3177 63.9631 10.9829 64.282C10.648 64.5956 10.2201 64.9624 9.69923 65.3823H12.4419V65.9882H8.60693V65.47Z" fill="#474B4E"/>
<path d="M97.4349 309.442V310.032H95.0191V311.906H96.9805V312.496H95.0191V315H94.2936V309.442H97.4349ZM99.0368 310.032V311.89H101.062V312.488H99.0368V314.402H101.301V315H98.3112V309.435H101.301V310.032H99.0368ZM105.181 312.137C105.383 312.169 105.567 312.252 105.732 312.385C105.902 312.517 106.035 312.682 106.13 312.879C106.231 313.075 106.282 313.285 106.282 313.509C106.282 313.79 106.21 314.046 106.066 314.274C105.923 314.497 105.713 314.675 105.437 314.808C105.166 314.936 104.844 315 104.472 315H102.399V309.442H104.392C104.77 309.442 105.091 309.506 105.357 309.634C105.623 309.756 105.822 309.924 105.955 310.136C106.088 310.349 106.154 310.588 106.154 310.854C106.154 311.183 106.064 311.457 105.883 311.675C105.708 311.888 105.474 312.042 105.181 312.137ZM103.124 311.842H104.344C104.684 311.842 104.948 311.763 105.134 311.603C105.32 311.444 105.413 311.223 105.413 310.941C105.413 310.66 105.32 310.439 105.134 310.28C104.948 310.12 104.679 310.04 104.328 310.04H103.124V311.842ZM104.408 314.402C104.77 314.402 105.051 314.317 105.253 314.147C105.455 313.976 105.556 313.74 105.556 313.437C105.556 313.129 105.45 312.887 105.237 312.711C105.025 312.531 104.74 312.44 104.384 312.44H103.124V314.402H104.408Z" fill="#474B4E"/>
<path d="M148.737 309.482V315H148.012V310.886L146.178 315H145.668L143.826 310.878V315H143.1V309.482H143.882L145.923 314.043L147.964 309.482H148.737ZM153.252 313.764H150.829L150.382 315H149.617L151.626 309.474H152.463L154.464 315H153.699L153.252 313.764ZM153.045 313.174L152.041 310.367L151.036 313.174H153.045ZM158.266 315L156.943 312.727H156.065V315H155.34V309.442H157.134C157.554 309.442 157.907 309.514 158.194 309.658C158.487 309.801 158.705 309.995 158.848 310.24C158.992 310.484 159.063 310.763 159.063 311.077C159.063 311.46 158.952 311.797 158.728 312.09C158.511 312.382 158.181 312.576 157.74 312.672L159.135 315H158.266ZM156.065 312.145H157.134C157.527 312.145 157.822 312.05 158.019 311.858C158.216 311.662 158.314 311.401 158.314 311.077C158.314 310.747 158.216 310.492 158.019 310.312C157.828 310.131 157.533 310.04 157.134 310.04H156.065V312.145Z" fill="#474B4E"/>
<path d="M200.936 313.764H198.512L198.066 315H197.3L199.309 309.474H200.147L202.148 315H201.382L200.936 313.764ZM200.729 313.174L199.724 310.367L198.719 313.174H200.729ZM206.739 311.069C206.739 311.531 206.579 311.917 206.26 312.225C205.947 312.528 205.466 312.68 204.817 312.68H203.749V315H203.023V309.442H204.817C205.445 309.442 205.92 309.594 206.244 309.897C206.574 310.2 206.739 310.591 206.739 311.069ZM204.817 312.082C205.221 312.082 205.519 311.994 205.71 311.818C205.902 311.643 205.997 311.393 205.997 311.069C205.997 310.383 205.604 310.04 204.817 310.04H203.749V312.082H204.817ZM210.567 315L209.243 312.727H208.366V315H207.641V309.442H209.434C209.854 309.442 210.208 309.514 210.495 309.658C210.787 309.801 211.005 309.995 211.149 310.24C211.292 310.484 211.364 310.763 211.364 311.077C211.364 311.46 211.252 311.797 211.029 312.09C210.811 312.382 210.482 312.576 210.04 312.672L211.436 315H210.567ZM208.366 312.145H209.434C209.828 312.145 210.123 312.05 210.319 311.858C210.516 311.662 210.614 311.401 210.614 311.077C210.614 310.747 210.516 310.492 210.319 310.312C210.128 310.131 209.833 310.04 209.434 310.04H208.366V312.145Z" fill="#474B4E"/>
<path d="M254.249 309.482V315H253.523V310.886L251.69 315H251.179L249.338 310.878V315H248.612V309.482H249.393L251.434 314.043L253.475 309.482H254.249ZM258.764 313.764H256.34L255.894 315H255.128L257.138 309.474H257.975L259.976 315H259.211L258.764 313.764ZM258.557 313.174L257.552 310.367L256.548 313.174H258.557ZM264.742 309.442L262.933 312.903V315H262.207V312.903L260.389 309.442H261.195L262.566 312.257L263.937 309.442H264.742Z" fill="#474B4E"/>
<path d="M305.242 309.442V313.549C305.242 314.006 305.102 314.372 304.82 314.649C304.538 314.92 304.166 315.055 303.704 315.055C303.236 315.055 302.861 314.917 302.58 314.641C302.298 314.359 302.157 313.976 302.157 313.493H302.883C302.888 313.764 302.957 313.984 303.09 314.155C303.228 314.325 303.433 314.41 303.704 314.41C303.975 314.41 304.177 314.33 304.31 314.17C304.443 314.006 304.509 313.798 304.509 313.549V309.442H305.242ZM307.381 309.442V312.959C307.381 313.453 307.501 313.82 307.74 314.059C307.985 314.298 308.322 314.418 308.753 314.418C309.178 314.418 309.51 314.298 309.749 314.059C309.994 313.82 310.116 313.453 310.116 312.959V309.442H310.842V312.951C310.842 313.413 310.749 313.804 310.563 314.123C310.377 314.436 310.124 314.67 309.805 314.824C309.492 314.978 309.138 315.055 308.745 315.055C308.351 315.055 307.995 314.978 307.676 314.824C307.363 314.67 307.113 314.436 306.927 314.123C306.746 313.804 306.656 313.413 306.656 312.951V309.442H307.381ZM316.421 315H315.696L312.778 310.575V315H312.052V309.435H312.778L315.696 313.852V309.435H316.421V315Z" fill="#474B4E"/>
<path d="M359.073 309.442V313.549C359.073 314.006 358.932 314.372 358.65 314.649C358.368 314.92 357.996 315.055 357.534 315.055C357.066 315.055 356.691 314.917 356.41 314.641C356.128 314.359 355.987 313.976 355.987 313.493H356.713C356.718 313.764 356.787 313.984 356.92 314.155C357.058 314.325 357.263 314.41 357.534 314.41C357.805 314.41 358.007 314.33 358.14 314.17C358.273 314.006 358.339 313.798 358.339 313.549V309.442H359.073ZM361.211 309.442V312.959C361.211 313.453 361.331 313.82 361.57 314.059C361.815 314.298 362.152 314.418 362.583 314.418C363.008 314.418 363.34 314.298 363.579 314.059C363.824 313.82 363.946 313.453 363.946 312.959V309.442H364.672V312.951C364.672 313.413 364.579 313.804 364.393 314.123C364.207 314.436 363.954 314.67 363.635 314.824C363.322 314.978 362.968 315.055 362.575 315.055C362.182 315.055 361.825 314.978 361.506 314.824C361.193 314.67 360.943 314.436 360.757 314.123C360.576 313.804 360.486 313.413 360.486 312.951V309.442H361.211ZM366.608 314.41H368.553V315H365.882V309.442H366.608V314.41Z" fill="#474B4E"/>
<path d="M406.215 313.764H403.791L403.345 315H402.58L404.589 309.474H405.426L407.427 315H406.662L406.215 313.764ZM406.008 313.174L405.003 310.367L403.999 313.174H406.008ZM412.178 310.63V315H411.452V314.354C411.314 314.577 411.12 314.752 410.87 314.88C410.625 315.002 410.354 315.063 410.057 315.063C409.717 315.063 409.411 314.994 409.14 314.856C408.869 314.713 408.654 314.5 408.494 314.218C408.34 313.937 408.263 313.594 408.263 313.19V310.63H408.98V313.094C408.98 313.525 409.089 313.857 409.307 314.091C409.525 314.319 409.823 314.434 410.2 314.434C410.588 314.434 410.894 314.314 411.117 314.075C411.34 313.836 411.452 313.487 411.452 313.03V310.63H412.178ZM415.204 310.559C415.582 310.559 415.911 310.641 416.193 310.806C416.48 310.971 416.693 311.178 416.831 311.428V310.63H417.564V315.095C417.564 315.494 417.479 315.847 417.309 316.156C417.139 316.469 416.895 316.714 416.576 316.889C416.262 317.065 415.895 317.152 415.476 317.152C414.901 317.152 414.423 317.017 414.04 316.746C413.658 316.475 413.432 316.105 413.363 315.637H414.08C414.16 315.903 414.325 316.116 414.575 316.275C414.824 316.44 415.125 316.522 415.476 316.522C415.874 316.522 416.198 316.398 416.448 316.148C416.703 315.898 416.831 315.547 416.831 315.095V314.178C416.687 314.434 416.475 314.646 416.193 314.816C415.911 314.986 415.582 315.071 415.204 315.071C414.816 315.071 414.463 314.976 414.144 314.784C413.83 314.593 413.583 314.325 413.403 313.979C413.222 313.634 413.132 313.24 413.132 312.799C413.132 312.353 413.222 311.962 413.403 311.627C413.583 311.287 413.83 311.024 414.144 310.838C414.463 310.652 414.816 310.559 415.204 310.559ZM416.831 312.807C416.831 312.478 416.765 312.191 416.632 311.946C416.499 311.701 416.318 311.515 416.089 311.388C415.866 311.255 415.619 311.189 415.348 311.189C415.077 311.189 414.83 311.252 414.606 311.38C414.383 311.507 414.205 311.694 414.072 311.938C413.939 312.183 413.873 312.47 413.873 312.799C413.873 313.134 413.939 313.426 414.072 313.676C414.205 313.921 414.383 314.109 414.606 314.242C414.83 314.37 415.077 314.434 415.348 314.434C415.619 314.434 415.866 314.37 416.089 314.242C416.318 314.109 416.499 313.921 416.632 313.676C416.765 313.426 416.831 313.137 416.831 312.807Z" fill="#474B4E"/>
<path d="M457.087 315.055C456.72 315.055 456.391 314.992 456.098 314.864C455.811 314.731 455.585 314.55 455.421 314.322C455.256 314.088 455.171 313.82 455.165 313.517H455.939C455.965 313.777 456.072 313.998 456.258 314.178C456.449 314.354 456.725 314.442 457.087 314.442C457.432 314.442 457.703 314.356 457.9 314.186C458.102 314.011 458.203 313.788 458.203 313.517C458.203 313.304 458.145 313.131 458.028 312.998C457.911 312.866 457.765 312.765 457.589 312.695C457.414 312.626 457.177 312.552 456.88 312.472C456.513 312.377 456.218 312.281 455.995 312.185C455.777 312.09 455.588 311.941 455.429 311.739C455.274 311.531 455.197 311.255 455.197 310.91C455.197 310.607 455.274 310.338 455.429 310.104C455.583 309.87 455.798 309.69 456.074 309.562C456.356 309.435 456.678 309.371 457.039 309.371C457.56 309.371 457.985 309.501 458.315 309.761C458.65 310.022 458.838 310.367 458.881 310.798H458.083C458.057 310.585 457.945 310.399 457.749 310.24C457.552 310.075 457.292 309.993 456.967 309.993C456.664 309.993 456.417 310.072 456.226 310.232C456.034 310.386 455.939 310.604 455.939 310.886C455.939 311.088 455.995 311.252 456.106 311.38C456.223 311.507 456.364 311.606 456.529 311.675C456.699 311.739 456.935 311.813 457.238 311.898C457.605 311.999 457.9 312.1 458.123 312.201C458.347 312.297 458.538 312.448 458.697 312.656C458.857 312.858 458.937 313.134 458.937 313.485C458.937 313.756 458.865 314.011 458.721 314.25C458.578 314.489 458.365 314.683 458.083 314.832C457.802 314.981 457.47 315.055 457.087 315.055ZM463.991 312.648C463.991 312.786 463.983 312.932 463.967 313.086H460.475C460.501 313.517 460.647 313.854 460.913 314.099C461.184 314.338 461.511 314.457 461.894 314.457C462.207 314.457 462.468 314.386 462.675 314.242C462.888 314.093 463.037 313.897 463.122 313.652H463.903C463.786 314.072 463.552 314.415 463.201 314.681C462.851 314.941 462.415 315.071 461.894 315.071C461.479 315.071 461.107 314.978 460.778 314.792C460.453 314.606 460.198 314.343 460.012 314.003C459.826 313.658 459.733 313.259 459.733 312.807C459.733 312.355 459.824 311.959 460.004 311.619C460.185 311.279 460.437 311.018 460.762 310.838C461.091 310.652 461.469 310.559 461.894 310.559C462.308 310.559 462.675 310.649 462.994 310.83C463.313 311.011 463.558 311.26 463.728 311.579C463.903 311.893 463.991 312.249 463.991 312.648ZM463.241 312.496C463.241 312.22 463.18 311.983 463.058 311.787C462.936 311.585 462.768 311.433 462.556 311.332C462.348 311.226 462.117 311.173 461.862 311.173C461.495 311.173 461.182 311.29 460.921 311.523C460.666 311.757 460.52 312.082 460.483 312.496H463.241ZM465.674 311.436C465.817 311.186 466.03 310.979 466.312 310.814C466.599 310.644 466.931 310.559 467.308 310.559C467.696 310.559 468.047 310.652 468.361 310.838C468.68 311.024 468.93 311.287 469.11 311.627C469.291 311.962 469.381 312.353 469.381 312.799C469.381 313.24 469.291 313.634 469.11 313.979C468.93 314.325 468.68 314.593 468.361 314.784C468.047 314.976 467.696 315.071 467.308 315.071C466.936 315.071 466.607 314.989 466.32 314.824C466.038 314.654 465.823 314.444 465.674 314.194V317.073H464.948V310.63H465.674V311.436ZM468.64 312.799C468.64 312.47 468.573 312.183 468.441 311.938C468.308 311.694 468.127 311.507 467.898 311.38C467.675 311.252 467.428 311.189 467.157 311.189C466.891 311.189 466.644 311.255 466.415 311.388C466.192 311.515 466.011 311.704 465.873 311.954C465.74 312.198 465.674 312.483 465.674 312.807C465.674 313.137 465.74 313.426 465.873 313.676C466.011 313.921 466.192 314.109 466.415 314.242C466.644 314.37 466.891 314.434 467.157 314.434C467.428 314.434 467.675 314.37 467.898 314.242C468.127 314.109 468.308 313.921 468.441 313.676C468.573 313.426 468.64 313.134 468.64 312.799Z" fill="#474B4E"/>
<path d="M509.522 315.055C509.006 315.055 508.536 314.936 508.111 314.697C507.686 314.452 507.348 314.115 507.098 313.684C506.854 313.248 506.732 312.759 506.732 312.217C506.732 311.675 506.854 311.189 507.098 310.758C507.348 310.322 507.686 309.985 508.111 309.745C508.536 309.501 509.006 309.379 509.522 309.379C510.043 309.379 510.516 309.501 510.941 309.745C511.366 309.985 511.701 310.32 511.946 310.75C512.19 311.181 512.313 311.67 512.313 312.217C512.313 312.765 512.19 313.254 511.946 313.684C511.701 314.115 511.366 314.452 510.941 314.697C510.516 314.936 510.043 315.055 509.522 315.055ZM509.522 314.426C509.91 314.426 510.258 314.335 510.566 314.155C510.88 313.974 511.125 313.716 511.3 313.381C511.481 313.046 511.571 312.658 511.571 312.217C511.571 311.771 511.481 311.383 511.3 311.053C511.125 310.718 510.883 310.46 510.574 310.28C510.266 310.099 509.915 310.009 509.522 310.009C509.129 310.009 508.778 310.099 508.47 310.28C508.161 310.46 507.917 310.718 507.736 311.053C507.561 311.383 507.473 311.771 507.473 312.217C507.473 312.658 507.561 313.046 507.736 313.381C507.917 313.716 508.161 313.974 508.47 314.155C508.783 314.335 509.134 314.426 509.522 314.426ZM512.999 312.807C512.999 312.355 513.09 311.962 513.27 311.627C513.451 311.287 513.701 311.024 514.02 310.838C514.344 310.652 514.713 310.559 515.128 310.559C515.665 310.559 516.106 310.689 516.452 310.949C516.802 311.21 517.034 311.571 517.145 312.034H516.364C516.289 311.768 516.143 311.558 515.925 311.404C515.713 311.25 515.447 311.173 515.128 311.173C514.713 311.173 514.379 311.316 514.123 311.603C513.868 311.885 513.741 312.286 513.741 312.807C513.741 313.333 513.868 313.74 514.123 314.027C514.379 314.314 514.713 314.457 515.128 314.457C515.447 314.457 515.713 314.383 515.925 314.234C516.138 314.085 516.284 313.873 516.364 313.596H517.145C517.028 314.043 516.794 314.402 516.444 314.673C516.093 314.939 515.654 315.071 515.128 315.071C514.713 315.071 514.344 314.978 514.02 314.792C513.701 314.606 513.451 314.343 513.27 314.003C513.09 313.663 512.999 313.264 512.999 312.807ZM518.998 311.228V313.804C518.998 314.016 519.043 314.168 519.134 314.258C519.224 314.343 519.381 314.386 519.604 314.386H520.138V315H519.485C519.081 315 518.778 314.907 518.576 314.721C518.374 314.535 518.273 314.229 518.273 313.804V311.228H517.707V310.63H518.273V309.53H518.998V310.63H520.138V311.228H518.998Z" fill="#474B4E"/>
<path d="M560.432 314.949H559.707L556.789 310.524V314.949H556.063V309.384H556.789L559.707 313.801V309.384H560.432V314.949ZM563.575 315.021C563.165 315.021 562.793 314.928 562.458 314.742C562.129 314.556 561.868 314.292 561.677 313.952C561.491 313.607 561.398 313.208 561.398 312.756C561.398 312.31 561.494 311.916 561.685 311.576C561.882 311.231 562.147 310.968 562.482 310.787C562.817 310.601 563.192 310.508 563.607 310.508C564.021 310.508 564.396 310.601 564.731 310.787C565.066 310.968 565.329 311.228 565.52 311.568C565.717 311.909 565.815 312.304 565.815 312.756C565.815 313.208 565.714 313.607 565.512 313.952C565.315 314.292 565.047 314.556 564.707 314.742C564.367 314.928 563.989 315.021 563.575 315.021ZM563.575 314.383C563.835 314.383 564.08 314.322 564.308 314.199C564.537 314.077 564.72 313.894 564.858 313.649C565.002 313.405 565.074 313.107 565.074 312.756C565.074 312.405 565.004 312.108 564.866 311.863C564.728 311.619 564.547 311.438 564.324 311.321C564.101 311.199 563.859 311.138 563.599 311.138C563.333 311.138 563.088 311.199 562.865 311.321C562.647 311.438 562.472 311.619 562.339 311.863C562.206 312.108 562.14 312.405 562.14 312.756C562.14 313.112 562.203 313.413 562.331 313.657C562.464 313.902 562.639 314.085 562.857 314.207C563.075 314.324 563.314 314.383 563.575 314.383ZM568.395 314.279L569.751 310.58H570.524L568.81 314.949H567.965L566.251 310.58H567.032L568.395 314.279Z" fill="#474B4E"/>
<path d="M609.473 309.392C610.079 309.392 610.602 309.506 611.044 309.735C611.49 309.958 611.83 310.279 612.064 310.699C612.303 311.119 612.423 311.614 612.423 312.182C612.423 312.751 612.303 313.245 612.064 313.665C611.83 314.08 611.49 314.399 611.044 314.622C610.602 314.84 610.079 314.949 609.473 314.949H607.743V309.392H609.473ZM609.473 314.351C610.191 314.351 610.738 314.162 611.115 313.785C611.493 313.402 611.681 312.868 611.681 312.182C611.681 311.491 611.49 310.952 611.107 310.564C610.73 310.176 610.185 309.982 609.473 309.982H608.468V314.351H609.473ZM617.366 312.597C617.366 312.735 617.358 312.881 617.342 313.035H613.85C613.877 313.466 614.023 313.803 614.289 314.048C614.56 314.287 614.887 314.407 615.27 314.407C615.583 314.407 615.844 314.335 616.051 314.191C616.263 314.043 616.412 313.846 616.497 313.601H617.279C617.162 314.021 616.928 314.364 616.577 314.63C616.226 314.89 615.79 315.021 615.27 315.021C614.855 315.021 614.483 314.928 614.153 314.742C613.829 314.556 613.574 314.292 613.388 313.952C613.202 313.607 613.109 313.208 613.109 312.756C613.109 312.304 613.199 311.909 613.38 311.568C613.561 311.228 613.813 310.968 614.137 310.787C614.467 310.601 614.844 310.508 615.27 310.508C615.684 310.508 616.051 310.598 616.37 310.779C616.689 310.96 616.933 311.21 617.103 311.528C617.279 311.842 617.366 312.198 617.366 312.597ZM616.617 312.445C616.617 312.169 616.556 311.932 616.434 311.736C616.311 311.534 616.144 311.382 615.931 311.281C615.724 311.175 615.493 311.122 615.238 311.122C614.871 311.122 614.557 311.239 614.297 311.473C614.042 311.707 613.896 312.031 613.858 312.445H616.617ZM618.053 312.756C618.053 312.304 618.143 311.911 618.324 311.576C618.505 311.236 618.755 310.973 619.074 310.787C619.398 310.601 619.767 310.508 620.182 310.508C620.719 310.508 621.16 310.638 621.505 310.899C621.856 311.159 622.087 311.52 622.199 311.983H621.418C621.343 311.717 621.197 311.507 620.979 311.353C620.766 311.199 620.501 311.122 620.182 311.122C619.767 311.122 619.432 311.265 619.177 311.552C618.922 311.834 618.794 312.235 618.794 312.756C618.794 313.283 618.922 313.689 619.177 313.976C619.432 314.263 619.767 314.407 620.182 314.407C620.501 314.407 620.766 314.332 620.979 314.183C621.192 314.035 621.338 313.822 621.418 313.546H622.199C622.082 313.992 621.848 314.351 621.497 314.622C621.147 314.888 620.708 315.021 620.182 315.021C619.767 315.021 619.398 314.928 619.074 314.742C618.755 314.556 618.505 314.292 618.324 313.952C618.143 313.612 618.053 313.213 618.053 312.756Z" fill="#474B4E"/>
<line x1="32.4394" y1="269.702" x2="643.497" y2="269.702" stroke="#E3E8FF" stroke-opacity="0.1" stroke-width="0.472495" stroke-linecap="round" stroke-dasharray="1.42 2.83"/>
<line x1="32.4394" y1="235.347" x2="643.497" y2="235.347" stroke="#E3E8FF" stroke-opacity="0.1" stroke-width="0.472495" stroke-linecap="round" stroke-dasharray="1.42 2.83"/>
<line x1="32.4394" y1="200.992" x2="643.497" y2="200.992" stroke="#E3E8FF" stroke-opacity="0.1" stroke-width="0.472495" stroke-linecap="round" stroke-dasharray="1.42 2.83"/>
<line x1="32.4394" y1="166.639" x2="643.497" y2="166.639" stroke="#E3E8FF" stroke-opacity="0.1" stroke-width="0.472495" stroke-linecap="round" stroke-dasharray="1.42 2.83"/>
<line x1="32.4394" y1="132.283" x2="643.497" y2="132.283" stroke="#E3E8FF" stroke-opacity="0.1" stroke-width="0.472495" stroke-linecap="round" stroke-dasharray="1.42 2.83"/>
<line x1="32.4394" y1="97.9289" x2="643.497" y2="97.9289" stroke="#E3E8FF" stroke-opacity="0.1" stroke-width="0.472495" stroke-linecap="round" stroke-dasharray="1.42 2.83"/>
<line x1="32.4394" y1="63.5736" x2="643.497" y2="63.5736" stroke="#E3E8FF" stroke-opacity="0.1" stroke-width="0.472495" stroke-linecap="round" stroke-dasharray="1.42 2.83"/>
<path d="M33.998 148.57C40.099 159.083 55.6026 180.559 68.8093 182.361C85.3177 184.614 95.3664 129.14 119.052 129.14C142.738 129.14 140.944 182.361 165.348 182.361C189.752 182.361 194.058 165.747 209.49 167.155C224.922 168.563 224.563 191.935 247.172 191.935C269.782 191.935 273.124 180.904 288.443 182.361C300.286 183.488 308.182 196.012 323.255 198.412C348.017 202.354 344.787 148.57 373.498 148.57C402.208 148.57 393.595 198.412 413.333 198.412C433.072 198.412 431.636 135.616 450.298 136.461C468.959 137.306 459.987 167.155 478.29 167.155C496.593 167.155 498.746 148.57 512.025 148.57C525.303 148.57 525.662 182.361 542.889 182.361C560.115 182.361 563.345 167.155 576.623 167.155C589.902 167.155 598.156 191.935 626.866 191.935C649.834 191.935 657.012 185.553 657.73 182.361" stroke="#2C3530" stroke-width="1.88998" stroke-linecap="round"/>
<path d="M37.2285 168.01C39.8603 159.503 48.282 142.489 60.9145 142.489C76.7052 142.489 84.2417 168.01 105.416 168.01C126.589 168.01 139.509 103.768 167.143 103.768C194.776 103.768 187.958 130.462 209.132 131.636C230.305 132.809 239.636 103.768 253.991 103.768C268.347 103.768 270.859 116.968 278.754 117.848C286.649 118.728 290.238 108.461 299.21 108.168C308.182 107.875 313.924 117.848 323.614 117.848C333.304 117.848 350.53 82.9405 373.139 84.1139C395.749 85.2873 399.338 131.636 429.483 131.636C459.629 131.636 454.246 103.768 471.113 103.768C487.981 103.768 479.368 180.331 500.541 181.504C521.715 182.677 502.336 103.768 532.482 99.6611C554.637 96.6429 552.579 134.862 577.7 134.862C602.822 134.862 614.306 92.0342 652.347 92.0342" stroke="#A683FF" stroke-width="2" stroke-linecap="round"/>
<rect x="358.506" y="125.094" width="29.0098" height="13.725" rx="6.86248" fill="#292D30"/>
<path d="M370 132.373C370 132.554 369.954 132.728 369.864 132.895C369.773 133.057 369.639 133.193 369.461 133.303C369.287 133.412 369.077 133.475 368.832 133.49V133.949H368.526V133.49C368.182 133.46 367.902 133.35 367.686 133.161C367.471 132.968 367.361 132.725 367.358 132.43H367.908C367.923 132.588 367.981 132.726 368.083 132.844C368.189 132.961 368.337 133.034 368.526 133.065V131.647C368.272 131.583 368.068 131.517 367.913 131.449C367.758 131.381 367.626 131.275 367.516 131.131C367.407 130.988 367.352 130.795 367.352 130.553C367.352 130.247 367.458 129.993 367.669 129.793C367.885 129.593 368.17 129.481 368.526 129.459V128.988H368.832V129.459C369.153 129.485 369.412 129.589 369.609 129.77C369.805 129.948 369.919 130.181 369.949 130.468H369.399C369.38 130.336 369.321 130.217 369.223 130.111C369.125 130.001 368.994 129.929 368.832 129.895V131.279C369.081 131.343 369.283 131.409 369.438 131.477C369.597 131.541 369.73 131.645 369.835 131.789C369.945 131.933 370 132.127 370 132.373ZM367.879 130.525C367.879 130.71 367.934 130.852 368.044 130.95C368.153 131.048 368.314 131.129 368.526 131.194V129.884C368.329 129.903 368.172 129.967 368.055 130.077C367.938 130.182 367.879 130.332 367.879 130.525ZM368.832 133.07C369.036 133.048 369.195 132.974 369.308 132.849C369.425 132.725 369.484 132.575 369.484 132.401C369.484 132.216 369.427 132.074 369.314 131.976C369.2 131.874 369.04 131.793 368.832 131.732V133.07ZM373.413 129.759L371.837 133.456H371.316L372.915 129.81H370.726V129.368H373.413V129.759ZM374.235 133.49C374.137 133.49 374.054 133.456 373.986 133.388C373.918 133.32 373.884 133.237 373.884 133.138C373.884 133.04 373.918 132.957 373.986 132.889C374.054 132.821 374.137 132.787 374.235 132.787C374.33 132.787 374.409 132.821 374.473 132.889C374.541 132.957 374.575 133.04 374.575 133.138C374.575 133.237 374.541 133.32 374.473 133.388C374.409 133.456 374.33 133.49 374.235 133.49ZM377.79 129.804H375.8V131.097C375.887 130.976 376.015 130.878 376.185 130.802C376.355 130.723 376.539 130.683 376.735 130.683C377.049 130.683 377.304 130.749 377.501 130.882C377.697 131.01 377.837 131.179 377.92 131.386C378.007 131.591 378.051 131.808 378.051 132.038C378.051 132.311 378 132.554 377.898 132.77C377.796 132.985 377.639 133.155 377.427 133.28C377.219 133.405 376.96 133.467 376.65 133.467C376.253 133.467 375.932 133.365 375.686 133.161C375.441 132.957 375.291 132.685 375.238 132.345H375.743C375.792 132.56 375.896 132.728 376.055 132.849C376.214 132.97 376.414 133.031 376.656 133.031C376.955 133.031 377.179 132.942 377.331 132.764C377.482 132.583 377.557 132.345 377.557 132.05C377.557 131.755 377.482 131.528 377.331 131.369C377.179 131.207 376.956 131.126 376.662 131.126C376.461 131.126 376.285 131.175 376.134 131.273C375.987 131.368 375.879 131.498 375.811 131.664H375.323V129.351H377.79V129.804Z" fill="#E3E8FF"/>
<path d="M373.438 141.222C373.267 141.583 372.754 141.583 372.583 141.222L371.488 138.902C371.34 138.589 371.568 138.228 371.915 138.228L374.106 138.228C374.453 138.228 374.681 138.589 374.533 138.902L373.438 141.222Z" fill="#292D30"/>
<path d="M375.441 144.781C377.729 144.781 379.678 146.448 379.678 148.614C379.678 150.779 377.729 152.446 375.441 152.446C373.154 152.446 371.205 150.779 371.205 148.614C371.205 146.448 373.154 144.781 375.441 144.781Z" fill="#292D30" stroke="#E3E8FF" stroke-width="0.944991"/>
<circle cx="212.204" cy="16.5304" r="3.86426" fill="#653FC5" stroke="#A683FF" stroke-width="0.858725"/>
<path d="M227.485 20.8241V14.3734H225.208V13.5078H230.649V14.3734H228.371V20.8241H227.485ZM231.081 20.8241V15.3626H231.843L231.885 16.7434L231.802 16.7125C231.871 16.2454 232.019 15.9053 232.245 15.6924C232.479 15.4725 232.788 15.3626 233.173 15.3626H233.709V16.187H233.183C232.908 16.187 232.678 16.2385 232.493 16.3416C232.314 16.4377 232.177 16.5854 232.08 16.7847C231.991 16.977 231.946 17.2243 231.946 17.5266V20.8241H231.081ZM236.577 20.9478C236.034 20.9478 235.598 20.7657 235.268 20.4016C234.946 20.0306 234.784 19.5223 234.784 18.8765V15.3626H235.65V18.6395C235.65 19.1685 235.742 19.5601 235.928 19.8142C236.12 20.0615 236.412 20.1852 236.804 20.1852C237.237 20.1852 237.577 20.0478 237.824 19.773C238.071 19.4914 238.195 19.1066 238.195 18.6189V15.3626H239.061V20.8241H238.236V19.4742L238.37 19.5463C238.26 19.9929 238.051 20.3398 237.742 20.5871C237.432 20.8275 237.044 20.9478 236.577 20.9478ZM242.599 20.9478C242.112 20.9478 241.696 20.8688 241.353 20.7107C241.016 20.5527 240.752 20.3363 240.559 20.0615C240.374 19.7799 240.267 19.4604 240.24 19.1032L241.147 19.0414C241.201 19.3711 241.342 19.6356 241.569 19.8348C241.796 20.0272 242.139 20.1234 242.599 20.1234C242.97 20.1234 243.266 20.065 243.486 19.9482C243.712 19.8245 243.826 19.6288 243.826 19.3608C243.826 19.2166 243.791 19.0963 243.723 19.0002C243.654 18.904 243.52 18.8215 243.321 18.7529C243.122 18.6773 242.826 18.6052 242.435 18.5365C241.912 18.4403 241.5 18.3235 241.198 18.1861C240.903 18.0418 240.69 17.8666 240.559 17.6606C240.435 17.4476 240.374 17.1968 240.374 16.9083C240.374 16.4206 240.552 16.0221 240.91 15.713C241.267 15.397 241.775 15.2389 242.435 15.2389C242.881 15.2389 243.256 15.3214 243.558 15.4863C243.867 15.6443 244.107 15.8572 244.279 16.1252C244.458 16.3862 244.575 16.6747 244.63 16.9907L243.723 17.0526C243.681 16.8602 243.606 16.6919 243.496 16.5476C243.386 16.3965 243.242 16.2797 243.063 16.1973C242.885 16.108 242.672 16.0633 242.424 16.0633C242.033 16.0633 241.744 16.1389 241.559 16.29C241.373 16.4412 241.28 16.6335 241.28 16.8671C241.28 17.0457 241.322 17.1934 241.404 17.3102C241.493 17.4201 241.634 17.5129 241.827 17.5884C242.019 17.6571 242.277 17.7189 242.599 17.7739C243.156 17.8701 243.589 17.9869 243.898 18.1243C244.207 18.2617 244.423 18.43 244.547 18.6292C244.671 18.8284 244.733 19.0723 244.733 19.3608C244.733 19.6974 244.636 19.986 244.444 20.2264C244.259 20.46 244.004 20.6386 243.681 20.7623C243.365 20.8859 243.005 20.9478 242.599 20.9478ZM247.702 20.8241C247.207 20.8241 246.84 20.7107 246.599 20.484C246.366 20.2573 246.249 19.9035 246.249 19.4227V14.0848H247.114V19.402C247.114 19.6494 247.169 19.8211 247.279 19.9173C247.389 20.0135 247.557 20.0615 247.784 20.0615H248.567V20.8241H247.702ZM245.445 16.1252V15.3626H248.567V16.1252H245.445ZM254.952 20.989C254.389 20.989 253.898 20.8825 253.479 20.6695C253.06 20.4566 252.726 20.1646 252.479 19.7936C252.239 19.4158 252.098 18.9796 252.057 18.4849L252.984 18.4231C253.032 18.7872 253.139 19.0963 253.303 19.3505C253.468 19.6047 253.688 19.7971 253.963 19.9276C254.245 20.0581 254.581 20.1234 254.973 20.1234C255.316 20.1234 255.608 20.0787 255.849 19.9894C256.089 19.9001 256.271 19.7696 256.395 19.5978C256.525 19.4261 256.591 19.2166 256.591 18.9693C256.591 18.7425 256.536 18.5433 256.426 18.3716C256.323 18.193 256.12 18.0315 255.818 17.8873C255.522 17.7361 255.083 17.5884 254.499 17.4442C253.935 17.2999 253.485 17.1419 253.149 16.9701C252.819 16.7984 252.579 16.5889 252.428 16.3416C252.283 16.0942 252.211 15.7885 252.211 15.4244C252.211 15.0122 252.307 14.6516 252.5 14.3424C252.699 14.0264 252.981 13.7826 253.345 13.6108C253.709 13.4322 254.142 13.3429 254.643 13.3429C255.179 13.3429 255.639 13.4459 256.024 13.652C256.409 13.8512 256.714 14.126 256.941 14.4764C257.168 14.8268 257.308 15.2252 257.363 15.6717L256.436 15.7336C256.395 15.4382 256.299 15.1771 256.148 14.9504C256.003 14.7168 255.804 14.5348 255.55 14.4043C255.296 14.2737 254.987 14.2085 254.622 14.2085C254.169 14.2085 253.808 14.3184 253.54 14.5382C253.272 14.7512 253.139 15.0329 253.139 15.3832C253.139 15.6099 253.19 15.7988 253.293 15.95C253.403 16.0942 253.595 16.2248 253.87 16.3416C254.145 16.4515 254.54 16.5717 255.055 16.7022C255.667 16.8534 256.151 17.0354 256.508 17.2484C256.872 17.4545 257.13 17.6949 257.281 17.9697C257.439 18.2445 257.518 18.5571 257.518 18.9074C257.518 19.3334 257.408 19.7043 257.188 20.0203C256.968 20.3295 256.666 20.5699 256.281 20.7417C255.897 20.9065 255.454 20.989 254.952 20.989ZM261.179 20.9478C260.671 20.9478 260.228 20.831 259.85 20.5974C259.479 20.3638 259.191 20.0341 258.985 19.6081C258.778 19.1753 258.675 18.6704 258.675 18.0934C258.675 17.5163 258.778 17.0148 258.985 16.5889C259.191 16.1629 259.479 15.8332 259.85 15.5996C260.228 15.3592 260.671 15.2389 261.179 15.2389C261.599 15.2389 261.97 15.3145 262.292 15.4657C262.622 15.6099 262.89 15.8229 263.096 16.1045C263.302 16.3862 263.436 16.7297 263.498 17.135L262.591 17.1968C262.529 16.8327 262.371 16.5545 262.117 16.3622C261.863 16.1629 261.55 16.0633 261.179 16.0633C260.678 16.0633 260.286 16.2454 260.005 16.6095C259.723 16.9667 259.582 17.4613 259.582 18.0934C259.582 18.7254 259.723 19.2234 260.005 19.5875C260.286 19.9448 260.678 20.1234 261.179 20.1234C261.55 20.1234 261.863 20.0203 262.117 19.8142C262.371 19.6081 262.529 19.299 262.591 18.8868L263.498 18.9486C263.436 19.354 263.302 19.7078 263.096 20.01C262.89 20.3054 262.622 20.5356 262.292 20.7004C261.97 20.8653 261.599 20.9478 261.179 20.9478ZM266.704 20.9478C266.203 20.9478 265.763 20.831 265.385 20.5974C265.007 20.3638 264.715 20.0341 264.509 19.6081C264.303 19.1753 264.2 18.6704 264.2 18.0934C264.2 17.5094 264.303 17.0045 264.509 16.5786C264.715 16.1526 265.007 15.8229 265.385 15.5893C265.763 15.3557 266.203 15.2389 266.704 15.2389C267.206 15.2389 267.642 15.3557 268.013 15.5893C268.391 15.8229 268.683 16.1526 268.889 16.5786C269.095 17.0045 269.198 17.5094 269.198 18.0934C269.198 18.6704 269.095 19.1753 268.889 19.6081C268.683 20.0341 268.391 20.3638 268.013 20.5974C267.642 20.831 267.206 20.9478 266.704 20.9478ZM266.704 20.1234C267.206 20.1234 267.594 19.9448 267.869 19.5875C268.15 19.2234 268.291 18.7254 268.291 18.0934C268.291 17.4613 268.15 16.9667 267.869 16.6095C267.594 16.2454 267.206 16.0633 266.704 16.0633C266.203 16.0633 265.811 16.2454 265.529 16.6095C265.248 16.9667 265.107 17.4613 265.107 18.0934C265.107 18.7254 265.248 19.2234 265.529 19.5875C265.811 19.9448 266.203 20.1234 266.704 20.1234ZM270.378 20.8241V15.3626H271.14L271.181 16.7434L271.099 16.7125C271.168 16.2454 271.315 15.9053 271.542 15.6924C271.776 15.4725 272.085 15.3626 272.469 15.3626H273.005V16.187H272.48C272.205 16.187 271.975 16.2385 271.789 16.3416C271.611 16.4377 271.473 16.5854 271.377 16.7847C271.288 16.977 271.243 17.2243 271.243 17.5266V20.8241H270.378ZM276.003 20.9478C275.487 20.9478 275.041 20.831 274.663 20.5974C274.292 20.3638 274.003 20.0341 273.797 19.6081C273.598 19.1753 273.499 18.6704 273.499 18.0934C273.499 17.5163 273.598 17.0148 273.797 16.5889C274.003 16.1629 274.289 15.8332 274.653 15.5996C275.024 15.3592 275.46 15.2389 275.961 15.2389C276.435 15.2389 276.854 15.3523 277.219 15.579C277.583 15.7988 277.864 16.1217 278.064 16.5476C278.27 16.9736 278.373 17.4922 278.373 18.1037V18.3613H274.405C274.44 18.9452 274.594 19.3849 274.869 19.6803C275.151 19.9757 275.529 20.1234 276.003 20.1234C276.36 20.1234 276.652 20.0409 276.878 19.8761C277.112 19.7043 277.273 19.4811 277.363 19.2063L278.29 19.2784C278.146 19.7661 277.871 20.168 277.466 20.484C277.067 20.7932 276.58 20.9478 276.003 20.9478ZM274.405 17.5987H277.425C277.383 17.0698 277.229 16.6816 276.961 16.4343C276.7 16.187 276.367 16.0633 275.961 16.0633C275.542 16.0633 275.195 16.1939 274.921 16.4549C274.653 16.7091 274.481 17.0904 274.405 17.5987Z" fill="#E3E8FF"/>
<circle cx="298.835" cy="16.5304" r="3.86426" stroke="#E3E8FF" stroke-opacity="0.4" stroke-width="0.858725"/>
<path d="M311.921 20.8241L314.559 13.5078H315.754L318.392 20.8241H317.424L316.692 18.7425H313.621L312.89 20.8241H311.921ZM313.92 17.877H316.393L315.157 14.2806L313.92 17.877ZM321.374 20.9478C320.866 20.9478 320.423 20.831 320.045 20.5974C319.674 20.3638 319.386 20.0341 319.179 19.6081C318.973 19.1753 318.87 18.6704 318.87 18.0934C318.87 17.5163 318.973 17.0148 319.179 16.5889C319.386 16.1629 319.674 15.8332 320.045 15.5996C320.423 15.3592 320.866 15.2389 321.374 15.2389C321.793 15.2389 322.164 15.3145 322.487 15.4657C322.817 15.6099 323.085 15.8229 323.291 16.1045C323.497 16.3862 323.631 16.7297 323.693 17.135L322.786 17.1968C322.724 16.8327 322.566 16.5545 322.312 16.3622C322.058 16.1629 321.745 16.0633 321.374 16.0633C320.873 16.0633 320.481 16.2454 320.2 16.6095C319.918 16.9667 319.777 17.4613 319.777 18.0934C319.777 18.7254 319.918 19.2234 320.2 19.5875C320.481 19.9448 320.873 20.1234 321.374 20.1234C321.745 20.1234 322.058 20.0203 322.312 19.8142C322.566 19.6081 322.724 19.299 322.786 18.8868L323.693 18.9486C323.631 19.354 323.497 19.7078 323.291 20.01C323.085 20.3054 322.817 20.5356 322.487 20.7004C322.164 20.8653 321.793 20.9478 321.374 20.9478ZM324.766 20.8241V13.5078H325.632V16.5683L325.529 16.5476C325.597 16.2454 325.714 15.9981 325.879 15.8057C326.044 15.6134 326.246 15.4725 326.487 15.3832C326.727 15.287 326.992 15.2389 327.28 15.2389C327.672 15.2389 328.002 15.3283 328.27 15.5069C328.544 15.6786 328.75 15.9225 328.888 16.2385C329.032 16.5476 329.104 16.9049 329.104 17.3102V20.8241H328.239V17.5575C328.239 17.0285 328.142 16.637 327.95 16.3828C327.765 16.1286 327.48 16.0015 327.095 16.0015C326.655 16.0015 326.301 16.1355 326.033 16.4034C325.766 16.6713 325.632 17.0594 325.632 17.5678V20.8241H324.766ZM330.653 20.8241V15.3626H331.519V20.8241H330.653ZM330.632 14.5073V13.4975H331.539V14.5073H330.632ZM335.201 20.9478C334.686 20.9478 334.239 20.831 333.862 20.5974C333.491 20.3638 333.202 20.0341 332.996 19.6081C332.797 19.1753 332.697 18.6704 332.697 18.0934C332.697 17.5163 332.797 17.0148 332.996 16.5889C333.202 16.1629 333.487 15.8332 333.851 15.5996C334.222 15.3592 334.658 15.2389 335.16 15.2389C335.634 15.2389 336.053 15.3523 336.417 15.579C336.781 15.7988 337.063 16.1217 337.262 16.5476C337.468 16.9736 337.571 17.4922 337.571 18.1037V18.3613H333.604C333.638 18.9452 333.793 19.3849 334.068 19.6803C334.349 19.9757 334.727 20.1234 335.201 20.1234C335.558 20.1234 335.85 20.0409 336.077 19.8761C336.311 19.7043 336.472 19.4811 336.561 19.2063L337.489 19.2784C337.345 19.7661 337.07 20.168 336.664 20.484C336.266 20.7932 335.778 20.9478 335.201 20.9478ZM333.604 17.5987H336.623C336.582 17.0698 336.427 16.6816 336.16 16.4343C335.898 16.187 335.565 16.0633 335.16 16.0633C334.741 16.0633 334.394 16.1939 334.119 16.4549C333.851 16.7091 333.68 17.0904 333.604 17.5987ZM339.974 20.8241L337.985 15.3626H338.933L340.52 19.9379L342.107 15.3626H343.055L341.066 20.8241H339.974ZM345.969 20.9478C345.454 20.9478 345.007 20.831 344.629 20.5974C344.258 20.3638 343.97 20.0341 343.764 19.6081C343.564 19.1753 343.465 18.6704 343.465 18.0934C343.465 17.5163 343.564 17.0148 343.764 16.5889C343.97 16.1629 344.255 15.8332 344.619 15.5996C344.99 15.3592 345.426 15.2389 345.928 15.2389C346.402 15.2389 346.821 15.3523 347.185 15.579C347.549 15.7988 347.831 16.1217 348.03 16.5476C348.236 16.9736 348.339 17.4922 348.339 18.1037V18.3613H344.372C344.406 18.9452 344.56 19.3849 344.835 19.6803C345.117 19.9757 345.495 20.1234 345.969 20.1234C346.326 20.1234 346.618 20.0409 346.845 19.8761C347.078 19.7043 347.24 19.4811 347.329 19.2063L348.256 19.2784C348.112 19.7661 347.837 20.168 347.432 20.484C347.034 20.7932 346.546 20.9478 345.969 20.9478ZM344.372 17.5987H347.391C347.35 17.0698 347.195 16.6816 346.927 16.4343C346.666 16.187 346.333 16.0633 345.928 16.0633C345.509 16.0633 345.162 16.1939 344.887 16.4549C344.619 16.7091 344.447 17.0904 344.372 17.5987ZM349.511 20.8241V15.3626H350.305L350.336 16.7434L350.212 16.7022C350.274 16.3999 350.38 16.1423 350.532 15.9294C350.69 15.7095 350.882 15.5412 351.109 15.4244C351.335 15.3008 351.586 15.2389 351.861 15.2389C352.335 15.2389 352.72 15.3695 353.015 15.6305C353.317 15.8916 353.506 16.2557 353.582 16.7228L353.417 16.7125C353.472 16.3965 353.571 16.132 353.716 15.9191C353.867 15.6992 354.059 15.5309 354.293 15.4141C354.526 15.2973 354.794 15.2389 355.097 15.2389C355.488 15.2389 355.818 15.3214 356.086 15.4863C356.354 15.6443 356.556 15.8778 356.694 16.187C356.831 16.4961 356.9 16.8705 356.9 17.3102V20.8241H356.034V17.4957C356.034 17.0011 355.938 16.6301 355.746 16.3828C355.553 16.1286 355.268 16.0015 354.89 16.0015C354.636 16.0015 354.413 16.0633 354.221 16.187C354.035 16.3106 353.891 16.4893 353.788 16.7228C353.685 16.9495 353.633 17.2278 353.633 17.5575V20.8241H352.768V17.5575C352.768 17.0698 352.682 16.6885 352.51 16.4137C352.338 16.1389 352.05 16.0015 351.644 16.0015C351.39 16.0015 351.167 16.0633 350.975 16.187C350.789 16.3106 350.641 16.4893 350.532 16.7228C350.428 16.9564 350.377 17.2346 350.377 17.5575V20.8241H349.511ZM360.56 20.9478C360.045 20.9478 359.599 20.831 359.221 20.5974C358.85 20.3638 358.561 20.0341 358.355 19.6081C358.156 19.1753 358.056 18.6704 358.056 18.0934C358.056 17.5163 358.156 17.0148 358.355 16.5889C358.561 16.1629 358.846 15.8332 359.21 15.5996C359.581 15.3592 360.018 15.2389 360.519 15.2389C360.993 15.2389 361.412 15.3523 361.776 15.579C362.14 15.7988 362.422 16.1217 362.621 16.5476C362.827 16.9736 362.93 17.4922 362.93 18.1037V18.3613H358.963C358.998 18.9452 359.152 19.3849 359.427 19.6803C359.709 19.9757 360.086 20.1234 360.56 20.1234C360.918 20.1234 361.21 20.0409 361.436 19.8761C361.67 19.7043 361.831 19.4811 361.921 19.2063L362.848 19.2784C362.704 19.7661 362.429 20.168 362.024 20.484C361.625 20.7932 361.137 20.9478 360.56 20.9478ZM358.963 17.5987H361.982C361.941 17.0698 361.787 16.6816 361.519 16.4343C361.258 16.187 360.925 16.0633 360.519 16.0633C360.1 16.0633 359.753 16.1939 359.478 16.4549C359.21 16.7091 359.039 17.0904 358.963 17.5987ZM364.103 20.8241V15.3626H364.896L364.927 16.7537L364.824 16.661C364.893 16.3381 365.013 16.0736 365.185 15.8675C365.357 15.6546 365.563 15.4966 365.803 15.3935C366.051 15.2905 366.315 15.2389 366.597 15.2389C367.016 15.2389 367.359 15.3317 367.627 15.5172C367.902 15.7027 368.105 15.9534 368.235 16.2694C368.373 16.5786 368.441 16.9255 368.441 17.3102V20.8241H367.576V17.5575C367.576 17.2209 367.534 16.9392 367.452 16.7125C367.376 16.4789 367.253 16.3038 367.081 16.187C366.909 16.0633 366.686 16.0015 366.411 16.0015C365.992 16.0015 365.645 16.1355 365.37 16.4034C365.103 16.6644 364.969 17.0491 364.969 17.5575V20.8241H364.103ZM371.677 20.8241C371.182 20.8241 370.815 20.7107 370.574 20.484C370.341 20.2573 370.224 19.9035 370.224 19.4227V14.0848H371.09V19.402C371.09 19.6494 371.145 19.8211 371.255 19.9173C371.365 20.0135 371.533 20.0615 371.76 20.0615H372.543V20.8241H371.677ZM369.42 16.1252V15.3626H372.543V16.1252H369.42ZM375.541 20.9478C375.053 20.9478 374.638 20.8688 374.294 20.7107C373.958 20.5527 373.693 20.3363 373.501 20.0615C373.315 19.7799 373.209 19.4604 373.181 19.1032L374.088 19.0414C374.143 19.3711 374.284 19.6356 374.511 19.8348C374.737 20.0272 375.081 20.1234 375.541 20.1234C375.912 20.1234 376.207 20.065 376.427 19.9482C376.654 19.8245 376.767 19.6288 376.767 19.3608C376.767 19.2166 376.733 19.0963 376.664 19.0002C376.596 18.904 376.462 18.8215 376.262 18.7529C376.063 18.6773 375.768 18.6052 375.376 18.5365C374.854 18.4403 374.442 18.3235 374.14 18.1861C373.844 18.0418 373.631 17.8666 373.501 17.6606C373.377 17.4476 373.315 17.1968 373.315 16.9083C373.315 16.4206 373.494 16.0221 373.851 15.713C374.208 15.397 374.717 15.2389 375.376 15.2389C375.823 15.2389 376.197 15.3214 376.499 15.4863C376.809 15.6443 377.049 15.8572 377.221 16.1252C377.399 16.3862 377.516 16.6747 377.571 16.9907L376.664 17.0526C376.623 16.8602 376.548 16.6919 376.438 16.5476C376.328 16.3965 376.183 16.2797 376.005 16.1973C375.826 16.108 375.613 16.0633 375.366 16.0633C374.974 16.0633 374.686 16.1389 374.5 16.29C374.315 16.4412 374.222 16.6335 374.222 16.8671C374.222 17.0457 374.263 17.1934 374.346 17.3102C374.435 17.4201 374.576 17.5129 374.768 17.5884C374.961 17.6571 375.218 17.7189 375.541 17.7739C376.098 17.8701 376.53 17.9869 376.839 18.1243C377.149 18.2617 377.365 18.43 377.489 18.6292C377.612 18.8284 377.674 19.0723 377.674 19.3608C377.674 19.6974 377.578 19.986 377.386 20.2264C377.2 20.46 376.946 20.6386 376.623 20.7623C376.307 20.8859 375.946 20.9478 375.541 20.9478Z" fill="#E3E8FF" fill-opacity="0.4"/>
<circle cx="398.467" cy="16.5304" r="3.86426" stroke="#E3E8FF" stroke-opacity="0.4" stroke-width="0.858725"/>
<path d="M415.099 20.989C414.446 20.989 413.872 20.8378 413.378 20.5356C412.883 20.2264 412.498 19.7868 412.224 19.2166C411.949 18.6464 411.811 17.9663 411.811 17.1762C411.811 16.3862 411.949 15.7061 412.224 15.1359C412.498 14.5588 412.883 14.1157 413.378 13.8066C413.872 13.4975 414.446 13.3429 415.099 13.3429C415.985 13.3429 416.672 13.5662 417.16 14.0127C417.647 14.4592 417.967 15.0672 418.118 15.8366L417.18 15.8984C417.077 15.3763 416.857 14.9642 416.521 14.6619C416.184 14.3596 415.71 14.2085 415.099 14.2085C414.631 14.2085 414.219 14.3287 413.862 14.5691C413.512 14.8027 413.237 15.1428 413.038 15.5893C412.838 16.029 412.739 16.558 412.739 17.1762C412.739 17.7945 412.838 18.3235 413.038 18.7632C413.237 19.2028 413.512 19.5394 413.862 19.773C414.219 20.0066 414.631 20.1234 415.099 20.1234C415.737 20.1234 416.232 19.9585 416.582 19.6288C416.933 19.2921 417.153 18.8387 417.242 18.2685L418.18 18.3304C418.09 18.8593 417.915 19.323 417.654 19.7215C417.393 20.1199 417.046 20.4325 416.613 20.6592C416.187 20.8791 415.683 20.989 415.099 20.989ZM421.47 20.9478C420.969 20.9478 420.529 20.831 420.151 20.5974C419.773 20.3638 419.481 20.0341 419.275 19.6081C419.069 19.1753 418.966 18.6704 418.966 18.0934C418.966 17.5094 419.069 17.0045 419.275 16.5786C419.481 16.1526 419.773 15.8229 420.151 15.5893C420.529 15.3557 420.969 15.2389 421.47 15.2389C421.972 15.2389 422.408 15.3557 422.779 15.5893C423.157 15.8229 423.449 16.1526 423.655 16.5786C423.861 17.0045 423.964 17.5094 423.964 18.0934C423.964 18.6704 423.861 19.1753 423.655 19.6081C423.449 20.0341 423.157 20.3638 422.779 20.5974C422.408 20.831 421.972 20.9478 421.47 20.9478ZM421.47 20.1234C421.972 20.1234 422.36 19.9448 422.635 19.5875C422.916 19.2234 423.057 18.7254 423.057 18.0934C423.057 17.4613 422.916 16.9667 422.635 16.6095C422.36 16.2454 421.972 16.0633 421.47 16.0633C420.969 16.0633 420.577 16.2454 420.295 16.6095C420.014 16.9667 419.873 17.4613 419.873 18.0934C419.873 18.7254 420.014 19.2234 420.295 19.5875C420.577 19.9448 420.969 20.1234 421.47 20.1234ZM425.143 20.8241V15.3626H425.937L425.968 16.7537L425.865 16.661C425.934 16.3381 426.054 16.0736 426.225 15.8675C426.397 15.6546 426.603 15.4966 426.844 15.3935C427.091 15.2905 427.356 15.2389 427.637 15.2389C428.056 15.2389 428.4 15.3317 428.668 15.5172C428.942 15.7027 429.145 15.9534 429.276 16.2694C429.413 16.5786 429.482 16.9255 429.482 17.3102V20.8241H428.616V17.5575C428.616 17.2209 428.575 16.9392 428.493 16.7125C428.417 16.4789 428.293 16.3038 428.122 16.187C427.95 16.0633 427.727 16.0015 427.452 16.0015C427.033 16.0015 426.686 16.1355 426.411 16.4034C426.143 16.6644 426.009 17.0491 426.009 17.5575V20.8241H425.143ZM430.93 20.8241V15.3626H431.723L431.754 16.7537L431.651 16.661C431.72 16.3381 431.84 16.0736 432.012 15.8675C432.184 15.6546 432.39 15.4966 432.63 15.3935C432.877 15.2905 433.142 15.2389 433.424 15.2389C433.843 15.2389 434.186 15.3317 434.454 15.5172C434.729 15.7027 434.931 15.9534 435.062 16.2694C435.199 16.5786 435.268 16.9255 435.268 17.3102V20.8241H434.402V17.5575C434.402 17.2209 434.361 16.9392 434.279 16.7125C434.203 16.4789 434.08 16.3038 433.908 16.187C433.736 16.0633 433.513 16.0015 433.238 16.0015C432.819 16.0015 432.472 16.1355 432.197 16.4034C431.929 16.6644 431.795 17.0491 431.795 17.5575V20.8241H430.93ZM438.93 20.9478C438.414 20.9478 437.968 20.831 437.59 20.5974C437.219 20.3638 436.931 20.0341 436.725 19.6081C436.525 19.1753 436.426 18.6704 436.426 18.0934C436.426 17.5163 436.525 17.0148 436.725 16.5889C436.931 16.1629 437.216 15.8332 437.58 15.5996C437.951 15.3592 438.387 15.2389 438.888 15.2389C439.363 15.2389 439.782 15.3523 440.146 15.579C440.51 15.7988 440.791 16.1217 440.991 16.5476C441.197 16.9736 441.3 17.4922 441.3 18.1037V18.3613H437.332C437.367 18.9452 437.521 19.3849 437.796 19.6803C438.078 19.9757 438.456 20.1234 438.93 20.1234C439.287 20.1234 439.579 20.0409 439.806 19.8761C440.039 19.7043 440.201 19.4811 440.29 19.2063L441.217 19.2784C441.073 19.7661 440.798 20.168 440.393 20.484C439.995 20.7932 439.507 20.9478 438.93 20.9478ZM437.332 17.5987H440.352C440.311 17.0698 440.156 16.6816 439.888 16.4343C439.627 16.187 439.294 16.0633 438.888 16.0633C438.469 16.0633 438.123 16.1939 437.848 16.4549C437.58 16.7091 437.408 17.0904 437.332 17.5987ZM444.605 20.9478C444.097 20.9478 443.654 20.831 443.276 20.5974C442.905 20.3638 442.617 20.0341 442.41 19.6081C442.204 19.1753 442.101 18.6704 442.101 18.0934C442.101 17.5163 442.204 17.0148 442.41 16.5889C442.617 16.1629 442.905 15.8332 443.276 15.5996C443.654 15.3592 444.097 15.2389 444.605 15.2389C445.024 15.2389 445.395 15.3145 445.718 15.4657C446.048 15.6099 446.316 15.8229 446.522 16.1045C446.728 16.3862 446.862 16.7297 446.924 17.135L446.017 17.1968C445.955 16.8327 445.797 16.5545 445.543 16.3622C445.289 16.1629 444.976 16.0633 444.605 16.0633C444.104 16.0633 443.712 16.2454 443.431 16.6095C443.149 16.9667 443.008 17.4613 443.008 18.0934C443.008 18.7254 443.149 19.2234 443.431 19.5875C443.712 19.9448 444.104 20.1234 444.605 20.1234C444.976 20.1234 445.289 20.0203 445.543 19.8142C445.797 19.6081 445.955 19.299 446.017 18.8868L446.924 18.9486C446.862 19.354 446.728 19.7078 446.522 20.01C446.316 20.3054 446.048 20.5356 445.718 20.7004C445.395 20.8653 445.024 20.9478 444.605 20.9478ZM449.785 20.8241C449.29 20.8241 448.923 20.7107 448.682 20.484C448.449 20.2573 448.332 19.9035 448.332 19.4227V14.0848H449.197V19.402C449.197 19.6494 449.252 19.8211 449.362 19.9173C449.472 20.0135 449.64 20.0615 449.867 20.0615H450.65V20.8241H449.785ZM447.528 16.1252V15.3626H450.65V16.1252H447.528ZM451.761 20.8241V15.3626H452.626V20.8241H451.761ZM451.74 14.5073V13.4975H452.647V14.5073H451.74ZM456.309 20.9478C455.807 20.9478 455.368 20.831 454.99 20.5974C454.612 20.3638 454.32 20.0341 454.114 19.6081C453.908 19.1753 453.805 18.6704 453.805 18.0934C453.805 17.5094 453.908 17.0045 454.114 16.5786C454.32 16.1526 454.612 15.8229 454.99 15.5893C455.368 15.3557 455.807 15.2389 456.309 15.2389C456.81 15.2389 457.247 15.3557 457.618 15.5893C457.995 15.8229 458.287 16.1526 458.493 16.5786C458.7 17.0045 458.803 17.5094 458.803 18.0934C458.803 18.6704 458.7 19.1753 458.493 19.6081C458.287 20.0341 457.995 20.3638 457.618 20.5974C457.247 20.831 456.81 20.9478 456.309 20.9478ZM456.309 20.1234C456.81 20.1234 457.198 19.9448 457.473 19.5875C457.755 19.2234 457.896 18.7254 457.896 18.0934C457.896 17.4613 457.755 16.9667 457.473 16.6095C457.198 16.2454 456.81 16.0633 456.309 16.0633C455.807 16.0633 455.416 16.2454 455.134 16.6095C454.852 16.9667 454.712 17.4613 454.712 18.0934C454.712 18.7254 454.852 19.2234 455.134 19.5875C455.416 19.9448 455.807 20.1234 456.309 20.1234ZM459.982 20.8241V15.3626H460.776L460.807 16.7537L460.704 16.661C460.772 16.3381 460.892 16.0736 461.064 15.8675C461.236 15.6546 461.442 15.4966 461.682 15.3935C461.93 15.2905 462.194 15.2389 462.476 15.2389C462.895 15.2389 463.239 15.3317 463.506 15.5172C463.781 15.7027 463.984 15.9534 464.114 16.2694C464.252 16.5786 464.32 16.9255 464.32 17.3102V20.8241H463.455V17.5575C463.455 17.2209 463.414 16.9392 463.331 16.7125C463.256 16.4789 463.132 16.3038 462.96 16.187C462.789 16.0633 462.565 16.0015 462.29 16.0015C461.871 16.0015 461.524 16.1355 461.25 16.4034C460.982 16.6644 460.848 17.0491 460.848 17.5575V20.8241H459.982ZM467.838 20.9478C467.35 20.9478 466.934 20.8688 466.591 20.7107C466.254 20.5527 465.99 20.3363 465.798 20.0615C465.612 19.7799 465.506 19.4604 465.478 19.1032L466.385 19.0414C466.44 19.3711 466.581 19.6356 466.807 19.8348C467.034 20.0272 467.378 20.1234 467.838 20.1234C468.209 20.1234 468.504 20.065 468.724 19.9482C468.951 19.8245 469.064 19.6288 469.064 19.3608C469.064 19.2166 469.03 19.0963 468.961 19.0002C468.892 18.904 468.758 18.8215 468.559 18.7529C468.36 18.6773 468.065 18.6052 467.673 18.5365C467.151 18.4403 466.739 18.3235 466.436 18.1861C466.141 18.0418 465.928 17.8666 465.798 17.6606C465.674 17.4476 465.612 17.1968 465.612 16.9083C465.612 16.4206 465.791 16.0221 466.148 15.713C466.505 15.397 467.013 15.2389 467.673 15.2389C468.12 15.2389 468.494 15.3214 468.796 15.4863C469.105 15.6443 469.346 15.8572 469.518 16.1252C469.696 16.3862 469.813 16.6747 469.868 16.9907L468.961 17.0526C468.92 16.8602 468.844 16.6919 468.734 16.5476C468.624 16.3965 468.48 16.2797 468.302 16.1973C468.123 16.108 467.91 16.0633 467.663 16.0633C467.271 16.0633 466.983 16.1389 466.797 16.29C466.612 16.4412 466.519 16.6335 466.519 16.8671C466.519 17.0457 466.56 17.1934 466.643 17.3102C466.732 17.4201 466.873 17.5129 467.065 17.5884C467.257 17.6571 467.515 17.7189 467.838 17.7739C468.394 17.8701 468.827 17.9869 469.136 18.1243C469.445 18.2617 469.662 18.43 469.785 18.6292C469.909 18.8284 469.971 19.0723 469.971 19.3608C469.971 19.6974 469.875 19.986 469.682 20.2264C469.497 20.46 469.243 20.6386 468.92 20.7623C468.604 20.8859 468.243 20.9478 467.838 20.9478Z" fill="#E3E8FF" fill-opacity="0.4"/>
<path d="M598.498 19.7085L596.571 12.3922H597.54L599.044 18.4925L600.539 12.3922H601.548L603.053 18.4925L604.547 12.3922H605.526L603.599 19.7085H602.486L601.044 14.0409L599.601 19.7085H598.498ZM608.466 19.8322C607.95 19.8322 607.504 19.7154 607.126 19.4818C606.755 19.2482 606.467 18.9185 606.261 18.4925C606.061 18.0597 605.962 17.5548 605.962 16.9778C605.962 16.4007 606.061 15.8992 606.261 15.4733C606.467 15.0473 606.752 14.7176 607.116 14.484C607.487 14.2436 607.923 14.1233 608.424 14.1233C608.899 14.1233 609.318 14.2367 609.682 14.4634C610.046 14.6832 610.327 15.0061 610.527 15.432C610.733 15.858 610.836 16.3766 610.836 16.9881V17.2457H606.868C606.903 17.8296 607.057 18.2693 607.332 18.5647C607.614 18.8601 607.992 19.0078 608.466 19.0078C608.823 19.0078 609.115 18.9253 609.342 18.7605C609.575 18.5887 609.737 18.3655 609.826 18.0907L610.753 18.1628C610.609 18.6505 610.334 19.0524 609.929 19.3684C609.531 19.6776 609.043 19.8322 608.466 19.8322ZM606.868 16.4831H609.888C609.847 15.9542 609.692 15.566 609.424 15.3187C609.163 15.0714 608.83 14.9477 608.424 14.9477C608.005 14.9477 607.659 15.0783 607.384 15.3393C607.116 15.5935 606.944 15.9748 606.868 16.4831ZM614.141 19.8322C613.626 19.8322 613.18 19.7154 612.802 19.4818C612.431 19.2482 612.142 18.9185 611.936 18.4925C611.737 18.0597 611.637 17.5548 611.637 16.9778C611.637 16.4007 611.737 15.8992 611.936 15.4733C612.142 15.0473 612.427 14.7176 612.791 14.484C613.162 14.2436 613.599 14.1233 614.1 14.1233C614.574 14.1233 614.993 14.2367 615.357 14.4634C615.721 14.6832 616.003 15.0061 616.202 15.432C616.408 15.858 616.511 16.3766 616.511 16.9881V17.2457H612.544C612.578 17.8296 612.733 18.2693 613.008 18.5647C613.289 18.8601 613.667 19.0078 614.141 19.0078C614.499 19.0078 614.791 18.9253 615.017 18.7605C615.251 18.5887 615.412 18.3655 615.502 18.0907L616.429 18.1628C616.285 18.6505 616.01 19.0524 615.605 19.3684C615.206 19.6776 614.718 19.8322 614.141 19.8322ZM612.544 16.4831H615.563C615.522 15.9542 615.368 15.566 615.1 15.3187C614.839 15.0714 614.505 14.9477 614.1 14.9477C613.681 14.9477 613.334 15.0783 613.059 15.3393C612.791 15.5935 612.62 15.9748 612.544 16.4831ZM617.684 19.7085V12.3922H618.55V17.1838L621.208 14.247H622.362L620.209 16.5656L622.455 19.7085H621.404L619.621 17.1529L618.55 18.2864V19.7085H617.684ZM624.471 19.7085C624.155 19.7085 623.898 19.6261 623.699 19.4612C623.499 19.2963 623.4 19.0353 623.4 18.678V12.3922H624.265V18.6059C624.265 18.7158 624.293 18.8017 624.348 18.8635C624.41 18.9185 624.496 18.9459 624.605 18.9459H625.079V19.7085H624.471ZM626.132 21.2542V20.4917H626.761C626.953 20.4917 627.094 20.4607 627.184 20.3989C627.28 20.344 627.352 20.2512 627.4 20.1207L627.596 19.6054H627.297L625.298 14.247H626.246L627.874 18.8017L629.43 14.247H630.378L628.162 20.3989C628.059 20.6943 627.905 20.9107 627.699 21.0481C627.493 21.1855 627.208 21.2542 626.843 21.2542H626.132Z" fill="#E3E8FF" fill-opacity="0.4"/>
<path d="M639.338 14.7056L642.343 17.7111L645.349 14.7056" stroke="#E3E8FF" stroke-opacity="0.4" stroke-width="1.28809" stroke-miterlimit="16"/>
<defs>
<linearGradient id="paint0_linear_2255_1285" x1="364.162" y1="63.2467" x2="364.162" y2="298.247" gradientUnits="userSpaceOnUse">
<stop stop-color="#FCFCFD" stop-opacity="0"/>
<stop offset="1" stop-color="#A683FF" stop-opacity="0.13"/>
</linearGradient>
</defs>
</svg>
