<svg width="404" height="400" viewBox="0 0 404 400" fill="none" xmlns="http://www.w3.org/2000/svg">
<path d="M385.351 180.571L386.674 180.571L386.674 189.807L385.351 189.807L385.351 185.935L374.359 185.935L374.359 184.443L385.351 184.443L385.351 180.571ZM374.359 190.618L383.595 190.618L383.595 191.989L382.2 191.989L382.2 192.085C382.657 192.254 383.028 192.558 383.312 192.999C383.597 193.44 383.739 193.937 383.739 194.49C383.739 194.595 383.737 194.725 383.733 194.881C383.729 195.038 383.723 195.156 383.715 195.236L382.272 195.236C382.284 195.188 382.302 195.078 382.326 194.905C382.354 194.737 382.368 194.558 382.368 194.37C382.368 193.921 382.274 193.52 382.086 193.168C381.901 192.819 381.645 192.542 381.316 192.338C380.991 192.137 380.621 192.037 380.204 192.037L374.359 192.037L374.359 190.618ZM378.135 202.4L383.595 202.4L383.595 203.819L374.359 203.819L374.359 202.4L375.923 202.4L375.923 202.304C375.454 202.087 375.055 201.75 374.726 201.293C374.401 200.836 374.239 200.259 374.239 199.562C374.239 198.984 374.365 198.471 374.618 198.022C374.874 197.573 375.259 197.221 375.772 196.964C376.289 196.708 376.941 196.579 377.727 196.579L383.595 196.579L383.595 197.998L377.823 197.998C377.149 197.998 376.612 198.187 376.211 198.564C375.81 198.944 375.61 199.429 375.61 200.019C375.61 200.371 375.7 200.73 375.881 201.095C376.061 201.464 376.338 201.772 376.71 202.021C377.083 202.273 377.558 202.4 378.135 202.4ZM381.527 212.621L381.166 211.346C381.378 211.266 381.585 211.148 381.785 210.992C381.99 210.839 382.158 210.631 382.29 210.366C382.423 210.102 382.489 209.763 382.489 209.35C382.489 208.785 382.358 208.314 382.098 207.937C381.841 207.564 381.515 207.378 381.118 207.378C380.765 207.378 380.486 207.506 380.282 207.763C380.078 208.019 379.907 208.42 379.771 208.965L379.434 210.336C379.234 211.162 378.927 211.777 378.514 212.182C378.105 212.587 377.578 212.789 376.933 212.789C376.404 212.789 375.931 212.637 375.514 212.332C375.097 212.032 374.768 211.611 374.528 211.07C374.287 210.529 374.167 209.899 374.167 209.182C374.167 208.24 374.371 207.46 374.78 206.843C375.189 206.225 375.786 205.835 376.572 205.67L376.909 207.017C376.412 207.145 376.039 207.388 375.79 207.745C375.542 208.105 375.418 208.576 375.418 209.158C375.418 209.819 375.558 210.344 375.839 210.733C376.123 211.126 376.464 211.322 376.861 211.322C377.181 211.322 377.45 211.21 377.666 210.986C377.887 210.761 378.051 210.416 378.159 209.951L378.52 208.412C378.721 207.566 379.031 206.945 379.452 206.548C379.877 206.155 380.408 205.959 381.046 205.959C381.567 205.959 382.028 206.105 382.429 206.398C382.829 206.694 383.144 207.097 383.373 207.606C383.601 208.119 383.715 208.701 383.715 209.35C383.715 210.264 383.515 210.982 383.114 211.503C382.713 212.028 382.184 212.401 381.527 212.621ZM383.595 218.603L382.392 218.603L382.392 213.817L383.595 213.817L383.595 218.603ZM385.808 215.212L385.808 216.631L377.005 216.631C376.604 216.631 376.304 216.689 376.103 216.806C375.907 216.926 375.774 217.078 375.706 217.263C375.642 217.451 375.61 217.649 375.61 217.858C375.61 218.014 375.618 218.142 375.634 218.243C375.654 218.343 375.67 218.423 375.682 218.483L374.407 218.772C374.371 218.676 374.335 218.541 374.299 218.369C374.259 218.196 374.239 217.978 374.239 217.713C374.239 217.313 374.325 216.92 374.498 216.535C374.67 216.154 374.933 215.837 375.285 215.585C375.638 215.336 376.083 215.212 376.62 215.212L385.808 215.212Z" fill="#E3E8FF" fill-opacity="0.6"/>
<line x1="356.304" y1="117.528" x2="356.304" y2="281.769" stroke="#E3E8FF" stroke-opacity="0.2" stroke-width="0.8466"/>
<line x1="160.299" y1="246.709" x2="95.2993" y2="311.709" stroke="#E3E8FF" stroke-opacity="0.2" stroke-width="0.8466"/>
<circle cx="356.41" cy="351.819" r="47.4096" fill="#E3E8FF" fill-opacity="0.04"/>
<circle cx="356.41" cy="351.819" r="45.7164" stroke="#E3E8FF" stroke-opacity="0.2" stroke-width="3.3864"/>
<path fill-rule="evenodd" clip-rule="evenodd" d="M338.633 334.041H351.576V337.427H342.019V346.984H338.633V334.041ZM370.804 337.427H361.247V334.041H374.19V346.984H370.804V337.427ZM374.19 356.654V369.598H361.247V366.211H370.804V356.654H374.19ZM342.019 366.211V356.654H338.633V369.598H351.576V366.211H342.019Z" fill="#E3E8FF" fill-opacity="0.2"/>
<path d="M350.907 347.586C350.907 344.547 353.371 342.083 356.41 342.083C359.449 342.083 361.913 344.547 361.913 347.586C361.913 350.626 359.449 353.089 356.41 353.089C353.371 353.089 350.907 350.626 350.907 347.586Z" fill="#E3E8FF" fill-opacity="0.2"/>
<path d="M356.342 354.468C359.497 354.437 362.574 356.232 364.318 359.717C364.515 360.111 364.494 360.578 364.263 360.953C364.032 361.327 363.623 361.555 363.183 361.555H349.637C349.198 361.555 348.79 361.329 348.559 360.956C348.327 360.583 348.304 360.117 348.498 359.723C350.165 356.346 353.197 354.5 356.342 354.468Z" fill="#E3E8FF" fill-opacity="0.2"/>
<path d="M176.996 348.41H175.433L179.955 336.095H181.494L186.015 348.41H184.452L180.772 338.044H180.676L176.996 348.41ZM177.573 343.599H183.875V344.922H177.573V343.599ZM193.944 341.242L192.67 341.603C192.589 341.391 192.471 341.184 192.315 340.984C192.163 340.779 191.954 340.611 191.69 340.479C191.425 340.347 191.086 340.28 190.673 340.28C190.108 340.28 189.637 340.411 189.26 340.671C188.888 340.928 188.701 341.254 188.701 341.651C188.701 342.004 188.829 342.283 189.086 342.487C189.343 342.692 189.743 342.862 190.289 342.998L191.66 343.335C192.485 343.535 193.101 343.842 193.505 344.255C193.91 344.664 194.113 345.191 194.113 345.836C194.113 346.365 193.96 346.838 193.656 347.255C193.355 347.672 192.934 348.001 192.393 348.241C191.852 348.482 191.223 348.602 190.505 348.602C189.563 348.602 188.783 348.398 188.166 347.989C187.549 347.58 187.158 346.983 186.994 346.197L188.34 345.86C188.469 346.357 188.711 346.73 189.068 346.979C189.429 347.227 189.9 347.351 190.481 347.351C191.142 347.351 191.668 347.211 192.056 346.931C192.449 346.646 192.646 346.305 192.646 345.908C192.646 345.588 192.533 345.319 192.309 345.103C192.084 344.882 191.74 344.718 191.275 344.61L189.735 344.249C188.89 344.048 188.268 343.738 187.871 343.317C187.479 342.892 187.282 342.361 187.282 341.723C187.282 341.202 187.429 340.741 187.721 340.341C188.018 339.94 188.421 339.625 188.93 339.397C189.443 339.168 190.024 339.054 190.673 339.054C191.587 339.054 192.305 339.254 192.826 339.655C193.351 340.056 193.724 340.585 193.944 341.242ZM202.452 341.242L201.177 341.603C201.097 341.391 200.979 341.184 200.823 340.984C200.67 340.779 200.462 340.611 200.197 340.479C199.933 340.347 199.594 340.28 199.181 340.28C198.616 340.28 198.145 340.411 197.768 340.671C197.395 340.928 197.209 341.254 197.209 341.651C197.209 342.004 197.337 342.283 197.594 342.487C197.85 342.692 198.251 342.862 198.796 342.998L200.167 343.335C200.993 343.535 201.608 343.842 202.013 344.255C202.418 344.664 202.62 345.191 202.62 345.836C202.62 346.365 202.468 346.838 202.163 347.255C201.863 347.672 201.442 348.001 200.901 348.241C200.36 348.482 199.73 348.602 199.013 348.602C198.071 348.602 197.291 348.398 196.674 347.989C196.056 347.58 195.666 346.983 195.501 346.197L196.848 345.86C196.976 346.357 197.219 346.73 197.576 346.979C197.936 347.227 198.407 347.351 198.989 347.351C199.65 347.351 200.175 347.211 200.564 346.931C200.957 346.646 201.153 346.305 201.153 345.908C201.153 345.588 201.041 345.319 200.817 345.103C200.592 344.882 200.247 344.718 199.782 344.61L198.243 344.249C197.397 344.048 196.776 343.738 196.379 343.317C195.986 342.892 195.79 342.361 195.79 341.723C195.79 341.202 195.936 340.741 196.229 340.341C196.525 339.94 196.928 339.625 197.437 339.397C197.95 339.168 198.532 339.054 199.181 339.054C200.095 339.054 200.813 339.254 201.334 339.655C201.859 340.056 202.232 340.585 202.452 341.242ZM208.29 348.602C207.4 348.602 206.633 348.406 205.987 348.013C205.346 347.616 204.851 347.063 204.502 346.353C204.157 345.64 203.985 344.81 203.985 343.864C203.985 342.918 204.157 342.084 204.502 341.363C204.851 340.637 205.336 340.072 205.957 339.667C206.582 339.258 207.312 339.054 208.146 339.054C208.627 339.054 209.102 339.134 209.571 339.294C210.04 339.455 210.467 339.715 210.851 340.076C211.236 340.433 211.543 340.906 211.771 341.495C212 342.084 212.114 342.81 212.114 343.672V344.273H204.995V343.046H210.671C210.671 342.525 210.567 342.06 210.358 341.651C210.154 341.242 209.861 340.92 209.481 340.683C209.104 340.447 208.659 340.328 208.146 340.328C207.581 340.328 207.091 340.469 206.679 340.749C206.27 341.026 205.955 341.387 205.735 341.832C205.514 342.277 205.404 342.754 205.404 343.263V344.08C205.404 344.778 205.524 345.369 205.765 345.854C206.009 346.335 206.348 346.702 206.781 346.955C207.214 347.203 207.717 347.327 208.29 347.327C208.663 347.327 209 347.275 209.3 347.171C209.605 347.063 209.867 346.902 210.088 346.69C210.308 346.474 210.479 346.205 210.599 345.884L211.97 346.269C211.826 346.734 211.583 347.143 211.242 347.496C210.902 347.844 210.481 348.117 209.98 348.313C209.479 348.506 208.915 348.602 208.29 348.602ZM217.951 339.174V340.377H213.164V339.174H217.951ZM214.559 336.961H215.978V345.764C215.978 346.165 216.037 346.466 216.153 346.666C216.273 346.862 216.425 346.995 216.61 347.063C216.798 347.127 216.997 347.159 217.205 347.159C217.361 347.159 217.49 347.151 217.59 347.135C217.69 347.115 217.77 347.099 217.83 347.087L218.119 348.362C218.023 348.398 217.889 348.434 217.716 348.47C217.544 348.51 217.325 348.53 217.061 348.53C216.66 348.53 216.267 348.444 215.882 348.271C215.501 348.099 215.185 347.836 214.932 347.484C214.684 347.131 214.559 346.686 214.559 346.149V336.961ZM226.123 341.242L224.848 341.603C224.768 341.391 224.65 341.184 224.494 340.984C224.341 340.779 224.133 340.611 223.868 340.479C223.604 340.347 223.265 340.28 222.852 340.28C222.287 340.28 221.816 340.411 221.439 340.671C221.066 340.928 220.88 341.254 220.88 341.651C220.88 342.004 221.008 342.283 221.265 342.487C221.521 342.692 221.922 342.862 222.467 342.998L223.838 343.335C224.664 343.535 225.279 343.842 225.684 344.255C226.089 344.664 226.291 345.191 226.291 345.836C226.291 346.365 226.139 346.838 225.835 347.255C225.534 347.672 225.113 348.001 224.572 348.241C224.031 348.482 223.401 348.602 222.684 348.602C221.742 348.602 220.962 348.398 220.345 347.989C219.728 347.58 219.337 346.983 219.172 346.197L220.519 345.86C220.647 346.357 220.89 346.73 221.247 346.979C221.608 347.227 222.079 347.351 222.66 347.351C223.321 347.351 223.846 347.211 224.235 346.931C224.628 346.646 224.824 346.305 224.824 345.908C224.824 345.588 224.712 345.319 224.488 345.103C224.263 344.882 223.918 344.718 223.453 344.61L221.914 344.249C221.068 344.048 220.447 343.738 220.05 343.317C219.657 342.892 219.461 342.361 219.461 341.723C219.461 341.202 219.607 340.741 219.9 340.341C220.197 339.94 220.599 339.625 221.108 339.397C221.622 339.168 222.203 339.054 222.852 339.054C223.766 339.054 224.484 339.254 225.005 339.655C225.53 340.056 225.903 340.585 226.123 341.242Z" fill="#E3E8FF" fill-opacity="0.6"/>
<path d="M74.7414 265.82L73.687 266.875C73.3214 266.634 72.9458 266.477 72.5603 266.403C72.1777 266.326 71.7979 266.321 71.4209 266.386C71.0439 266.445 70.6825 266.569 70.3367 266.756C69.9909 266.943 69.6734 267.181 69.3843 267.47C68.8571 267.997 68.5127 268.608 68.3512 269.302C68.1924 269.994 68.2463 270.725 68.5127 271.496C68.782 272.264 69.2936 273.026 70.0476 273.779C70.8016 274.533 71.5626 275.045 72.3307 275.314C73.1017 275.581 73.833 275.635 74.5246 275.476C75.2191 275.314 75.8299 274.97 76.3571 274.443C76.6462 274.154 76.8843 273.836 77.0714 273.49C77.2584 273.145 77.3832 272.785 77.4455 272.41C77.5079 272.031 77.5008 271.649 77.4243 271.267C77.3477 270.878 77.1904 270.503 76.9523 270.14L78.0067 269.086C78.3724 269.61 78.6261 270.153 78.7678 270.714C78.9095 271.275 78.9478 271.835 78.8826 272.393C78.8146 272.949 78.6502 273.485 78.3894 274.001C78.1315 274.514 77.7828 274.99 77.3435 275.429C76.6009 276.172 75.759 276.651 74.818 276.866C73.8769 277.082 72.9061 277.021 71.9056 276.683C70.905 276.346 69.9456 275.718 69.0272 274.8C68.1088 273.882 67.481 272.922 67.1437 271.922C66.8064 270.921 66.7455 269.95 66.9609 269.009C67.1763 268.068 67.6553 267.226 68.3979 266.484C68.8373 266.044 69.3135 265.696 69.8265 265.438C70.3424 265.177 70.8795 265.014 71.4379 264.949C71.9934 264.881 72.5518 264.918 73.1131 265.059C73.6714 265.198 74.2142 265.452 74.7414 265.82ZM82.0562 270.478L75.5256 263.948L76.495 262.978L77.4814 263.965L77.5494 263.897C77.3453 263.455 77.2985 262.977 77.4091 262.464C77.5196 261.951 77.7705 261.499 78.1616 261.108C78.2353 261.034 78.3289 260.943 78.4422 260.836C78.5556 260.728 78.6435 260.648 78.7058 260.597L79.7262 261.618C79.6837 261.643 79.593 261.709 79.4541 261.813C79.3153 261.913 79.1792 262.029 79.046 262.162C78.7285 262.48 78.5117 262.83 78.3955 263.212C78.2793 263.589 78.2651 263.966 78.353 264.343C78.4408 264.714 78.6321 265.048 78.9269 265.342L83.0596 269.475L82.0562 270.478ZM88.9468 263.86C88.3175 264.489 87.6359 264.893 86.9017 265.072C86.1676 265.244 85.4264 265.203 84.6781 264.948C83.9298 264.688 83.2212 264.223 82.5523 263.554C81.8833 262.885 81.4156 262.173 81.1492 261.419C80.8828 260.66 80.8261 259.917 80.9791 259.192C81.1322 258.46 81.5035 257.8 82.0931 257.21C82.4332 256.87 82.8258 256.591 83.2708 256.373C83.7158 256.154 84.2019 256.037 84.7291 256.02C85.2535 256 85.8048 256.118 86.383 256.373C86.9612 256.628 87.5551 257.06 88.1645 257.669L88.5896 258.095L83.5557 263.129L82.6883 262.261L86.7019 258.248C86.3334 257.879 85.9309 257.624 85.4944 257.482C85.0607 257.338 84.6257 257.317 84.1892 257.419C83.7555 257.518 83.3572 257.749 82.9944 258.112C82.5948 258.511 82.3482 258.956 82.2546 259.447C82.1611 259.931 82.1937 260.409 82.3524 260.879C82.5112 261.35 82.7705 261.765 83.1305 262.125L83.7087 262.703C84.2019 263.197 84.705 263.53 85.2181 263.703C85.7311 263.87 86.23 263.89 86.7147 263.762C87.1965 263.632 87.6401 263.364 88.0454 262.958C88.309 262.695 88.5103 262.42 88.6492 262.134C88.7881 261.842 88.8603 261.543 88.866 261.237C88.8688 260.928 88.7994 260.617 88.6577 260.305L89.8992 259.608C90.1259 260.039 90.2435 260.5 90.2521 260.99C90.2577 261.477 90.1528 261.968 89.9374 262.461C89.7192 262.951 89.389 263.418 88.9468 263.86ZM95.4037 257.403C94.8595 257.947 94.2416 258.29 93.55 258.432C92.8556 258.571 92.1384 258.506 91.3986 258.236C90.656 257.964 89.9389 257.482 89.2473 256.791C88.5614 256.105 88.0838 255.392 87.8145 254.652C87.5452 253.912 87.4828 253.195 87.6274 252.501C87.772 251.806 88.1192 251.184 88.6691 250.634C89.0942 250.209 89.501 249.944 89.8893 249.839C90.2776 249.729 90.6263 249.697 90.9352 249.746C91.2442 249.788 91.4922 249.829 91.6793 249.869L91.7643 249.784L88.55 246.57L89.5534 245.566L98.2609 254.274L97.2915 255.243L96.2881 254.24L96.169 254.359C96.2144 254.551 96.2597 254.807 96.3051 255.124C96.3476 255.439 96.3136 255.793 96.203 256.187C96.0897 256.578 95.8232 256.983 95.4037 257.403ZM94.6384 256.365C95.0409 255.963 95.2762 255.518 95.3442 255.03C95.4094 254.54 95.3272 254.036 95.0976 253.517C94.8652 252.995 94.5024 252.488 94.0092 251.995C93.5217 251.507 93.0242 251.152 92.5168 250.928C92.0066 250.701 91.5106 250.624 91.0287 250.698C90.5441 250.769 90.0976 251.008 89.6895 251.417C89.2643 251.842 89.0191 252.305 88.9539 252.807C88.8887 253.303 88.9709 253.807 89.2005 254.32C89.4301 254.828 89.7745 255.311 90.2337 255.77C90.6985 256.235 91.1917 256.587 91.7133 256.825C92.2348 257.057 92.7478 257.145 93.2524 257.088C93.7569 257.026 94.2189 256.785 94.6384 256.365ZM99.9984 252.536L93.4679 246.006L94.4713 245.002L101.002 251.533L99.9984 252.536ZM92.8896 244.407C92.694 244.602 92.4588 244.704 92.1838 244.713C91.9117 244.719 91.6821 244.628 91.4951 244.441C91.308 244.254 91.2173 244.024 91.223 243.752C91.2315 243.477 91.3335 243.242 91.5291 243.046C91.7247 242.851 91.9585 242.75 92.2306 242.744C92.5056 242.736 92.7366 242.825 92.9236 243.012C93.1107 243.199 93.2 243.43 93.1915 243.705C93.1858 243.977 93.0852 244.211 92.8896 244.407ZM102.736 249.798L94.0288 241.091L95.0322 240.087L98.2464 243.302L98.3315 243.217C98.2918 243.03 98.2493 242.783 98.2039 242.477C98.1586 242.165 98.1898 241.816 98.2975 241.431C98.4052 241.04 98.6716 240.632 99.0968 240.207C99.6467 239.657 100.269 239.309 100.963 239.165C101.658 239.02 102.375 239.083 103.115 239.352C103.854 239.621 104.567 240.099 105.253 240.785C105.945 241.476 106.427 242.193 106.699 242.936C106.968 243.676 107.033 244.393 106.894 245.087C106.753 245.779 106.41 246.397 105.865 246.941C105.446 247.361 105.041 247.627 104.649 247.74C104.255 247.851 103.901 247.885 103.587 247.843C103.269 247.797 103.014 247.752 102.821 247.706L102.702 247.826L103.706 248.829L102.736 249.798ZM100.457 245.547C100.951 246.04 101.458 246.403 101.979 246.635C102.498 246.865 103.003 246.947 103.493 246.882C103.981 246.814 104.426 246.578 104.828 246.176C105.248 245.756 105.487 245.296 105.547 244.794C105.606 244.287 105.518 243.774 105.283 243.255C105.048 242.731 104.698 242.236 104.233 241.771C103.774 241.312 103.289 240.969 102.779 240.742C102.269 240.51 101.764 240.428 101.265 240.496C100.766 240.558 100.304 240.802 99.8791 241.227C99.4709 241.635 99.2314 242.082 99.1606 242.566C99.0869 243.048 99.1634 243.544 99.3901 244.054C99.6141 244.562 99.9698 245.059 100.457 245.547ZM109.797 242.738L103.266 236.207L104.27 235.204L110.8 241.734L109.797 242.738ZM102.688 234.608C102.493 234.804 102.257 234.906 101.982 234.915C101.71 234.92 101.481 234.829 101.294 234.642C101.106 234.455 101.016 234.226 101.021 233.954C101.03 233.679 101.132 233.443 101.328 233.248C101.523 233.052 101.757 232.952 102.029 232.946C102.304 232.937 102.535 233.027 102.722 233.214C102.909 233.401 102.998 233.632 102.99 233.907C102.984 234.179 102.884 234.413 102.688 234.608ZM104.695 230.425L113.402 239.132L112.399 240.136L103.691 231.428L104.695 230.425ZM115 237.534L108.47 231.004L109.473 230L116.004 236.531L115 237.534ZM107.892 229.405C107.696 229.601 107.461 229.703 107.186 229.711C106.914 229.717 106.684 229.626 106.497 229.439C106.31 229.252 106.219 229.022 106.225 228.75C106.233 228.475 106.335 228.24 106.531 228.044C106.727 227.849 106.96 227.748 107.233 227.743C107.507 227.734 107.738 227.823 107.926 228.01C108.113 228.197 108.202 228.428 108.193 228.703C108.188 228.976 108.087 229.209 107.892 229.405ZM113.912 225.562L114.762 226.412L111.378 229.796L110.527 228.946L113.912 225.562ZM109.949 226.395L110.952 225.392L117.177 231.616C117.46 231.9 117.714 232.071 117.938 232.131C118.162 232.184 118.363 232.17 118.542 232.088C118.72 232 118.883 231.883 119.031 231.735C119.141 231.625 119.226 231.528 119.286 231.446C119.342 231.361 119.388 231.293 119.422 231.242L120.527 231.939C120.485 232.033 120.415 232.153 120.319 232.301C120.225 232.451 120.085 232.62 119.898 232.807C119.615 233.09 119.276 233.307 118.882 233.457C118.491 233.604 118.081 233.643 117.653 233.572C117.228 233.498 116.825 233.271 116.446 232.892L109.949 226.395ZM124.807 232.625C124.637 232.795 124.471 232.933 124.31 233.038C124.151 233.145 124.034 233.212 123.957 233.237L123.328 232.098C123.634 231.917 123.872 231.724 124.042 231.52C124.212 231.316 124.294 231.066 124.289 230.771C124.289 230.477 124.184 230.102 123.974 229.649L123.651 228.952L114.671 224.802L115.76 223.714L122.767 227.115L122.835 227.047L119.433 220.04L120.522 218.952L125.233 229.207C125.445 229.669 125.57 230.102 125.607 230.508C125.646 230.916 125.598 231.296 125.462 231.647C125.329 231.996 125.111 232.322 124.807 232.625ZM100.187 280.631L91.4799 271.924L92.5344 270.87L100.306 278.642L104.354 274.594L105.289 275.529L100.187 280.631ZM108.621 272.504C108.208 272.917 107.754 273.215 107.261 273.396C106.765 273.575 106.269 273.615 105.773 273.515C105.274 273.413 104.812 273.15 104.387 272.725C104.013 272.351 103.783 271.974 103.698 271.594C103.61 271.211 103.623 270.83 103.736 270.45C103.85 270.07 104.022 269.699 104.255 269.336C104.487 268.968 104.735 268.612 104.999 268.269C105.345 267.821 105.628 267.461 105.849 267.189C106.07 266.911 106.205 266.683 106.253 266.504C106.304 266.323 106.249 266.152 106.087 265.99L106.053 265.956C105.634 265.536 105.193 265.325 104.731 265.322C104.272 265.317 103.811 265.545 103.349 266.007C102.87 266.486 102.6 266.966 102.537 267.448C102.475 267.93 102.507 268.345 102.635 268.694L101.342 269.306C101.116 268.739 101.034 268.204 101.096 267.699C101.158 267.189 101.314 266.721 101.564 266.296C101.813 265.865 102.102 265.485 102.431 265.157C102.641 264.947 102.907 264.731 103.23 264.51C103.553 264.284 103.919 264.119 104.327 264.017C104.738 263.912 105.183 263.929 105.662 264.068C106.141 264.207 106.64 264.536 107.159 265.055L111.461 269.357L110.458 270.361L109.574 269.476L109.523 269.527C109.596 269.737 109.635 270.002 109.638 270.322C109.64 270.643 109.567 270.991 109.416 271.368C109.266 271.745 109.001 272.124 108.621 272.504ZM107.873 271.449C108.27 271.052 108.526 270.64 108.643 270.212C108.762 269.781 108.767 269.373 108.66 268.987C108.555 268.599 108.366 268.269 108.094 267.997L107.176 267.078C107.184 267.172 107.138 267.312 107.035 267.499C106.933 267.681 106.804 267.881 106.649 268.099C106.493 268.311 106.338 268.517 106.185 268.715C106.032 268.908 105.909 269.065 105.815 269.187C105.588 269.482 105.4 269.781 105.25 270.084C105.1 270.382 105.03 270.675 105.041 270.964C105.053 271.248 105.186 271.517 105.441 271.772C105.79 272.121 106.182 272.256 106.619 272.176C107.055 272.091 107.473 271.849 107.873 271.449ZM115.915 269.802C115.745 269.972 115.579 270.109 115.417 270.214C115.259 270.322 115.141 270.389 115.064 270.414L114.435 269.275C114.741 269.093 114.979 268.901 115.15 268.696C115.32 268.492 115.402 268.243 115.396 267.948C115.396 267.653 115.291 267.279 115.081 266.826L114.758 266.128L105.779 261.979L106.867 260.89L113.874 264.292L113.942 264.224L110.541 257.217L111.629 256.129L116.34 266.384C116.553 266.846 116.677 267.279 116.714 267.685C116.754 268.093 116.706 268.473 116.57 268.824C116.436 269.173 116.218 269.499 115.915 269.802ZM121.885 259.206C121.256 259.835 120.574 260.239 119.84 260.418C119.106 260.591 118.365 260.549 117.616 260.294C116.868 260.034 116.159 259.569 115.49 258.9C114.821 258.231 114.354 257.519 114.087 256.765C113.821 256.006 113.764 255.263 113.917 254.538C114.07 253.806 114.442 253.146 115.031 252.556C115.371 252.216 115.764 251.937 116.209 251.719C116.654 251.5 117.14 251.383 117.667 251.366C118.192 251.346 118.743 251.464 119.321 251.719C119.899 251.974 120.493 252.406 121.103 253.016L121.528 253.441L116.494 258.475L115.626 257.607L119.64 253.594C119.272 253.225 118.869 252.97 118.433 252.828C117.999 252.684 117.564 252.663 117.127 252.765C116.694 252.864 116.295 253.095 115.933 253.458C115.533 253.857 115.286 254.302 115.193 254.793C115.099 255.277 115.132 255.755 115.291 256.226C115.449 256.696 115.709 257.111 116.069 257.471L116.647 258.05C117.14 258.543 117.643 258.876 118.156 259.049C118.669 259.216 119.168 259.236 119.653 259.108C120.135 258.978 120.578 258.71 120.984 258.305C121.247 258.041 121.448 257.766 121.587 257.48C121.726 257.188 121.798 256.889 121.804 256.583C121.807 256.274 121.738 255.963 121.596 255.652L122.837 254.954C123.064 255.385 123.182 255.846 123.19 256.336C123.196 256.824 123.091 257.314 122.876 257.807C122.657 258.298 122.327 258.764 121.885 259.206ZM125.74 255.079L119.209 248.548L120.179 247.579L121.165 248.565L121.233 248.497C121.029 248.055 120.982 247.578 121.093 247.065C121.203 246.551 121.454 246.099 121.845 245.708C121.919 245.635 122.013 245.544 122.126 245.436C122.239 245.328 122.327 245.249 122.39 245.198L123.41 246.218C123.367 246.244 123.277 246.309 123.138 246.414C122.999 246.513 122.863 246.629 122.73 246.763C122.412 247.08 122.195 247.43 122.079 247.813C121.963 248.19 121.949 248.567 122.037 248.944C122.125 249.315 122.316 249.648 122.611 249.943L126.743 254.076L125.74 255.079Z" fill="#E3E8FF" fill-opacity="0.6"/>
<line x1="117" y1="365.986" x2="286" y2="365.986" stroke="#E3E8FF" stroke-opacity="0.2" stroke-width="0.8466"/>
<circle cx="47.4096" cy="351.819" r="47.4096" fill="#E3E8FF" fill-opacity="0.04"/>
<circle cx="47.4096" cy="351.819" r="45.7164" stroke="#E3E8FF" stroke-opacity="0.2" stroke-width="3.3864"/>
<path d="M49.1001 339.967C49.1001 340.561 48.9981 341.132 48.8105 341.662L57.5645 341.662V350.416C58.0946 350.228 58.6651 350.126 59.2594 350.126C62.0647 350.126 64.339 352.4 64.339 355.206C64.339 358.011 62.0647 360.285 59.2594 360.285C58.6651 360.285 58.0946 360.183 57.5645 359.996V368.75H48.8117C48.9985 368.22 49.1001 367.651 49.1001 367.058C49.1001 364.253 46.8259 361.978 44.0205 361.978C41.2152 361.978 38.9409 364.253 38.9409 367.058C38.9409 367.651 39.0426 368.22 39.2294 368.75H30.477L30.4766 359.997C31.0057 360.184 31.575 360.285 32.1681 360.285C34.9735 360.285 37.2477 358.011 37.2477 355.206C37.2477 352.4 34.9735 350.126 32.1681 350.126C31.575 350.126 31.0057 350.228 30.4766 350.414L30.4775 341.662H39.2306C39.043 341.132 38.9409 340.561 38.9409 339.967C38.9409 337.161 41.2152 334.887 44.0205 334.887C46.8259 334.887 49.1001 337.161 49.1001 339.967Z" stroke="#E3E8FF" stroke-opacity="0.2" stroke-width="2.1165"/>
<g opacity="0.4">
<g filter="url(#filter0_dddddddd_2326_4976)">
<rect width="27.6185" height="27.6185" rx="3.17478" transform="matrix(0.906308 -0.422618 0.927184 0.374607 176.17 201.6)" fill="#1F1E2A"/>
</g>
<g filter="url(#filter1_dddddddd_2326_4976)">
<rect width="27.6185" height="27.6185" rx="3.17478" transform="matrix(0.906308 -0.422618 0.927184 0.374607 176.09 200.716)" fill="#1F1E2A"/>
</g>
<g filter="url(#filter2_dddddddd_2326_4976)">
<rect width="27.6185" height="27.6185" rx="3.17478" transform="matrix(0.906308 -0.422618 0.927184 0.374607 176.09 199.797)" fill="#1F1E2A"/>
</g>
<g filter="url(#filter3_dddddddd_2326_4976)">
<rect width="27.6185" height="27.6185" rx="3.17478" transform="matrix(0.906308 -0.422618 0.927184 0.374607 176.012 199.229)" fill="#1E1C29"/>
<rect x="0.485077" y="-0.0127022" width="27.0894" height="27.0894" rx="2.91021" transform="matrix(0.906308 -0.422618 0.927184 0.374607 176.069 199.427)" stroke="white" stroke-opacity="0.2" stroke-width="0.52913"/>
</g>
</g>
<g opacity="0.4">
<circle cx="201.41" cy="199.41" r="47.41" fill="#E3E8FF" fill-opacity="0.04"/>
<circle cx="201.41" cy="199.41" r="45.7168" stroke="#E3E8FF" stroke-opacity="0.2" stroke-width="3.38643"/>
</g>
<circle cx="47.4096" cy="47.4096" r="47.4096" fill="#E3E8FF" fill-opacity="0.04"/>
<circle cx="47.4096" cy="47.4096" r="45.7164" stroke="#E3E8FF" stroke-opacity="0.2" stroke-width="3.3864"/>
<line x1="117.402" y1="46.9864" x2="281.643" y2="46.9864" stroke="#E3E8FF" stroke-opacity="0.2" stroke-width="0.8466"/>
<path d="M173.297 16.6175V28.9316H171.806V16.6175H173.297ZM179.243 29.124C178.473 29.124 177.794 28.9296 177.205 28.5408C176.615 28.148 176.154 27.5948 175.822 26.8813C175.489 26.1638 175.323 25.316 175.323 24.3379C175.323 23.3678 175.489 22.526 175.822 21.8125C176.154 21.099 176.617 20.5478 177.211 20.159C177.804 19.7702 178.489 19.5757 179.267 19.5757C179.868 19.5757 180.343 19.676 180.692 19.8764C181.045 20.0728 181.313 20.2973 181.498 20.5498C181.686 20.7983 181.833 21.0028 181.937 21.1631H182.057V16.6175H183.476V28.9316H182.105V27.5126H181.937C181.833 27.681 181.684 27.8934 181.492 28.15C181.299 28.4025 181.025 28.629 180.668 28.8294C180.311 29.0258 179.836 29.124 179.243 29.124ZM179.435 27.8493C180.005 27.8493 180.486 27.701 180.878 27.4044C181.271 27.1038 181.57 26.6889 181.774 26.1597C181.979 25.6266 182.081 25.0113 182.081 24.3138C182.081 23.6244 181.981 23.0211 181.78 22.504C181.58 21.9829 181.283 21.578 180.891 21.2894C180.498 20.9968 180.013 20.8505 179.435 20.8505C178.834 20.8505 178.333 21.0048 177.932 21.3134C177.535 21.6181 177.237 22.033 177.036 22.5581C176.84 23.0792 176.742 23.6644 176.742 24.3138C176.742 24.9712 176.842 25.5685 177.042 26.1056C177.247 26.6388 177.547 27.0637 177.944 27.3803C178.345 27.693 178.842 27.8493 179.435 27.8493ZM189.806 29.124C188.916 29.124 188.148 28.9276 187.503 28.5348C186.861 28.138 186.366 27.5848 186.018 26.8753C185.673 26.1618 185.5 25.332 185.5 24.386C185.5 23.44 185.673 22.6062 186.018 21.8847C186.366 21.1591 186.851 20.5939 187.473 20.189C188.098 19.7802 188.827 19.5757 189.661 19.5757C190.142 19.5757 190.617 19.6559 191.086 19.8163C191.555 19.9766 191.982 20.2372 192.367 20.5979C192.752 20.9547 193.058 21.4277 193.287 22.0169C193.515 22.6062 193.63 23.3317 193.63 24.1936V24.7948H186.511V23.5682H192.187C192.187 23.0471 192.082 22.5821 191.874 22.1733C191.67 21.7644 191.377 21.4417 190.996 21.2052C190.619 20.9687 190.174 20.8505 189.661 20.8505C189.096 20.8505 188.607 20.9908 188.194 21.2714C187.785 21.5479 187.471 21.9087 187.25 22.3537C187.03 22.7986 186.919 23.2756 186.919 23.7847V24.6024C186.919 25.2999 187.04 25.8912 187.28 26.3762C187.525 26.8572 187.863 27.224 188.296 27.4765C188.729 27.7251 189.232 27.8493 189.806 27.8493C190.178 27.8493 190.515 27.7972 190.816 27.693C191.12 27.5848 191.383 27.4244 191.603 27.212C191.824 26.9955 191.994 26.727 192.114 26.4063L193.485 26.7911C193.341 27.2561 193.099 27.6649 192.758 28.0177C192.417 28.3664 191.996 28.639 191.495 28.8354C190.994 29.0278 190.431 29.124 189.806 29.124ZM196.869 23.3758V28.9316H195.45V19.696H196.821V21.1391H196.941C197.157 20.6701 197.486 20.2933 197.927 20.0087C198.368 19.7201 198.937 19.5757 199.635 19.5757C200.26 19.5757 200.807 19.704 201.276 19.9606C201.745 20.2131 202.11 20.5979 202.37 21.115C202.631 21.6281 202.761 22.2775 202.761 23.0632V28.9316H201.342V23.1594C201.342 22.4338 201.154 21.8686 200.777 21.4638C200.4 21.0549 199.883 20.8505 199.226 20.8505C198.773 20.8505 198.368 20.9487 198.011 21.1451C197.658 21.3415 197.38 21.6281 197.175 22.0049C196.971 22.3817 196.869 22.8387 196.869 23.3758ZM209.032 19.696V20.8986H204.246V19.696H209.032ZM205.641 17.4833H207.06V26.286C207.06 26.6869 207.118 26.9875 207.234 27.1879C207.355 27.3844 207.507 27.5166 207.691 27.5848C207.88 27.6489 208.078 27.681 208.287 27.681C208.443 27.681 208.571 27.673 208.671 27.6569C208.772 27.6369 208.852 27.6209 208.912 27.6088L209.2 28.8835C209.104 28.9196 208.97 28.9557 208.798 28.9918C208.625 29.0319 208.407 29.0519 208.142 29.0519C207.741 29.0519 207.349 28.9657 206.964 28.7933C206.583 28.621 206.266 28.3584 206.014 28.0057C205.765 27.6529 205.641 27.208 205.641 26.6708V17.4833ZM210.828 28.9316V19.696H212.247V28.9316H210.828ZM211.55 18.1567C211.273 18.1567 211.034 18.0625 210.834 17.8741C210.638 17.6857 210.539 17.4592 210.539 17.1947C210.539 16.9301 210.638 16.7036 210.834 16.5152C211.034 16.3268 211.273 16.2326 211.55 16.2326C211.826 16.2326 212.063 16.3268 212.259 16.5152C212.459 16.7036 212.56 16.9301 212.56 17.1947C212.56 17.4592 212.459 17.6857 212.259 17.8741C212.063 18.0625 211.826 18.1567 211.55 18.1567ZM218.524 19.696V20.8986H213.738V19.696H218.524ZM215.133 17.4833H216.552V26.286C216.552 26.6869 216.61 26.9875 216.726 27.1879C216.846 27.3844 216.999 27.5166 217.183 27.5848C217.372 27.6489 217.57 27.681 217.778 27.681C217.935 27.681 218.063 27.673 218.163 27.6569C218.263 27.6369 218.344 27.6209 218.404 27.6088L218.692 28.8835C218.596 28.9196 218.462 28.9557 218.289 28.9918C218.117 29.0319 217.899 29.0519 217.634 29.0519C217.233 29.0519 216.84 28.9657 216.456 28.7933C216.075 28.621 215.758 28.3584 215.506 28.0057C215.257 27.6529 215.133 27.208 215.133 26.6708V17.4833ZM221.234 32.395C220.993 32.395 220.779 32.375 220.59 32.3349C220.402 32.2988 220.272 32.2627 220.2 32.2266L220.56 30.976C220.905 31.0642 221.21 31.0962 221.474 31.0722C221.739 31.0481 221.973 30.9299 222.178 30.7174C222.386 30.509 222.577 30.1703 222.749 29.7013L223.014 28.9797L219.598 19.696H221.138L223.687 27.0557H223.783L226.333 19.696H227.872L223.952 30.2785C223.775 30.7555 223.557 31.1504 223.296 31.463C223.036 31.7797 222.733 32.0142 222.388 32.1665C222.048 32.3188 221.663 32.395 221.234 32.395Z" fill="#E3E8FF" fill-opacity="0.6"/>
<circle cx="351.339" cy="47.4096" r="47.4096" fill="#E3E8FF" fill-opacity="0.04"/>
<circle cx="351.339" cy="47.4096" r="45.7164" stroke="#E3E8FF" stroke-opacity="0.2" stroke-width="3.3864"/>
<circle cx="47.4097" cy="35.5571" r="5.0796" stroke="#E3E8FF" stroke-opacity="0.2" stroke-width="2.1165" stroke-linejoin="round"/>
<path d="M53.4843 42.3301C56.21 44.5073 59.2074 49.6673 56.5228 54.5587H52.9434L50.0086 64.3417H44.7975L41.8866 54.5587H38.3102C35.6202 49.6673 38.5994 44.5073 41.3252 42.3301" stroke="#E3E8FF" stroke-opacity="0.2" stroke-width="2.1165" stroke-linejoin="round"/>
<path d="M351.336 31.1831C346.456 31.1831 343.291 34.4592 339.548 35.6533C338.027 36.1389 337.266 36.3817 336.958 36.7239C336.65 37.0661 336.56 37.5662 336.379 38.5664C334.45 49.2692 338.668 59.164 348.727 63.0154C349.808 63.4292 350.348 63.6361 351.341 63.6361C352.335 63.6361 352.875 63.4292 353.956 63.0154C364.015 59.164 368.229 49.2691 366.298 38.5664C366.118 37.566 366.028 37.0659 365.72 36.7236C365.412 36.3814 364.651 36.1388 363.129 35.6535C359.385 34.4595 356.217 31.1831 351.336 31.1831Z" stroke="#E3E8FF" stroke-opacity="0.2" stroke-width="2.1165" stroke-linecap="round" stroke-linejoin="round"/>
<path d="M348.094 48.2209C348.094 48.2209 348.905 48.2209 349.716 49.8435C349.716 49.8435 352.294 45.7869 354.584 44.9756" stroke="#E3E8FF" stroke-opacity="0.2" stroke-width="2.1165" stroke-linecap="round" stroke-linejoin="round"/>
<path d="M359.451 47.4096C359.451 51.8905 355.819 55.5229 351.338 55.5229C346.857 55.5229 343.225 51.8905 343.225 47.4096C343.225 42.9288 346.857 39.2964 351.338 39.2964C355.819 39.2964 359.451 42.9288 359.451 47.4096Z" stroke="#E3E8FF" stroke-opacity="0.2" stroke-width="2.1165" stroke-linecap="round"/>
<defs>
<filter id="filter0_dddddddd_2326_4976" x="177.875" y="190.666" width="47.2285" height="24.0883" filterUnits="userSpaceOnUse" color-interpolation-filters="sRGB">
<feFlood flood-opacity="0" result="BackgroundImageFix"/>
<feColorMatrix in="SourceAlpha" type="matrix" values="0 0 0 0 0 0 0 0 0 0 0 0 0 0 0 0 0 0 127 0" result="hardAlpha"/>
<feOffset dy="0.443294"/>
<feComposite in2="hardAlpha" operator="out"/>
<feColorMatrix type="matrix" values="0 0 0 0 0.65098 0 0 0 0 0.513726 0 0 0 0 1 0 0 0 1 0"/>
<feBlend mode="normal" in2="BackgroundImageFix" result="effect1_dropShadow_2326_4976"/>
<feColorMatrix in="SourceAlpha" type="matrix" values="0 0 0 0 0 0 0 0 0 0 0 0 0 0 0 0 0 0 127 0" result="hardAlpha"/>
<feOffset dy="0.886588"/>
<feComposite in2="hardAlpha" operator="out"/>
<feColorMatrix type="matrix" values="0 0 0 0 0.65098 0 0 0 0 0.513726 0 0 0 0 1 0 0 0 1 0"/>
<feBlend mode="normal" in2="effect1_dropShadow_2326_4976" result="effect2_dropShadow_2326_4976"/>
<feColorMatrix in="SourceAlpha" type="matrix" values="0 0 0 0 0 0 0 0 0 0 0 0 0 0 0 0 0 0 127 0" result="hardAlpha"/>
<feOffset dy="1.32988"/>
<feComposite in2="hardAlpha" operator="out"/>
<feColorMatrix type="matrix" values="0 0 0 0 0.65098 0 0 0 0 0.513726 0 0 0 0 1 0 0 0 1 0"/>
<feBlend mode="normal" in2="effect2_dropShadow_2326_4976" result="effect3_dropShadow_2326_4976"/>
<feColorMatrix in="SourceAlpha" type="matrix" values="0 0 0 0 0 0 0 0 0 0 0 0 0 0 0 0 0 0 127 0" result="hardAlpha"/>
<feOffset dy="1.77318"/>
<feComposite in2="hardAlpha" operator="out"/>
<feColorMatrix type="matrix" values="0 0 0 0 0.65098 0 0 0 0 0.513726 0 0 0 0 1 0 0 0 1 0"/>
<feBlend mode="normal" in2="effect3_dropShadow_2326_4976" result="effect4_dropShadow_2326_4976"/>
<feColorMatrix in="SourceAlpha" type="matrix" values="0 0 0 0 0 0 0 0 0 0 0 0 0 0 0 0 0 0 127 0" result="hardAlpha"/>
<feOffset dy="2.21647"/>
<feComposite in2="hardAlpha" operator="out"/>
<feColorMatrix type="matrix" values="0 0 0 0 0.65098 0 0 0 0 0.513726 0 0 0 0 1 0 0 0 1 0"/>
<feBlend mode="normal" in2="effect4_dropShadow_2326_4976" result="effect5_dropShadow_2326_4976"/>
<feColorMatrix in="SourceAlpha" type="matrix" values="0 0 0 0 0 0 0 0 0 0 0 0 0 0 0 0 0 0 127 0" result="hardAlpha"/>
<feOffset dy="2.65976"/>
<feComposite in2="hardAlpha" operator="out"/>
<feColorMatrix type="matrix" values="0 0 0 0 0.65098 0 0 0 0 0.513726 0 0 0 0 1 0 0 0 1 0"/>
<feBlend mode="normal" in2="effect5_dropShadow_2326_4976" result="effect6_dropShadow_2326_4976"/>
<feColorMatrix in="SourceAlpha" type="matrix" values="0 0 0 0 0 0 0 0 0 0 0 0 0 0 0 0 0 0 127 0" result="hardAlpha"/>
<feOffset dy="3.10306"/>
<feComposite in2="hardAlpha" operator="out"/>
<feColorMatrix type="matrix" values="0 0 0 0 0.65098 0 0 0 0 0.513726 0 0 0 0 1 0 0 0 1 0"/>
<feBlend mode="normal" in2="effect6_dropShadow_2326_4976" result="effect7_dropShadow_2326_4976"/>
<feColorMatrix in="SourceAlpha" type="matrix" values="0 0 0 0 0 0 0 0 0 0 0 0 0 0 0 0 0 0 127 0" result="hardAlpha"/>
<feOffset dy="3.54635"/>
<feComposite in2="hardAlpha" operator="out"/>
<feColorMatrix type="matrix" values="0 0 0 0 0.65098 0 0 0 0 0.513726 0 0 0 0 1 0 0 0 1 0"/>
<feBlend mode="normal" in2="effect7_dropShadow_2326_4976" result="effect8_dropShadow_2326_4976"/>
<feBlend mode="normal" in="SourceGraphic" in2="effect8_dropShadow_2326_4976" result="shape"/>
</filter>
<filter id="filter1_dddddddd_2326_4976" x="177.795" y="189.782" width="47.2285" height="24.0883" filterUnits="userSpaceOnUse" color-interpolation-filters="sRGB">
<feFlood flood-opacity="0" result="BackgroundImageFix"/>
<feColorMatrix in="SourceAlpha" type="matrix" values="0 0 0 0 0 0 0 0 0 0 0 0 0 0 0 0 0 0 127 0" result="hardAlpha"/>
<feOffset dy="0.443294"/>
<feComposite in2="hardAlpha" operator="out"/>
<feColorMatrix type="matrix" values="0 0 0 0 0.65098 0 0 0 0 0.513726 0 0 0 0 1 0 0 0 1 0"/>
<feBlend mode="normal" in2="BackgroundImageFix" result="effect1_dropShadow_2326_4976"/>
<feColorMatrix in="SourceAlpha" type="matrix" values="0 0 0 0 0 0 0 0 0 0 0 0 0 0 0 0 0 0 127 0" result="hardAlpha"/>
<feOffset dy="0.886588"/>
<feComposite in2="hardAlpha" operator="out"/>
<feColorMatrix type="matrix" values="0 0 0 0 0.65098 0 0 0 0 0.513726 0 0 0 0 1 0 0 0 1 0"/>
<feBlend mode="normal" in2="effect1_dropShadow_2326_4976" result="effect2_dropShadow_2326_4976"/>
<feColorMatrix in="SourceAlpha" type="matrix" values="0 0 0 0 0 0 0 0 0 0 0 0 0 0 0 0 0 0 127 0" result="hardAlpha"/>
<feOffset dy="1.32988"/>
<feComposite in2="hardAlpha" operator="out"/>
<feColorMatrix type="matrix" values="0 0 0 0 0.65098 0 0 0 0 0.513726 0 0 0 0 1 0 0 0 1 0"/>
<feBlend mode="normal" in2="effect2_dropShadow_2326_4976" result="effect3_dropShadow_2326_4976"/>
<feColorMatrix in="SourceAlpha" type="matrix" values="0 0 0 0 0 0 0 0 0 0 0 0 0 0 0 0 0 0 127 0" result="hardAlpha"/>
<feOffset dy="1.77318"/>
<feComposite in2="hardAlpha" operator="out"/>
<feColorMatrix type="matrix" values="0 0 0 0 0.65098 0 0 0 0 0.513726 0 0 0 0 1 0 0 0 1 0"/>
<feBlend mode="normal" in2="effect3_dropShadow_2326_4976" result="effect4_dropShadow_2326_4976"/>
<feColorMatrix in="SourceAlpha" type="matrix" values="0 0 0 0 0 0 0 0 0 0 0 0 0 0 0 0 0 0 127 0" result="hardAlpha"/>
<feOffset dy="2.21647"/>
<feComposite in2="hardAlpha" operator="out"/>
<feColorMatrix type="matrix" values="0 0 0 0 0.65098 0 0 0 0 0.513726 0 0 0 0 1 0 0 0 1 0"/>
<feBlend mode="normal" in2="effect4_dropShadow_2326_4976" result="effect5_dropShadow_2326_4976"/>
<feColorMatrix in="SourceAlpha" type="matrix" values="0 0 0 0 0 0 0 0 0 0 0 0 0 0 0 0 0 0 127 0" result="hardAlpha"/>
<feOffset dy="2.65976"/>
<feComposite in2="hardAlpha" operator="out"/>
<feColorMatrix type="matrix" values="0 0 0 0 0.65098 0 0 0 0 0.513726 0 0 0 0 1 0 0 0 1 0"/>
<feBlend mode="normal" in2="effect5_dropShadow_2326_4976" result="effect6_dropShadow_2326_4976"/>
<feColorMatrix in="SourceAlpha" type="matrix" values="0 0 0 0 0 0 0 0 0 0 0 0 0 0 0 0 0 0 127 0" result="hardAlpha"/>
<feOffset dy="3.10306"/>
<feComposite in2="hardAlpha" operator="out"/>
<feColorMatrix type="matrix" values="0 0 0 0 0.65098 0 0 0 0 0.513726 0 0 0 0 1 0 0 0 1 0"/>
<feBlend mode="normal" in2="effect6_dropShadow_2326_4976" result="effect7_dropShadow_2326_4976"/>
<feColorMatrix in="SourceAlpha" type="matrix" values="0 0 0 0 0 0 0 0 0 0 0 0 0 0 0 0 0 0 127 0" result="hardAlpha"/>
<feOffset dy="3.54635"/>
<feComposite in2="hardAlpha" operator="out"/>
<feColorMatrix type="matrix" values="0 0 0 0 0.65098 0 0 0 0 0.513726 0 0 0 0 1 0 0 0 1 0"/>
<feBlend mode="normal" in2="effect7_dropShadow_2326_4976" result="effect8_dropShadow_2326_4976"/>
<feBlend mode="normal" in="SourceGraphic" in2="effect8_dropShadow_2326_4976" result="shape"/>
</filter>
<filter id="filter2_dddddddd_2326_4976" x="177.795" y="188.863" width="47.2285" height="24.0883" filterUnits="userSpaceOnUse" color-interpolation-filters="sRGB">
<feFlood flood-opacity="0" result="BackgroundImageFix"/>
<feColorMatrix in="SourceAlpha" type="matrix" values="0 0 0 0 0 0 0 0 0 0 0 0 0 0 0 0 0 0 127 0" result="hardAlpha"/>
<feOffset dy="0.443294"/>
<feComposite in2="hardAlpha" operator="out"/>
<feColorMatrix type="matrix" values="0 0 0 0 0.65098 0 0 0 0 0.513726 0 0 0 0 1 0 0 0 1 0"/>
<feBlend mode="normal" in2="BackgroundImageFix" result="effect1_dropShadow_2326_4976"/>
<feColorMatrix in="SourceAlpha" type="matrix" values="0 0 0 0 0 0 0 0 0 0 0 0 0 0 0 0 0 0 127 0" result="hardAlpha"/>
<feOffset dy="0.886588"/>
<feComposite in2="hardAlpha" operator="out"/>
<feColorMatrix type="matrix" values="0 0 0 0 0.65098 0 0 0 0 0.513726 0 0 0 0 1 0 0 0 1 0"/>
<feBlend mode="normal" in2="effect1_dropShadow_2326_4976" result="effect2_dropShadow_2326_4976"/>
<feColorMatrix in="SourceAlpha" type="matrix" values="0 0 0 0 0 0 0 0 0 0 0 0 0 0 0 0 0 0 127 0" result="hardAlpha"/>
<feOffset dy="1.32988"/>
<feComposite in2="hardAlpha" operator="out"/>
<feColorMatrix type="matrix" values="0 0 0 0 0.65098 0 0 0 0 0.513726 0 0 0 0 1 0 0 0 1 0"/>
<feBlend mode="normal" in2="effect2_dropShadow_2326_4976" result="effect3_dropShadow_2326_4976"/>
<feColorMatrix in="SourceAlpha" type="matrix" values="0 0 0 0 0 0 0 0 0 0 0 0 0 0 0 0 0 0 127 0" result="hardAlpha"/>
<feOffset dy="1.77318"/>
<feComposite in2="hardAlpha" operator="out"/>
<feColorMatrix type="matrix" values="0 0 0 0 0.65098 0 0 0 0 0.513726 0 0 0 0 1 0 0 0 1 0"/>
<feBlend mode="normal" in2="effect3_dropShadow_2326_4976" result="effect4_dropShadow_2326_4976"/>
<feColorMatrix in="SourceAlpha" type="matrix" values="0 0 0 0 0 0 0 0 0 0 0 0 0 0 0 0 0 0 127 0" result="hardAlpha"/>
<feOffset dy="2.21647"/>
<feComposite in2="hardAlpha" operator="out"/>
<feColorMatrix type="matrix" values="0 0 0 0 0.65098 0 0 0 0 0.513726 0 0 0 0 1 0 0 0 1 0"/>
<feBlend mode="normal" in2="effect4_dropShadow_2326_4976" result="effect5_dropShadow_2326_4976"/>
<feColorMatrix in="SourceAlpha" type="matrix" values="0 0 0 0 0 0 0 0 0 0 0 0 0 0 0 0 0 0 127 0" result="hardAlpha"/>
<feOffset dy="2.65976"/>
<feComposite in2="hardAlpha" operator="out"/>
<feColorMatrix type="matrix" values="0 0 0 0 0.65098 0 0 0 0 0.513726 0 0 0 0 1 0 0 0 1 0"/>
<feBlend mode="normal" in2="effect5_dropShadow_2326_4976" result="effect6_dropShadow_2326_4976"/>
<feColorMatrix in="SourceAlpha" type="matrix" values="0 0 0 0 0 0 0 0 0 0 0 0 0 0 0 0 0 0 127 0" result="hardAlpha"/>
<feOffset dy="3.10306"/>
<feComposite in2="hardAlpha" operator="out"/>
<feColorMatrix type="matrix" values="0 0 0 0 0.65098 0 0 0 0 0.513726 0 0 0 0 1 0 0 0 1 0"/>
<feBlend mode="normal" in2="effect6_dropShadow_2326_4976" result="effect7_dropShadow_2326_4976"/>
<feColorMatrix in="SourceAlpha" type="matrix" values="0 0 0 0 0 0 0 0 0 0 0 0 0 0 0 0 0 0 127 0" result="hardAlpha"/>
<feOffset dy="3.54635"/>
<feComposite in2="hardAlpha" operator="out"/>
<feColorMatrix type="matrix" values="0 0 0 0 0.65098 0 0 0 0 0.513726 0 0 0 0 1 0 0 0 1 0"/>
<feBlend mode="normal" in2="effect7_dropShadow_2326_4976" result="effect8_dropShadow_2326_4976"/>
<feBlend mode="normal" in="SourceGraphic" in2="effect8_dropShadow_2326_4976" result="shape"/>
</filter>
<filter id="filter3_dddddddd_2326_4976" x="177.717" y="188.295" width="47.2285" height="24.0883" filterUnits="userSpaceOnUse" color-interpolation-filters="sRGB">
<feFlood flood-opacity="0" result="BackgroundImageFix"/>
<feColorMatrix in="SourceAlpha" type="matrix" values="0 0 0 0 0 0 0 0 0 0 0 0 0 0 0 0 0 0 127 0" result="hardAlpha"/>
<feOffset dy="0.443294"/>
<feComposite in2="hardAlpha" operator="out"/>
<feColorMatrix type="matrix" values="0 0 0 0 0.65098 0 0 0 0 0.513726 0 0 0 0 1 0 0 0 1 0"/>
<feBlend mode="normal" in2="BackgroundImageFix" result="effect1_dropShadow_2326_4976"/>
<feColorMatrix in="SourceAlpha" type="matrix" values="0 0 0 0 0 0 0 0 0 0 0 0 0 0 0 0 0 0 127 0" result="hardAlpha"/>
<feOffset dy="0.886588"/>
<feComposite in2="hardAlpha" operator="out"/>
<feColorMatrix type="matrix" values="0 0 0 0 0.65098 0 0 0 0 0.513726 0 0 0 0 1 0 0 0 1 0"/>
<feBlend mode="normal" in2="effect1_dropShadow_2326_4976" result="effect2_dropShadow_2326_4976"/>
<feColorMatrix in="SourceAlpha" type="matrix" values="0 0 0 0 0 0 0 0 0 0 0 0 0 0 0 0 0 0 127 0" result="hardAlpha"/>
<feOffset dy="1.32988"/>
<feComposite in2="hardAlpha" operator="out"/>
<feColorMatrix type="matrix" values="0 0 0 0 0.65098 0 0 0 0 0.513726 0 0 0 0 1 0 0 0 1 0"/>
<feBlend mode="normal" in2="effect2_dropShadow_2326_4976" result="effect3_dropShadow_2326_4976"/>
<feColorMatrix in="SourceAlpha" type="matrix" values="0 0 0 0 0 0 0 0 0 0 0 0 0 0 0 0 0 0 127 0" result="hardAlpha"/>
<feOffset dy="1.77318"/>
<feComposite in2="hardAlpha" operator="out"/>
<feColorMatrix type="matrix" values="0 0 0 0 0.65098 0 0 0 0 0.513726 0 0 0 0 1 0 0 0 1 0"/>
<feBlend mode="normal" in2="effect3_dropShadow_2326_4976" result="effect4_dropShadow_2326_4976"/>
<feColorMatrix in="SourceAlpha" type="matrix" values="0 0 0 0 0 0 0 0 0 0 0 0 0 0 0 0 0 0 127 0" result="hardAlpha"/>
<feOffset dy="2.21647"/>
<feComposite in2="hardAlpha" operator="out"/>
<feColorMatrix type="matrix" values="0 0 0 0 0.65098 0 0 0 0 0.513726 0 0 0 0 1 0 0 0 1 0"/>
<feBlend mode="normal" in2="effect4_dropShadow_2326_4976" result="effect5_dropShadow_2326_4976"/>
<feColorMatrix in="SourceAlpha" type="matrix" values="0 0 0 0 0 0 0 0 0 0 0 0 0 0 0 0 0 0 127 0" result="hardAlpha"/>
<feOffset dy="2.65976"/>
<feComposite in2="hardAlpha" operator="out"/>
<feColorMatrix type="matrix" values="0 0 0 0 0.65098 0 0 0 0 0.513726 0 0 0 0 1 0 0 0 1 0"/>
<feBlend mode="normal" in2="effect5_dropShadow_2326_4976" result="effect6_dropShadow_2326_4976"/>
<feColorMatrix in="SourceAlpha" type="matrix" values="0 0 0 0 0 0 0 0 0 0 0 0 0 0 0 0 0 0 127 0" result="hardAlpha"/>
<feOffset dy="3.10306"/>
<feComposite in2="hardAlpha" operator="out"/>
<feColorMatrix type="matrix" values="0 0 0 0 0.65098 0 0 0 0 0.513726 0 0 0 0 1 0 0 0 1 0"/>
<feBlend mode="normal" in2="effect6_dropShadow_2326_4976" result="effect7_dropShadow_2326_4976"/>
<feColorMatrix in="SourceAlpha" type="matrix" values="0 0 0 0 0 0 0 0 0 0 0 0 0 0 0 0 0 0 127 0" result="hardAlpha"/>
<feOffset dy="3.54635"/>
<feComposite in2="hardAlpha" operator="out"/>
<feColorMatrix type="matrix" values="0 0 0 0 0.65098 0 0 0 0 0.513726 0 0 0 0 1 0 0 0 1 0"/>
<feBlend mode="normal" in2="effect7_dropShadow_2326_4976" result="effect8_dropShadow_2326_4976"/>
<feBlend mode="normal" in="SourceGraphic" in2="effect8_dropShadow_2326_4976" result="shape"/>
</filter>
</defs>
</svg>
