<svg width="130" height="59" viewBox="0 0 130 59" fill="none" xmlns="http://www.w3.org/2000/svg">
<g filter="url(#filter0_d_6619_2262)">
<ellipse cx="65" cy="41.5" rx="61" ry="9.5" fill="#A683FF" fill-opacity="0.1" shape-rendering="crispEdges"/>
<path d="M65 32.5C81.8272 32.5 97.0503 33.5623 108.057 35.2764C113.564 36.134 117.992 37.1518 121.033 38.2715C122.557 38.8324 123.703 39.4085 124.458 39.9834C125.224 40.5664 125.5 41.0773 125.5 41.5C125.5 41.9227 125.224 42.4336 124.458 43.0166C123.703 43.5915 122.557 44.1676 121.033 44.7285C117.992 45.8482 113.564 46.866 108.057 47.7236C97.0503 49.4377 81.8272 50.5 65 50.5C48.1728 50.5 32.9497 49.4377 21.9434 47.7236C16.4364 46.866 12.0078 45.8482 8.9668 44.7285C7.44342 44.1676 6.29742 43.5915 5.54199 43.0166C4.77595 42.4336 4.5 41.9227 4.5 41.5C4.5 41.0773 4.77595 40.5664 5.54199 39.9834C6.29742 39.4085 7.44342 38.8324 8.9668 38.2715C12.0078 37.1518 16.4364 36.134 21.9434 35.2764C32.9497 33.5623 48.1728 32.5 65 32.5Z" stroke="url(#paint0_linear_6619_2262)" stroke-opacity="0.5" shape-rendering="crispEdges"/>
</g>
<g filter="url(#filter1_f_6619_2262)">
<ellipse cx="75" cy="42.5" rx="7" ry="1.5" fill="#A683FF"/>
</g>
<path d="M60.6669 45.816L42 27.7743L54.1207 0L72.7876 18.0375L60.6669 45.816Z" fill="#A683FF"/>
<path d="M72.788 18.0375L54.1211 0H70.2912L88.9616 18.0375H72.788Z" fill="#A683FF"/>
<path d="M88.9623 18.0374L76.8381 45.8158H60.668L72.7887 18.0374H88.9623Z" fill="url(#paint1_linear_6619_2262)"/>
<defs>
<filter id="filter0_d_6619_2262" x="0" y="32" width="130" height="27" filterUnits="userSpaceOnUse" color-interpolation-filters="sRGB">
<feFlood flood-opacity="0" result="BackgroundImageFix"/>
<feColorMatrix in="SourceAlpha" type="matrix" values="0 0 0 0 0 0 0 0 0 0 0 0 0 0 0 0 0 0 127 0" result="hardAlpha"/>
<feOffset dy="4"/>
<feGaussianBlur stdDeviation="2"/>
<feComposite in2="hardAlpha" operator="out"/>
<feColorMatrix type="matrix" values="0 0 0 0 0.494118 0 0 0 0 0.843137 0 0 0 0 0.388235 0 0 0 0.15 0"/>
<feBlend mode="normal" in2="BackgroundImageFix" result="effect1_dropShadow_6619_2262"/>
<feBlend mode="normal" in="SourceGraphic" in2="effect1_dropShadow_6619_2262" result="shape"/>
</filter>
<filter id="filter1_f_6619_2262" x="62" y="35" width="26" height="15" filterUnits="userSpaceOnUse" color-interpolation-filters="sRGB">
<feFlood flood-opacity="0" result="BackgroundImageFix"/>
<feBlend mode="normal" in="SourceGraphic" in2="BackgroundImageFix" result="shape"/>
<feGaussianBlur stdDeviation="3" result="effect1_foregroundBlur_6619_2262"/>
</filter>
<linearGradient id="paint0_linear_6619_2262" x1="65" y1="35.5" x2="65" y2="51" gradientUnits="userSpaceOnUse">
<stop stop-color="#A683FF" stop-opacity="0"/>
<stop offset="1" stop-color="#A683FF"/>
</linearGradient>
<linearGradient id="paint1_linear_6619_2262" x1="80.5003" y1="17.3796" x2="66.0146" y2="42.9556" gradientUnits="userSpaceOnUse">
<stop stop-color="#A683FF"/>
<stop offset="1" stop-color="#7B55DD"/>
</linearGradient>
</defs>
</svg>
