<svg width="130" height="83" viewBox="0 0 130 83" fill="none" xmlns="http://www.w3.org/2000/svg">
<g filter="url(#filter1_f_6619_2261)">
<ellipse cx="61.4936" cy="67.4108" rx="10.726" ry="1.58904" fill="#A683FF"/>
</g>
<path d="M64.2355 0.824707C63.81 1.0962 63.3419 1.33696 62.8823 1.6187C62.4227 1.90044 61.9632 2.13096 61.4951 2.37684C61.027 2.62273 60.5504 2.8891 60.0695 3.10425C59.5887 3.31939 59.0993 3.5704 58.6099 3.80091L57.3759 4.34903C56.9503 4.52832 56.5461 4.70249 56.129 4.86128C55.712 5.02008 55.2779 5.19937 54.8524 5.37354C54.4269 5.54771 54.0013 5.69114 53.5758 5.83969L52.3928 6.2495L51.363 6.58247L50.5119 6.83859L49.8268 7.02813L49.3034 7.16644L48.8353 7.27913L48.4395 7.3611L48.1289 7.41232L51.1672 8.7698L51.4779 8.71858L51.8736 8.63661L52.3375 8.52904L52.8609 8.39073C53.0566 8.3395 53.2864 8.27803 53.5418 8.2012C53.7971 8.12436 54.0864 8.0424 54.3928 7.94507C54.6992 7.84774 55.0524 7.74016 55.4184 7.61722C55.7843 7.49428 56.1843 7.36109 56.6014 7.21254C57.0184 7.06399 57.4525 6.91031 57.8567 6.75151C58.261 6.59271 58.7078 6.42879 59.1078 6.23925C59.5078 6.04972 59.9589 5.90117 60.3546 5.727C60.7504 5.55283 61.1759 5.36842 61.5802 5.18401C62.0738 4.95861 62.5589 4.7281 63.0355 4.49246C63.5164 4.25682 63.9887 4.01606 64.4568 3.77018C64.9249 3.5243 65.3845 3.25792 65.8398 3.01716C66.2951 2.7764 66.7462 2.50491 67.1888 2.23341L64.2355 0.824707Z" fill="#A683FF"/>
<path d="M61.2683 66.1119C61.1322 65.9633 60.9917 65.8097 60.8428 65.6406L60.4173 65.1284H60.396C60.264 64.9644 60.1279 64.7954 59.996 64.6161L59.8853 64.4778C59.7662 64.3241 59.647 64.1704 59.5279 64.0065L59.4683 63.9246C59.3194 63.7299 59.1704 63.525 59.0215 63.315L58.9236 63.1767L58.5747 62.6644L58.4981 62.5466C58.1959 62.1061 57.8938 61.6501 57.5959 61.1891C57.1732 60.53 56.7633 59.8555 56.3661 59.1657V59.1401C55.9831 58.4844 55.6172 57.8133 55.264 57.1372C55.2427 57.0911 55.2172 57.0501 55.1959 57.0091C54.8427 56.3278 54.5023 55.6414 54.1703 54.9601L54.132 54.8781C53.8001 54.161 53.4767 53.4387 53.1703 52.7061C52.9788 52.2502 52.7958 51.7892 52.6171 51.3333C52.4512 50.903 52.2895 50.4727 52.1363 50.0373L52.0001 49.6531C51.8937 49.3509 51.7873 49.0435 51.6894 48.7413C51.6341 48.5876 51.5873 48.4288 51.5363 48.2751C51.4426 47.9883 51.3533 47.7065 51.2682 47.4197L51.1277 46.9535C51.0469 46.6871 50.9746 46.4413 50.898 46.1493C50.8214 45.8573 50.7916 45.7702 50.7448 45.5807C50.6724 45.3092 50.6043 45.0326 50.5362 44.7611C50.4894 44.5818 50.4426 44.4025 50.4001 44.2488L50.1958 43.3421C50.166 43.1936 50.1277 43.045 50.0979 42.8913C50.0043 42.4405 49.915 41.9897 49.8341 41.539C49.7533 41.0882 49.6511 40.5145 49.5745 39.9663C49.549 39.7973 49.5277 39.6231 49.5064 39.4541C49.4554 39.1126 49.4086 38.7591 49.366 38.3937L49.3022 37.7841C49.2681 37.4614 49.2384 37.1387 49.2086 36.8211C49.2086 36.6059 49.1745 36.3959 49.1617 36.1808C49.1405 35.8683 49.1192 35.5507 49.1022 35.2331C49.1022 35.0231 49.0809 34.813 49.0724 34.5979L49.0469 33.64C49.0469 33.4351 49.0469 33.2353 49.0469 33.0304C49.0469 32.6872 49.0469 32.344 49.0469 32.0059C49.0469 31.8317 49.0469 31.6524 49.0469 31.4936C49.0469 31.0326 49.0766 30.5716 49.1064 30.1105C49.1064 30.0542 49.1064 29.9978 49.1064 29.9415C49.1405 29.3985 49.183 28.8555 49.2341 28.3176L51.1575 8.03741L48.1532 6.6748L46.1872 26.9909C46.1872 27.1292 46.1617 27.2624 46.1532 27.3956C46.1447 27.5288 46.1277 27.6671 46.1192 27.8003C46.1106 27.9334 46.0979 28.0717 46.0894 28.2049C46.0808 28.3381 46.0894 28.4764 46.0596 28.6147C46.0596 28.6711 46.0596 28.7223 46.0596 28.7787C46.034 29.2448 46.0128 29.711 46 30.172C46 30.2079 46 30.2437 46 30.2796C46 30.423 46 30.5664 46 30.7099C46 30.9711 46 31.2221 46 31.5039C46 31.5858 46 31.6678 46 31.7446C46 31.9495 46 32.1544 46 32.3593C46 32.6769 46 32.9997 46.0255 33.3224C46.0255 33.4197 46.0255 33.5119 46.0255 33.6092C46.0255 33.7066 46.0255 33.8449 46.0255 33.9627C46.0255 34.0805 46.0255 34.2752 46.0468 34.4288C46.0681 34.5825 46.0723 34.7516 46.0809 34.9411L46.1319 35.5814C46.1574 35.9041 46.1915 36.232 46.2213 36.5547C46.2213 36.6981 46.2468 36.8365 46.2638 36.9799C46.2638 37.0414 46.2638 37.1028 46.2851 37.1643L46.3106 37.3897C46.3447 37.6714 46.3872 37.948 46.4255 38.2298C46.4255 38.404 46.4681 38.5781 46.4936 38.742C46.5702 39.2543 46.6553 39.7973 46.7532 40.3249C46.8298 40.7603 46.9149 41.1906 47.0043 41.626V41.6875C47.0341 41.8361 47.0681 41.9897 47.1021 42.1383L47.2766 42.9323C47.2766 42.9682 47.2979 43.0091 47.3064 43.0501L47.3319 43.1577C47.366 43.3011 47.4043 43.4446 47.4383 43.588C47.4724 43.7314 47.5447 44.0183 47.6 44.2334C47.6 44.2949 47.6341 44.3564 47.6468 44.4127C47.6979 44.6074 47.7532 44.7969 47.8043 44.9864L47.9532 45.5346L48.0341 45.7958L48.0851 45.9905L48.1745 46.2671L48.3022 46.6974C48.3447 46.8408 48.3958 46.9791 48.4383 47.1226L48.5915 47.5938C48.6213 47.6809 48.6469 47.7731 48.6766 47.8602C48.749 48.0754 48.8298 48.2905 48.9022 48.5056L49.0043 48.8079C49.0174 48.8376 49.0288 48.8684 49.0383 48.9001C49.0543 48.9367 49.0685 48.9743 49.0809 49.0128C49.2213 49.4021 49.3618 49.7863 49.5064 50.1705V50.2012L49.6256 50.5137L49.766 50.8723C49.8171 50.9901 49.8639 51.1079 49.9107 51.2257L50.0596 51.5843C50.149 51.7943 50.2341 52.0044 50.3235 52.2093L50.5958 52.8342L50.8767 53.454L51.0256 53.7665C51.024 53.7818 51.024 53.7973 51.0256 53.8126V53.8485L51.1277 54.0688C51.2639 54.3556 51.4043 54.6425 51.5533 54.9293L51.9788 55.7797C52.0043 55.8309 52.0299 55.8821 52.0597 55.9334L52.0852 55.9846L52.1235 56.0563C52.2214 56.2458 52.3192 56.4354 52.4214 56.6198C52.5703 56.9015 52.7235 57.1781 52.8767 57.4548L53.2299 58.0746L53.2512 58.1053C53.3788 58.3307 53.5108 58.5561 53.6469 58.7764C53.7831 58.9967 53.915 59.222 54.0469 59.4423L54.4725 60.1031L54.5235 60.18L54.5746 60.2619L54.6257 60.3388L54.6767 60.4207L55.1023 61.0457C55.1959 61.1891 55.2938 61.3274 55.3874 61.4657L55.4299 61.5272L55.4682 61.5835L55.515 61.6553L55.8129 62.0804L55.915 62.2239L56.3406 62.7874L56.3619 62.8181L56.4087 62.8744C56.4909 62.9871 56.5718 63.0947 56.6512 63.1972C56.6895 63.2535 56.7321 63.3047 56.7704 63.356L56.8768 63.4943L56.9661 63.607C57.0683 63.7401 57.1746 63.8682 57.2768 63.9963L57.5534 64.3292L57.6981 64.4983L57.8385 64.6622L57.9789 64.821L58.1151 64.9696L61.2683 66.1119Z" fill="#A683FF"/>
<path d="M79.7775 6.53162L79.4584 6.49576L79.0328 6.42916C78.8839 6.42916 78.7222 6.37794 78.552 6.34208L78.0201 6.23451L77.3264 6.07571L76.4754 5.86056C76.1605 5.7786 75.82 5.68639 75.4541 5.57882C75.0881 5.47124 74.7009 5.35855 74.2881 5.23048C73.8753 5.10242 73.4668 4.96923 73.0583 4.83092L71.8412 4.40063L70.6497 3.94472L69.4795 3.4632L69.054 3.27367L68.6284 3.07901L68.2029 2.88435L67.7773 2.68457L68.1007 2.84337L68.2242 2.89972L68.4369 3.00217L68.6625 3.10974L68.8157 3.18146L68.9603 3.25317L69.122 3.33001L69.7093 3.61175L69.9944 3.75006L70.288 3.88837L70.437 3.96009H70.4753L70.7306 4.07791L71.1561 4.27769L71.5817 4.47235L72.0072 4.66188L72.4327 4.85141C72.8157 5.01534 73.203 5.17414 73.5944 5.33294L74.786 5.78884L75.9988 6.21401C76.403 6.35232 76.8158 6.49063 77.2243 6.6187C77.6328 6.74676 78.0243 6.86458 78.386 6.96703L79.4073 7.24877L80.2584 7.46392L80.9478 7.62272L81.4797 7.73029L81.9563 7.81738L82.3818 7.88397L82.701 7.91983L79.7775 6.53162Z" fill="#A683FF"/>
<path opacity="0.3" d="M65.6846 0.353507L65.6208 0.640371C66.008 0.876009 66.4038 1.10652 66.8123 1.33192C67.2208 1.55731 67.6378 1.7827 68.0676 2.00297C68.4974 2.22324 68.9187 2.43327 69.3783 2.64329C69.8379 2.85332 70.2804 3.05822 70.7442 3.258L71.9145 3.73952L73.106 4.19543L74.323 4.62572C74.7486 4.76403 75.1401 4.89722 75.5528 5.02528C75.9656 5.15335 76.3528 5.27117 76.7188 5.37362C77.0848 5.47607 77.4252 5.5734 77.7401 5.65536L78.5912 5.87051L79.2848 6.02931L79.8167 6.13688C79.9869 6.17274 80.1487 6.20347 80.2976 6.22396L80.7231 6.29056L81.0423 6.32641L79.1572 27.3289C79.055 28.461 78.9146 29.5982 78.7316 30.7405C78.5486 31.8829 78.3061 33.0303 78.055 34.1778C77.8039 35.3252 77.4763 36.4778 77.1273 37.6304C76.7784 38.783 76.3869 39.9253 75.9571 41.0728C75.5954 42.0409 75.1996 43.004 74.7826 43.9721C74.3656 44.9403 73.9315 45.8931 73.4422 46.851C72.9528 47.8089 72.4634 48.7566 71.9358 49.6992C71.4081 50.6417 70.8591 51.574 70.2804 52.5012C69.8123 53.2491 69.3315 53.9919 68.8421 54.7193C68.3527 55.4467 67.8463 56.1587 67.3272 56.8656C66.808 57.5725 66.2889 58.259 65.7527 58.9146C65.2165 59.5703 64.6676 60.2516 64.1144 60.8971C63.7101 61.3683 63.3016 61.8242 62.8931 62.2699C62.4845 62.7156 62.0888 63.1356 61.6973 63.5352C61.3058 63.9347 60.9186 64.3138 60.5526 64.6621C60.1866 65.0105 59.8334 65.323 59.5058 65.6047C59.2292 65.3025 58.9398 64.9644 58.6547 64.5802C58.3696 64.196 58.0462 63.8118 57.7313 63.3918C57.4164 62.9717 57.1015 62.526 56.7866 62.065C56.4717 61.604 56.1525 61.1276 55.8419 60.6409C55.4192 59.975 55.0078 59.292 54.6078 58.5919C54.2078 57.9004 53.8248 57.1935 53.4546 56.4814C53.0844 55.7694 52.7269 55.042 52.3823 54.3095C52.0376 53.5769 51.7142 52.8342 51.3993 52.0811C51.012 51.154 50.6546 50.2216 50.3184 49.2893C49.9822 48.357 49.6801 47.4145 49.3992 46.4719C49.1184 45.5294 48.8716 44.5868 48.646 43.6392C48.4205 42.6915 48.2205 41.7489 48.0545 40.8064C47.8503 39.6897 47.6872 38.5729 47.5652 37.4562C47.4418 36.3395 47.3524 35.2228 47.3056 34.1112C47.2588 32.9996 47.246 31.888 47.2758 30.7815C47.3056 29.6751 47.3737 28.5737 47.4758 27.4775L49.4205 7.18701L49.7312 7.13578L50.1269 7.05382L50.595 6.94112L51.1184 6.80281L51.8035 6.61328L52.6546 6.35715L53.6844 6.02418L54.8674 5.61438C55.2929 5.46582 55.7185 5.30702 56.144 5.14823C56.5696 4.98943 56.9951 4.82038 57.4206 4.63597C57.8462 4.45156 58.2717 4.29276 58.6675 4.12371L59.9015 3.5756C60.3909 3.34508 60.8803 3.11457 61.3611 2.87893C61.842 2.64329 62.3143 2.40253 62.7782 2.15665C63.242 1.91077 63.7058 1.64439 64.1569 1.40363C64.608 1.16287 65.0505 0.891375 65.4846 0.625002V0.343262L65.5569 0.522553L65.6846 0.353507Z" fill="#A683FF"/>
<path d="M81.4971 5.73218L79.5651 27.3084C79.5141 27.877 79.4502 28.4456 79.3779 29.0193V29.0398C79.3098 29.5931 79.229 30.1514 79.1396 30.7047C79.1396 30.7508 79.1396 30.7969 79.1183 30.843C79.029 31.3962 78.9268 31.9443 78.8204 32.4976C78.7098 33.061 78.5864 33.6194 78.4545 34.1829C78.4564 34.2153 78.4564 34.2478 78.4545 34.2802C78.3268 34.8335 78.1864 35.3867 78.0289 35.9399C78.0289 35.9707 78.0289 36.0014 78.0077 36.0321C77.8545 36.5854 77.697 37.1386 77.5311 37.697L77.5055 37.784C77.3353 38.3373 77.1523 38.8956 76.9651 39.454C76.9651 39.454 76.9651 39.5001 76.9438 39.5206C76.7481 40.0943 76.5438 40.668 76.3268 41.2367C76.1481 41.7182 75.9608 42.1946 75.7693 42.671L75.731 42.7581C75.548 43.214 75.3566 43.6647 75.1608 44.1155L75.1225 44.2077C74.9183 44.6739 74.697 45.14 74.4927 45.6011L74.4544 45.683C74.2502 46.1287 74.0289 46.5744 73.8161 47.0149C73.7906 47.061 73.7693 47.1071 73.748 47.1532C73.5267 47.5989 73.2969 48.0445 73.0629 48.4851L73.0289 48.5568C72.7821 49.023 72.5267 49.4891 72.2671 49.9553L72.2459 49.9962C71.9863 50.4521 71.7267 50.9132 71.4544 51.3691L71.4246 51.4203C71.1522 51.8813 70.8714 52.3424 70.5735 52.8034C70.1139 53.541 69.6373 54.2685 69.1565 54.9856L69.0756 55.1034C68.6075 55.7864 68.1266 56.4694 67.633 57.1525L67.5394 57.2856C67.0401 57.9687 66.5323 58.6329 66.016 59.2783L65.9692 59.3398C65.4387 60.0057 64.8968 60.6597 64.3436 61.3017C63.9181 61.7832 63.5138 62.2494 63.101 62.7002C63.0761 62.7319 63.0491 62.761 63.0202 62.7873C62.901 62.9205 62.7819 63.0434 62.6627 63.1715L62.3563 63.4993L62.0415 63.822C61.9436 63.9245 61.8415 64.0321 61.7393 64.1294L61.4372 64.4367L61.1436 64.7236L60.8499 65.0053C60.7521 65.0976 60.6585 65.1898 60.5648 65.2717C60.4712 65.3537 60.2584 65.5586 60.1095 65.6918L60.0669 65.7276L59.5563 66.1682L59.4414 66.2604L62.4798 67.2849L62.5946 67.1927L62.8159 67.0031L63.0457 66.8085L63.101 66.7573L63.1479 66.7163L63.2798 66.5985L63.5181 66.3782L63.5989 66.3065L63.6755 66.2399L63.8798 66.0401L64.0883 65.8454L64.1734 65.7584L64.467 65.4715L64.684 65.2615L64.7692 65.1693L64.8543 65.0873L65.0713 64.8619L65.2926 64.6416L65.3819 64.5443L65.6926 64.2165L65.9096 63.986L66.0458 63.8374L66.1011 63.7811L66.1266 63.7503L66.2756 63.5915L66.6373 63.1868L66.999 62.777L67.3649 62.3621L67.6458 62.0291L67.9266 61.6962L68.2075 61.3632L68.4884 61.02C68.6543 60.8202 68.816 60.6153 68.9777 60.4104L69.0118 60.3745L69.0671 60.3079L69.6501 59.5652C69.8416 59.3142 70.0331 59.0529 70.2203 58.807L70.5309 58.3921L70.582 58.3204C70.5973 58.3029 70.6116 58.2841 70.6246 58.2641L70.7863 58.0438C70.9607 57.8081 71.131 57.5674 71.2969 57.3317L71.8033 56.6095L72.0586 56.2304L72.1012 56.1689L72.1395 56.1177C72.1906 56.0409 72.2459 55.964 72.2969 55.8821C72.4586 55.6413 72.6246 55.3954 72.782 55.1495L72.9778 54.8473L73.1693 54.5502L73.3608 54.248L73.5523 53.9457L73.7906 53.5615L74.0246 53.1722C74.1055 53.0442 74.1821 52.9161 74.2587 52.7829L74.3863 52.5729L74.4161 52.5217L74.4927 52.3936L74.8672 51.7482C74.9821 51.5484 75.0927 51.3537 75.1991 51.1591V51.1283L75.5608 50.4726L75.9098 49.8169C75.92 49.7973 75.9314 49.7784 75.9438 49.7606C75.9535 49.7356 75.9649 49.7116 75.9778 49.6889L76.2332 49.2022L76.5523 48.5824C76.5864 48.5056 76.6204 48.4339 76.6587 48.3621C76.6686 48.3405 76.6799 48.3199 76.6927 48.3007C76.6927 48.2751 76.714 48.2546 76.7225 48.229C76.731 48.2033 76.8162 48.0497 76.8587 47.9575L77.1608 47.3376L77.3651 46.9022L77.3991 46.8254L77.4374 46.7434L77.7098 46.1492L77.9779 45.555C77.9779 45.5191 78.0077 45.4781 78.0247 45.4423V45.4064L78.0502 45.345L78.2162 44.9556C78.3013 44.7661 78.3821 44.5766 78.4587 44.3819L78.6162 44.0028L78.6502 43.9158L78.697 43.8082C78.7736 43.6135 78.8502 43.424 78.9226 43.2293C78.9949 43.0347 79.0715 42.8451 79.1481 42.6556V42.6146V42.5736V42.5327V42.4917C79.2162 42.3124 79.28 42.1382 79.3439 41.9794L79.5353 41.4672C79.5992 41.2879 79.6588 41.1137 79.7183 40.9549C79.7307 40.9164 79.7449 40.8788 79.7609 40.8422L79.7822 40.7705L79.9013 40.4273C79.9609 40.2326 80.0247 40.0431 80.0843 39.8536C80.1439 39.664 80.2077 39.4745 80.2673 39.2798L80.3183 39.1108V39.0749V39.0237L80.412 38.7112C80.4715 38.5217 80.5269 38.327 80.5779 38.1375C80.629 37.948 80.6886 37.7431 80.7439 37.5484C80.7439 37.4921 80.7737 37.4306 80.7907 37.3742L80.8162 37.282C80.846 37.1693 80.8758 37.0618 80.9013 36.9542L81.0545 36.3651L81.3354 35.6992C81.3354 35.6479 81.3566 35.6018 81.3694 35.5557C81.3713 35.5422 81.3713 35.5283 81.3694 35.5148V35.4584L81.4588 35.0691C81.5056 34.8591 81.5524 34.649 81.5949 34.439C81.6375 34.229 81.6843 34.019 81.7269 33.8089V33.7577C81.7652 33.5682 81.8035 33.3735 81.8375 33.1789C81.8716 32.9842 81.9226 32.7127 81.9609 32.4771C81.9822 32.3593 82.0035 32.2363 82.0205 32.1134V32.0417C82.0225 32.0212 82.0225 32.0006 82.0205 31.9802C82.0205 31.9136 82.046 31.847 82.0545 31.7753C82.0928 31.5448 82.1269 31.3091 82.1609 31.0735C82.195 30.8379 82.2248 30.6073 82.2545 30.3768V30.2949C82.2545 30.1719 82.2843 30.049 82.3013 29.926C82.3184 29.8031 82.3354 29.6289 82.3482 29.4804C82.3609 29.3318 82.3822 29.1833 82.395 29.0347C82.4077 28.8862 82.4248 28.7376 82.4375 28.5891L84.3482 7.15113L81.4971 5.73218Z" fill="#A683FF"/>
<path style="mix-blend-mode:screen" opacity="0.8" d="M79.7549 20.6647L81.0315 6.32154L80.7123 6.28568L80.2868 6.21909C80.1378 6.21909 79.9761 6.16786 79.8059 6.132L79.274 6.02443L78.5804 5.86563L77.7293 5.65048C77.4144 5.56852 77.074 5.47632 76.708 5.36874C76.342 5.26117 75.9548 5.14847 75.542 5.02041C75.1293 4.89234 74.7207 4.75916 74.3122 4.62085L73.0952 4.19055L71.9037 3.73464L70.7334 3.25312C70.2682 3.05164 69.8129 2.84673 69.3675 2.63842C68.9419 2.42839 68.4866 2.21324 68.0568 1.9981C67.627 1.78295 67.2057 1.55756 66.8015 1.32704C66.3972 1.09653 65.9972 0.871133 65.61 0.635495L65.6738 0.348633L65.5036 0.538167L65.4312 0.358876V0.640619C65.0057 0.906992 64.5546 1.15288 64.1035 1.41925C63.6525 1.68562 63.1929 1.9315 62.7248 2.17226C62.2567 2.41302 61.7844 2.65891 61.3078 2.89454C60.8312 3.13018 60.3375 3.3607 59.8482 3.59121L58.6141 4.13933C58.1886 4.31862 57.7843 4.49278 57.3673 4.65158C56.9503 4.81038 56.5162 4.98967 56.0907 5.16384C55.6651 5.33801 55.2396 5.48144 54.814 5.62999L53.6311 6.0398L52.6012 6.37276L51.7502 6.62889L51.065 6.81843L50.5416 6.95674L50.0735 7.06943L49.6778 7.15139L49.3671 7.20262L47.4565 27.5033C47.3544 28.5996 47.2863 29.706 47.2565 30.8074C47.2267 31.9087 47.2565 33.0254 47.2863 34.137C47.3161 35.2486 47.4224 36.3654 47.5458 37.4821C47.6692 38.5988 47.8309 39.7155 48.0352 40.8322C48.2012 41.7748 48.4012 42.7225 48.6267 43.665C48.6778 43.8904 48.7416 44.1209 48.7969 44.3463C56.6098 32.3493 67.2398 23.3643 79.7549 20.6647Z" fill="url(#paint1_linear_6619_2261)"/>
<path d="M81.2971 5.73727C81.2206 5.74399 81.1438 5.74399 81.0673 5.73727C80.9652 5.73727 80.8332 5.71166 80.68 5.68604C80.5268 5.66043 80.3396 5.63482 80.1311 5.59384C79.9226 5.55286 79.6843 5.50675 79.4162 5.45041L78.7311 5.29673L77.88 5.08158L76.863 4.80496C76.5012 4.70251 76.1098 4.58982 75.7012 4.46175C75.2927 4.33369 74.8842 4.2005 74.48 4.06219C74.0757 3.92388 73.6714 3.78045 73.2714 3.6319C72.8714 3.48334 72.4757 3.33479 72.0842 3.18111C71.6927 3.02743 71.3054 2.86351 70.9224 2.70471C70.4629 2.50493 70.0075 2.30003 69.565 2.09513C69.1224 1.89023 68.6884 1.67508 68.2628 1.45993C67.8373 1.24478 67.4117 1.02451 67.0202 0.799118C66.6287 0.573726 66.2202 0.348334 65.8372 0.117819L65.5649 0L65.3479 0.128064C64.9167 0.387607 64.4784 0.643735 64.033 0.896448C63.5862 1.14745 63.1308 1.4087 62.667 1.64434C62.2032 1.87998 61.7351 2.12586 61.2585 2.3615C60.7819 2.59714 60.2967 2.82765 59.8074 3.05305C59.4031 3.24258 58.9946 3.42187 58.5818 3.60116C58.169 3.78045 57.7563 3.95462 57.3435 4.11342L56.0924 4.62567C55.6669 4.78959 55.2413 4.94327 54.8413 5.09183C54.4413 5.24038 54.0286 5.37357 53.6626 5.49651C53.2966 5.61945 52.9562 5.73215 52.6413 5.82947L51.7902 6.0856L51.1136 6.27514L50.4115 6.45443L49.8455 6.55176L49.471 6.62347C49.3974 6.62908 49.3234 6.62908 49.2498 6.62347H49.0583L47.071 27.503C46.9646 28.6146 46.8965 29.7365 46.8667 30.8583C46.837 31.9802 46.8455 33.1122 46.8965 34.2392C46.9476 35.3662 47.0284 36.5034 47.1561 37.6355C47.2838 38.7676 47.4497 39.9048 47.654 41.0368C47.8242 41.9948 48.0242 42.9476 48.2497 43.9055C48.4753 44.8634 48.7349 45.8162 49.0157 46.769C49.2966 47.7218 49.6072 48.6695 49.9434 49.6171C50.2796 50.5648 50.6413 51.5022 51.0328 52.4397C51.3477 53.1978 51.6796 53.9764 52.0243 54.6885C52.369 55.4005 52.7307 56.1587 53.1051 56.8809C53.4796 57.6032 53.8668 58.3101 54.2711 59.0068C54.6754 59.7035 55.0882 60.395 55.5137 61.0558C55.8371 61.5681 56.1648 62.0803 56.4967 62.5362C56.8286 62.9921 57.1563 63.4788 57.4797 63.9142C57.8031 64.3496 58.1265 64.7594 58.4371 65.1385C58.7478 65.5176 59.0499 65.8608 59.335 66.163L59.4329 66.2655L59.5478 66.1733C59.8882 65.8864 60.2499 65.5637 60.6329 65.2102C61.0159 64.8568 61.4117 64.4674 61.8202 64.0525C62.2287 63.6376 62.6457 63.197 63.067 62.736C63.4883 62.275 63.9181 61.7986 64.3436 61.3068C64.911 60.658 65.4628 59.9903 65.999 59.3039C66.5351 58.6175 67.0656 57.9225 67.5905 57.219C68.1139 56.507 68.6203 55.7847 69.1182 55.0522C69.616 54.3196 70.1011 53.5718 70.5735 52.8136C71.1579 51.8745 71.7168 50.9285 72.2501 49.9757C72.7835 49.0229 73.2899 48.0633 73.7693 47.0968C74.2459 46.1287 74.7012 45.1605 75.1268 44.1821C75.5523 43.2037 75.9481 42.2304 76.314 41.2469C76.7509 40.0823 77.1481 38.9178 77.5055 37.7533C77.863 36.5888 78.1765 35.4208 78.446 34.2495C78.7297 33.0815 78.9594 31.9153 79.1353 30.7507C79.3226 29.593 79.4673 28.4302 79.5609 27.2828L81.4928 5.70653L81.2971 5.73727ZM77.2076 33.8601C76.9438 34.982 76.6374 36.1243 76.297 37.2513C75.9566 38.3782 75.5651 39.5154 75.1438 40.6424C74.7863 41.5901 74.3991 42.5531 73.9863 43.4957C73.5736 44.4382 73.1352 45.391 72.6629 46.3336C72.1905 47.2761 71.6969 48.2187 71.182 49.1459C70.6671 50.073 70.1139 51.0002 69.5437 51.9172C69.0841 52.6548 68.6075 53.3925 68.1224 54.1045C67.6373 54.8165 67.1394 55.5286 66.6288 56.2252C66.1181 56.9219 65.5947 57.6083 65.067 58.2743C64.5394 58.9402 63.9947 59.601 63.45 60.2311C63.0358 60.7126 62.623 61.1788 62.2117 61.6295C61.7861 62.0752 61.3946 62.5055 60.9946 62.9051C60.5946 63.3046 60.2116 63.6888 59.8499 64.0269L59.535 64.3138L59.3435 64.0884C59.0499 63.7298 58.7393 63.3354 58.4286 62.9153C58.118 62.4953 57.7988 62.0496 57.4797 61.5886C57.1605 61.1275 56.8371 60.6358 56.5307 60.1491C56.1052 59.4986 55.7052 58.8224 55.3179 58.1513C54.9307 57.4803 54.552 56.7785 54.186 56.1023C53.82 55.4261 53.4711 54.6885 53.1392 53.9713C52.8073 53.2542 52.4796 52.5216 52.1732 51.7891C51.7987 50.8875 51.4413 49.9655 51.1179 49.0485C50.7945 48.1316 50.4923 47.2044 50.22 46.2875C49.9476 45.3705 49.6966 44.4382 49.4796 43.5162C49.2625 42.5941 49.054 41.6669 48.9008 40.75C48.7051 39.664 48.5434 38.5575 48.42 37.4664C48.2965 36.3753 48.2157 35.2842 48.1689 34.1982C48.1221 33.1122 48.1136 32.016 48.1434 30.9454C48.1731 29.8748 48.237 28.7786 48.3391 27.7131L50.2285 8.0373L50.654 7.93997C50.8668 7.88875 51.1094 7.82727 51.3817 7.75043L52.0796 7.55578C52.3434 7.48406 52.637 7.39698 52.9605 7.29453C53.2796 7.1972 53.6285 7.0845 54.003 6.95644L55.203 6.54663L56.4797 6.07024C56.9052 5.90631 57.3307 5.74239 57.7563 5.55798C58.1818 5.37357 58.6074 5.20964 59.0329 5.04572C59.4584 4.8818 59.884 4.68202 60.2797 4.49249C60.7819 4.26026 61.2755 4.02463 61.7606 3.78557C62.2457 3.54481 62.7266 3.27332 63.1989 3.05305C63.6713 2.83278 64.1351 2.54079 64.5947 2.28978L65.5904 1.6802C65.8798 1.84924 66.1734 2.01829 66.4713 2.19246C66.8968 2.42297 67.3224 2.65349 67.7479 2.87376C68.1735 3.09403 68.633 3.3143 69.0884 3.52432C69.5437 3.73435 70.0033 3.94949 70.4756 4.14927C70.8714 4.31832 71.2671 4.48224 71.6671 4.66153C72.0671 4.84082 72.4757 4.97401 72.8799 5.12256C73.2842 5.27112 73.7012 5.41967 74.114 5.55798C74.5268 5.69629 74.9651 5.83972 75.3651 5.96778C75.7651 6.09585 76.1821 6.21367 76.5523 6.32124C76.9225 6.42882 77.2715 6.52102 77.5906 6.6081L78.4758 6.82325L79.1864 6.98717L79.9268 7.13573H80.08L78.2843 27.1445C78.1864 28.2458 78.046 29.3728 77.8587 30.4895C77.6715 31.6062 77.4672 32.7383 77.2076 33.8601Z" fill="#A683FF"/>
<path d="M79.9352 7.10494L79.2075 6.95639L78.4968 6.79247L77.6117 6.57732C77.2926 6.49024 76.9436 6.39803 76.5734 6.29046C76.2032 6.18288 75.8074 6.07019 75.3862 5.937C74.9649 5.80381 74.5351 5.67063 74.1351 5.52719C73.7351 5.38376 73.3095 5.24545 72.901 5.09178C72.4925 4.9381 72.0882 4.78954 71.6882 4.63074C71.2882 4.47195 70.8925 4.30802 70.4967 4.11849C70.0244 3.91871 69.5605 3.70869 69.1095 3.49354C68.6584 3.27839 68.2073 3.06324 67.769 2.84297C67.3307 2.6227 66.9179 2.39219 66.4924 2.16167C66.1945 1.99775 65.9009 1.8287 65.6115 1.64941L64.586 2.24875C64.1264 2.50488 63.6626 2.76101 63.1902 3.01202C62.7179 3.26302 62.237 3.52427 61.7519 3.74454C61.2668 3.96481 60.7732 4.22094 60.271 4.45146C59.8455 4.64099 59.4412 4.8254 59.0242 5.00469C58.6072 5.18398 58.1731 5.36327 57.7476 5.51695C57.322 5.67063 56.8965 5.85504 56.471 6.02921L55.1944 6.5056L53.9943 6.91541C53.6199 7.04347 53.2709 7.15617 52.9518 7.2535C52.6326 7.35083 52.3347 7.44303 52.0709 7.51475L51.373 7.70941C51.1007 7.78624 50.8581 7.84771 50.6453 7.89894L50.2198 7.99627L48.3304 27.6464C48.2283 28.7119 48.1602 29.7979 48.1347 30.8788C48.1091 31.9596 48.1134 33.0456 48.1602 34.1316C48.207 35.2176 48.2921 36.3189 48.4113 37.3998C48.5304 38.4806 48.6964 39.5974 48.8921 40.6833C49.0581 41.6003 49.2496 42.5326 49.4709 43.4495C49.6921 44.3665 49.9389 45.3039 50.2113 46.2208C50.4836 47.1378 50.7858 48.0649 51.1092 48.9819C51.4326 49.8988 51.79 50.8209 52.1645 51.7225C52.4709 52.455 52.7943 53.1926 53.1305 53.9047C53.4667 54.6167 53.8156 55.339 54.1773 56.0357C54.539 56.7323 54.922 57.429 55.3092 58.0847C55.6965 58.7404 56.105 59.4319 56.522 60.0825C56.8284 60.5691 57.1476 61.0506 57.471 61.5219C57.7944 61.9932 58.1093 62.4337 58.4199 62.8487C58.7306 63.2636 59.0412 63.6631 59.3348 64.0217L59.5263 64.2471L59.8412 63.9603C60.2029 63.6222 60.5859 63.2482 60.9859 62.8384C61.3859 62.4286 61.7945 62.0086 62.203 61.5629C62.6115 61.1172 63.0285 60.646 63.4413 60.1644C63.986 59.5344 64.5307 58.8736 65.0583 58.2076C65.586 57.5417 66.1094 56.8553 66.6201 56.1586C67.1307 55.4619 67.6328 54.7499 68.1137 54.0379C68.5946 53.3258 69.0754 52.5882 69.535 51.8505C70.1052 50.9336 70.6542 50.0013 71.1733 49.0792C71.6925 48.1572 72.1904 47.2044 72.6542 46.2669C73.118 45.3295 73.5691 44.3716 73.9776 43.429C74.3861 42.4865 74.7776 41.5234 75.1351 40.5758C75.5606 39.4488 75.9436 38.3116 76.2883 37.1846C76.633 36.0577 76.9351 34.9153 77.199 33.7935C77.4628 32.6716 77.6841 31.5344 77.8628 30.4177C78.0415 29.301 78.1862 28.174 78.2883 27.0727L80.0841 7.06396L79.9352 7.10494ZM77.8713 27.0829C77.7734 28.1689 77.633 29.2805 77.4458 30.3819C77.2585 31.4832 77.0458 32.6102 76.7904 33.7167C76.5351 34.8231 76.2245 35.9552 75.8883 37.0668C75.5521 38.1784 75.1649 39.3105 74.7478 40.4272C74.3946 41.3646 74.0074 42.3174 73.6031 43.2497C73.1989 44.182 72.7521 45.1297 72.2882 46.0672C71.8244 47.0046 71.335 47.9318 70.8201 48.8538C70.3052 49.7759 69.7605 50.6979 69.1946 51.6046C68.7392 52.332 68.2669 53.0646 67.7818 53.7766C67.2967 54.4886 66.8116 55.1853 66.3009 55.882C65.7903 56.5786 65.2711 57.2599 64.7519 57.931C64.2328 58.6021 63.6838 59.2475 63.1434 59.8725C62.7392 60.3489 62.3264 60.815 61.9179 61.2555C61.5093 61.6961 61.1051 62.1264 60.7136 62.5259C60.3221 62.9255 59.9306 63.3046 59.5774 63.6324C59.3093 63.3046 59.0327 62.946 58.7518 62.572C58.471 62.1981 58.1263 61.7166 57.8114 61.2555C57.4965 60.7945 57.1774 60.313 56.871 59.8366C56.4454 59.186 56.0582 58.5201 55.671 57.8542C55.2837 57.1882 54.9092 56.4967 54.5518 55.8051C54.1943 55.1136 53.8454 54.4016 53.5135 53.6946C53.1815 52.9877 52.8624 52.2603 52.556 51.5329C52.1858 50.6416 51.8369 49.7298 51.5134 48.818C51.19 47.9062 50.8921 46.9995 50.6241 46.0876C50.356 45.1758 50.1092 44.264 49.8921 43.3522C49.6751 42.4404 49.4666 41.5234 49.3219 40.6116C49.1262 39.541 48.9687 38.455 48.8453 37.3742C48.7219 36.2933 48.6453 35.2176 48.5985 34.1469C48.5517 33.0763 48.5432 31.9955 48.573 30.9351C48.6028 29.8747 48.6666 28.799 48.7645 27.7489L50.6198 8.46755L50.7347 8.44193L51.4709 8.2524L52.1773 8.05774L53.0624 7.79137L54.1135 7.45328L55.3177 7.03835C55.7433 6.87955 56.1688 6.72587 56.5944 6.56195C57.0199 6.39803 57.4454 6.22898 57.871 6.0497L59.1476 5.53744L60.4029 4.97396C60.9051 4.74344 61.403 4.5078 61.8923 4.26192C62.3817 4.01604 62.8626 3.74966 63.3392 3.52427C63.8158 3.29888 64.2839 3.01202 64.7434 2.75589L65.5945 2.26925L66.3009 2.66368C66.7265 2.89932 67.152 3.12471 67.5775 3.3501C68.0031 3.5755 68.4669 3.79577 68.9265 4.01092C69.3861 4.22606 69.8542 4.43097 70.3265 4.63587C70.7265 4.80491 71.1265 4.97396 71.5308 5.14812L72.7521 5.61428L73.9946 6.05482L75.2713 6.46462C75.6968 6.59781 76.0926 6.71563 76.467 6.81808C76.8415 6.92053 77.1904 7.02298 77.5138 7.10494L78.4032 7.33034L79.1266 7.48914L79.6288 7.59159L77.8713 27.0829Z" fill="#A683FF"/>
<defs>
<filter id="filter0_d_6619_2261" x="0" y="56" width="130" height="27" filterUnits="userSpaceOnUse" color-interpolation-filters="sRGB">
<feFlood flood-opacity="0" result="BackgroundImageFix"/>
<feColorMatrix in="SourceAlpha" type="matrix" values="0 0 0 0 0 0 0 0 0 0 0 0 0 0 0 0 0 0 127 0" result="hardAlpha"/>
<feOffset dy="4"/>
<feGaussianBlur stdDeviation="2"/>
<feComposite in2="hardAlpha" operator="out"/>
<feColorMatrix type="matrix" values="0 0 0 0 0.494118 0 0 0 0 0.843137 0 0 0 0 0.388235 0 0 0 0.15 0"/>
<feBlend mode="normal" in2="BackgroundImageFix" result="effect1_dropShadow_6619_2261"/>
<feBlend mode="normal" in="SourceGraphic" in2="effect1_dropShadow_6619_2261" result="shape"/>
</filter>
<filter id="filter1_f_6619_2261" x="45.7676" y="60.8218" width="31.4512" height="13.178" filterUnits="userSpaceOnUse" color-interpolation-filters="sRGB">
<feFlood flood-opacity="0" result="BackgroundImageFix"/>
<feBlend mode="normal" in="SourceGraphic" in2="BackgroundImageFix" result="shape"/>
<feGaussianBlur stdDeviation="2.5" result="effect1_foregroundBlur_6619_2261"/>
</filter>
<linearGradient id="paint0_linear_6619_2261" x1="65" y1="59.5" x2="65" y2="75" gradientUnits="userSpaceOnUse">
<stop stop-color="#A683FF" stop-opacity="0"/>
<stop offset="1" stop-color="#A683FF"/>
</linearGradient>
<linearGradient id="paint1_linear_6619_2261" x1="49.6267" y1="6.926" x2="74.2051" y2="27.3394" gradientUnits="userSpaceOnUse">
<stop stop-color="white"/>
<stop offset="1"/>
</linearGradient>
</defs>
</svg>
