<svg width="20" height="20" viewBox="0 0 20 20" fill="none" xmlns="http://www.w3.org/2000/svg">
<path d="M8.125 2.9165C8.125 1.88097 8.96447 1.0415 10 1.0415C11.0355 1.0415 11.875 1.88097 11.875 2.9165C11.875 3.95204 11.0355 4.7915 10 4.7915C8.96447 4.7915 8.125 3.95204 8.125 2.9165Z" fill="#9095A4"/>
<path opacity="0.4" d="M10.8784 6.0415C12.0181 6.04149 12.9367 6.04147 13.6591 6.13861C14.4092 6.23945 15.0408 6.4552 15.5424 6.9568C16.044 7.45839 16.2597 8.08996 16.3606 8.84005C16.4577 9.56252 16.4577 10.4811 16.4577 11.6208V13.3789C16.4577 14.5186 16.4577 15.4372 16.3606 16.1596C16.2597 16.9097 16.044 17.5413 15.5424 18.0429C15.0408 18.5445 14.4092 18.7602 13.6591 18.8611C12.9367 18.9582 12.0181 18.9582 10.8784 18.9582H9.12029C7.98063 18.9582 7.06203 18.9582 6.33956 18.8611C5.58947 18.7602 4.95791 18.5445 4.45631 18.0429C3.95471 17.5413 3.73897 16.9097 3.63812 16.1596C3.54099 15.4372 3.541 14.5186 3.54102 13.3789V13.3789V11.6208V11.6208C3.541 10.4811 3.54099 9.56252 3.63812 8.84005C3.73897 8.08996 3.95471 7.45839 4.45631 6.9568C4.9579 6.4552 5.58947 6.23945 6.33956 6.13861C7.06203 6.04147 7.98062 6.04149 9.12027 6.0415H9.12029H10.8784H10.8784Z" fill="#9095A4"/>
<path fill-rule="evenodd" clip-rule="evenodd" d="M7.5 10.2085C7.84518 10.2085 8.125 10.4883 8.125 10.8335V11.6668C8.125 12.012 7.84518 12.2918 7.5 12.2918C7.15482 12.2918 6.875 12.012 6.875 11.6668V10.8335C6.875 10.4883 7.15482 10.2085 7.5 10.2085Z" fill="#9095A4"/>
<path fill-rule="evenodd" clip-rule="evenodd" d="M12.5 10.2085C12.8452 10.2085 13.125 10.4883 13.125 10.8335V11.6668C13.125 12.012 12.8452 12.2918 12.5 12.2918C12.1548 12.2918 11.875 12.012 11.875 11.6668V10.8335C11.875 10.4883 12.1548 10.2085 12.5 10.2085Z" fill="#9095A4"/>
<path d="M7.83402 14.2085C8.03907 13.9351 8.4251 13.8776 8.70074 14.0774C8.74432 14.1019 8.86335 14.1666 8.97014 14.2067C9.18255 14.2863 9.52504 14.3752 10.0007 14.3752C10.4763 14.3752 10.8188 14.2863 11.0312 14.2067C11.138 14.1666 11.2571 14.1019 11.3006 14.0774C11.5763 13.8776 11.9623 13.9351 12.1674 14.2085C12.3745 14.4847 12.3185 14.8764 12.0424 15.0835C12.0136 15.1024 11.9173 15.1666 11.8696 15.1934C11.7743 15.247 11.6411 15.313 11.4701 15.3771C11.127 15.5058 10.6362 15.6252 10.0007 15.6252C9.36522 15.6252 8.87438 15.5058 8.53124 15.3771C8.36025 15.313 8.22708 15.247 8.13177 15.1934C8.08413 15.1666 7.98779 15.1024 7.95902 15.0835C7.68288 14.8764 7.62691 14.4847 7.83402 14.2085Z" fill="#9095A4"/>
<path d="M2.53623 9.45459C2.19042 9.52096 1.86309 9.65123 1.5902 9.92412C1.27166 10.2427 1.14744 10.6354 1.09236 11.0451C1.04096 11.4274 1.04099 11.987 1.04102 12.5411C1.04099 13.0951 1.04096 13.5725 1.09236 13.9548C1.14744 14.3645 1.27166 14.7572 1.5902 15.0758C1.86309 15.3487 2.19042 15.4789 2.53623 15.5453C2.49928 14.916 2.49931 14.2063 2.49935 13.4423V11.5576C2.49931 10.7936 2.49928 10.0839 2.53623 9.45459Z" fill="#9095A4"/>
<path d="M17.4629 15.5453C17.8087 15.4789 18.136 15.3487 18.4089 15.0758C18.7275 14.7572 18.8517 14.3645 18.9068 13.9548C18.9582 13.5725 18.9581 13.0951 18.9581 12.5411C18.9581 11.987 18.9582 11.4274 18.9068 11.0451C18.8517 10.6354 18.7275 10.2427 18.4089 9.92412C18.136 9.65123 17.8087 9.52096 17.4629 9.45459C17.4998 10.0839 17.4998 10.7936 17.4998 11.5576V13.4423C17.4998 14.2063 17.4998 14.916 17.4629 15.5453Z" fill="#9095A4"/>
<path d="M10.625 4.1665C10.625 3.82133 10.3452 3.5415 10 3.5415C9.65482 3.5415 9.375 3.82133 9.375 4.1665V6.0415H10.625V4.1665Z" fill="#9095A4"/>
</svg>
