<svg width="27" height="26" viewBox="0 0 27 26" fill="none" xmlns="http://www.w3.org/2000/svg">
<path opacity="0.6" d="M18 1.25C18.3507 1.25 18.6546 1.49305 18.7317 1.83518L19.2704 4.22676C19.6637 5.97278 21.0272 7.33629 22.7732 7.7296L25.1648 8.26833C25.507 8.3454 25.75 8.64929 25.75 9C25.75 9.35071 25.507 9.6546 25.1648 9.73167L22.7732 10.2704C21.0272 10.6637 19.6637 12.0272 19.2704 13.7732L18.7317 16.1648C18.6546 16.507 18.3507 16.75 18 16.75C17.6493 16.75 17.3454 16.507 17.2683 16.1648L16.7296 13.7732C16.3363 12.0272 14.9728 10.6637 13.2268 10.2704L10.8352 9.73167C10.493 9.6546 10.25 9.35071 10.25 9C10.25 8.64929 10.493 8.3454 10.8352 8.26833L13.2268 7.7296C14.9728 7.33629 16.3363 5.97278 16.7296 4.22676L17.2683 1.83518C17.3454 1.49305 17.6493 1.25 18 1.25Z" fill="white"/>
<path d="M7.75 14C8.10071 14 8.4046 14.243 8.48167 14.5852L8.86647 16.2935C9.12923 17.4599 10.0401 18.3708 11.2065 18.6335L12.9148 19.0183C13.257 19.0954 13.5 19.3993 13.5 19.75C13.5 20.1007 13.257 20.4046 12.9148 20.4817L11.2065 20.8665C10.0401 21.1292 9.12923 22.0401 8.86647 23.2065L8.48167 24.9148C8.4046 25.257 8.10071 25.5 7.75 25.5C7.39929 25.5 7.0954 25.257 7.01833 24.9148L6.63353 23.2065C6.37077 22.0401 5.45988 21.1292 4.29345 20.8665L2.58518 20.4817C2.24305 20.4046 2 20.1007 2 19.75C2 19.3993 2.24305 19.0954 2.58518 19.0183L4.29345 18.6335C5.45988 18.3708 6.37077 17.4599 6.63353 16.2935L7.01833 14.5852C7.0954 14.243 7.39929 14 7.75 14Z" fill="white"/>
<path opacity="0.32" d="M3 3C3.18298 3 3.34153 3.12681 3.38174 3.30531L3.58251 4.19658C3.7196 4.80516 4.19484 5.2804 4.80342 5.41749L5.69469 5.61826C5.87319 5.65847 6 5.81702 6 6C6 6.18298 5.87319 6.34153 5.69469 6.38174L4.80342 6.58251C4.19484 6.7196 3.7196 7.19484 3.58251 7.80342L3.38174 8.69469C3.34153 8.87319 3.18298 9 3 9C2.81702 9 2.65847 8.87319 2.61826 8.69469L2.41749 7.80341C2.2804 7.19484 1.80516 6.7196 1.19658 6.58251L0.305313 6.38174C0.126806 6.34153 0 6.18298 0 6C0 5.81702 0.126806 5.65847 0.305313 5.61826L1.19658 5.41749C1.80516 5.2804 2.2804 4.80516 2.41749 4.19658L2.61826 3.30531C2.65847 3.12681 2.81702 3 3 3Z" fill="white"/>
</svg>
