<svg width="40" height="40" viewBox="0 0 40 40" fill="none" xmlns="http://www.w3.org/2000/svg">
<rect x="1" y="1" width="38" height="38" rx="7" fill="url(#paint0_radial_2280_2084)"/>
<rect x="1" y="1" width="38" height="38" rx="7" stroke="url(#paint1_linear_2280_2084)" stroke-width="2"/>
<path d="M20.8319 14.1667C20.8319 14.4592 20.7816 14.74 20.6893 15.0009L24.9978 15.0009V19.3093C25.2586 19.217 25.5394 19.1667 25.8319 19.1667C27.2126 19.1667 28.3319 20.286 28.3319 21.6667C28.3319 23.0475 27.2126 24.1667 25.8319 24.1667C25.5394 24.1667 25.2586 24.1165 24.9978 24.0242V28.3326H20.6899C20.7819 28.0722 20.8319 27.792 20.8319 27.5001C20.8319 26.1194 19.7126 25.0001 18.3319 25.0001C16.9512 25.0001 15.8319 26.1194 15.8319 27.5001C15.8319 27.792 15.8819 28.0722 15.9739 28.3326H11.6662L11.666 24.0248C11.9264 24.1167 12.2067 24.1667 12.4985 24.1667C13.8793 24.1667 14.9985 23.0475 14.9985 21.6667C14.9985 20.286 13.8793 19.1667 12.4985 19.1667C12.2067 19.1667 11.9264 19.2168 11.666 19.3087L11.6665 15.0009H15.9744C15.8821 14.74 15.8319 14.4592 15.8319 14.1667C15.8319 12.786 16.9512 11.6667 18.3319 11.6667C19.7126 11.6667 20.8319 12.786 20.8319 14.1667Z" stroke="white"/>
<defs>
<radialGradient id="paint0_radial_2280_2084" cx="0" cy="0" r="1" gradientUnits="userSpaceOnUse" gradientTransform="translate(3.18182 2.27273) rotate(46.1535) scale(47.9001)">
<stop stop-color="#272727"/>
<stop offset="1" stop-color="#0C0C11"/>
</radialGradient>
<linearGradient id="paint1_linear_2280_2084" x1="3.63636" y1="2.27273" x2="35.9091" y2="40" gradientUnits="userSpaceOnUse">
<stop stop-color="#0C0C11"/>
<stop offset="1" stop-color="#A683FF"/>
</linearGradient>
</defs>
</svg>
