<svg width="130" height="72" viewBox="0 0 130 72" fill="none" xmlns="http://www.w3.org/2000/svg">
<g opacity="0.5">
<g opacity="0.11">
<path d="M67.0373 41.2557C66.1116 40.6123 64.9711 40.6117 64.0449 41.2539L46.2106 53.6202C45.9298 53.8153 45.9298 54.3031 46.2106 54.4982L64.1935 66.9966C65.0106 67.5643 66.0172 67.5643 66.8341 66.9966L84.8446 54.5101C85.1255 54.3151 85.1255 53.8273 84.8446 53.6322L67.0373 41.2557Z" fill="url(#paint1_linear_6619_2263)"/>
</g>
<g opacity="0.11">
<path d="M67.0373 37.6393C66.1116 36.9959 64.9711 36.9952 64.0449 37.6374L46.2106 50.0038C45.9298 50.1989 45.9298 50.6867 46.2106 50.8818L64.1935 63.3801C65.0106 63.9479 66.0172 63.9479 66.8341 63.3801L84.8446 50.8937C85.1255 50.6986 85.1255 50.2108 84.8446 50.0157L67.0373 37.6393Z" fill="url(#paint2_linear_6619_2263)"/>
</g>
<g opacity="0.11">
<path d="M67.0373 34.023C66.1116 33.3797 64.9711 33.379 64.0449 34.0212L46.2106 46.3876C45.9298 46.5826 45.9298 47.0705 46.2106 47.2655L64.1935 59.7639C65.0106 60.3316 66.0172 60.3316 66.8341 59.7639L84.8446 47.2775C85.1255 47.0824 85.1255 46.5946 84.8446 46.3995L67.0373 34.023Z" fill="url(#paint3_linear_6619_2263)"/>
</g>
<g opacity="0.11">
<path d="M67.0373 30.4064C66.1116 29.763 64.9711 29.7623 64.0449 30.4045L46.2106 42.7709C45.9298 42.9659 45.9298 43.4538 46.2106 43.6488L64.1935 56.1472C65.0106 56.715 66.0172 56.715 66.8341 56.1472L84.8446 43.6608C85.1255 43.4657 85.1255 42.9779 84.8446 42.7828L67.0373 30.4064Z" fill="url(#paint4_linear_6619_2263)"/>
</g>
<path opacity="0.11" d="M84.8468 42.7823L67.0393 30.4059C66.1135 29.7625 64.9731 29.7618 64.0468 30.404L46.2126 42.7707C46.0722 42.8684 46.002 43.039 46.002 43.2098V54.0597C46.002 54.2306 46.0722 54.4012 46.2126 54.4989L64.1954 66.9972C65.0125 67.565 66.0192 67.565 66.836 66.9972L84.8466 54.5108C84.987 54.4131 85.0572 54.2425 85.0572 54.0717V43.2218C85.0572 43.0506 84.987 42.88 84.8468 42.7823Z" fill="#A683FF"/>
</g>
<g opacity="0.11">
<path d="M67.0373 26.2943C66.1116 25.6509 64.9711 25.6503 64.0449 26.2925L46.2106 38.6588C45.9298 38.8539 45.9298 39.3417 46.2106 39.5368L64.1935 52.0351C65.0106 52.6029 66.0172 52.6029 66.8341 52.0351L84.8446 39.5487C85.1255 39.3537 85.1255 38.8658 84.8446 38.6708L67.0373 26.2943Z" fill="url(#paint5_linear_6619_2263)"/>
</g>
<g opacity="0.11">
<path d="M67.0373 22.6778C66.1116 22.0344 64.9711 22.0338 64.0449 22.676L46.2106 35.0424C45.9298 35.2374 45.9298 35.7253 46.2106 35.9203L64.1935 48.4187C65.0106 48.9864 66.0172 48.9864 66.8341 48.4187L84.8446 35.9323C85.1255 35.7372 85.1255 35.2494 84.8446 35.0543L67.0373 22.6778Z" fill="url(#paint6_linear_6619_2263)"/>
</g>
<g opacity="0.11">
<path d="M67.0373 19.0611C66.1116 18.4177 64.9711 18.4171 64.0449 19.0593L46.2106 31.4257C45.9298 31.6207 45.9298 32.1086 46.2106 32.3036L64.1935 44.802C65.0106 45.3697 66.0172 45.3697 66.8341 44.802L84.8446 32.3156C85.1255 32.1205 85.1255 31.6327 84.8446 31.4376L67.0373 19.0611Z" fill="url(#paint7_linear_6619_2263)"/>
</g>
<g opacity="0.11">
<path d="M67.0373 15.4444C66.1116 14.801 64.9711 14.8004 64.0449 15.4426L46.2106 27.809C45.9298 28.004 45.9298 28.4919 46.2106 28.6869L64.1935 41.1853C65.0106 41.753 66.0172 41.753 66.8341 41.1853L84.8446 28.6989C85.1255 28.5038 85.1255 28.016 84.8446 27.8209L67.0373 15.4444Z" fill="#A683FF"/>
</g>
<path opacity="0.11" d="M84.8468 27.8211L67.0393 15.4449C66.1135 14.8015 64.9731 14.8009 64.0468 15.4431L46.2126 27.8094C46.0722 27.9071 46.002 28.0777 46.002 28.2486V39.0985C46.002 39.269 46.0722 39.4399 46.2126 39.5376L64.1954 52.036C65.0125 52.6037 66.0192 52.6037 66.836 52.036L84.8466 39.5496C84.987 39.4519 85.0572 39.2813 85.0572 39.1104V28.2605C85.0572 28.0893 84.987 27.9185 84.8468 27.8211Z" fill="#A683FF"/>
<g opacity="0.11">
<path d="M67.0373 11.3329C66.1116 10.6895 64.9711 10.6888 64.0449 11.331L46.2106 23.6974C45.9298 23.8925 45.9298 24.3803 46.2106 24.5754L64.1935 37.0737C65.0106 37.6415 66.0172 37.6415 66.8341 37.0737L84.8446 24.5873C85.1255 24.3922 85.1255 23.9044 84.8446 23.7093L67.0373 11.3329Z" fill="url(#paint8_linear_6619_2263)"/>
</g>
<g opacity="0.11">
<path d="M67.0373 7.71641C66.1116 7.07301 64.9711 7.0724 64.0449 7.71457L46.2106 20.0809C45.9298 20.276 45.9298 20.7638 46.2106 20.9589L64.1935 33.4569C65.0106 34.0247 66.0172 34.0247 66.8341 33.4569L84.8446 20.9705C85.1255 20.7755 85.1255 20.2876 84.8446 20.0926L67.0373 7.71641Z" fill="url(#paint9_linear_6619_2263)"/>
</g>
<g opacity="0.11">
<path d="M67.0373 4.09971C66.1116 3.45631 64.9711 3.4557 64.0449 4.09787L46.2106 16.4642C45.9298 16.6593 45.9298 17.1471 46.2106 17.3422L64.1935 29.8402C65.0106 30.408 66.0172 30.408 66.8341 29.8402L84.8446 17.3538C85.1255 17.1588 85.1255 16.6709 84.8446 16.4759L67.0373 4.09971Z" fill="url(#paint10_linear_6619_2263)"/>
</g>
<g opacity="0.11">
<path d="M67.0373 0.483008C66.1116 -0.16039 64.9711 -0.161002 64.0449 0.481172L46.2106 12.8475C45.9298 13.0426 45.9298 13.5304 46.2106 13.7255L64.1935 26.2239C65.0106 26.7916 66.0172 26.7916 66.8341 26.2239L84.8446 13.7374C85.1255 13.5424 85.1255 13.0545 84.8446 12.8595L67.0373 0.483008Z" fill="url(#paint11_linear_6619_2263)"/>
</g>
<path opacity="0.5" d="M84.8468 12.8595L67.0393 0.483008C66.1135 -0.16039 64.9731 -0.161002 64.0468 0.481172L46.2126 12.8475C46.0722 12.9452 46.002 13.1158 46.002 13.2867V24.1366C46.002 24.3074 46.0722 24.478 46.2126 24.5757L64.1954 37.074C65.0125 37.6418 66.0192 37.6418 66.836 37.074L84.8466 24.5876C84.987 24.4899 85.0572 24.3194 85.0572 24.1485V13.2986C85.0572 13.1277 84.987 12.9569 84.8468 12.8595Z" fill="#A683FF"/>
<g opacity="0.11">
<path d="M67.0373 0.483008C66.1116 -0.16039 64.9711 -0.161002 64.0449 0.481172L46.2106 12.8475C45.9298 13.0426 45.9298 13.5304 46.2106 13.7255L64.1935 26.2239C65.0106 26.7916 66.0172 26.7916 66.8341 26.2239L84.8446 13.7374C85.1255 13.5424 85.1255 13.0545 84.8446 12.8595L67.0373 0.483008Z" fill="url(#paint12_linear_6619_2263)"/>
</g>
<g opacity="0.5">
<path d="M66.1731 7.57206C65.7806 7.2992 65.2972 7.2989 64.9047 7.57114L56.9142 13.1118C56.789 13.1988 56.789 13.4165 56.9142 13.5035L64.9377 19.08C65.3023 19.3333 65.7513 19.3333 66.1158 19.08L74.1519 13.5087C74.277 13.4218 74.277 13.204 74.1519 13.117L66.1731 7.57206Z" fill="#A683FF"/>
</g>
<path d="M56.9119 13.4594L64.9024 7.91872C65.2952 7.64648 65.7785 7.64678 66.1708 7.91963L74.1493 13.4646C74.1575 13.4701 74.1605 13.4802 74.1677 13.4867C74.2697 13.3905 74.2666 13.1985 74.1493 13.117L66.1708 7.57206C65.7783 7.2992 65.2949 7.2989 64.9024 7.57114L56.9119 13.1118C56.7946 13.1933 56.7916 13.3853 56.8936 13.4815C56.9007 13.475 56.9038 13.4652 56.9119 13.4594Z" fill="#A683FF"/>
<path d="M84.8501 13.2376L66.8396 25.724C66.0224 26.2917 65.0158 26.2917 64.199 25.724L46.2161 13.2256C46.1469 13.1775 46.0951 13.1114 46.0599 13.0364C45.9528 13.2654 46.0047 13.5781 46.2161 13.7251L64.199 26.2234C65.0161 26.7912 66.0227 26.7912 66.8396 26.2234L84.8501 13.737C85.0615 13.59 85.1134 13.2771 85.0063 13.0483C84.9712 13.123 84.9193 13.1895 84.8501 13.2376Z" fill="#A683FF"/>
<path d="M48.1016 17.0598L48.5447 17.3676V17.0102L48.1016 16.7021V17.0598Z" fill="#A683FF"/>
<path d="M48.1016 19.4772L48.5447 19.7853V17.6931L48.1016 17.385V19.4772Z" fill="#A683FF"/>
<path d="M48.1016 20.6337L48.5447 20.9418V20.1113L48.1016 19.8032V20.6337Z" fill="#A683FF"/>
<path d="M48.1016 21.8322L48.5447 22.1403V21.3098L48.1016 21.0017V21.8322Z" fill="#A683FF"/>
<path d="M47.4414 17.7565L47.8848 18.0646V17.2341L47.4414 16.926V17.7565Z" fill="#A683FF"/>
<path d="M47.4414 19.3439L47.8848 19.652V18.4326L47.4414 18.1245V19.3439Z" fill="#A683FF"/>
<path d="M47.4414 20.8054L47.8848 21.1134V20.0673L47.4414 19.7593V20.8054Z" fill="#A683FF"/>
<path d="M48.1016 23.0314L48.5447 23.3395V22.509L48.1016 22.2009V23.0314Z" fill="#A683FF"/>
<path d="M47.4414 16.6001L47.8848 16.9079V16.5505L47.4414 16.2424V16.6001Z" fill="#A683FF"/>
<path d="M47.7734 23.9644L48.5471 24.5018V24.1552L47.7734 23.6174V23.9644Z" fill="#A683FF"/>
<defs>
<filter id="filter0_d_6619_2263" x="0" y="45" width="130" height="27" filterUnits="userSpaceOnUse" color-interpolation-filters="sRGB">
<feFlood flood-opacity="0" result="BackgroundImageFix"/>
<feColorMatrix in="SourceAlpha" type="matrix" values="0 0 0 0 0 0 0 0 0 0 0 0 0 0 0 0 0 0 127 0" result="hardAlpha"/>
<feOffset dy="4"/>
<feGaussianBlur stdDeviation="2"/>
<feComposite in2="hardAlpha" operator="out"/>
<feColorMatrix type="matrix" values="0 0 0 0 0.494118 0 0 0 0 0.843137 0 0 0 0 0.388235 0 0 0 0.15 0"/>
<feBlend mode="normal" in2="BackgroundImageFix" result="effect1_dropShadow_6619_2263"/>
<feBlend mode="normal" in="SourceGraphic" in2="effect1_dropShadow_6619_2263" result="shape"/>
</filter>
<linearGradient id="paint0_linear_6619_2263" x1="65" y1="48.5" x2="65" y2="64" gradientUnits="userSpaceOnUse">
<stop stop-color="#A683FF" stop-opacity="0"/>
<stop offset="1" stop-color="#A683FF"/>
</linearGradient>
<linearGradient id="paint1_linear_6619_2263" x1="46.0001" y1="54.0974" x2="85.0553" y2="54.0974" gradientUnits="userSpaceOnUse">
<stop stop-color="#DCCFFF"/>
<stop offset="0.0726" stop-color="#DCCFFF"/>
<stop offset="0.2791" stop-color="#DCCFFF"/>
<stop offset="0.4801" stop-color="#DCCFFF"/>
<stop offset="0.6715" stop-color="#DCCFFF"/>
<stop offset="0.8493" stop-color="white"/>
<stop offset="1" stop-color="#DCCFFF"/>
</linearGradient>
<linearGradient id="paint2_linear_6619_2263" x1="46.0001" y1="50.481" x2="85.0553" y2="50.481" gradientUnits="userSpaceOnUse">
<stop stop-color="#DCCFFF"/>
<stop offset="0.0726" stop-color="#DCCFFF"/>
<stop offset="0.2791" stop-color="#DCCFFF"/>
<stop offset="0.4801" stop-color="#DCCFFF"/>
<stop offset="0.6715" stop-color="#DCCFFF"/>
<stop offset="0.8493" stop-color="white"/>
<stop offset="1" stop-color="#DCCFFF"/>
</linearGradient>
<linearGradient id="paint3_linear_6619_2263" x1="46.0001" y1="46.8647" x2="85.0553" y2="46.8647" gradientUnits="userSpaceOnUse">
<stop stop-color="#DCCFFF"/>
<stop offset="0.0726" stop-color="#DCCFFF"/>
<stop offset="0.2791" stop-color="#DCCFFF"/>
<stop offset="0.4801" stop-color="#DCCFFF"/>
<stop offset="0.6715" stop-color="#DCCFFF"/>
<stop offset="0.8493" stop-color="white"/>
<stop offset="1" stop-color="#DCCFFF"/>
</linearGradient>
<linearGradient id="paint4_linear_6619_2263" x1="46.0001" y1="43.248" x2="85.0553" y2="43.248" gradientUnits="userSpaceOnUse">
<stop stop-color="#DCCFFF"/>
<stop offset="0.0726" stop-color="#DCCFFF"/>
<stop offset="0.2791" stop-color="#DCCFFF"/>
<stop offset="0.4801" stop-color="#DCCFFF"/>
<stop offset="0.6715" stop-color="#DCCFFF"/>
<stop offset="0.8493" stop-color="white"/>
<stop offset="1" stop-color="#DCCFFF"/>
</linearGradient>
<linearGradient id="paint5_linear_6619_2263" x1="46.0001" y1="39.1363" x2="85.0553" y2="39.1363" gradientUnits="userSpaceOnUse">
<stop stop-color="#A683FF"/>
<stop offset="0.0726" stop-color="#A683FF"/>
<stop offset="0.2791" stop-color="#A683FF"/>
<stop offset="0.4801" stop-color="#A683FF"/>
<stop offset="0.6715" stop-color="#A683FF"/>
<stop offset="0.8493" stop-color="#5A19FF"/>
<stop offset="1" stop-color="#B5C5A1"/>
</linearGradient>
<linearGradient id="paint6_linear_6619_2263" x1="46.0001" y1="35.5198" x2="85.0553" y2="35.5198" gradientUnits="userSpaceOnUse">
<stop stop-color="#A683FF"/>
<stop offset="0.0726" stop-color="#A683FF"/>
<stop offset="0.2791" stop-color="#A683FF"/>
<stop offset="0.4801" stop-color="#A683FF"/>
<stop offset="0.6715" stop-color="#A683FF"/>
<stop offset="0.8493" stop-color="#5A19FF"/>
<stop offset="1" stop-color="#B5C5A1"/>
</linearGradient>
<linearGradient id="paint7_linear_6619_2263" x1="46.0001" y1="31.9031" x2="85.0553" y2="31.9031" gradientUnits="userSpaceOnUse">
<stop stop-color="#A683FF"/>
<stop offset="0.0726" stop-color="#A683FF"/>
<stop offset="0.2791" stop-color="#A683FF"/>
<stop offset="0.4801" stop-color="#A683FF"/>
<stop offset="0.6715" stop-color="#A683FF"/>
<stop offset="0.8493" stop-color="#5A19FF"/>
<stop offset="1" stop-color="#B5C5A1"/>
</linearGradient>
<linearGradient id="paint8_linear_6619_2263" x1="46.0001" y1="24.1748" x2="85.0553" y2="24.1748" gradientUnits="userSpaceOnUse">
<stop stop-color="#A683FF"/>
<stop offset="0.0726" stop-color="#DCCFFF"/>
<stop offset="0.2791" stop-color="#DCCFFF"/>
<stop offset="0.4801" stop-color="#DCCFFF"/>
<stop offset="0.6715" stop-color="#DCCFFF"/>
<stop offset="0.8493" stop-color="#DCCFFF"/>
<stop offset="1" stop-color="#DCCFFF"/>
</linearGradient>
<linearGradient id="paint9_linear_6619_2263" x1="46.0001" y1="20.5583" x2="85.0553" y2="20.5583" gradientUnits="userSpaceOnUse">
<stop stop-color="#A683FF"/>
<stop offset="0.0726" stop-color="#A683FF"/>
<stop offset="0.2791" stop-color="#A683FF"/>
<stop offset="0.4801" stop-color="#A683FF"/>
<stop offset="0.6715" stop-color="#A683FF"/>
<stop offset="0.8493" stop-color="#A683FF"/>
<stop offset="1" stop-color="#A683FF"/>
</linearGradient>
<linearGradient id="paint10_linear_6619_2263" x1="46.0001" y1="16.9416" x2="85.0553" y2="16.9416" gradientUnits="userSpaceOnUse">
<stop stop-color="#A683FF"/>
<stop offset="0.0726" stop-color="#A683FF"/>
<stop offset="0.2791" stop-color="#A683FF"/>
<stop offset="0.4801" stop-color="#A683FF"/>
<stop offset="0.6715" stop-color="#A683FF"/>
<stop offset="0.8493" stop-color="#A683FF"/>
<stop offset="1" stop-color="#A683FF"/>
</linearGradient>
<linearGradient id="paint11_linear_6619_2263" x1="46.0001" y1="13.3249" x2="85.0553" y2="13.3249" gradientUnits="userSpaceOnUse">
<stop stop-color="#A683FF"/>
<stop offset="0.0726" stop-color="#DCCFFF"/>
<stop offset="0.2791" stop-color="#DCCFFF"/>
<stop offset="0.4801" stop-color="#DCCFFF"/>
<stop offset="0.6715" stop-color="#DCCFFF"/>
<stop offset="0.8493" stop-color="#DCCFFF"/>
<stop offset="1" stop-color="#DCCFFF"/>
</linearGradient>
<linearGradient id="paint12_linear_6619_2263" x1="46.0001" y1="13.3249" x2="85.0553" y2="13.3249" gradientUnits="userSpaceOnUse">
<stop stop-color="#A683FF"/>
<stop offset="0.0726" stop-color="#DCCFFF"/>
<stop offset="0.2791" stop-color="#DCCFFF"/>
<stop offset="0.4801" stop-color="#DCCFFF"/>
<stop offset="0.6715" stop-color="#DCCFFF"/>
<stop offset="0.8493" stop-color="#DCCFFF"/>
<stop offset="1" stop-color="#DCCFFF"/>
</linearGradient>
</defs>
</svg>
